%TF.GenerationSoftware,KiCad,Pcbnew,7.0.9*%
%TF.CreationDate,2024-01-09T17:40:00-08:00*%
%TF.ProjectId,RS-232 Logger,52532d32-3332-4204-9c6f-676765722e6b,rev?*%
%TF.SameCoordinates,Original*%
%TF.FileFunction,Paste,Top*%
%TF.FilePolarity,Positive*%
%FSLAX46Y46*%
G04 Gerber Fmt 4.6, Leading zero omitted, Abs format (unit mm)*
G04 Created by KiCad (PCBNEW 7.0.9) date 2024-01-09 17:40:00*
%MOMM*%
%LPD*%
G01*
G04 APERTURE LIST*
G04 Aperture macros list*
%AMRoundRect*
0 Rectangle with rounded corners*
0 $1 Rounding radius*
0 $2 $3 $4 $5 $6 $7 $8 $9 X,Y pos of 4 corners*
0 Add a 4 corners polygon primitive as box body*
4,1,4,$2,$3,$4,$5,$6,$7,$8,$9,$2,$3,0*
0 Add four circle primitives for the rounded corners*
1,1,$1+$1,$2,$3*
1,1,$1+$1,$4,$5*
1,1,$1+$1,$6,$7*
1,1,$1+$1,$8,$9*
0 Add four rect primitives between the rounded corners*
20,1,$1+$1,$2,$3,$4,$5,0*
20,1,$1+$1,$4,$5,$6,$7,0*
20,1,$1+$1,$6,$7,$8,$9,0*
20,1,$1+$1,$8,$9,$2,$3,0*%
G04 Aperture macros list end*
%ADD10RoundRect,0.250000X-0.475000X0.250000X-0.475000X-0.250000X0.475000X-0.250000X0.475000X0.250000X0*%
%ADD11R,0.599999X1.000000*%
%ADD12RoundRect,0.250000X-0.250000X-0.475000X0.250000X-0.475000X0.250000X0.475000X-0.250000X0.475000X0*%
%ADD13RoundRect,0.250000X0.250000X0.475000X-0.250000X0.475000X-0.250000X-0.475000X0.250000X-0.475000X0*%
%ADD14RoundRect,0.250000X-0.650000X1.000000X-0.650000X-1.000000X0.650000X-1.000000X0.650000X1.000000X0*%
%ADD15RoundRect,0.200000X0.200000X0.275000X-0.200000X0.275000X-0.200000X-0.275000X0.200000X-0.275000X0*%
%ADD16R,1.609999X0.430000*%
%ADD17R,1.136599X2.177999*%
%ADD18R,2.177999X1.136599*%
%ADD19R,2.440000X1.120000*%
%ADD20R,1.879600X2.260600*%
G04 APERTURE END LIST*
D10*
%TO.C,C2*%
X40538400Y-54320400D03*
X40538400Y-56220400D03*
%TD*%
D11*
%TO.C,U2*%
X43672801Y-71624599D03*
X42722800Y-71624599D03*
X41772802Y-71624599D03*
X41772802Y-74374599D03*
X43672801Y-74374599D03*
%TD*%
D12*
%TO.C,C3*%
X43296800Y-49530000D03*
X45196800Y-49530000D03*
%TD*%
%TO.C,C6*%
X50053200Y-44094400D03*
X51953200Y-44094400D03*
%TD*%
D10*
%TO.C,C1*%
X40538400Y-50916800D03*
X40538400Y-52816800D03*
%TD*%
D13*
%TO.C,C8*%
X39050000Y-69850000D03*
X37150000Y-69850000D03*
%TD*%
D14*
%TO.C,D2*%
X53225200Y-61042800D03*
X53225200Y-65042800D03*
%TD*%
D15*
%TO.C,R1*%
X54050200Y-67970400D03*
X52400200Y-67970400D03*
%TD*%
D16*
%TO.C,U1*%
X42824203Y-51674601D03*
X42824203Y-52324599D03*
X42824203Y-52974601D03*
X42824203Y-53624599D03*
X42824203Y-54274598D03*
X42824203Y-54924599D03*
X42824203Y-55574598D03*
X42824203Y-56224599D03*
X49814201Y-56224599D03*
X49814201Y-55574601D03*
X49814201Y-54924599D03*
X49814201Y-54274601D03*
X49814201Y-53624602D03*
X49814201Y-52974601D03*
X49814201Y-52324602D03*
X49814201Y-51674601D03*
%TD*%
D17*
%TO.C,C7*%
X47345600Y-72267801D03*
X47345600Y-76576199D03*
%TD*%
D15*
%TO.C,R2*%
X48513000Y-67970400D03*
X46863000Y-67970400D03*
%TD*%
D17*
%TO.C,C9*%
X38100000Y-72267801D03*
X38100000Y-76576199D03*
%TD*%
D18*
%TO.C,C5*%
X50200002Y-47599600D03*
X54508400Y-47599600D03*
%TD*%
D19*
%TO.C,SW1*%
X48806400Y-35509200D03*
X48806400Y-38049200D03*
X57416400Y-38049200D03*
X57416400Y-35509200D03*
%TD*%
D20*
%TO.C,D1*%
X51435000Y-73101200D03*
X55854600Y-73101200D03*
%TD*%
D14*
%TO.C,D3*%
X47688000Y-61042800D03*
X47688000Y-65042800D03*
%TD*%
%TO.C,D4*%
X41999400Y-61042800D03*
X41999400Y-65042800D03*
%TD*%
D13*
%TO.C,C4*%
X48666400Y-49530000D03*
X46766400Y-49530000D03*
%TD*%
D15*
%TO.C,R3*%
X42824400Y-67970400D03*
X41174400Y-67970400D03*
%TD*%
M02*
