%TF.GenerationSoftware,KiCad,Pcbnew,7.0.9*%
%TF.CreationDate,2024-01-09T17:40:00-08:00*%
%TF.ProjectId,RS-232 Logger,52532d32-3332-4204-9c6f-676765722e6b,rev?*%
%TF.SameCoordinates,Original*%
%TF.FileFunction,Copper,L1,Top*%
%TF.FilePolarity,Positive*%
%FSLAX46Y46*%
G04 Gerber Fmt 4.6, Leading zero omitted, Abs format (unit mm)*
G04 Created by KiCad (PCBNEW 7.0.9) date 2024-01-09 17:40:00*
%MOMM*%
%LPD*%
G01*
G04 APERTURE LIST*
G04 Aperture macros list*
%AMRoundRect*
0 Rectangle with rounded corners*
0 $1 Rounding radius*
0 $2 $3 $4 $5 $6 $7 $8 $9 X,Y pos of 4 corners*
0 Add a 4 corners polygon primitive as box body*
4,1,4,$2,$3,$4,$5,$6,$7,$8,$9,$2,$3,0*
0 Add four circle primitives for the rounded corners*
1,1,$1+$1,$2,$3*
1,1,$1+$1,$4,$5*
1,1,$1+$1,$6,$7*
1,1,$1+$1,$8,$9*
0 Add four rect primitives between the rounded corners*
20,1,$1+$1,$2,$3,$4,$5,0*
20,1,$1+$1,$4,$5,$6,$7,0*
20,1,$1+$1,$6,$7,$8,$9,0*
20,1,$1+$1,$8,$9,$2,$3,0*%
G04 Aperture macros list end*
%TA.AperFunction,SMDPad,CuDef*%
%ADD10RoundRect,0.250000X-0.475000X0.250000X-0.475000X-0.250000X0.475000X-0.250000X0.475000X0.250000X0*%
%TD*%
%TA.AperFunction,SMDPad,CuDef*%
%ADD11R,0.599999X1.000000*%
%TD*%
%TA.AperFunction,SMDPad,CuDef*%
%ADD12RoundRect,0.250000X-0.250000X-0.475000X0.250000X-0.475000X0.250000X0.475000X-0.250000X0.475000X0*%
%TD*%
%TA.AperFunction,ComponentPad*%
%ADD13R,2.400000X2.400000*%
%TD*%
%TA.AperFunction,ComponentPad*%
%ADD14C,2.400000*%
%TD*%
%TA.AperFunction,SMDPad,CuDef*%
%ADD15RoundRect,0.250000X0.250000X0.475000X-0.250000X0.475000X-0.250000X-0.475000X0.250000X-0.475000X0*%
%TD*%
%TA.AperFunction,SMDPad,CuDef*%
%ADD16RoundRect,0.250000X-0.650000X1.000000X-0.650000X-1.000000X0.650000X-1.000000X0.650000X1.000000X0*%
%TD*%
%TA.AperFunction,ComponentPad*%
%ADD17R,1.700000X1.700000*%
%TD*%
%TA.AperFunction,ComponentPad*%
%ADD18O,1.700000X1.700000*%
%TD*%
%TA.AperFunction,SMDPad,CuDef*%
%ADD19RoundRect,0.200000X0.200000X0.275000X-0.200000X0.275000X-0.200000X-0.275000X0.200000X-0.275000X0*%
%TD*%
%TA.AperFunction,SMDPad,CuDef*%
%ADD20R,1.609999X0.430000*%
%TD*%
%TA.AperFunction,SMDPad,CuDef*%
%ADD21R,1.136599X2.177999*%
%TD*%
%TA.AperFunction,SMDPad,CuDef*%
%ADD22R,2.177999X1.136599*%
%TD*%
%TA.AperFunction,SMDPad,CuDef*%
%ADD23R,2.440000X1.120000*%
%TD*%
%TA.AperFunction,SMDPad,CuDef*%
%ADD24R,1.879600X2.260600*%
%TD*%
%TA.AperFunction,ViaPad*%
%ADD25C,0.800000*%
%TD*%
%TA.AperFunction,Conductor*%
%ADD26C,0.254000*%
%TD*%
%TA.AperFunction,Conductor*%
%ADD27C,0.250000*%
%TD*%
G04 APERTURE END LIST*
D10*
%TO.P,C2,1*%
%TO.N,Net-(U1-C2+)*%
X40538400Y-54320400D03*
%TO.P,C2,2*%
%TO.N,Net-(U1-C2-)*%
X40538400Y-56220400D03*
%TD*%
D11*
%TO.P,U2,1,GND*%
%TO.N,GND*%
X43672801Y-71624599D03*
%TO.P,U2,2,IN*%
%TO.N,Net-(D1-K)*%
X42722800Y-71624599D03*
%TO.P,U2,3,OUT*%
%TO.N,+3.3V*%
X41772802Y-71624599D03*
%TO.P,U2,4,NC*%
%TO.N,unconnected-(U2-NC-Pad4)*%
X41772802Y-74374599D03*
%TO.P,U2,5,NC*%
%TO.N,unconnected-(U2-NC-Pad5)*%
X43672801Y-74374599D03*
%TD*%
D12*
%TO.P,C3,1*%
%TO.N,Net-(U1-VS+)*%
X43296800Y-49530000D03*
%TO.P,C3,2*%
%TO.N,GND*%
X45196800Y-49530000D03*
%TD*%
D13*
%TO.P,J2,1,Pin_1*%
%TO.N,GND*%
X63246000Y-73086200D03*
D14*
%TO.P,J2,2,Pin_2*%
%TO.N,/VIN*%
X63246000Y-69586200D03*
%TO.P,J2,3,Pin_3*%
%TO.N,Net-(J2-Pin_3)*%
X63246000Y-66086200D03*
%TO.P,J2,4,Pin_4*%
%TO.N,Net-(J2-Pin_4)*%
X63246000Y-62586200D03*
%TO.P,J2,5,Pin_5*%
%TO.N,Net-(J2-Pin_5)*%
X63246000Y-59086200D03*
%TD*%
D12*
%TO.P,C6,1*%
%TO.N,+3.3V*%
X50053200Y-44094400D03*
%TO.P,C6,2*%
%TO.N,GND*%
X51953200Y-44094400D03*
%TD*%
D10*
%TO.P,C1,1*%
%TO.N,Net-(U1-C1+)*%
X40538400Y-50916800D03*
%TO.P,C1,2*%
%TO.N,Net-(U1-C1-)*%
X40538400Y-52816800D03*
%TD*%
D15*
%TO.P,C8,1*%
%TO.N,+3.3V*%
X39050000Y-69850000D03*
%TO.P,C8,2*%
%TO.N,GND*%
X37150000Y-69850000D03*
%TD*%
D16*
%TO.P,D2,1,A1*%
%TO.N,GND*%
X53225200Y-61042800D03*
%TO.P,D2,2,A2*%
%TO.N,/CTD_TX*%
X53225200Y-65042800D03*
%TD*%
D17*
%TO.P,J3,1,Pin_1*%
%TO.N,GND*%
X66446400Y-38150800D03*
D18*
%TO.P,J3,2,Pin_2*%
X66446400Y-40690800D03*
%TO.P,J3,3,Pin_3*%
%TO.N,+3.3V*%
X66446400Y-43230800D03*
%TO.P,J3,4,Pin_4*%
%TO.N,/LOG_RX*%
X66446400Y-45770800D03*
%TO.P,J3,5,Pin_5*%
%TO.N,/LOG_TX*%
X66446400Y-48310800D03*
%TO.P,J3,6,Pin_6*%
%TO.N,/LOG_DTR*%
X66446400Y-50850800D03*
%TD*%
D19*
%TO.P,R1,1*%
%TO.N,Net-(J2-Pin_3)*%
X54050200Y-67970400D03*
%TO.P,R1,2*%
%TO.N,/CTD_TX*%
X52400200Y-67970400D03*
%TD*%
D20*
%TO.P,U1,1,C1+*%
%TO.N,Net-(U1-C1+)*%
X42824203Y-51674601D03*
%TO.P,U1,2,VS+*%
%TO.N,Net-(U1-VS+)*%
X42824203Y-52324599D03*
%TO.P,U1,3,C1-*%
%TO.N,Net-(U1-C1-)*%
X42824203Y-52974601D03*
%TO.P,U1,4,C2+*%
%TO.N,Net-(U1-C2+)*%
X42824203Y-53624599D03*
%TO.P,U1,5,C2-*%
%TO.N,Net-(U1-C2-)*%
X42824203Y-54274598D03*
%TO.P,U1,6,VS-*%
%TO.N,Net-(U1-VS-)*%
X42824203Y-54924599D03*
%TO.P,U1,7,T2OUT*%
%TO.N,unconnected-(U1-T2OUT-Pad7)*%
X42824203Y-55574598D03*
%TO.P,U1,8,R2IN*%
%TO.N,/CTD_DTR*%
X42824203Y-56224599D03*
%TO.P,U1,9,R2OUT*%
%TO.N,/LOG_DTR*%
X49814201Y-56224599D03*
%TO.P,U1,10,T2IN*%
%TO.N,GND*%
X49814201Y-55574601D03*
%TO.P,U1,11,T1IN*%
%TO.N,Net-(U1-T1IN)*%
X49814201Y-54924599D03*
%TO.P,U1,12,R1OUT*%
%TO.N,Net-(U1-R1OUT)*%
X49814201Y-54274601D03*
%TO.P,U1,13,R1IN*%
%TO.N,/CTD_TX*%
X49814201Y-53624602D03*
%TO.P,U1,14,T1OUT*%
%TO.N,/CTD_RX*%
X49814201Y-52974601D03*
%TO.P,U1,15,GND*%
%TO.N,GND*%
X49814201Y-52324602D03*
%TO.P,U1,16,VCC*%
%TO.N,+3.3V*%
X49814201Y-51674601D03*
%TD*%
D21*
%TO.P,C7,1*%
%TO.N,Net-(D1-K)*%
X47345600Y-72267801D03*
%TO.P,C7,2*%
%TO.N,GND*%
X47345600Y-76576199D03*
%TD*%
D19*
%TO.P,R2,1*%
%TO.N,Net-(J2-Pin_4)*%
X48513000Y-67970400D03*
%TO.P,R2,2*%
%TO.N,/CTD_RX*%
X46863000Y-67970400D03*
%TD*%
D21*
%TO.P,C9,1*%
%TO.N,+3.3V*%
X38100000Y-72267801D03*
%TO.P,C9,2*%
%TO.N,GND*%
X38100000Y-76576199D03*
%TD*%
D22*
%TO.P,C5,1*%
%TO.N,+3.3V*%
X50200002Y-47599600D03*
%TO.P,C5,2*%
%TO.N,GND*%
X54508400Y-47599600D03*
%TD*%
D17*
%TO.P,J1,1,Pin_1*%
%TO.N,GND*%
X41910000Y-43815000D03*
D18*
%TO.P,J1,2,Pin_2*%
X39370000Y-43815000D03*
%TO.P,J1,3,Pin_3*%
%TO.N,+3.3V*%
X36830000Y-43815000D03*
%TO.P,J1,4,Pin_4*%
%TO.N,/LOG_TX*%
X34290000Y-43815000D03*
%TO.P,J1,5,Pin_5*%
%TO.N,/LOG_RX*%
X31750000Y-43815000D03*
%TO.P,J1,6,Pin_6*%
%TO.N,/LOG_DTR*%
X29210000Y-43815000D03*
%TD*%
D23*
%TO.P,SW1,1*%
%TO.N,/LOG_TX*%
X48806400Y-35509200D03*
%TO.P,SW1,2*%
%TO.N,/LOG_RX*%
X48806400Y-38049200D03*
%TO.P,SW1,3*%
%TO.N,Net-(U1-R1OUT)*%
X57416400Y-38049200D03*
%TO.P,SW1,4*%
%TO.N,Net-(U1-T1IN)*%
X57416400Y-35509200D03*
%TD*%
D24*
%TO.P,D1,1,K*%
%TO.N,Net-(D1-K)*%
X51435000Y-73101200D03*
%TO.P,D1,2,A*%
%TO.N,/VIN*%
X55854600Y-73101200D03*
%TD*%
D16*
%TO.P,D3,1,A1*%
%TO.N,GND*%
X47688000Y-61042800D03*
%TO.P,D3,2,A2*%
%TO.N,/CTD_RX*%
X47688000Y-65042800D03*
%TD*%
%TO.P,D4,1,A1*%
%TO.N,GND*%
X41999400Y-61042800D03*
%TO.P,D4,2,A2*%
%TO.N,/CTD_DTR*%
X41999400Y-65042800D03*
%TD*%
D15*
%TO.P,C4,1*%
%TO.N,GND*%
X48666400Y-49530000D03*
%TO.P,C4,2*%
%TO.N,Net-(U1-VS-)*%
X46766400Y-49530000D03*
%TD*%
D19*
%TO.P,R3,1*%
%TO.N,Net-(J2-Pin_5)*%
X42824400Y-67970400D03*
%TO.P,R3,2*%
%TO.N,/CTD_DTR*%
X41174400Y-67970400D03*
%TD*%
D25*
%TO.N,GND*%
X47447200Y-44500800D03*
X46075600Y-58420000D03*
X43637200Y-58420000D03*
%TO.N,/LOG_DTR*%
X49834800Y-57150000D03*
%TO.N,Net-(J2-Pin_5)*%
X43891200Y-67970400D03*
%TO.N,+3.3V*%
X50038000Y-41198800D03*
%TD*%
D26*
%TO.N,GND*%
X48565402Y-52324602D02*
X47879000Y-51638200D01*
X49814201Y-52324602D02*
X48565402Y-52324602D01*
D27*
X51256601Y-55574601D02*
X51460400Y-55778400D01*
X49814201Y-55574601D02*
X51256601Y-55574601D01*
%TO.N,/LOG_TX*%
X42595800Y-35509200D02*
X34290000Y-43815000D01*
X48806400Y-35509200D02*
X42595800Y-35509200D01*
%TO.N,/LOG_RX*%
X48806400Y-38049200D02*
X40744099Y-38049200D01*
X35560000Y-43233299D02*
X35560000Y-44399200D01*
X40744099Y-38049200D02*
X35560000Y-43233299D01*
X35560000Y-44399200D02*
X34645600Y-45313600D01*
X34645600Y-45313600D02*
X33248600Y-45313600D01*
X33248600Y-45313600D02*
X31750000Y-43815000D01*
%TO.N,/LOG_DTR*%
X49814201Y-57129401D02*
X49814201Y-56224599D01*
X49834800Y-57150000D02*
X49814201Y-57129401D01*
%TO.N,Net-(U1-C1+)*%
X40538400Y-50916800D02*
X41296201Y-51674601D01*
X41296201Y-51674601D02*
X42824203Y-51674601D01*
%TO.N,Net-(U1-VS+)*%
X43972201Y-52231600D02*
X43972201Y-50205401D01*
X43879202Y-52324599D02*
X43972201Y-52231600D01*
X43972201Y-50205401D02*
X43296800Y-49530000D01*
X42824203Y-52324599D02*
X43879202Y-52324599D01*
%TO.N,Net-(U1-C1-)*%
X40696201Y-52974601D02*
X42824203Y-52974601D01*
%TO.N,Net-(U1-C2+)*%
X42824203Y-53624599D02*
X41769204Y-53624599D01*
X41769204Y-53624599D02*
X41073403Y-54320400D01*
%TO.N,Net-(U1-C2-)*%
X42824203Y-54274598D02*
X41769204Y-54274598D01*
X41605200Y-55153600D02*
X40538400Y-56220400D01*
X41769204Y-54274598D02*
X41605200Y-54438602D01*
X41605200Y-54438602D02*
X41605200Y-55153600D01*
%TO.N,Net-(U1-VS-)*%
X42824203Y-54924599D02*
X43879202Y-54924599D01*
X45625801Y-53178000D02*
X45625801Y-50670599D01*
X45625801Y-50670599D02*
X46766400Y-49530000D01*
X43879202Y-54924599D02*
X45625801Y-53178000D01*
%TO.N,/CTD_DTR*%
X40284400Y-67182000D02*
X41072800Y-67970400D01*
X41999400Y-65042800D02*
X41174400Y-65867800D01*
X41174400Y-65867800D02*
X41174400Y-67970400D01*
X42824203Y-56224599D02*
X40284400Y-58764402D01*
X40284400Y-58764402D02*
X40284400Y-67182000D01*
%TO.N,/CTD_TX*%
X50444400Y-66243200D02*
X50444400Y-58784905D01*
X48684202Y-57024707D02*
X48684202Y-53699602D01*
X48684202Y-53699602D02*
X48759202Y-53624602D01*
X53225200Y-65042800D02*
X52425600Y-65842400D01*
X52425600Y-68224400D02*
X50444400Y-66243200D01*
X48759202Y-53624602D02*
X49814201Y-53624602D01*
X52425600Y-65842400D02*
X52425600Y-67970400D01*
X50444400Y-58784905D02*
X48684202Y-57024707D01*
%TO.N,/CTD_RX*%
X46939200Y-68021200D02*
X44856400Y-65938400D01*
X46939200Y-65791600D02*
X46939200Y-67970400D01*
X44856400Y-56794400D02*
X48676199Y-52974601D01*
X48676199Y-52974601D02*
X49814201Y-52974601D01*
X44856400Y-65938400D02*
X44856400Y-56794400D01*
%TO.N,Net-(U1-R1OUT)*%
X50886574Y-54274601D02*
X49814201Y-54274601D01*
X57416400Y-47744775D02*
X50886574Y-54274601D01*
X57416400Y-38049200D02*
X57416400Y-47744775D01*
%TO.N,Net-(U1-T1IN)*%
X50872972Y-54924599D02*
X49814201Y-54924599D01*
X58961400Y-37054200D02*
X58961400Y-46836171D01*
X57416400Y-35509200D02*
X58961400Y-37054200D01*
X58961400Y-46836171D02*
X50872972Y-54924599D01*
%TO.N,Net-(J2-Pin_3)*%
X63246000Y-66086200D02*
X55959800Y-66086200D01*
X55959800Y-66086200D02*
X54266798Y-67779202D01*
D26*
%TO.N,Net-(J2-Pin_4)*%
X65379600Y-64719800D02*
X65379600Y-66903600D01*
D27*
X54480262Y-69037200D02*
X49656000Y-69037200D01*
X63804800Y-67868800D02*
X56692800Y-67868800D01*
D26*
X55524400Y-69037200D02*
X56692800Y-67868800D01*
X63246000Y-62586200D02*
X65379600Y-64719800D01*
X64414400Y-67868800D02*
X63804800Y-67868800D01*
D27*
X49656000Y-69037200D02*
X48589200Y-67970400D01*
D26*
X65379600Y-66903600D02*
X64414400Y-67868800D01*
X54480262Y-69037200D02*
X55524400Y-69037200D01*
D27*
%TO.N,Net-(J2-Pin_5)*%
X43891200Y-67970400D02*
X42722800Y-67970400D01*
%TO.N,+3.3V*%
X40614600Y-47599600D02*
X38976300Y-45961300D01*
X38976300Y-45961300D02*
X39471600Y-46456600D01*
X39471600Y-46456600D02*
X39471600Y-69428400D01*
X38743202Y-71624599D02*
X38100000Y-72267801D01*
X39471600Y-69428400D02*
X39050000Y-69850000D01*
D26*
X49814201Y-47985401D02*
X49814201Y-51674601D01*
D27*
X41772802Y-71624599D02*
X38743202Y-71624599D01*
X38976300Y-45961300D02*
X36830000Y-43815000D01*
X38100000Y-72267801D02*
X38100000Y-70800000D01*
X50032101Y-47431699D02*
X50032101Y-41204699D01*
X38100000Y-70800000D02*
X39050000Y-69850000D01*
X50032101Y-41204699D02*
X50038000Y-41198800D01*
X50200002Y-47599600D02*
X40614600Y-47599600D01*
%TO.N,Net-(D1-K)*%
X42722800Y-70967600D02*
X42722800Y-71624599D01*
X45877398Y-70799599D02*
X42890801Y-70799599D01*
X47345600Y-72267801D02*
X45877398Y-70799599D01*
X51435000Y-73101200D02*
X50433700Y-72099900D01*
X42890801Y-70799599D02*
X42722800Y-70967600D01*
X50433700Y-72099900D02*
X47513501Y-72099900D01*
%TO.N,/VIN*%
X63246000Y-69586200D02*
X59369600Y-69586200D01*
X59369600Y-69586200D02*
X55854600Y-73101200D01*
%TD*%
%TA.AperFunction,Conductor*%
%TO.N,GND*%
G36*
X44194581Y-56755875D02*
G01*
X44228066Y-56817199D01*
X44230900Y-56843557D01*
X44230900Y-65855655D01*
X44229175Y-65871272D01*
X44229461Y-65871299D01*
X44228726Y-65879065D01*
X44230900Y-65948214D01*
X44230900Y-65977743D01*
X44230901Y-65977760D01*
X44231768Y-65984631D01*
X44232226Y-65990450D01*
X44233690Y-66037024D01*
X44233691Y-66037027D01*
X44239280Y-66056267D01*
X44243224Y-66075311D01*
X44245434Y-66092801D01*
X44245736Y-66095191D01*
X44262890Y-66138519D01*
X44264782Y-66144047D01*
X44276351Y-66183867D01*
X44277782Y-66188790D01*
X44281807Y-66195597D01*
X44287980Y-66206034D01*
X44296538Y-66223503D01*
X44303914Y-66242132D01*
X44331298Y-66279823D01*
X44334506Y-66284707D01*
X44358227Y-66324816D01*
X44358233Y-66324824D01*
X44372390Y-66338980D01*
X44385028Y-66353776D01*
X44396805Y-66369986D01*
X44396806Y-66369987D01*
X44432709Y-66399688D01*
X44437020Y-66403610D01*
X45187090Y-67153680D01*
X45926181Y-67892771D01*
X45959666Y-67954094D01*
X45962500Y-67980452D01*
X45962500Y-68302013D01*
X45968913Y-68372592D01*
X45968913Y-68372594D01*
X45968914Y-68372596D01*
X46019522Y-68535006D01*
X46080269Y-68635494D01*
X46107530Y-68680588D01*
X46227811Y-68800869D01*
X46227813Y-68800870D01*
X46227815Y-68800872D01*
X46373394Y-68888878D01*
X46535804Y-68939486D01*
X46606384Y-68945900D01*
X46606387Y-68945900D01*
X47119613Y-68945900D01*
X47119616Y-68945900D01*
X47190196Y-68939486D01*
X47352606Y-68888878D01*
X47498185Y-68800872D01*
X47544509Y-68754548D01*
X47600319Y-68698739D01*
X47661642Y-68665254D01*
X47731334Y-68670238D01*
X47775681Y-68698739D01*
X47877811Y-68800869D01*
X47877813Y-68800870D01*
X47877815Y-68800872D01*
X48023394Y-68888878D01*
X48185804Y-68939486D01*
X48256384Y-68945900D01*
X48628747Y-68945900D01*
X48695786Y-68965585D01*
X48716428Y-68982219D01*
X49155197Y-69420988D01*
X49165022Y-69433251D01*
X49165243Y-69433069D01*
X49170214Y-69439078D01*
X49190276Y-69457917D01*
X49220635Y-69486426D01*
X49241529Y-69507320D01*
X49247011Y-69511573D01*
X49251443Y-69515357D01*
X49285418Y-69547262D01*
X49302976Y-69556914D01*
X49319233Y-69567593D01*
X49335064Y-69579873D01*
X49354737Y-69588386D01*
X49377833Y-69598382D01*
X49383077Y-69600950D01*
X49423908Y-69623397D01*
X49436523Y-69626635D01*
X49443305Y-69628377D01*
X49461719Y-69634681D01*
X49480104Y-69642638D01*
X49526157Y-69649932D01*
X49531826Y-69651106D01*
X49576981Y-69662700D01*
X49597016Y-69662700D01*
X49616413Y-69664226D01*
X49636196Y-69667360D01*
X49682584Y-69662975D01*
X49688422Y-69662700D01*
X54377536Y-69662700D01*
X54393130Y-69664674D01*
X54393251Y-69663722D01*
X54400988Y-69664699D01*
X54400990Y-69664700D01*
X55441433Y-69664700D01*
X55457081Y-69666427D01*
X55457108Y-69666146D01*
X55464875Y-69666880D01*
X55464876Y-69666879D01*
X55464877Y-69666880D01*
X55534260Y-69664700D01*
X55563876Y-69664700D01*
X55570778Y-69663827D01*
X55576590Y-69663369D01*
X55623343Y-69661901D01*
X55642672Y-69656284D01*
X55661728Y-69652337D01*
X55681693Y-69649816D01*
X55725170Y-69632601D01*
X55730676Y-69630716D01*
X55775591Y-69617668D01*
X55792915Y-69607421D01*
X55810383Y-69598863D01*
X55829103Y-69591453D01*
X55866942Y-69563959D01*
X55871791Y-69560774D01*
X55912056Y-69536963D01*
X55926297Y-69522720D01*
X55941078Y-69510097D01*
X55957367Y-69498263D01*
X55957369Y-69498259D01*
X55957371Y-69498259D01*
X55969245Y-69483903D01*
X55987176Y-69462228D01*
X55991089Y-69457928D01*
X56918400Y-68530619D01*
X56979723Y-68497134D01*
X57006081Y-68494300D01*
X61698066Y-68494300D01*
X61765105Y-68513985D01*
X61810860Y-68566789D01*
X61820804Y-68635947D01*
X61805453Y-68680300D01*
X61709609Y-68846307D01*
X61709607Y-68846311D01*
X61709607Y-68846312D01*
X61695599Y-68882003D01*
X61652785Y-68937215D01*
X61586915Y-68960517D01*
X61580172Y-68960700D01*
X59452343Y-68960700D01*
X59436722Y-68958975D01*
X59436695Y-68959261D01*
X59428933Y-68958526D01*
X59359772Y-68960700D01*
X59330249Y-68960700D01*
X59323378Y-68961567D01*
X59317559Y-68962025D01*
X59270974Y-68963489D01*
X59270968Y-68963490D01*
X59251726Y-68969080D01*
X59232687Y-68973023D01*
X59212817Y-68975534D01*
X59212803Y-68975537D01*
X59169483Y-68992688D01*
X59163958Y-68994580D01*
X59119213Y-69007580D01*
X59119210Y-69007581D01*
X59101966Y-69017779D01*
X59084505Y-69026333D01*
X59065874Y-69033710D01*
X59065862Y-69033717D01*
X59028170Y-69061102D01*
X59023287Y-69064309D01*
X58983180Y-69088029D01*
X58969014Y-69102195D01*
X58954224Y-69114827D01*
X58938014Y-69126604D01*
X58938011Y-69126607D01*
X58908310Y-69162509D01*
X58904377Y-69166831D01*
X56637127Y-71434081D01*
X56575804Y-71467566D01*
X56549446Y-71470400D01*
X54988000Y-71470400D01*
X54920961Y-71450715D01*
X54875206Y-71397911D01*
X54864000Y-71346400D01*
X54864000Y-71183500D01*
X52425600Y-71183500D01*
X52425600Y-71346400D01*
X52405915Y-71413439D01*
X52353111Y-71459194D01*
X52301600Y-71470400D01*
X50467421Y-71470400D01*
X50461296Y-71469918D01*
X50461294Y-71469984D01*
X50453506Y-71469740D01*
X50453504Y-71469740D01*
X50424123Y-71472517D01*
X50407115Y-71474125D01*
X50401278Y-71474400D01*
X48538399Y-71474400D01*
X48471360Y-71454715D01*
X48425605Y-71401911D01*
X48414399Y-71350400D01*
X48414399Y-71130930D01*
X48414398Y-71130924D01*
X48410502Y-71094682D01*
X48407991Y-71071318D01*
X48405450Y-71064506D01*
X48357697Y-70936472D01*
X48357693Y-70936465D01*
X48271447Y-70821256D01*
X48271444Y-70821253D01*
X48156235Y-70735007D01*
X48156228Y-70735003D01*
X48021382Y-70684709D01*
X48021383Y-70684709D01*
X47961783Y-70678302D01*
X47961781Y-70678301D01*
X47961773Y-70678301D01*
X47961764Y-70678301D01*
X46729429Y-70678301D01*
X46729420Y-70678302D01*
X46708288Y-70680574D01*
X46639529Y-70668167D01*
X46607355Y-70644965D01*
X46378201Y-70415811D01*
X46368378Y-70403549D01*
X46368157Y-70403733D01*
X46363184Y-70397722D01*
X46344557Y-70380230D01*
X46312762Y-70350372D01*
X46302317Y-70339927D01*
X46291873Y-70329482D01*
X46286384Y-70325224D01*
X46281959Y-70321446D01*
X46247980Y-70289537D01*
X46247978Y-70289535D01*
X46247975Y-70289534D01*
X46230427Y-70279887D01*
X46214161Y-70269203D01*
X46198331Y-70256924D01*
X46155566Y-70238417D01*
X46150320Y-70235847D01*
X46109491Y-70213402D01*
X46109490Y-70213401D01*
X46090091Y-70208421D01*
X46071679Y-70202117D01*
X46053296Y-70194161D01*
X46053290Y-70194159D01*
X46007272Y-70186871D01*
X46001550Y-70185686D01*
X45956419Y-70174099D01*
X45956417Y-70174099D01*
X45936382Y-70174099D01*
X45916984Y-70172572D01*
X45909560Y-70171396D01*
X45897203Y-70169439D01*
X45897202Y-70169439D01*
X45850814Y-70173824D01*
X45844976Y-70174099D01*
X42973538Y-70174099D01*
X42957921Y-70172375D01*
X42957894Y-70172661D01*
X42950132Y-70171926D01*
X42881004Y-70174099D01*
X42851451Y-70174099D01*
X42850730Y-70174189D01*
X42844558Y-70174968D01*
X42838746Y-70175425D01*
X42792179Y-70176889D01*
X42792168Y-70176891D01*
X42772935Y-70182478D01*
X42753895Y-70186421D01*
X42734018Y-70188933D01*
X42734011Y-70188934D01*
X42734009Y-70188935D01*
X42734007Y-70188935D01*
X42734006Y-70188936D01*
X42690669Y-70206093D01*
X42685143Y-70207985D01*
X42640412Y-70220981D01*
X42640409Y-70220982D01*
X42623164Y-70231180D01*
X42605702Y-70239734D01*
X42587073Y-70247110D01*
X42587068Y-70247112D01*
X42549365Y-70274505D01*
X42544483Y-70277711D01*
X42504381Y-70301427D01*
X42490209Y-70315599D01*
X42475424Y-70328227D01*
X42459213Y-70340006D01*
X42429510Y-70375909D01*
X42425578Y-70380230D01*
X42339008Y-70466799D01*
X42326751Y-70476620D01*
X42326934Y-70476841D01*
X42320923Y-70481813D01*
X42273572Y-70532236D01*
X42252689Y-70553119D01*
X42252677Y-70553132D01*
X42248421Y-70558617D01*
X42244636Y-70563047D01*
X42223461Y-70585598D01*
X42163221Y-70620995D01*
X42124011Y-70623715D01*
X42123996Y-70623997D01*
X42123996Y-70624099D01*
X42123990Y-70624099D01*
X42123981Y-70624277D01*
X42120684Y-70624100D01*
X42120675Y-70624099D01*
X42120665Y-70624099D01*
X41424931Y-70624099D01*
X41424925Y-70624100D01*
X41365318Y-70630507D01*
X41230473Y-70680801D01*
X41230466Y-70680805D01*
X41115257Y-70767051D01*
X41115254Y-70767054D01*
X41029008Y-70882263D01*
X41029005Y-70882268D01*
X41015517Y-70918433D01*
X40973645Y-70974366D01*
X40908181Y-70998783D01*
X40899335Y-70999099D01*
X39986394Y-70999099D01*
X39919355Y-70979414D01*
X39873600Y-70926610D01*
X39863656Y-70857452D01*
X39889130Y-70798186D01*
X39892709Y-70793659D01*
X39892712Y-70793656D01*
X39984814Y-70644334D01*
X40039999Y-70477797D01*
X40050500Y-70375009D01*
X40050499Y-69702577D01*
X40057028Y-69668352D01*
X40055856Y-69668051D01*
X40058877Y-69656285D01*
X40062780Y-69641080D01*
X40069081Y-69622680D01*
X40077037Y-69604296D01*
X40084329Y-69558252D01*
X40085506Y-69552571D01*
X40097100Y-69507419D01*
X40097100Y-69487383D01*
X40098627Y-69467982D01*
X40101760Y-69448204D01*
X40097375Y-69401815D01*
X40097100Y-69395977D01*
X40097100Y-68593026D01*
X40116785Y-68525987D01*
X40169589Y-68480232D01*
X40238747Y-68470288D01*
X40302303Y-68499313D01*
X40327217Y-68528876D01*
X40330921Y-68535003D01*
X40330922Y-68535006D01*
X40396381Y-68643288D01*
X40418930Y-68680588D01*
X40539211Y-68800869D01*
X40539213Y-68800870D01*
X40539215Y-68800872D01*
X40684794Y-68888878D01*
X40847204Y-68939486D01*
X40917784Y-68945900D01*
X40917787Y-68945900D01*
X41431013Y-68945900D01*
X41431016Y-68945900D01*
X41501596Y-68939486D01*
X41664006Y-68888878D01*
X41809585Y-68800872D01*
X41855909Y-68754548D01*
X41911719Y-68698739D01*
X41973042Y-68665254D01*
X42042734Y-68670238D01*
X42087081Y-68698739D01*
X42189211Y-68800869D01*
X42189213Y-68800870D01*
X42189215Y-68800872D01*
X42334794Y-68888878D01*
X42497204Y-68939486D01*
X42567784Y-68945900D01*
X42567787Y-68945900D01*
X43081013Y-68945900D01*
X43081016Y-68945900D01*
X43151596Y-68939486D01*
X43314006Y-68888878D01*
X43439334Y-68813114D01*
X43506885Y-68795279D01*
X43553916Y-68805952D01*
X43611393Y-68831542D01*
X43611397Y-68831544D01*
X43796554Y-68870900D01*
X43796555Y-68870900D01*
X43985844Y-68870900D01*
X43985846Y-68870900D01*
X44171003Y-68831544D01*
X44343930Y-68754551D01*
X44497071Y-68643288D01*
X44623733Y-68502616D01*
X44718379Y-68338684D01*
X44776874Y-68158656D01*
X44796660Y-67970400D01*
X44776874Y-67782144D01*
X44718379Y-67602116D01*
X44623733Y-67438184D01*
X44497071Y-67297512D01*
X44484436Y-67288332D01*
X44343934Y-67186251D01*
X44343929Y-67186248D01*
X44171007Y-67109257D01*
X44171002Y-67109255D01*
X44025201Y-67078265D01*
X43985846Y-67069900D01*
X43796554Y-67069900D01*
X43757199Y-67078265D01*
X43611398Y-67109255D01*
X43611397Y-67109255D01*
X43553914Y-67134848D01*
X43484664Y-67144131D01*
X43439331Y-67127684D01*
X43314006Y-67051922D01*
X43297597Y-67046809D01*
X43151596Y-67001314D01*
X43151594Y-67001313D01*
X43151592Y-67001313D01*
X43102178Y-66996823D01*
X43081016Y-66994900D01*
X42930542Y-66994900D01*
X42863503Y-66975215D01*
X42817748Y-66922411D01*
X42807804Y-66853253D01*
X42836829Y-66789697D01*
X42891537Y-66753194D01*
X42968734Y-66727614D01*
X43118056Y-66635512D01*
X43242112Y-66511456D01*
X43334214Y-66362134D01*
X43389399Y-66195597D01*
X43399900Y-66092809D01*
X43399899Y-63992792D01*
X43389399Y-63890003D01*
X43334214Y-63723466D01*
X43242112Y-63574144D01*
X43118056Y-63450088D01*
X42968734Y-63357986D01*
X42802197Y-63302801D01*
X42802195Y-63302800D01*
X42699410Y-63292300D01*
X41299398Y-63292300D01*
X41299381Y-63292301D01*
X41196603Y-63302800D01*
X41196600Y-63302801D01*
X41072904Y-63343791D01*
X41003076Y-63346193D01*
X40943034Y-63310461D01*
X40911841Y-63247941D01*
X40909900Y-63226085D01*
X40909900Y-62858988D01*
X40929585Y-62791949D01*
X40982389Y-62746194D01*
X41051547Y-62736250D01*
X41072904Y-62741282D01*
X41196702Y-62782305D01*
X41196709Y-62782306D01*
X41299419Y-62792799D01*
X41749399Y-62792799D01*
X41749400Y-62792798D01*
X41749400Y-61292800D01*
X42249400Y-61292800D01*
X42249400Y-62792799D01*
X42699372Y-62792799D01*
X42699386Y-62792798D01*
X42802097Y-62782305D01*
X42968519Y-62727158D01*
X42968524Y-62727156D01*
X43117745Y-62635115D01*
X43241715Y-62511145D01*
X43333756Y-62361924D01*
X43333758Y-62361919D01*
X43388905Y-62195497D01*
X43388906Y-62195490D01*
X43399399Y-62092786D01*
X43399400Y-62092773D01*
X43399400Y-61292800D01*
X42249400Y-61292800D01*
X41749400Y-61292800D01*
X41749400Y-59292800D01*
X42249400Y-59292800D01*
X42249400Y-60792800D01*
X43399399Y-60792800D01*
X43399399Y-59992828D01*
X43399398Y-59992813D01*
X43388905Y-59890102D01*
X43333758Y-59723680D01*
X43333756Y-59723675D01*
X43241715Y-59574454D01*
X43117745Y-59450484D01*
X42968524Y-59358443D01*
X42968519Y-59358441D01*
X42802097Y-59303294D01*
X42802090Y-59303293D01*
X42699386Y-59292800D01*
X42249400Y-59292800D01*
X41749400Y-59292800D01*
X41299428Y-59292800D01*
X41299412Y-59292801D01*
X41196702Y-59303294D01*
X41072904Y-59344317D01*
X41003076Y-59346719D01*
X40943034Y-59310987D01*
X40911841Y-59248467D01*
X40909900Y-59226611D01*
X40909900Y-59074854D01*
X40929585Y-59007815D01*
X40946219Y-58987173D01*
X42956975Y-56976417D01*
X43018298Y-56942932D01*
X43044656Y-56940098D01*
X43677074Y-56940098D01*
X43677075Y-56940098D01*
X43736686Y-56933690D01*
X43871534Y-56883395D01*
X43986749Y-56797145D01*
X44007634Y-56769246D01*
X44063566Y-56727375D01*
X44133258Y-56722391D01*
X44194581Y-56755875D01*
G37*
%TD.AperFunction*%
%TA.AperFunction,Conductor*%
G36*
X47978036Y-54659868D02*
G01*
X48033969Y-54701740D01*
X48058386Y-54767204D01*
X48058702Y-54776050D01*
X48058702Y-56941962D01*
X48056977Y-56957579D01*
X48057263Y-56957606D01*
X48056528Y-56965372D01*
X48058702Y-57034521D01*
X48058702Y-57064050D01*
X48058703Y-57064067D01*
X48059570Y-57070938D01*
X48060028Y-57076757D01*
X48061492Y-57123331D01*
X48061493Y-57123334D01*
X48067082Y-57142574D01*
X48071026Y-57161618D01*
X48073538Y-57181498D01*
X48090692Y-57224826D01*
X48092584Y-57230354D01*
X48105583Y-57275095D01*
X48115782Y-57292341D01*
X48124340Y-57309810D01*
X48131716Y-57328439D01*
X48159100Y-57366130D01*
X48162308Y-57371014D01*
X48186029Y-57411123D01*
X48186035Y-57411131D01*
X48200192Y-57425287D01*
X48212830Y-57440083D01*
X48224607Y-57456293D01*
X48224608Y-57456294D01*
X48260511Y-57485995D01*
X48264822Y-57489917D01*
X49094586Y-58319681D01*
X49782581Y-59007676D01*
X49816066Y-59068999D01*
X49818900Y-59095357D01*
X49818900Y-66160455D01*
X49817175Y-66176072D01*
X49817461Y-66176099D01*
X49816726Y-66183865D01*
X49818900Y-66253014D01*
X49818900Y-66282543D01*
X49818901Y-66282560D01*
X49819768Y-66289431D01*
X49820226Y-66295250D01*
X49821690Y-66341824D01*
X49821691Y-66341827D01*
X49827280Y-66361067D01*
X49831224Y-66380111D01*
X49833698Y-66399688D01*
X49833736Y-66399991D01*
X49850890Y-66443319D01*
X49852782Y-66448847D01*
X49865781Y-66493588D01*
X49875980Y-66510834D01*
X49884538Y-66528303D01*
X49891914Y-66546932D01*
X49919298Y-66584623D01*
X49922506Y-66589507D01*
X49946227Y-66629616D01*
X49946233Y-66629624D01*
X49960390Y-66643780D01*
X49973028Y-66658576D01*
X49984805Y-66674786D01*
X49984806Y-66674787D01*
X50020709Y-66704488D01*
X50025020Y-66708410D01*
X50745347Y-67428737D01*
X51463381Y-68146771D01*
X51496866Y-68208094D01*
X51499700Y-68234452D01*
X51499700Y-68287700D01*
X51480015Y-68354739D01*
X51427211Y-68400494D01*
X51375700Y-68411700D01*
X49966452Y-68411700D01*
X49899413Y-68392015D01*
X49878771Y-68375381D01*
X49449819Y-67946428D01*
X49416334Y-67885105D01*
X49413500Y-67858747D01*
X49413500Y-67638786D01*
X49410168Y-67602116D01*
X49407086Y-67568204D01*
X49356478Y-67405794D01*
X49268472Y-67260215D01*
X49268470Y-67260213D01*
X49268469Y-67260211D01*
X49148188Y-67139930D01*
X49142403Y-67136433D01*
X49002606Y-67051922D01*
X48840196Y-67001314D01*
X48840194Y-67001313D01*
X48840192Y-67001313D01*
X48790778Y-66996823D01*
X48769616Y-66994900D01*
X48619142Y-66994900D01*
X48552103Y-66975215D01*
X48506348Y-66922411D01*
X48496404Y-66853253D01*
X48525429Y-66789697D01*
X48580137Y-66753194D01*
X48657334Y-66727614D01*
X48806656Y-66635512D01*
X48930712Y-66511456D01*
X49022814Y-66362134D01*
X49077999Y-66195597D01*
X49088500Y-66092809D01*
X49088499Y-63992792D01*
X49077999Y-63890003D01*
X49022814Y-63723466D01*
X48930712Y-63574144D01*
X48806656Y-63450088D01*
X48657334Y-63357986D01*
X48490797Y-63302801D01*
X48490795Y-63302800D01*
X48388010Y-63292300D01*
X46987998Y-63292300D01*
X46987981Y-63292301D01*
X46885203Y-63302800D01*
X46885200Y-63302801D01*
X46718668Y-63357985D01*
X46718663Y-63357987D01*
X46569342Y-63450089D01*
X46445289Y-63574142D01*
X46353187Y-63723463D01*
X46353186Y-63723466D01*
X46298001Y-63890003D01*
X46298001Y-63890004D01*
X46298000Y-63890004D01*
X46287500Y-63992783D01*
X46287500Y-66092801D01*
X46287501Y-66092819D01*
X46296691Y-66182779D01*
X46283921Y-66251472D01*
X46236040Y-66302356D01*
X46168250Y-66319276D01*
X46102074Y-66296860D01*
X46085652Y-66283061D01*
X45518219Y-65715628D01*
X45484734Y-65654305D01*
X45481900Y-65627947D01*
X45481900Y-61292800D01*
X46288001Y-61292800D01*
X46288001Y-62092786D01*
X46298494Y-62195497D01*
X46353641Y-62361919D01*
X46353643Y-62361924D01*
X46445684Y-62511145D01*
X46569654Y-62635115D01*
X46718875Y-62727156D01*
X46718880Y-62727158D01*
X46885302Y-62782305D01*
X46885309Y-62782306D01*
X46988019Y-62792799D01*
X47437999Y-62792799D01*
X47438000Y-62792798D01*
X47438000Y-61292800D01*
X47938000Y-61292800D01*
X47938000Y-62792799D01*
X48387972Y-62792799D01*
X48387986Y-62792798D01*
X48490697Y-62782305D01*
X48657119Y-62727158D01*
X48657124Y-62727156D01*
X48806345Y-62635115D01*
X48930315Y-62511145D01*
X49022356Y-62361924D01*
X49022358Y-62361919D01*
X49077505Y-62195497D01*
X49077506Y-62195490D01*
X49087999Y-62092786D01*
X49088000Y-62092773D01*
X49088000Y-61292800D01*
X47938000Y-61292800D01*
X47438000Y-61292800D01*
X46288001Y-61292800D01*
X45481900Y-61292800D01*
X45481900Y-60792800D01*
X46288000Y-60792800D01*
X47438000Y-60792800D01*
X47438000Y-59292800D01*
X47938000Y-59292800D01*
X47938000Y-60792800D01*
X49087999Y-60792800D01*
X49087999Y-59992828D01*
X49087998Y-59992813D01*
X49077505Y-59890102D01*
X49022358Y-59723680D01*
X49022356Y-59723675D01*
X48930315Y-59574454D01*
X48806345Y-59450484D01*
X48657124Y-59358443D01*
X48657119Y-59358441D01*
X48490697Y-59303294D01*
X48490690Y-59303293D01*
X48387986Y-59292800D01*
X47938000Y-59292800D01*
X47438000Y-59292800D01*
X46988028Y-59292800D01*
X46988012Y-59292801D01*
X46885302Y-59303294D01*
X46718880Y-59358441D01*
X46718875Y-59358443D01*
X46569654Y-59450484D01*
X46445684Y-59574454D01*
X46353643Y-59723675D01*
X46353641Y-59723680D01*
X46298494Y-59890102D01*
X46298493Y-59890109D01*
X46288000Y-59992813D01*
X46288000Y-60792800D01*
X45481900Y-60792800D01*
X45481900Y-57104852D01*
X45501585Y-57037813D01*
X45518219Y-57017171D01*
X47847021Y-54688369D01*
X47908344Y-54654884D01*
X47978036Y-54659868D01*
G37*
%TD.AperFunction*%
%TA.AperFunction,Conductor*%
G36*
X48859439Y-49299685D02*
G01*
X48905194Y-49352489D01*
X48916400Y-49404000D01*
X48916400Y-50754999D01*
X48929300Y-50767899D01*
X48962785Y-50829222D01*
X48957801Y-50898914D01*
X48915929Y-50954847D01*
X48884953Y-50971762D01*
X48766870Y-51015804D01*
X48766865Y-51015807D01*
X48651656Y-51102053D01*
X48651653Y-51102056D01*
X48565407Y-51217265D01*
X48565403Y-51217272D01*
X48515111Y-51352114D01*
X48515110Y-51352118D01*
X48508701Y-51411728D01*
X48508701Y-51411735D01*
X48508701Y-51411736D01*
X48508701Y-51937471D01*
X48508702Y-51937482D01*
X48514207Y-51988695D01*
X48514207Y-52015198D01*
X48509201Y-52061766D01*
X48509201Y-52109602D01*
X48518588Y-52118989D01*
X48553658Y-52129287D01*
X48585886Y-52159292D01*
X48592624Y-52168293D01*
X48617041Y-52233758D01*
X48602189Y-52302030D01*
X48552783Y-52351435D01*
X48524202Y-52362705D01*
X48519412Y-52363935D01*
X48476082Y-52381089D01*
X48470557Y-52382981D01*
X48425812Y-52395981D01*
X48425809Y-52395982D01*
X48408565Y-52406180D01*
X48391104Y-52414734D01*
X48372473Y-52422111D01*
X48372461Y-52422118D01*
X48334769Y-52449503D01*
X48329886Y-52452710D01*
X48289779Y-52476430D01*
X48275613Y-52490596D01*
X48260823Y-52503228D01*
X48244613Y-52515005D01*
X48244610Y-52515008D01*
X48214909Y-52550910D01*
X48210976Y-52555232D01*
X44472608Y-56293599D01*
X44460351Y-56303420D01*
X44460534Y-56303641D01*
X44454523Y-56308613D01*
X44407172Y-56359036D01*
X44386289Y-56379919D01*
X44386277Y-56379932D01*
X44382021Y-56385417D01*
X44378236Y-56389847D01*
X44344097Y-56426204D01*
X44283857Y-56461601D01*
X44214043Y-56458810D01*
X44156820Y-56418718D01*
X44130357Y-56354053D01*
X44129702Y-56341337D01*
X44129702Y-55961727D01*
X44129701Y-55961725D01*
X44129701Y-55961710D01*
X44124448Y-55912853D01*
X44124448Y-55886347D01*
X44129703Y-55837471D01*
X44129702Y-55578940D01*
X44149386Y-55511902D01*
X44180814Y-55478625D01*
X44182934Y-55477085D01*
X44220641Y-55449688D01*
X44225507Y-55446491D01*
X44265622Y-55422769D01*
X44279791Y-55408598D01*
X44294581Y-55395967D01*
X44310789Y-55384193D01*
X44340501Y-55348275D01*
X44344414Y-55343975D01*
X46009588Y-53678801D01*
X46021843Y-53668986D01*
X46021660Y-53668764D01*
X46027667Y-53663792D01*
X46027678Y-53663786D01*
X46058576Y-53630882D01*
X46075028Y-53613364D01*
X46085472Y-53602918D01*
X46095921Y-53592471D01*
X46100180Y-53586978D01*
X46103953Y-53582561D01*
X46135863Y-53548582D01*
X46145516Y-53531020D01*
X46156190Y-53514770D01*
X46168474Y-53498936D01*
X46186981Y-53456167D01*
X46189550Y-53450924D01*
X46211997Y-53410093D01*
X46211998Y-53410092D01*
X46216978Y-53390691D01*
X46223279Y-53372288D01*
X46231239Y-53353896D01*
X46238531Y-53307849D01*
X46239712Y-53302152D01*
X46251301Y-53257019D01*
X46251301Y-53236983D01*
X46252828Y-53217582D01*
X46255961Y-53197804D01*
X46251576Y-53151415D01*
X46251301Y-53145577D01*
X46251301Y-50981050D01*
X46270986Y-50914011D01*
X46287611Y-50893378D01*
X46389173Y-50791815D01*
X46450492Y-50758333D01*
X46476841Y-50755499D01*
X47066408Y-50755499D01*
X47066416Y-50755498D01*
X47066419Y-50755498D01*
X47122702Y-50749748D01*
X47169197Y-50744999D01*
X47335734Y-50689814D01*
X47485056Y-50597712D01*
X47609112Y-50473656D01*
X47611152Y-50470347D01*
X47613145Y-50468555D01*
X47613593Y-50467989D01*
X47613689Y-50468065D01*
X47663094Y-50423623D01*
X47732056Y-50412395D01*
X47796140Y-50440234D01*
X47822229Y-50470339D01*
X47824081Y-50473341D01*
X47824083Y-50473344D01*
X47948054Y-50597315D01*
X48097275Y-50689356D01*
X48097280Y-50689358D01*
X48263702Y-50744505D01*
X48263709Y-50744506D01*
X48366419Y-50754999D01*
X48416399Y-50754998D01*
X48416400Y-50754998D01*
X48416400Y-49404000D01*
X48436085Y-49336961D01*
X48488889Y-49291206D01*
X48540400Y-49280000D01*
X48792400Y-49280000D01*
X48859439Y-49299685D01*
G37*
%TD.AperFunction*%
%TA.AperFunction,Conductor*%
G36*
X41450507Y-43605156D02*
G01*
X41410000Y-43743111D01*
X41410000Y-43886889D01*
X41450507Y-44024844D01*
X41476314Y-44065000D01*
X39803686Y-44065000D01*
X39829493Y-44024844D01*
X39870000Y-43886889D01*
X39870000Y-43743111D01*
X39829493Y-43605156D01*
X39803686Y-43565000D01*
X41476314Y-43565000D01*
X41450507Y-43605156D01*
G37*
%TD.AperFunction*%
%TA.AperFunction,Conductor*%
G36*
X66696400Y-40255298D02*
G01*
X66588715Y-40206120D01*
X66482163Y-40190800D01*
X66410637Y-40190800D01*
X66304085Y-40206120D01*
X66196400Y-40255298D01*
X66196400Y-38586301D01*
X66304085Y-38635480D01*
X66410637Y-38650800D01*
X66482163Y-38650800D01*
X66588715Y-38635480D01*
X66696400Y-38586301D01*
X66696400Y-40255298D01*
G37*
%TD.AperFunction*%
%TA.AperFunction,Conductor*%
G36*
X68015039Y-27451685D02*
G01*
X68060794Y-27504489D01*
X68072000Y-27556000D01*
X68072000Y-81025438D01*
X68052315Y-81092477D01*
X68035681Y-81113119D01*
X68006719Y-81142081D01*
X67945396Y-81175566D01*
X67919038Y-81178400D01*
X27556000Y-81178400D01*
X27488961Y-81158715D01*
X27443206Y-81105911D01*
X27432000Y-81054400D01*
X27432000Y-78475200D01*
X28947141Y-78475200D01*
X28967736Y-78710603D01*
X28967738Y-78710613D01*
X29028894Y-78938855D01*
X29028896Y-78938859D01*
X29028897Y-78938863D01*
X29078831Y-79045946D01*
X29128764Y-79153028D01*
X29128765Y-79153030D01*
X29264305Y-79346602D01*
X29431397Y-79513694D01*
X29624969Y-79649234D01*
X29624971Y-79649235D01*
X29839137Y-79749103D01*
X30067392Y-79810263D01*
X30243834Y-79825700D01*
X30361766Y-79825700D01*
X30538208Y-79810263D01*
X30766463Y-79749103D01*
X30980629Y-79649235D01*
X31174201Y-79513695D01*
X31341295Y-79346601D01*
X31476835Y-79153030D01*
X31576703Y-78938863D01*
X31637863Y-78710608D01*
X31658459Y-78475200D01*
X63947141Y-78475200D01*
X63967736Y-78710603D01*
X63967738Y-78710613D01*
X64028894Y-78938855D01*
X64028896Y-78938859D01*
X64028897Y-78938863D01*
X64078831Y-79045946D01*
X64128764Y-79153028D01*
X64128765Y-79153030D01*
X64264305Y-79346602D01*
X64431397Y-79513694D01*
X64624969Y-79649234D01*
X64624971Y-79649235D01*
X64839137Y-79749103D01*
X65067392Y-79810263D01*
X65243834Y-79825700D01*
X65361766Y-79825700D01*
X65538208Y-79810263D01*
X65766463Y-79749103D01*
X65980629Y-79649235D01*
X66174201Y-79513695D01*
X66341295Y-79346601D01*
X66476835Y-79153030D01*
X66576703Y-78938863D01*
X66637863Y-78710608D01*
X66658459Y-78475200D01*
X66637863Y-78239792D01*
X66576703Y-78011537D01*
X66476835Y-77797371D01*
X66476834Y-77797369D01*
X66341294Y-77603797D01*
X66174202Y-77436705D01*
X65980630Y-77301165D01*
X65980628Y-77301164D01*
X65873546Y-77251231D01*
X65766463Y-77201297D01*
X65766459Y-77201296D01*
X65766455Y-77201294D01*
X65538213Y-77140138D01*
X65538203Y-77140136D01*
X65361766Y-77124700D01*
X65243834Y-77124700D01*
X65067396Y-77140136D01*
X65067386Y-77140138D01*
X64839144Y-77201294D01*
X64839135Y-77201298D01*
X64624971Y-77301164D01*
X64624969Y-77301165D01*
X64431397Y-77436705D01*
X64264306Y-77603797D01*
X64264301Y-77603804D01*
X64128767Y-77797365D01*
X64128765Y-77797369D01*
X64028898Y-78011535D01*
X64028894Y-78011544D01*
X63967738Y-78239786D01*
X63967736Y-78239796D01*
X63947141Y-78475199D01*
X63947141Y-78475200D01*
X31658459Y-78475200D01*
X31637863Y-78239792D01*
X31576703Y-78011537D01*
X31476835Y-77797371D01*
X31476834Y-77797369D01*
X31341294Y-77603797D01*
X31174202Y-77436705D01*
X30980630Y-77301165D01*
X30980628Y-77301164D01*
X30873546Y-77251231D01*
X30766463Y-77201297D01*
X30766459Y-77201296D01*
X30766455Y-77201294D01*
X30538213Y-77140138D01*
X30538203Y-77140136D01*
X30361766Y-77124700D01*
X30243834Y-77124700D01*
X30067396Y-77140136D01*
X30067386Y-77140138D01*
X29839144Y-77201294D01*
X29839135Y-77201298D01*
X29624971Y-77301164D01*
X29624969Y-77301165D01*
X29431397Y-77436705D01*
X29264306Y-77603797D01*
X29264301Y-77603804D01*
X29128767Y-77797365D01*
X29128765Y-77797369D01*
X29028898Y-78011535D01*
X29028894Y-78011544D01*
X28967738Y-78239786D01*
X28967736Y-78239796D01*
X28947141Y-78475199D01*
X28947141Y-78475200D01*
X27432000Y-78475200D01*
X27432000Y-69600000D01*
X36150000Y-69600000D01*
X36900000Y-69600000D01*
X36900000Y-68625000D01*
X36899999Y-68624999D01*
X36850029Y-68625000D01*
X36850011Y-68625001D01*
X36747302Y-68635494D01*
X36580880Y-68690641D01*
X36580875Y-68690643D01*
X36431654Y-68782684D01*
X36307684Y-68906654D01*
X36215643Y-69055875D01*
X36215641Y-69055880D01*
X36160494Y-69222302D01*
X36160493Y-69222309D01*
X36150000Y-69325013D01*
X36150000Y-69600000D01*
X27432000Y-69600000D01*
X27432000Y-43815000D01*
X27854341Y-43815000D01*
X27874936Y-44050403D01*
X27874938Y-44050413D01*
X27936094Y-44278655D01*
X27936096Y-44278659D01*
X27936097Y-44278663D01*
X27966751Y-44344400D01*
X28035965Y-44492830D01*
X28035967Y-44492834D01*
X28124591Y-44619401D01*
X28171505Y-44686401D01*
X28338599Y-44853495D01*
X28391192Y-44890321D01*
X28532165Y-44989032D01*
X28532167Y-44989033D01*
X28532170Y-44989035D01*
X28746337Y-45088903D01*
X28746343Y-45088904D01*
X28746344Y-45088905D01*
X28761519Y-45092971D01*
X28974592Y-45150063D01*
X29145319Y-45165000D01*
X29209999Y-45170659D01*
X29210000Y-45170659D01*
X29210001Y-45170659D01*
X29274681Y-45165000D01*
X29445408Y-45150063D01*
X29673663Y-45088903D01*
X29887830Y-44989035D01*
X30081401Y-44853495D01*
X30248495Y-44686401D01*
X30378425Y-44500842D01*
X30433002Y-44457217D01*
X30502500Y-44450023D01*
X30564855Y-44481546D01*
X30581575Y-44500842D01*
X30711500Y-44686395D01*
X30711505Y-44686401D01*
X30878599Y-44853495D01*
X30931192Y-44890321D01*
X31072165Y-44989032D01*
X31072167Y-44989033D01*
X31072170Y-44989035D01*
X31286337Y-45088903D01*
X31286343Y-45088904D01*
X31286344Y-45088905D01*
X31301519Y-45092971D01*
X31514592Y-45150063D01*
X31685319Y-45165000D01*
X31749999Y-45170659D01*
X31750000Y-45170659D01*
X31750001Y-45170659D01*
X31814681Y-45165000D01*
X31985408Y-45150063D01*
X32085873Y-45123143D01*
X32155722Y-45124806D01*
X32205647Y-45155237D01*
X32747797Y-45697388D01*
X32757622Y-45709651D01*
X32757843Y-45709469D01*
X32762814Y-45715478D01*
X32783643Y-45735037D01*
X32813235Y-45762826D01*
X32834129Y-45783720D01*
X32839611Y-45787973D01*
X32844043Y-45791757D01*
X32878018Y-45823662D01*
X32895576Y-45833314D01*
X32911835Y-45843995D01*
X32927664Y-45856273D01*
X32970438Y-45874782D01*
X32975656Y-45877338D01*
X33016508Y-45899797D01*
X33035916Y-45904780D01*
X33054317Y-45911080D01*
X33072704Y-45919037D01*
X33116088Y-45925908D01*
X33118719Y-45926325D01*
X33124439Y-45927509D01*
X33169581Y-45939100D01*
X33189616Y-45939100D01*
X33209014Y-45940626D01*
X33228794Y-45943759D01*
X33228795Y-45943760D01*
X33228795Y-45943759D01*
X33228796Y-45943760D01*
X33275184Y-45939375D01*
X33281022Y-45939100D01*
X34562857Y-45939100D01*
X34578477Y-45940824D01*
X34578504Y-45940539D01*
X34586260Y-45941271D01*
X34586267Y-45941273D01*
X34655414Y-45939100D01*
X34684950Y-45939100D01*
X34691828Y-45938230D01*
X34697641Y-45937772D01*
X34744227Y-45936309D01*
X34763469Y-45930717D01*
X34782512Y-45926774D01*
X34802392Y-45924264D01*
X34845722Y-45907107D01*
X34851246Y-45905217D01*
X34854996Y-45904127D01*
X34895990Y-45892218D01*
X34913229Y-45882022D01*
X34930703Y-45873462D01*
X34949327Y-45866088D01*
X34949327Y-45866087D01*
X34949332Y-45866086D01*
X34987049Y-45838682D01*
X34991905Y-45835492D01*
X35032020Y-45811770D01*
X35046189Y-45797599D01*
X35060979Y-45784968D01*
X35077187Y-45773194D01*
X35106899Y-45737276D01*
X35110812Y-45732976D01*
X35903671Y-44940118D01*
X35964990Y-44906636D01*
X36034682Y-44911620D01*
X36062467Y-44926224D01*
X36152170Y-44989035D01*
X36366337Y-45088903D01*
X36366343Y-45088904D01*
X36366344Y-45088905D01*
X36381519Y-45092971D01*
X36594592Y-45150063D01*
X36765319Y-45165000D01*
X36829999Y-45170659D01*
X36830000Y-45170659D01*
X36830001Y-45170659D01*
X36894681Y-45165000D01*
X37065408Y-45150063D01*
X37165873Y-45123143D01*
X37235722Y-45124806D01*
X37285647Y-45155237D01*
X38809781Y-46679371D01*
X38843266Y-46740694D01*
X38846100Y-46767052D01*
X38846100Y-68502704D01*
X38826415Y-68569743D01*
X38773611Y-68615498D01*
X38734702Y-68626062D01*
X38647202Y-68635001D01*
X38647200Y-68635001D01*
X38480668Y-68690185D01*
X38480663Y-68690187D01*
X38331342Y-68782289D01*
X38207288Y-68906343D01*
X38207283Y-68906349D01*
X38205241Y-68909661D01*
X38203247Y-68911453D01*
X38202807Y-68912011D01*
X38202711Y-68911935D01*
X38153291Y-68956383D01*
X38084328Y-68967602D01*
X38020247Y-68939755D01*
X37994168Y-68909656D01*
X37992319Y-68906659D01*
X37992316Y-68906655D01*
X37868345Y-68782684D01*
X37719124Y-68690643D01*
X37719119Y-68690641D01*
X37552697Y-68635494D01*
X37552690Y-68635493D01*
X37449986Y-68625000D01*
X37400000Y-68625000D01*
X37400000Y-69976000D01*
X37380315Y-70043039D01*
X37327511Y-70088794D01*
X37276000Y-70100000D01*
X36150001Y-70100000D01*
X36150001Y-70374986D01*
X36160494Y-70477697D01*
X36215641Y-70644119D01*
X36215643Y-70644124D01*
X36307684Y-70793345D01*
X36431654Y-70917315D01*
X36580875Y-71009356D01*
X36580880Y-71009358D01*
X36747302Y-71064505D01*
X36747309Y-71064506D01*
X36850019Y-71074999D01*
X36907198Y-71074999D01*
X36974238Y-71094682D01*
X37019994Y-71147486D01*
X37031200Y-71198999D01*
X37031200Y-72100900D01*
X37011515Y-72167939D01*
X36958711Y-72213694D01*
X36907200Y-72224900D01*
X35902900Y-72224900D01*
X35902900Y-76619100D01*
X36907700Y-76619100D01*
X36974739Y-76638785D01*
X37020494Y-76691589D01*
X37031700Y-76743100D01*
X37031700Y-77713043D01*
X37038101Y-77772571D01*
X37038103Y-77772578D01*
X37088345Y-77907285D01*
X37088349Y-77907292D01*
X37174509Y-78022386D01*
X37174512Y-78022389D01*
X37289606Y-78108549D01*
X37289613Y-78108553D01*
X37424320Y-78158795D01*
X37424327Y-78158797D01*
X37483855Y-78165198D01*
X37483872Y-78165199D01*
X37850000Y-78165199D01*
X37850000Y-76450199D01*
X37869685Y-76383160D01*
X37922489Y-76337405D01*
X37974000Y-76326199D01*
X38226000Y-76326199D01*
X38293039Y-76345884D01*
X38338794Y-76398688D01*
X38350000Y-76450199D01*
X38350000Y-78165199D01*
X38716128Y-78165199D01*
X38716144Y-78165198D01*
X38775672Y-78158797D01*
X38775679Y-78158795D01*
X38910386Y-78108553D01*
X38910393Y-78108549D01*
X39025487Y-78022389D01*
X39025490Y-78022386D01*
X39111650Y-77907292D01*
X39111654Y-77907285D01*
X39161896Y-77772578D01*
X39161898Y-77772571D01*
X39168299Y-77713043D01*
X39168300Y-77713026D01*
X39168300Y-76743100D01*
X39187985Y-76676061D01*
X39240789Y-76630306D01*
X39292300Y-76619100D01*
X40297100Y-76619100D01*
X40297100Y-74922469D01*
X40972302Y-74922469D01*
X40972303Y-74922475D01*
X40978710Y-74982082D01*
X41029004Y-75116927D01*
X41029008Y-75116934D01*
X41115254Y-75232143D01*
X41115257Y-75232146D01*
X41230466Y-75318392D01*
X41230473Y-75318396D01*
X41275420Y-75335160D01*
X41365319Y-75368690D01*
X41424929Y-75375099D01*
X42120674Y-75375098D01*
X42180285Y-75368690D01*
X42315133Y-75318395D01*
X42430348Y-75232145D01*
X42516598Y-75116930D01*
X42566893Y-74982082D01*
X42573302Y-74922472D01*
X42573302Y-74922469D01*
X42872301Y-74922469D01*
X42872302Y-74922475D01*
X42878709Y-74982082D01*
X42929003Y-75116927D01*
X42929007Y-75116934D01*
X43015253Y-75232143D01*
X43015256Y-75232146D01*
X43130465Y-75318392D01*
X43130472Y-75318396D01*
X43175419Y-75335160D01*
X43265318Y-75368690D01*
X43324928Y-75375099D01*
X44020673Y-75375098D01*
X44080284Y-75368690D01*
X44215132Y-75318395D01*
X44330347Y-75232145D01*
X44416597Y-75116930D01*
X44466892Y-74982082D01*
X44473301Y-74922472D01*
X44473300Y-73826727D01*
X44466892Y-73767116D01*
X44436712Y-73686200D01*
X44416598Y-73632270D01*
X44416594Y-73632263D01*
X44330348Y-73517054D01*
X44330345Y-73517051D01*
X44215136Y-73430805D01*
X44215129Y-73430801D01*
X44080287Y-73380509D01*
X44080286Y-73380508D01*
X44080284Y-73380508D01*
X44020674Y-73374099D01*
X44020664Y-73374099D01*
X43324930Y-73374099D01*
X43324924Y-73374100D01*
X43265317Y-73380507D01*
X43130472Y-73430801D01*
X43130465Y-73430805D01*
X43015256Y-73517051D01*
X43015253Y-73517054D01*
X42929007Y-73632263D01*
X42929003Y-73632270D01*
X42878709Y-73767116D01*
X42872302Y-73826715D01*
X42872302Y-73826722D01*
X42872301Y-73826734D01*
X42872301Y-74922469D01*
X42573302Y-74922469D01*
X42573301Y-73826727D01*
X42566893Y-73767116D01*
X42536713Y-73686200D01*
X42516599Y-73632270D01*
X42516595Y-73632263D01*
X42430349Y-73517054D01*
X42430346Y-73517051D01*
X42315137Y-73430805D01*
X42315130Y-73430801D01*
X42180288Y-73380509D01*
X42180287Y-73380508D01*
X42180285Y-73380508D01*
X42120675Y-73374099D01*
X42120665Y-73374099D01*
X41424931Y-73374099D01*
X41424925Y-73374100D01*
X41365318Y-73380507D01*
X41230473Y-73430801D01*
X41230466Y-73430805D01*
X41115257Y-73517051D01*
X41115254Y-73517054D01*
X41029008Y-73632263D01*
X41029004Y-73632270D01*
X40978710Y-73767116D01*
X40972303Y-73826715D01*
X40972303Y-73826722D01*
X40972302Y-73826734D01*
X40972302Y-74922469D01*
X40297100Y-74922469D01*
X40297100Y-72374099D01*
X40316785Y-72307060D01*
X40369589Y-72261305D01*
X40421100Y-72250099D01*
X40899335Y-72250099D01*
X40966374Y-72269784D01*
X41012129Y-72322588D01*
X41015517Y-72330765D01*
X41029005Y-72366929D01*
X41029008Y-72366934D01*
X41115254Y-72482143D01*
X41115257Y-72482146D01*
X41230466Y-72568392D01*
X41230473Y-72568396D01*
X41275420Y-72585160D01*
X41365319Y-72618690D01*
X41424929Y-72625099D01*
X42120674Y-72625098D01*
X42180285Y-72618690D01*
X42204466Y-72609670D01*
X42274156Y-72604685D01*
X42291135Y-72609671D01*
X42315311Y-72618688D01*
X42315317Y-72618690D01*
X42374927Y-72625099D01*
X43070672Y-72625098D01*
X43130283Y-72618690D01*
X43155180Y-72609403D01*
X43224870Y-72604418D01*
X43241848Y-72609403D01*
X43265424Y-72618196D01*
X43265428Y-72618197D01*
X43324956Y-72624598D01*
X43324973Y-72624599D01*
X43422801Y-72624599D01*
X43422801Y-72466702D01*
X43442486Y-72399663D01*
X43447518Y-72392414D01*
X43466596Y-72366930D01*
X43516891Y-72232082D01*
X43523300Y-72172472D01*
X43523300Y-71874599D01*
X43922801Y-71874599D01*
X43922801Y-72624599D01*
X44020629Y-72624599D01*
X44020645Y-72624598D01*
X44080173Y-72618197D01*
X44080180Y-72618195D01*
X44214887Y-72567953D01*
X44214894Y-72567949D01*
X44329988Y-72481789D01*
X44329991Y-72481786D01*
X44416151Y-72366692D01*
X44416155Y-72366685D01*
X44466397Y-72231978D01*
X44466399Y-72231971D01*
X44472800Y-72172443D01*
X44472801Y-72172426D01*
X44472801Y-71874599D01*
X43922801Y-71874599D01*
X43523300Y-71874599D01*
X43523299Y-71549098D01*
X43542983Y-71482060D01*
X43595787Y-71436305D01*
X43647299Y-71425099D01*
X45566946Y-71425099D01*
X45633985Y-71444784D01*
X45654627Y-71461418D01*
X46206428Y-72013219D01*
X46239913Y-72074542D01*
X46234929Y-72144234D01*
X46193057Y-72200167D01*
X46127593Y-72224584D01*
X46118747Y-72224900D01*
X45148500Y-72224900D01*
X45148500Y-76619100D01*
X46153300Y-76619100D01*
X46220339Y-76638785D01*
X46266094Y-76691589D01*
X46277300Y-76743100D01*
X46277300Y-77713043D01*
X46283701Y-77772571D01*
X46283703Y-77772578D01*
X46333945Y-77907285D01*
X46333949Y-77907292D01*
X46420109Y-78022386D01*
X46420112Y-78022389D01*
X46535206Y-78108549D01*
X46535213Y-78108553D01*
X46669920Y-78158795D01*
X46669927Y-78158797D01*
X46729455Y-78165198D01*
X46729472Y-78165199D01*
X47095600Y-78165199D01*
X47095600Y-76450199D01*
X47115285Y-76383160D01*
X47168089Y-76337405D01*
X47219600Y-76326199D01*
X47471600Y-76326199D01*
X47538639Y-76345884D01*
X47584394Y-76398688D01*
X47595600Y-76450199D01*
X47595600Y-78165199D01*
X47961728Y-78165199D01*
X47961744Y-78165198D01*
X48021272Y-78158797D01*
X48021279Y-78158795D01*
X48155986Y-78108553D01*
X48155993Y-78108549D01*
X48271087Y-78022389D01*
X48271090Y-78022386D01*
X48357250Y-77907292D01*
X48357254Y-77907285D01*
X48407496Y-77772578D01*
X48407498Y-77772571D01*
X48413899Y-77713043D01*
X48413900Y-77713026D01*
X48413900Y-76743100D01*
X48433585Y-76676061D01*
X48486389Y-76630306D01*
X48537900Y-76619100D01*
X49542700Y-76619100D01*
X49542700Y-72849400D01*
X49562385Y-72782361D01*
X49615189Y-72736606D01*
X49666700Y-72725400D01*
X49870700Y-72725400D01*
X49937739Y-72745085D01*
X49983494Y-72797889D01*
X49994700Y-72849400D01*
X49994700Y-74279370D01*
X49994701Y-74279376D01*
X50001108Y-74338983D01*
X50051402Y-74473828D01*
X50051406Y-74473835D01*
X50137652Y-74589044D01*
X50137655Y-74589047D01*
X50252864Y-74675293D01*
X50252871Y-74675297D01*
X50387717Y-74725591D01*
X50387716Y-74725591D01*
X50394644Y-74726335D01*
X50447327Y-74732000D01*
X52301600Y-74731999D01*
X52368639Y-74751684D01*
X52414394Y-74804487D01*
X52425600Y-74855999D01*
X52425600Y-75018900D01*
X54864000Y-75018900D01*
X54864000Y-74855999D01*
X54883685Y-74788960D01*
X54936489Y-74743205D01*
X54987995Y-74731999D01*
X56842272Y-74731999D01*
X56901883Y-74725591D01*
X57036731Y-74675296D01*
X57151946Y-74589046D01*
X57238196Y-74473831D01*
X57288491Y-74338983D01*
X57294900Y-74279373D01*
X57294899Y-72596850D01*
X57314584Y-72529812D01*
X57331213Y-72509175D01*
X59592371Y-70248019D01*
X59653694Y-70214534D01*
X59680052Y-70211700D01*
X61580172Y-70211700D01*
X61647211Y-70231385D01*
X61692966Y-70284189D01*
X61695588Y-70290370D01*
X61708566Y-70323435D01*
X61709609Y-70326092D01*
X61750965Y-70397722D01*
X61837041Y-70546812D01*
X61995950Y-70746077D01*
X62182783Y-70919432D01*
X62393366Y-71063005D01*
X62393369Y-71063006D01*
X62393370Y-71063007D01*
X62575010Y-71150480D01*
X62626869Y-71197302D01*
X62645182Y-71264729D01*
X62624134Y-71331353D01*
X62570408Y-71376022D01*
X62521208Y-71386200D01*
X61998155Y-71386200D01*
X61938627Y-71392601D01*
X61938620Y-71392603D01*
X61803913Y-71442845D01*
X61803906Y-71442849D01*
X61688812Y-71529009D01*
X61688809Y-71529012D01*
X61602649Y-71644106D01*
X61602645Y-71644113D01*
X61552403Y-71778820D01*
X61552401Y-71778827D01*
X61546000Y-71838355D01*
X61546000Y-72836200D01*
X62700118Y-72836200D01*
X62661444Y-72929569D01*
X62640823Y-73086200D01*
X62661444Y-73242831D01*
X62700118Y-73336200D01*
X61546000Y-73336200D01*
X61546000Y-74334044D01*
X61552401Y-74393572D01*
X61552403Y-74393579D01*
X61602645Y-74528286D01*
X61602649Y-74528293D01*
X61688809Y-74643387D01*
X61688812Y-74643390D01*
X61803906Y-74729550D01*
X61803913Y-74729554D01*
X61938620Y-74779796D01*
X61938627Y-74779798D01*
X61998155Y-74786199D01*
X61998172Y-74786200D01*
X62996000Y-74786200D01*
X62996000Y-73632081D01*
X63089369Y-73670756D01*
X63206677Y-73686200D01*
X63285323Y-73686200D01*
X63402631Y-73670756D01*
X63496000Y-73632081D01*
X63496000Y-74786200D01*
X64493828Y-74786200D01*
X64493844Y-74786199D01*
X64553372Y-74779798D01*
X64553379Y-74779796D01*
X64688086Y-74729554D01*
X64688093Y-74729550D01*
X64803187Y-74643390D01*
X64803190Y-74643387D01*
X64889350Y-74528293D01*
X64889354Y-74528286D01*
X64939596Y-74393579D01*
X64939598Y-74393572D01*
X64945999Y-74334044D01*
X64946000Y-74334027D01*
X64946000Y-73336200D01*
X63791882Y-73336200D01*
X63830556Y-73242831D01*
X63851177Y-73086200D01*
X63830556Y-72929569D01*
X63791882Y-72836200D01*
X64946000Y-72836200D01*
X64946000Y-71838372D01*
X64945999Y-71838355D01*
X64939598Y-71778827D01*
X64939596Y-71778820D01*
X64889354Y-71644113D01*
X64889350Y-71644106D01*
X64803190Y-71529012D01*
X64803187Y-71529009D01*
X64688093Y-71442849D01*
X64688086Y-71442845D01*
X64553379Y-71392603D01*
X64553372Y-71392601D01*
X64493844Y-71386200D01*
X63970792Y-71386200D01*
X63903753Y-71366515D01*
X63857998Y-71313711D01*
X63848054Y-71244553D01*
X63877079Y-71180997D01*
X63916990Y-71150480D01*
X63957590Y-71130928D01*
X64098634Y-71063005D01*
X64309217Y-70919432D01*
X64496050Y-70746077D01*
X64654959Y-70546812D01*
X64782393Y-70326088D01*
X64875508Y-70088837D01*
X64932222Y-69840357D01*
X64945277Y-69666146D01*
X64951268Y-69586204D01*
X64951268Y-69586195D01*
X64932222Y-69332045D01*
X64907175Y-69222309D01*
X64875508Y-69083563D01*
X64782393Y-68846312D01*
X64654959Y-68625588D01*
X64654490Y-68625000D01*
X64652020Y-68621902D01*
X64625613Y-68557215D01*
X64638371Y-68488520D01*
X64686243Y-68437627D01*
X64703317Y-68429302D01*
X64719103Y-68423053D01*
X64756942Y-68395559D01*
X64761791Y-68392374D01*
X64802056Y-68368563D01*
X64816297Y-68354320D01*
X64831078Y-68341697D01*
X64847367Y-68329863D01*
X64847369Y-68329859D01*
X64847371Y-68329859D01*
X64870403Y-68302016D01*
X64877176Y-68293828D01*
X64881089Y-68289528D01*
X65764643Y-67405974D01*
X65776925Y-67396137D01*
X65776744Y-67395918D01*
X65782752Y-67390946D01*
X65782762Y-67390940D01*
X65830277Y-67340341D01*
X65851223Y-67319396D01*
X65855492Y-67313890D01*
X65859276Y-67309459D01*
X65891293Y-67275367D01*
X65900989Y-67257728D01*
X65911673Y-67241461D01*
X65924008Y-67225562D01*
X65942583Y-67182634D01*
X65945134Y-67177427D01*
X65967672Y-67136434D01*
X65972678Y-67116934D01*
X65978976Y-67098536D01*
X65986974Y-67080058D01*
X65994288Y-67033876D01*
X65995470Y-67028165D01*
X66007100Y-66982872D01*
X66007100Y-66962741D01*
X66008627Y-66943341D01*
X66011775Y-66923467D01*
X66007375Y-66876921D01*
X66007100Y-66871083D01*
X66007100Y-64802764D01*
X66008828Y-64787113D01*
X66008546Y-64787087D01*
X66009280Y-64779324D01*
X66007100Y-64709940D01*
X66007100Y-64680330D01*
X66007100Y-64680324D01*
X66006226Y-64673407D01*
X66005769Y-64667592D01*
X66004301Y-64620857D01*
X65998684Y-64601527D01*
X65994738Y-64582468D01*
X65992217Y-64562511D01*
X65992216Y-64562509D01*
X65992216Y-64562507D01*
X65975003Y-64519034D01*
X65973114Y-64513513D01*
X65960067Y-64468607D01*
X65949825Y-64451289D01*
X65941262Y-64433811D01*
X65933853Y-64415097D01*
X65933853Y-64415096D01*
X65906371Y-64377272D01*
X65903167Y-64372396D01*
X65879363Y-64332144D01*
X65879361Y-64332142D01*
X65879359Y-64332139D01*
X65865131Y-64317912D01*
X65852496Y-64303120D01*
X65840663Y-64286833D01*
X65840660Y-64286831D01*
X65840660Y-64286830D01*
X65840659Y-64286829D01*
X65804635Y-64257028D01*
X65800313Y-64253094D01*
X64865425Y-63318206D01*
X64831940Y-63256883D01*
X64836924Y-63187191D01*
X64837624Y-63185359D01*
X64875508Y-63088837D01*
X64932222Y-62840357D01*
X64940705Y-62727156D01*
X64951268Y-62586204D01*
X64951268Y-62586195D01*
X64932222Y-62332045D01*
X64901054Y-62195490D01*
X64875508Y-62083563D01*
X64782393Y-61846312D01*
X64654959Y-61625588D01*
X64496050Y-61426323D01*
X64309217Y-61252968D01*
X64098634Y-61109395D01*
X64098630Y-61109393D01*
X64098627Y-61109391D01*
X64098626Y-61109390D01*
X63869006Y-60998812D01*
X63869008Y-60998812D01*
X63725970Y-60954691D01*
X63667711Y-60916121D01*
X63639553Y-60852176D01*
X63650437Y-60783159D01*
X63696906Y-60730982D01*
X63725970Y-60717709D01*
X63869004Y-60673589D01*
X64098634Y-60563005D01*
X64309217Y-60419432D01*
X64496050Y-60246077D01*
X64654959Y-60046812D01*
X64782393Y-59826088D01*
X64875508Y-59588837D01*
X64932222Y-59340357D01*
X64951268Y-59086200D01*
X64948105Y-59043995D01*
X64933864Y-58853959D01*
X64932222Y-58832043D01*
X64875508Y-58583563D01*
X64782393Y-58346312D01*
X64654959Y-58125588D01*
X64496050Y-57926323D01*
X64309217Y-57752968D01*
X64098634Y-57609395D01*
X64098630Y-57609393D01*
X64098627Y-57609391D01*
X64098626Y-57609390D01*
X63869006Y-57498812D01*
X63869008Y-57498812D01*
X63625466Y-57423689D01*
X63625462Y-57423688D01*
X63625458Y-57423687D01*
X63504231Y-57405414D01*
X63373440Y-57385700D01*
X63373435Y-57385700D01*
X63118565Y-57385700D01*
X63118559Y-57385700D01*
X62961609Y-57409357D01*
X62866542Y-57423687D01*
X62866539Y-57423688D01*
X62866533Y-57423689D01*
X62622992Y-57498812D01*
X62393373Y-57609390D01*
X62393372Y-57609391D01*
X62182782Y-57752968D01*
X61995952Y-57926321D01*
X61995950Y-57926323D01*
X61837041Y-58125588D01*
X61709608Y-58346309D01*
X61616492Y-58583562D01*
X61616490Y-58583569D01*
X61559777Y-58832045D01*
X61540732Y-59086195D01*
X61540732Y-59086204D01*
X61559777Y-59340354D01*
X61584913Y-59450484D01*
X61616492Y-59588837D01*
X61709607Y-59826088D01*
X61837041Y-60046812D01*
X61995950Y-60246077D01*
X62182783Y-60419432D01*
X62393366Y-60563005D01*
X62393371Y-60563007D01*
X62393372Y-60563008D01*
X62393373Y-60563009D01*
X62515328Y-60621738D01*
X62622992Y-60673587D01*
X62622993Y-60673587D01*
X62622996Y-60673589D01*
X62729360Y-60706397D01*
X62766029Y-60717709D01*
X62824288Y-60756280D01*
X62852446Y-60820224D01*
X62841562Y-60889241D01*
X62795093Y-60941418D01*
X62766029Y-60954691D01*
X62622992Y-60998812D01*
X62393373Y-61109390D01*
X62393372Y-61109391D01*
X62182782Y-61252968D01*
X61995952Y-61426321D01*
X61995950Y-61426323D01*
X61837041Y-61625588D01*
X61709608Y-61846309D01*
X61616492Y-62083562D01*
X61616490Y-62083569D01*
X61559777Y-62332045D01*
X61540732Y-62586195D01*
X61540732Y-62586204D01*
X61559777Y-62840354D01*
X61559778Y-62840357D01*
X61616492Y-63088837D01*
X61700467Y-63302801D01*
X61709608Y-63326090D01*
X61728023Y-63357985D01*
X61837041Y-63546812D01*
X61995950Y-63746077D01*
X62182783Y-63919432D01*
X62393366Y-64063005D01*
X62393371Y-64063007D01*
X62393372Y-64063008D01*
X62393373Y-64063009D01*
X62515328Y-64121738D01*
X62622992Y-64173587D01*
X62622993Y-64173587D01*
X62622996Y-64173589D01*
X62729360Y-64206397D01*
X62766029Y-64217709D01*
X62824288Y-64256280D01*
X62852446Y-64320224D01*
X62841562Y-64389241D01*
X62795093Y-64441418D01*
X62766029Y-64454691D01*
X62622992Y-64498812D01*
X62393373Y-64609390D01*
X62393372Y-64609391D01*
X62182782Y-64752968D01*
X61995952Y-64926321D01*
X61995950Y-64926323D01*
X61837041Y-65125588D01*
X61709609Y-65346307D01*
X61709607Y-65346311D01*
X61709607Y-65346312D01*
X61695599Y-65382003D01*
X61652785Y-65437215D01*
X61586915Y-65460517D01*
X61580172Y-65460700D01*
X56042537Y-65460700D01*
X56026920Y-65458976D01*
X56026893Y-65459262D01*
X56019131Y-65458527D01*
X55950003Y-65460700D01*
X55920450Y-65460700D01*
X55919729Y-65460790D01*
X55913557Y-65461569D01*
X55907745Y-65462026D01*
X55861172Y-65463490D01*
X55861169Y-65463491D01*
X55841926Y-65469081D01*
X55822883Y-65473025D01*
X55803004Y-65475536D01*
X55803003Y-65475537D01*
X55759678Y-65492690D01*
X55754152Y-65494582D01*
X55709408Y-65507583D01*
X55709404Y-65507585D01*
X55692165Y-65517780D01*
X55674698Y-65526337D01*
X55656069Y-65533712D01*
X55656067Y-65533713D01*
X55618364Y-65561106D01*
X55613482Y-65564312D01*
X55573380Y-65588028D01*
X55559208Y-65602200D01*
X55544423Y-65614828D01*
X55528212Y-65626607D01*
X55498509Y-65662510D01*
X55494577Y-65666831D01*
X54811396Y-66350011D01*
X54750073Y-66383496D01*
X54680381Y-66378512D01*
X54624448Y-66336640D01*
X54600031Y-66271176D01*
X54606009Y-66223330D01*
X54615199Y-66195597D01*
X54625700Y-66092809D01*
X54625699Y-63992792D01*
X54615199Y-63890003D01*
X54560014Y-63723466D01*
X54467912Y-63574144D01*
X54343856Y-63450088D01*
X54194534Y-63357986D01*
X54027997Y-63302801D01*
X54027995Y-63302800D01*
X53925210Y-63292300D01*
X52525198Y-63292300D01*
X52525181Y-63292301D01*
X52422403Y-63302800D01*
X52422400Y-63302801D01*
X52255868Y-63357985D01*
X52255863Y-63357987D01*
X52106542Y-63450089D01*
X51982489Y-63574142D01*
X51890387Y-63723463D01*
X51890386Y-63723466D01*
X51835201Y-63890003D01*
X51835201Y-63890004D01*
X51835200Y-63890004D01*
X51824700Y-63992783D01*
X51824700Y-65633236D01*
X51821068Y-65658752D01*
X51821382Y-65658802D01*
X51812872Y-65712526D01*
X51811687Y-65718247D01*
X51800100Y-65763378D01*
X51800100Y-65783416D01*
X51798573Y-65802815D01*
X51795440Y-65822594D01*
X51795440Y-65822595D01*
X51799825Y-65868983D01*
X51800100Y-65874821D01*
X51800100Y-66414947D01*
X51780415Y-66481986D01*
X51727611Y-66527741D01*
X51658453Y-66537685D01*
X51594897Y-66508660D01*
X51588419Y-66502628D01*
X51106219Y-66020428D01*
X51072734Y-65959105D01*
X51069900Y-65932747D01*
X51069900Y-61292800D01*
X51825201Y-61292800D01*
X51825201Y-62092786D01*
X51835694Y-62195497D01*
X51890841Y-62361919D01*
X51890843Y-62361924D01*
X51982884Y-62511145D01*
X52106854Y-62635115D01*
X52256075Y-62727156D01*
X52256080Y-62727158D01*
X52422502Y-62782305D01*
X52422509Y-62782306D01*
X52525219Y-62792799D01*
X52975199Y-62792799D01*
X52975200Y-62792798D01*
X52975200Y-61292800D01*
X53475200Y-61292800D01*
X53475200Y-62792799D01*
X53925172Y-62792799D01*
X53925186Y-62792798D01*
X54027897Y-62782305D01*
X54194319Y-62727158D01*
X54194324Y-62727156D01*
X54343545Y-62635115D01*
X54467515Y-62511145D01*
X54559556Y-62361924D01*
X54559558Y-62361919D01*
X54614705Y-62195497D01*
X54614706Y-62195490D01*
X54625199Y-62092786D01*
X54625200Y-62092773D01*
X54625200Y-61292800D01*
X53475200Y-61292800D01*
X52975200Y-61292800D01*
X51825201Y-61292800D01*
X51069900Y-61292800D01*
X51069900Y-60792800D01*
X51825200Y-60792800D01*
X52975200Y-60792800D01*
X52975200Y-59292800D01*
X53475200Y-59292800D01*
X53475200Y-60792800D01*
X54625199Y-60792800D01*
X54625199Y-59992828D01*
X54625198Y-59992813D01*
X54614705Y-59890102D01*
X54559558Y-59723680D01*
X54559556Y-59723675D01*
X54467515Y-59574454D01*
X54343545Y-59450484D01*
X54194324Y-59358443D01*
X54194319Y-59358441D01*
X54027897Y-59303294D01*
X54027890Y-59303293D01*
X53925186Y-59292800D01*
X53475200Y-59292800D01*
X52975200Y-59292800D01*
X52525228Y-59292800D01*
X52525212Y-59292801D01*
X52422502Y-59303294D01*
X52256080Y-59358441D01*
X52256075Y-59358443D01*
X52106854Y-59450484D01*
X51982884Y-59574454D01*
X51890843Y-59723675D01*
X51890841Y-59723680D01*
X51835694Y-59890102D01*
X51835693Y-59890109D01*
X51825200Y-59992813D01*
X51825200Y-60792800D01*
X51069900Y-60792800D01*
X51069900Y-58867647D01*
X51071624Y-58852027D01*
X51071339Y-58852001D01*
X51072071Y-58844245D01*
X51072073Y-58844238D01*
X51069900Y-58775090D01*
X51069900Y-58745555D01*
X51069031Y-58738677D01*
X51068572Y-58732848D01*
X51067109Y-58686277D01*
X51061522Y-58667049D01*
X51057574Y-58647989D01*
X51055063Y-58628109D01*
X51037912Y-58584792D01*
X51036019Y-58579263D01*
X51023018Y-58534514D01*
X51023016Y-58534511D01*
X51012823Y-58517276D01*
X51004261Y-58499799D01*
X50996887Y-58481175D01*
X50996886Y-58481173D01*
X50969479Y-58443450D01*
X50966288Y-58438591D01*
X50942572Y-58398488D01*
X50942565Y-58398479D01*
X50928406Y-58384320D01*
X50915768Y-58369524D01*
X50903994Y-58353318D01*
X50895525Y-58346312D01*
X50868088Y-58323614D01*
X50863776Y-58319691D01*
X50488959Y-57944874D01*
X50455474Y-57883551D01*
X50460458Y-57813859D01*
X50484488Y-57774223D01*
X50567333Y-57682216D01*
X50661979Y-57518284D01*
X50720474Y-57338256D01*
X50740260Y-57150000D01*
X50727914Y-57032537D01*
X50740483Y-56963811D01*
X50788215Y-56912787D01*
X50807895Y-56903400D01*
X50861532Y-56883395D01*
X50976747Y-56797145D01*
X51062997Y-56681930D01*
X51113292Y-56547082D01*
X51119701Y-56487472D01*
X51119700Y-55961727D01*
X51114194Y-55910506D01*
X51114195Y-55883997D01*
X51119200Y-55837445D01*
X51119201Y-55837428D01*
X51119201Y-55789601D01*
X51109812Y-55780212D01*
X51074746Y-55769916D01*
X51042518Y-55739911D01*
X51018778Y-55708198D01*
X50994361Y-55642734D01*
X51009213Y-55574461D01*
X51058618Y-55525056D01*
X51083447Y-55514812D01*
X51123362Y-55503217D01*
X51140601Y-55493021D01*
X51158075Y-55484461D01*
X51176699Y-55477087D01*
X51176699Y-55477086D01*
X51176704Y-55477085D01*
X51214421Y-55449681D01*
X51219277Y-55446491D01*
X51259392Y-55422769D01*
X51273561Y-55408598D01*
X51288351Y-55395967D01*
X51304559Y-55384193D01*
X51334271Y-55348275D01*
X51338184Y-55343975D01*
X55831359Y-50850800D01*
X65090741Y-50850800D01*
X65111336Y-51086203D01*
X65111338Y-51086213D01*
X65172494Y-51314455D01*
X65172496Y-51314459D01*
X65172497Y-51314463D01*
X65272365Y-51528630D01*
X65272367Y-51528634D01*
X65380681Y-51683321D01*
X65407905Y-51722201D01*
X65574999Y-51889295D01*
X65643804Y-51937473D01*
X65768565Y-52024832D01*
X65768567Y-52024833D01*
X65768570Y-52024835D01*
X65982737Y-52124703D01*
X66210992Y-52185863D01*
X66396658Y-52202107D01*
X66446399Y-52206459D01*
X66446400Y-52206459D01*
X66446401Y-52206459D01*
X66496142Y-52202107D01*
X66681808Y-52185863D01*
X66910063Y-52124703D01*
X67124230Y-52024835D01*
X67317801Y-51889295D01*
X67484895Y-51722201D01*
X67620435Y-51528630D01*
X67720303Y-51314463D01*
X67781463Y-51086208D01*
X67802059Y-50850800D01*
X67800685Y-50835101D01*
X67781585Y-50616792D01*
X67781463Y-50615392D01*
X67720303Y-50387137D01*
X67620435Y-50172971D01*
X67609812Y-50157799D01*
X67484894Y-49979397D01*
X67317802Y-49812306D01*
X67317796Y-49812301D01*
X67132242Y-49682375D01*
X67088617Y-49627798D01*
X67081423Y-49558300D01*
X67112946Y-49495945D01*
X67132242Y-49479225D01*
X67313239Y-49352489D01*
X67317801Y-49349295D01*
X67484895Y-49182201D01*
X67620435Y-48988630D01*
X67720303Y-48774463D01*
X67781463Y-48546208D01*
X67802059Y-48310800D01*
X67798458Y-48269647D01*
X67792110Y-48197081D01*
X67781463Y-48075392D01*
X67720303Y-47847137D01*
X67620435Y-47632971D01*
X67484895Y-47439399D01*
X67484894Y-47439397D01*
X67317802Y-47272306D01*
X67317796Y-47272301D01*
X67132242Y-47142375D01*
X67088617Y-47087798D01*
X67081423Y-47018300D01*
X67112946Y-46955945D01*
X67132242Y-46939225D01*
X67154426Y-46923691D01*
X67317801Y-46809295D01*
X67484895Y-46642201D01*
X67620435Y-46448630D01*
X67720303Y-46234463D01*
X67781463Y-46006208D01*
X67802059Y-45770800D01*
X67781463Y-45535392D01*
X67720303Y-45307137D01*
X67620435Y-45092971D01*
X67617586Y-45088901D01*
X67484894Y-44899397D01*
X67317802Y-44732306D01*
X67317796Y-44732301D01*
X67132242Y-44602375D01*
X67088617Y-44547798D01*
X67081423Y-44478300D01*
X67112946Y-44415945D01*
X67132242Y-44399225D01*
X67238653Y-44324715D01*
X67317801Y-44269295D01*
X67484895Y-44102201D01*
X67620435Y-43908630D01*
X67720303Y-43694463D01*
X67781463Y-43466208D01*
X67802059Y-43230800D01*
X67781463Y-42995392D01*
X67720303Y-42767137D01*
X67620435Y-42552971D01*
X67612122Y-42541098D01*
X67484894Y-42359397D01*
X67317802Y-42192306D01*
X67317801Y-42192305D01*
X67131805Y-42062069D01*
X67088181Y-42007492D01*
X67080988Y-41937993D01*
X67112510Y-41875639D01*
X67131805Y-41858919D01*
X67317482Y-41728905D01*
X67484505Y-41561882D01*
X67620000Y-41368378D01*
X67719829Y-41154292D01*
X67719832Y-41154286D01*
X67777036Y-40940800D01*
X66880086Y-40940800D01*
X66905893Y-40900644D01*
X66946400Y-40762689D01*
X66946400Y-40618911D01*
X66905893Y-40480956D01*
X66880086Y-40440800D01*
X67777036Y-40440800D01*
X67777035Y-40440799D01*
X67719832Y-40227313D01*
X67719829Y-40227307D01*
X67620000Y-40013222D01*
X67619999Y-40013220D01*
X67484513Y-39819726D01*
X67484508Y-39819720D01*
X67362065Y-39697277D01*
X67328580Y-39635954D01*
X67333564Y-39566262D01*
X67375436Y-39510329D01*
X67406413Y-39493414D01*
X67538486Y-39444154D01*
X67538493Y-39444150D01*
X67653587Y-39357990D01*
X67653590Y-39357987D01*
X67739750Y-39242893D01*
X67739754Y-39242886D01*
X67789996Y-39108179D01*
X67789998Y-39108172D01*
X67796399Y-39048644D01*
X67796400Y-39048627D01*
X67796400Y-38400800D01*
X66880086Y-38400800D01*
X66905893Y-38360644D01*
X66946400Y-38222689D01*
X66946400Y-38078911D01*
X66905893Y-37940956D01*
X66880086Y-37900800D01*
X67796400Y-37900800D01*
X67796400Y-37252972D01*
X67796399Y-37252955D01*
X67789998Y-37193427D01*
X67789996Y-37193420D01*
X67739754Y-37058713D01*
X67739750Y-37058706D01*
X67653590Y-36943612D01*
X67653587Y-36943609D01*
X67538493Y-36857449D01*
X67538486Y-36857445D01*
X67403779Y-36807203D01*
X67403772Y-36807201D01*
X67344244Y-36800800D01*
X66696400Y-36800800D01*
X66696400Y-37715298D01*
X66588715Y-37666120D01*
X66482163Y-37650800D01*
X66410637Y-37650800D01*
X66304085Y-37666120D01*
X66196400Y-37715298D01*
X66196400Y-36800800D01*
X65548555Y-36800800D01*
X65489027Y-36807201D01*
X65489020Y-36807203D01*
X65354313Y-36857445D01*
X65354306Y-36857449D01*
X65239212Y-36943609D01*
X65239209Y-36943612D01*
X65153049Y-37058706D01*
X65153045Y-37058713D01*
X65102803Y-37193420D01*
X65102801Y-37193427D01*
X65096400Y-37252955D01*
X65096400Y-37900800D01*
X66012714Y-37900800D01*
X65986907Y-37940956D01*
X65946400Y-38078911D01*
X65946400Y-38222689D01*
X65986907Y-38360644D01*
X66012714Y-38400800D01*
X65096400Y-38400800D01*
X65096400Y-39048644D01*
X65102801Y-39108172D01*
X65102803Y-39108179D01*
X65153045Y-39242886D01*
X65153049Y-39242893D01*
X65239209Y-39357987D01*
X65239212Y-39357990D01*
X65354306Y-39444150D01*
X65354313Y-39444154D01*
X65486386Y-39493414D01*
X65542320Y-39535285D01*
X65566737Y-39600749D01*
X65551886Y-39669022D01*
X65530735Y-39697277D01*
X65408286Y-39819726D01*
X65272800Y-40013220D01*
X65272799Y-40013222D01*
X65172970Y-40227307D01*
X65172967Y-40227313D01*
X65115764Y-40440799D01*
X65115764Y-40440800D01*
X66012714Y-40440800D01*
X65986907Y-40480956D01*
X65946400Y-40618911D01*
X65946400Y-40762689D01*
X65986907Y-40900644D01*
X66012714Y-40940800D01*
X65115764Y-40940800D01*
X65172967Y-41154286D01*
X65172970Y-41154292D01*
X65272799Y-41368378D01*
X65408294Y-41561882D01*
X65575317Y-41728905D01*
X65760995Y-41858919D01*
X65804619Y-41913496D01*
X65811812Y-41982995D01*
X65780290Y-42045349D01*
X65760995Y-42062069D01*
X65574994Y-42192308D01*
X65407905Y-42359397D01*
X65272365Y-42552969D01*
X65272364Y-42552971D01*
X65172498Y-42767135D01*
X65172494Y-42767144D01*
X65111338Y-42995386D01*
X65111336Y-42995396D01*
X65090741Y-43230799D01*
X65090741Y-43230800D01*
X65111336Y-43466203D01*
X65111338Y-43466213D01*
X65172494Y-43694455D01*
X65172496Y-43694459D01*
X65172497Y-43694463D01*
X65242414Y-43844400D01*
X65272365Y-43908630D01*
X65272367Y-43908634D01*
X65407901Y-44102195D01*
X65407906Y-44102202D01*
X65574997Y-44269293D01*
X65575003Y-44269298D01*
X65760558Y-44399225D01*
X65804183Y-44453802D01*
X65811377Y-44523300D01*
X65779854Y-44585655D01*
X65760558Y-44602375D01*
X65574997Y-44732305D01*
X65407905Y-44899397D01*
X65272365Y-45092969D01*
X65272364Y-45092971D01*
X65172498Y-45307135D01*
X65172494Y-45307144D01*
X65111338Y-45535386D01*
X65111336Y-45535396D01*
X65090741Y-45770799D01*
X65090741Y-45770800D01*
X65111336Y-46006203D01*
X65111338Y-46006213D01*
X65172494Y-46234455D01*
X65172496Y-46234459D01*
X65172497Y-46234463D01*
X65272365Y-46448630D01*
X65272367Y-46448634D01*
X65407901Y-46642195D01*
X65407906Y-46642202D01*
X65574997Y-46809293D01*
X65575003Y-46809298D01*
X65760558Y-46939225D01*
X65804183Y-46993802D01*
X65811377Y-47063300D01*
X65779854Y-47125655D01*
X65760558Y-47142375D01*
X65574997Y-47272305D01*
X65407905Y-47439397D01*
X65272365Y-47632969D01*
X65272364Y-47632971D01*
X65172498Y-47847135D01*
X65172494Y-47847144D01*
X65111338Y-48075386D01*
X65111336Y-48075396D01*
X65090741Y-48310799D01*
X65090741Y-48310800D01*
X65111336Y-48546203D01*
X65111338Y-48546213D01*
X65172494Y-48774455D01*
X65172496Y-48774459D01*
X65172497Y-48774463D01*
X65232064Y-48902204D01*
X65272365Y-48988630D01*
X65272367Y-48988634D01*
X65407901Y-49182195D01*
X65407906Y-49182202D01*
X65574997Y-49349293D01*
X65575003Y-49349298D01*
X65760558Y-49479225D01*
X65804183Y-49533802D01*
X65811377Y-49603300D01*
X65779854Y-49665655D01*
X65760558Y-49682375D01*
X65574997Y-49812305D01*
X65407905Y-49979397D01*
X65272365Y-50172969D01*
X65272364Y-50172971D01*
X65172498Y-50387135D01*
X65172494Y-50387144D01*
X65111338Y-50615386D01*
X65111336Y-50615396D01*
X65090741Y-50850799D01*
X65090741Y-50850800D01*
X55831359Y-50850800D01*
X59345186Y-47336973D01*
X59357448Y-47327151D01*
X59357265Y-47326930D01*
X59363267Y-47321963D01*
X59363277Y-47321957D01*
X59410641Y-47271519D01*
X59431520Y-47250641D01*
X59435773Y-47245157D01*
X59439550Y-47240734D01*
X59471462Y-47206753D01*
X59481114Y-47189194D01*
X59491789Y-47172943D01*
X59504074Y-47157107D01*
X59522586Y-47114323D01*
X59525142Y-47109106D01*
X59547597Y-47068263D01*
X59552580Y-47048851D01*
X59558877Y-47030462D01*
X59566838Y-47012066D01*
X59574129Y-46966024D01*
X59575308Y-46960333D01*
X59586900Y-46915190D01*
X59586900Y-46895154D01*
X59588427Y-46875753D01*
X59591560Y-46855975D01*
X59587175Y-46809586D01*
X59586900Y-46803748D01*
X59586900Y-37136942D01*
X59588624Y-37121322D01*
X59588339Y-37121296D01*
X59589071Y-37113540D01*
X59589073Y-37113533D01*
X59586900Y-37044385D01*
X59586900Y-37014850D01*
X59586031Y-37007972D01*
X59585572Y-37002143D01*
X59584109Y-36955572D01*
X59578522Y-36936344D01*
X59574574Y-36917284D01*
X59572063Y-36897404D01*
X59554912Y-36854087D01*
X59553019Y-36848558D01*
X59540018Y-36803809D01*
X59540016Y-36803806D01*
X59529823Y-36786571D01*
X59521261Y-36769094D01*
X59513887Y-36750470D01*
X59513886Y-36750468D01*
X59486479Y-36712745D01*
X59483288Y-36707886D01*
X59459572Y-36667783D01*
X59459565Y-36667774D01*
X59445406Y-36653615D01*
X59432768Y-36638819D01*
X59420994Y-36622613D01*
X59385088Y-36592909D01*
X59380776Y-36588986D01*
X59142827Y-36351036D01*
X59109342Y-36289713D01*
X59114325Y-36220023D01*
X59130491Y-36176683D01*
X59136900Y-36117073D01*
X59136899Y-34901328D01*
X59130491Y-34841717D01*
X59080196Y-34706869D01*
X59080195Y-34706868D01*
X59080193Y-34706864D01*
X58993947Y-34591655D01*
X58993944Y-34591652D01*
X58878735Y-34505406D01*
X58878728Y-34505402D01*
X58743882Y-34455108D01*
X58743883Y-34455108D01*
X58684283Y-34448701D01*
X58684281Y-34448700D01*
X58684273Y-34448700D01*
X58684264Y-34448700D01*
X56148529Y-34448700D01*
X56148523Y-34448701D01*
X56088916Y-34455108D01*
X55954071Y-34505402D01*
X55954064Y-34505406D01*
X55838855Y-34591652D01*
X55838852Y-34591655D01*
X55752606Y-34706864D01*
X55752602Y-34706871D01*
X55702308Y-34841717D01*
X55696470Y-34896025D01*
X55695901Y-34901323D01*
X55695900Y-34901335D01*
X55695900Y-36117070D01*
X55695901Y-36117076D01*
X55702308Y-36176683D01*
X55752602Y-36311528D01*
X55752606Y-36311535D01*
X55838852Y-36426744D01*
X55838855Y-36426747D01*
X55954064Y-36512993D01*
X55954071Y-36512997D01*
X56088917Y-36563291D01*
X56088916Y-36563291D01*
X56095844Y-36564035D01*
X56148527Y-36569700D01*
X57540946Y-36569699D01*
X57607985Y-36589384D01*
X57628627Y-36606018D01*
X57799628Y-36777019D01*
X57833113Y-36838342D01*
X57828129Y-36908034D01*
X57786257Y-36963967D01*
X57720793Y-36988384D01*
X57711947Y-36988700D01*
X56148529Y-36988700D01*
X56148523Y-36988701D01*
X56088916Y-36995108D01*
X55954071Y-37045402D01*
X55954064Y-37045406D01*
X55838855Y-37131652D01*
X55838852Y-37131655D01*
X55752606Y-37246864D01*
X55752602Y-37246871D01*
X55702308Y-37381717D01*
X55697829Y-37423384D01*
X55695901Y-37441323D01*
X55695900Y-37441335D01*
X55695900Y-38657070D01*
X55695901Y-38657076D01*
X55702308Y-38716683D01*
X55752602Y-38851528D01*
X55752606Y-38851535D01*
X55838852Y-38966744D01*
X55838855Y-38966747D01*
X55954064Y-39052993D01*
X55954071Y-39052997D01*
X55999018Y-39069761D01*
X56088917Y-39103291D01*
X56148527Y-39109700D01*
X56666900Y-39109699D01*
X56733939Y-39129383D01*
X56779694Y-39182187D01*
X56790900Y-39233699D01*
X56790900Y-47434322D01*
X56771215Y-47501361D01*
X56754581Y-47522003D01*
X56309081Y-47967503D01*
X56247758Y-48000988D01*
X56178066Y-47996004D01*
X56122133Y-47954132D01*
X56097716Y-47888668D01*
X56097400Y-47879822D01*
X56097400Y-47849600D01*
X54382400Y-47849600D01*
X54315361Y-47829915D01*
X54269606Y-47777111D01*
X54258400Y-47725600D01*
X54258400Y-47473600D01*
X54278085Y-47406561D01*
X54330889Y-47360806D01*
X54382400Y-47349600D01*
X56097400Y-47349600D01*
X56097400Y-46983472D01*
X56097399Y-46983455D01*
X56090998Y-46923927D01*
X56090996Y-46923920D01*
X56040754Y-46789213D01*
X56040750Y-46789206D01*
X55954590Y-46674112D01*
X55954587Y-46674109D01*
X55839493Y-46587949D01*
X55839486Y-46587945D01*
X55704779Y-46537703D01*
X55704772Y-46537701D01*
X55645244Y-46531300D01*
X54675301Y-46531300D01*
X54608262Y-46511615D01*
X54562507Y-46458811D01*
X54551301Y-46407300D01*
X54551301Y-45402500D01*
X52718411Y-45402500D01*
X52651372Y-45382815D01*
X52605617Y-45330011D01*
X52595673Y-45260853D01*
X52624698Y-45197297D01*
X52653314Y-45172962D01*
X52671540Y-45161719D01*
X52671544Y-45161716D01*
X52795515Y-45037745D01*
X52887556Y-44888524D01*
X52887558Y-44888519D01*
X52942705Y-44722097D01*
X52942706Y-44722090D01*
X52953199Y-44619386D01*
X52953200Y-44619373D01*
X52953200Y-44344400D01*
X51827200Y-44344400D01*
X51760161Y-44324715D01*
X51714406Y-44271911D01*
X51703200Y-44220400D01*
X51703200Y-42869400D01*
X52203200Y-42869400D01*
X52203200Y-43844400D01*
X52953199Y-43844400D01*
X52953199Y-43569428D01*
X52953198Y-43569413D01*
X52942705Y-43466702D01*
X52887558Y-43300280D01*
X52887556Y-43300275D01*
X52795515Y-43151054D01*
X52671545Y-43027084D01*
X52522324Y-42935043D01*
X52522319Y-42935041D01*
X52355897Y-42879894D01*
X52355890Y-42879893D01*
X52253186Y-42869400D01*
X52203200Y-42869400D01*
X51703200Y-42869400D01*
X51703199Y-42869399D01*
X51653229Y-42869400D01*
X51653211Y-42869401D01*
X51550502Y-42879894D01*
X51384080Y-42935041D01*
X51384075Y-42935043D01*
X51234854Y-43027084D01*
X51110883Y-43151055D01*
X51110879Y-43151060D01*
X51109026Y-43154065D01*
X51107218Y-43155690D01*
X51106402Y-43156723D01*
X51106225Y-43156583D01*
X51057074Y-43200785D01*
X50988111Y-43212001D01*
X50924031Y-43184152D01*
X50897953Y-43154053D01*
X50897937Y-43154028D01*
X50895912Y-43150744D01*
X50771856Y-43026688D01*
X50771855Y-43026687D01*
X50716503Y-42992545D01*
X50669779Y-42940596D01*
X50657601Y-42887007D01*
X50657601Y-41904038D01*
X50677286Y-41836999D01*
X50689451Y-41821066D01*
X50701250Y-41807962D01*
X50770533Y-41731016D01*
X50865179Y-41567084D01*
X50923674Y-41387056D01*
X50943460Y-41198800D01*
X50923674Y-41010544D01*
X50865179Y-40830516D01*
X50770533Y-40666584D01*
X50643871Y-40525912D01*
X50643870Y-40525911D01*
X50490734Y-40414651D01*
X50490729Y-40414648D01*
X50317807Y-40337657D01*
X50317802Y-40337655D01*
X50172001Y-40306665D01*
X50132646Y-40298300D01*
X49943354Y-40298300D01*
X49910897Y-40305198D01*
X49758197Y-40337655D01*
X49758192Y-40337657D01*
X49585270Y-40414648D01*
X49585265Y-40414651D01*
X49432129Y-40525911D01*
X49305466Y-40666585D01*
X49210821Y-40830515D01*
X49210818Y-40830522D01*
X49174987Y-40940800D01*
X49152326Y-41010544D01*
X49132540Y-41198800D01*
X49152326Y-41387056D01*
X49152327Y-41387059D01*
X49210818Y-41567077D01*
X49210821Y-41567084D01*
X49305464Y-41731012D01*
X49305465Y-41731014D01*
X49305467Y-41731016D01*
X49374752Y-41807964D01*
X49404981Y-41870954D01*
X49406601Y-41890935D01*
X49406601Y-42913035D01*
X49386916Y-42980074D01*
X49347702Y-43018571D01*
X49334546Y-43026686D01*
X49334543Y-43026688D01*
X49210489Y-43150742D01*
X49118387Y-43300063D01*
X49118385Y-43300068D01*
X49118315Y-43300280D01*
X49063201Y-43466603D01*
X49063201Y-43466604D01*
X49063200Y-43466604D01*
X49052700Y-43569383D01*
X49052700Y-44619401D01*
X49052701Y-44619419D01*
X49063200Y-44722196D01*
X49063201Y-44722199D01*
X49118385Y-44888731D01*
X49118387Y-44888736D01*
X49129710Y-44907093D01*
X49210488Y-45038056D01*
X49334544Y-45162112D01*
X49347693Y-45170222D01*
X49394420Y-45222167D01*
X49406601Y-45275763D01*
X49406601Y-46406800D01*
X49386916Y-46473839D01*
X49334112Y-46519594D01*
X49282602Y-46530800D01*
X49063132Y-46530800D01*
X49063125Y-46530801D01*
X49003518Y-46537208D01*
X48868673Y-46587502D01*
X48868666Y-46587506D01*
X48753457Y-46673752D01*
X48753454Y-46673755D01*
X48667208Y-46788964D01*
X48667204Y-46788971D01*
X48628243Y-46893433D01*
X48586372Y-46949367D01*
X48520908Y-46973784D01*
X48512061Y-46974100D01*
X40925052Y-46974100D01*
X40858013Y-46954415D01*
X40837371Y-46937781D01*
X39955605Y-46056014D01*
X39942969Y-46041220D01*
X39931193Y-46025012D01*
X39931190Y-46025009D01*
X39895287Y-45995308D01*
X39890965Y-45991374D01*
X39389535Y-45489943D01*
X39389496Y-45489906D01*
X39156319Y-45256729D01*
X39122834Y-45195406D01*
X39120000Y-45169048D01*
X39120000Y-44250501D01*
X39227685Y-44299680D01*
X39334237Y-44315000D01*
X39405763Y-44315000D01*
X39512315Y-44299680D01*
X39620000Y-44250501D01*
X39620000Y-45145633D01*
X39833483Y-45088433D01*
X39833492Y-45088429D01*
X40047578Y-44988600D01*
X40241078Y-44853108D01*
X40363521Y-44730665D01*
X40424844Y-44697180D01*
X40494536Y-44702164D01*
X40550470Y-44744035D01*
X40567385Y-44775013D01*
X40616645Y-44907086D01*
X40616649Y-44907093D01*
X40702809Y-45022187D01*
X40702812Y-45022190D01*
X40817906Y-45108350D01*
X40817913Y-45108354D01*
X40952620Y-45158596D01*
X40952627Y-45158598D01*
X41012155Y-45164999D01*
X41012172Y-45165000D01*
X41660000Y-45165000D01*
X41660000Y-44250501D01*
X41767685Y-44299680D01*
X41874237Y-44315000D01*
X41945763Y-44315000D01*
X42052315Y-44299680D01*
X42160000Y-44250501D01*
X42160000Y-45165000D01*
X42807828Y-45165000D01*
X42807844Y-45164999D01*
X42867372Y-45158598D01*
X42867379Y-45158596D01*
X43002086Y-45108354D01*
X43002093Y-45108350D01*
X43117187Y-45022190D01*
X43117190Y-45022187D01*
X43203350Y-44907093D01*
X43203354Y-44907086D01*
X43253596Y-44772379D01*
X43253598Y-44772372D01*
X43259999Y-44712844D01*
X43260000Y-44712827D01*
X43260000Y-44065000D01*
X42343686Y-44065000D01*
X42369493Y-44024844D01*
X42410000Y-43886889D01*
X42410000Y-43743111D01*
X42369493Y-43605156D01*
X42343686Y-43565000D01*
X43260000Y-43565000D01*
X43260000Y-42917172D01*
X43259999Y-42917155D01*
X43253598Y-42857627D01*
X43253596Y-42857620D01*
X43203354Y-42722913D01*
X43203350Y-42722906D01*
X43117190Y-42607812D01*
X43117187Y-42607809D01*
X43002093Y-42521649D01*
X43002086Y-42521645D01*
X42867379Y-42471403D01*
X42867372Y-42471401D01*
X42807844Y-42465000D01*
X42160000Y-42465000D01*
X42160000Y-43379498D01*
X42052315Y-43330320D01*
X41945763Y-43315000D01*
X41874237Y-43315000D01*
X41767685Y-43330320D01*
X41660000Y-43379498D01*
X41660000Y-42465000D01*
X41012155Y-42465000D01*
X40952627Y-42471401D01*
X40952620Y-42471403D01*
X40817913Y-42521645D01*
X40817906Y-42521649D01*
X40702812Y-42607809D01*
X40702809Y-42607812D01*
X40616649Y-42722906D01*
X40616646Y-42722911D01*
X40567385Y-42854987D01*
X40525513Y-42910920D01*
X40460049Y-42935337D01*
X40391776Y-42920485D01*
X40363522Y-42899334D01*
X40241082Y-42776894D01*
X40047578Y-42641399D01*
X39833492Y-42541570D01*
X39833486Y-42541567D01*
X39620000Y-42484364D01*
X39620000Y-43379498D01*
X39512315Y-43330320D01*
X39405763Y-43315000D01*
X39334237Y-43315000D01*
X39227685Y-43330320D01*
X39120000Y-43379498D01*
X39120000Y-42484364D01*
X39119999Y-42484364D01*
X38906513Y-42541567D01*
X38906507Y-42541570D01*
X38692422Y-42641399D01*
X38692420Y-42641400D01*
X38498926Y-42776886D01*
X38498920Y-42776891D01*
X38331891Y-42943920D01*
X38331890Y-42943922D01*
X38201880Y-43129595D01*
X38147303Y-43173219D01*
X38077804Y-43180412D01*
X38015450Y-43148890D01*
X37998730Y-43129594D01*
X37868494Y-42943597D01*
X37701402Y-42776506D01*
X37701395Y-42776501D01*
X37507834Y-42640967D01*
X37507831Y-42640965D01*
X37507830Y-42640965D01*
X37436727Y-42607809D01*
X37347176Y-42566050D01*
X37294737Y-42519877D01*
X37275585Y-42452684D01*
X37295801Y-42385803D01*
X37311895Y-42365992D01*
X40966871Y-38711019D01*
X41028194Y-38677534D01*
X41054552Y-38674700D01*
X46990555Y-38674700D01*
X47057594Y-38694385D01*
X47103349Y-38747189D01*
X47106737Y-38755367D01*
X47142602Y-38851528D01*
X47142606Y-38851535D01*
X47228852Y-38966744D01*
X47228855Y-38966747D01*
X47344064Y-39052993D01*
X47344071Y-39052997D01*
X47478917Y-39103291D01*
X47478916Y-39103291D01*
X47485844Y-39104035D01*
X47538527Y-39109700D01*
X50074272Y-39109699D01*
X50133883Y-39103291D01*
X50268731Y-39052996D01*
X50383946Y-38966746D01*
X50470196Y-38851531D01*
X50520491Y-38716683D01*
X50526900Y-38657073D01*
X50526899Y-37441328D01*
X50520491Y-37381717D01*
X50472472Y-37252972D01*
X50470197Y-37246871D01*
X50470193Y-37246864D01*
X50383947Y-37131655D01*
X50383944Y-37131652D01*
X50268735Y-37045406D01*
X50268728Y-37045402D01*
X50133882Y-36995108D01*
X50133883Y-36995108D01*
X50074283Y-36988701D01*
X50074281Y-36988700D01*
X50074273Y-36988700D01*
X50074264Y-36988700D01*
X47538529Y-36988700D01*
X47538523Y-36988701D01*
X47478916Y-36995108D01*
X47344071Y-37045402D01*
X47344064Y-37045406D01*
X47228855Y-37131652D01*
X47228852Y-37131655D01*
X47142606Y-37246864D01*
X47142602Y-37246871D01*
X47106737Y-37343033D01*
X47064866Y-37398967D01*
X46999402Y-37423384D01*
X46990555Y-37423700D01*
X41865253Y-37423700D01*
X41798214Y-37404015D01*
X41752459Y-37351211D01*
X41742515Y-37282053D01*
X41771540Y-37218497D01*
X41777572Y-37212019D01*
X42818572Y-36171019D01*
X42879895Y-36137534D01*
X42906253Y-36134700D01*
X46990555Y-36134700D01*
X47057594Y-36154385D01*
X47103349Y-36207189D01*
X47106737Y-36215367D01*
X47142602Y-36311528D01*
X47142606Y-36311535D01*
X47228852Y-36426744D01*
X47228855Y-36426747D01*
X47344064Y-36512993D01*
X47344071Y-36512997D01*
X47478917Y-36563291D01*
X47478916Y-36563291D01*
X47485844Y-36564035D01*
X47538527Y-36569700D01*
X50074272Y-36569699D01*
X50133883Y-36563291D01*
X50268731Y-36512996D01*
X50383946Y-36426746D01*
X50470196Y-36311531D01*
X50520491Y-36176683D01*
X50526900Y-36117073D01*
X50526899Y-34901328D01*
X50520491Y-34841717D01*
X50470196Y-34706869D01*
X50470195Y-34706868D01*
X50470193Y-34706864D01*
X50383947Y-34591655D01*
X50383944Y-34591652D01*
X50268735Y-34505406D01*
X50268728Y-34505402D01*
X50133882Y-34455108D01*
X50133883Y-34455108D01*
X50074283Y-34448701D01*
X50074281Y-34448700D01*
X50074273Y-34448700D01*
X50074264Y-34448700D01*
X47538529Y-34448700D01*
X47538523Y-34448701D01*
X47478916Y-34455108D01*
X47344071Y-34505402D01*
X47344064Y-34505406D01*
X47228855Y-34591652D01*
X47228852Y-34591655D01*
X47142606Y-34706864D01*
X47142602Y-34706871D01*
X47106737Y-34803033D01*
X47064866Y-34858967D01*
X46999402Y-34883384D01*
X46990555Y-34883700D01*
X42678543Y-34883700D01*
X42662922Y-34881975D01*
X42662896Y-34882261D01*
X42655134Y-34881527D01*
X42655133Y-34881527D01*
X42585986Y-34883700D01*
X42556449Y-34883700D01*
X42549566Y-34884569D01*
X42543749Y-34885026D01*
X42497173Y-34886490D01*
X42477929Y-34892081D01*
X42458879Y-34896025D01*
X42439011Y-34898534D01*
X42395684Y-34915688D01*
X42390158Y-34917579D01*
X42345414Y-34930579D01*
X42345410Y-34930581D01*
X42328166Y-34940779D01*
X42310705Y-34949333D01*
X42292074Y-34956710D01*
X42292062Y-34956717D01*
X42254370Y-34984102D01*
X42249487Y-34987309D01*
X42209380Y-35011029D01*
X42195214Y-35025195D01*
X42180424Y-35037827D01*
X42164214Y-35049604D01*
X42164211Y-35049607D01*
X42134510Y-35085509D01*
X42130577Y-35089831D01*
X34745646Y-42474761D01*
X34684323Y-42508246D01*
X34625873Y-42506855D01*
X34525408Y-42479937D01*
X34290001Y-42459341D01*
X34289999Y-42459341D01*
X34054596Y-42479936D01*
X34054586Y-42479938D01*
X33826344Y-42541094D01*
X33826335Y-42541098D01*
X33612171Y-42640964D01*
X33612169Y-42640965D01*
X33418597Y-42776505D01*
X33251505Y-42943597D01*
X33121575Y-43129158D01*
X33066998Y-43172783D01*
X32997500Y-43179977D01*
X32935145Y-43148454D01*
X32918425Y-43129158D01*
X32788494Y-42943597D01*
X32621402Y-42776506D01*
X32621395Y-42776501D01*
X32427834Y-42640967D01*
X32427830Y-42640965D01*
X32356727Y-42607809D01*
X32213663Y-42541097D01*
X32213659Y-42541096D01*
X32213655Y-42541094D01*
X31985413Y-42479938D01*
X31985403Y-42479936D01*
X31750001Y-42459341D01*
X31749999Y-42459341D01*
X31514596Y-42479936D01*
X31514586Y-42479938D01*
X31286344Y-42541094D01*
X31286335Y-42541098D01*
X31072171Y-42640964D01*
X31072169Y-42640965D01*
X30878597Y-42776505D01*
X30711505Y-42943597D01*
X30581575Y-43129158D01*
X30526998Y-43172783D01*
X30457500Y-43179977D01*
X30395145Y-43148454D01*
X30378425Y-43129158D01*
X30248494Y-42943597D01*
X30081402Y-42776506D01*
X30081395Y-42776501D01*
X29887834Y-42640967D01*
X29887830Y-42640965D01*
X29816727Y-42607809D01*
X29673663Y-42541097D01*
X29673659Y-42541096D01*
X29673655Y-42541094D01*
X29445413Y-42479938D01*
X29445403Y-42479936D01*
X29210001Y-42459341D01*
X29209999Y-42459341D01*
X28974596Y-42479936D01*
X28974586Y-42479938D01*
X28746344Y-42541094D01*
X28746335Y-42541098D01*
X28532171Y-42640964D01*
X28532169Y-42640965D01*
X28338597Y-42776505D01*
X28171505Y-42943597D01*
X28035965Y-43137169D01*
X28035964Y-43137171D01*
X27936098Y-43351335D01*
X27936094Y-43351344D01*
X27874938Y-43579586D01*
X27874936Y-43579596D01*
X27854341Y-43814999D01*
X27854341Y-43815000D01*
X27432000Y-43815000D01*
X27432000Y-30312800D01*
X28947141Y-30312800D01*
X28967736Y-30548203D01*
X28967738Y-30548213D01*
X29028894Y-30776455D01*
X29028896Y-30776459D01*
X29028897Y-30776463D01*
X29078831Y-30883546D01*
X29128764Y-30990628D01*
X29128765Y-30990630D01*
X29264305Y-31184202D01*
X29431397Y-31351294D01*
X29624969Y-31486834D01*
X29624971Y-31486835D01*
X29839137Y-31586703D01*
X30067392Y-31647863D01*
X30243834Y-31663300D01*
X30361766Y-31663300D01*
X30538208Y-31647863D01*
X30766463Y-31586703D01*
X30980629Y-31486835D01*
X31174201Y-31351295D01*
X31341295Y-31184201D01*
X31476835Y-30990630D01*
X31576703Y-30776463D01*
X31637863Y-30548208D01*
X31658459Y-30312800D01*
X63947141Y-30312800D01*
X63967736Y-30548203D01*
X63967738Y-30548213D01*
X64028894Y-30776455D01*
X64028896Y-30776459D01*
X64028897Y-30776463D01*
X64078831Y-30883546D01*
X64128764Y-30990628D01*
X64128765Y-30990630D01*
X64264305Y-31184202D01*
X64431397Y-31351294D01*
X64624969Y-31486834D01*
X64624971Y-31486835D01*
X64839137Y-31586703D01*
X65067392Y-31647863D01*
X65243834Y-31663300D01*
X65361766Y-31663300D01*
X65538208Y-31647863D01*
X65766463Y-31586703D01*
X65980629Y-31486835D01*
X66174201Y-31351295D01*
X66341295Y-31184201D01*
X66476835Y-30990630D01*
X66576703Y-30776463D01*
X66637863Y-30548208D01*
X66658459Y-30312800D01*
X66637863Y-30077392D01*
X66576703Y-29849137D01*
X66476835Y-29634971D01*
X66476834Y-29634969D01*
X66341294Y-29441397D01*
X66174202Y-29274305D01*
X65980630Y-29138765D01*
X65980628Y-29138764D01*
X65873546Y-29088831D01*
X65766463Y-29038897D01*
X65766459Y-29038896D01*
X65766455Y-29038894D01*
X65538213Y-28977738D01*
X65538203Y-28977736D01*
X65361766Y-28962300D01*
X65243834Y-28962300D01*
X65067396Y-28977736D01*
X65067386Y-28977738D01*
X64839144Y-29038894D01*
X64839135Y-29038898D01*
X64624971Y-29138764D01*
X64624969Y-29138765D01*
X64431397Y-29274305D01*
X64264306Y-29441397D01*
X64264301Y-29441404D01*
X64128767Y-29634965D01*
X64128765Y-29634969D01*
X64028898Y-29849135D01*
X64028894Y-29849144D01*
X63967738Y-30077386D01*
X63967736Y-30077396D01*
X63947141Y-30312799D01*
X63947141Y-30312800D01*
X31658459Y-30312800D01*
X31637863Y-30077392D01*
X31576703Y-29849137D01*
X31476835Y-29634971D01*
X31476834Y-29634969D01*
X31341294Y-29441397D01*
X31174202Y-29274305D01*
X30980630Y-29138765D01*
X30980628Y-29138764D01*
X30873546Y-29088831D01*
X30766463Y-29038897D01*
X30766459Y-29038896D01*
X30766455Y-29038894D01*
X30538213Y-28977738D01*
X30538203Y-28977736D01*
X30361766Y-28962300D01*
X30243834Y-28962300D01*
X30067396Y-28977736D01*
X30067386Y-28977738D01*
X29839144Y-29038894D01*
X29839135Y-29038898D01*
X29624971Y-29138764D01*
X29624969Y-29138765D01*
X29431397Y-29274305D01*
X29264306Y-29441397D01*
X29264301Y-29441404D01*
X29128767Y-29634965D01*
X29128765Y-29634969D01*
X29028898Y-29849135D01*
X29028894Y-29849144D01*
X28967738Y-30077386D01*
X28967736Y-30077396D01*
X28947141Y-30312799D01*
X28947141Y-30312800D01*
X27432000Y-30312800D01*
X27432000Y-27556000D01*
X27451685Y-27488961D01*
X27504489Y-27443206D01*
X27556000Y-27432000D01*
X67948000Y-27432000D01*
X68015039Y-27451685D01*
G37*
%TD.AperFunction*%
%TD*%
M02*
