%TF.GenerationSoftware,KiCad,Pcbnew,7.0.9*%
%TF.CreationDate,2024-01-09T17:40:00-08:00*%
%TF.ProjectId,RS-232 Logger,52532d32-3332-4204-9c6f-676765722e6b,rev?*%
%TF.SameCoordinates,Original*%
%TF.FileFunction,Legend,Top*%
%TF.FilePolarity,Positive*%
%FSLAX46Y46*%
G04 Gerber Fmt 4.6, Leading zero omitted, Abs format (unit mm)*
G04 Created by KiCad (PCBNEW 7.0.9) date 2024-01-09 17:40:00*
%MOMM*%
%LPD*%
G01*
G04 APERTURE LIST*
G04 Aperture macros list*
%AMRoundRect*
0 Rectangle with rounded corners*
0 $1 Rounding radius*
0 $2 $3 $4 $5 $6 $7 $8 $9 X,Y pos of 4 corners*
0 Add a 4 corners polygon primitive as box body*
4,1,4,$2,$3,$4,$5,$6,$7,$8,$9,$2,$3,0*
0 Add four circle primitives for the rounded corners*
1,1,$1+$1,$2,$3*
1,1,$1+$1,$4,$5*
1,1,$1+$1,$6,$7*
1,1,$1+$1,$8,$9*
0 Add four rect primitives between the rounded corners*
20,1,$1+$1,$2,$3,$4,$5,0*
20,1,$1+$1,$4,$5,$6,$7,0*
20,1,$1+$1,$6,$7,$8,$9,0*
20,1,$1+$1,$8,$9,$2,$3,0*%
G04 Aperture macros list end*
%ADD10C,0.000000*%
%ADD11C,0.150000*%
%ADD12C,0.300000*%
%ADD13C,0.120000*%
%ADD14C,0.200000*%
%ADD15C,0.152400*%
%ADD16C,0.010000*%
%ADD17RoundRect,0.250000X-0.475000X0.250000X-0.475000X-0.250000X0.475000X-0.250000X0.475000X0.250000X0*%
%ADD18R,0.599999X1.000000*%
%ADD19RoundRect,0.250000X-0.250000X-0.475000X0.250000X-0.475000X0.250000X0.475000X-0.250000X0.475000X0*%
%ADD20R,2.400000X2.400000*%
%ADD21C,2.400000*%
%ADD22RoundRect,0.250000X0.250000X0.475000X-0.250000X0.475000X-0.250000X-0.475000X0.250000X-0.475000X0*%
%ADD23RoundRect,0.250000X-0.650000X1.000000X-0.650000X-1.000000X0.650000X-1.000000X0.650000X1.000000X0*%
%ADD24R,1.700000X1.700000*%
%ADD25O,1.700000X1.700000*%
%ADD26C,2.200000*%
%ADD27RoundRect,0.200000X0.200000X0.275000X-0.200000X0.275000X-0.200000X-0.275000X0.200000X-0.275000X0*%
%ADD28R,1.609999X0.430000*%
%ADD29R,1.136599X2.177999*%
%ADD30R,2.177999X1.136599*%
%ADD31R,2.440000X1.120000*%
%ADD32R,1.879600X2.260600*%
G04 APERTURE END LIST*
D10*
G36*
X36242117Y-62270530D02*
G01*
X36285030Y-62304804D01*
X36311940Y-62324384D01*
X36342207Y-62344827D01*
X36375621Y-62365560D01*
X36411974Y-62386008D01*
X36451056Y-62405598D01*
X36492659Y-62423755D01*
X36536572Y-62439905D01*
X36582587Y-62453475D01*
X36630494Y-62463889D01*
X36655092Y-62467734D01*
X36680085Y-62470575D01*
X36697943Y-62472047D01*
X36714739Y-62473048D01*
X36730506Y-62473607D01*
X36745277Y-62473751D01*
X36759083Y-62473507D01*
X36771957Y-62472904D01*
X36783932Y-62471970D01*
X36795041Y-62470731D01*
X36805314Y-62469217D01*
X36814786Y-62467454D01*
X36823488Y-62465471D01*
X36831452Y-62463296D01*
X36838712Y-62460955D01*
X36845300Y-62458478D01*
X36851248Y-62455891D01*
X36856588Y-62453223D01*
X36861353Y-62450501D01*
X36865576Y-62447754D01*
X36869289Y-62445008D01*
X36872524Y-62442292D01*
X36875314Y-62439634D01*
X36877691Y-62437061D01*
X36879688Y-62434601D01*
X36881337Y-62432282D01*
X36882670Y-62430131D01*
X36883720Y-62428178D01*
X36885102Y-62424971D01*
X36885895Y-62422139D01*
X36904336Y-62417559D01*
X36922416Y-62413994D01*
X36940128Y-62411422D01*
X36957470Y-62409823D01*
X36974437Y-62409178D01*
X36991023Y-62409465D01*
X37007224Y-62410664D01*
X37023037Y-62412754D01*
X37038455Y-62415717D01*
X37053475Y-62419530D01*
X37068092Y-62424174D01*
X37082302Y-62429628D01*
X37096099Y-62435872D01*
X37109480Y-62442886D01*
X37122439Y-62450649D01*
X37134973Y-62459141D01*
X37147076Y-62468341D01*
X37158744Y-62478230D01*
X37169972Y-62488786D01*
X37180756Y-62499989D01*
X37191092Y-62511820D01*
X37200974Y-62524257D01*
X37210398Y-62537281D01*
X37219360Y-62550870D01*
X37227855Y-62565005D01*
X37235878Y-62579665D01*
X37243425Y-62594830D01*
X37250491Y-62610480D01*
X37263163Y-62643151D01*
X37273856Y-62677515D01*
X37266884Y-62706701D01*
X37258446Y-62734477D01*
X37248591Y-62760863D01*
X37237367Y-62785876D01*
X37224825Y-62809538D01*
X37211013Y-62831866D01*
X37195981Y-62852882D01*
X37179778Y-62872603D01*
X37162452Y-62891049D01*
X37144054Y-62908239D01*
X37124633Y-62924194D01*
X37104237Y-62938932D01*
X37082917Y-62952472D01*
X37060721Y-62964835D01*
X37037698Y-62976038D01*
X37013898Y-62986103D01*
X36964163Y-63002890D01*
X36911909Y-63015353D01*
X36857531Y-63023645D01*
X36801422Y-63027920D01*
X36743976Y-63028335D01*
X36685588Y-63025044D01*
X36626650Y-63018201D01*
X36567556Y-63007961D01*
X36550476Y-62996783D01*
X36533732Y-62986292D01*
X36517330Y-62976466D01*
X36501272Y-62967282D01*
X36485563Y-62958719D01*
X36470207Y-62950755D01*
X36440568Y-62936533D01*
X36412386Y-62924440D01*
X36385692Y-62914298D01*
X36360518Y-62905931D01*
X36336894Y-62899161D01*
X36314851Y-62893810D01*
X36294421Y-62889703D01*
X36275634Y-62886661D01*
X36258521Y-62884509D01*
X36243114Y-62883068D01*
X36229444Y-62882161D01*
X36207437Y-62881244D01*
X36191726Y-62864742D01*
X36175415Y-62848098D01*
X36141542Y-62814858D01*
X36106914Y-62782476D01*
X36072628Y-62751902D01*
X36039778Y-62724088D01*
X36024234Y-62711514D01*
X36009461Y-62699986D01*
X35995595Y-62689624D01*
X35982773Y-62680546D01*
X35971133Y-62672872D01*
X35960810Y-62666720D01*
X35977081Y-62642677D01*
X35994409Y-62615765D01*
X36031224Y-62555478D01*
X36069221Y-62490140D01*
X36106367Y-62424035D01*
X36169973Y-62306655D01*
X36205779Y-62237601D01*
X36242117Y-62270530D01*
G37*
G36*
X35892531Y-61706014D02*
G01*
X36006424Y-61709197D01*
X36248359Y-61713867D01*
X36241152Y-61748364D01*
X36231841Y-61788357D01*
X36218457Y-61840730D01*
X36200798Y-61903397D01*
X36178663Y-61974271D01*
X36151851Y-62051267D01*
X36136628Y-62091408D01*
X36120160Y-62132297D01*
X36102246Y-62173879D01*
X36083067Y-62215629D01*
X36062960Y-62257152D01*
X36042256Y-62298057D01*
X36021290Y-62337949D01*
X36000396Y-62376435D01*
X35960158Y-62447618D01*
X35924213Y-62508459D01*
X35895231Y-62555812D01*
X35868841Y-62597469D01*
X35804032Y-62566836D01*
X35741379Y-62538490D01*
X35680784Y-62512393D01*
X35622148Y-62488509D01*
X35565373Y-62466800D01*
X35510359Y-62447227D01*
X35457008Y-62429754D01*
X35405221Y-62414342D01*
X35451902Y-62351963D01*
X35494754Y-62290440D01*
X35533917Y-62230099D01*
X35569533Y-62171265D01*
X35601743Y-62114264D01*
X35630689Y-62059420D01*
X35656511Y-62007058D01*
X35679351Y-61957504D01*
X35699351Y-61911083D01*
X35716652Y-61868120D01*
X35731394Y-61828940D01*
X35743720Y-61793868D01*
X35761689Y-61737350D01*
X35771686Y-61701167D01*
X35892531Y-61706014D01*
G37*
G36*
X35689463Y-65563166D02*
G01*
X35692236Y-65582426D01*
X35694340Y-65601749D01*
X35695765Y-65621126D01*
X35696500Y-65640545D01*
X35696536Y-65659996D01*
X35695862Y-65679466D01*
X35694468Y-65698947D01*
X35692343Y-65718426D01*
X35689478Y-65737892D01*
X35685861Y-65757335D01*
X35681483Y-65776744D01*
X35676333Y-65796108D01*
X35670402Y-65815416D01*
X35663678Y-65834657D01*
X35656152Y-65853819D01*
X35623142Y-65852366D01*
X35590959Y-65851600D01*
X35559559Y-65851590D01*
X35528902Y-65852408D01*
X35498945Y-65854122D01*
X35469646Y-65856803D01*
X35440963Y-65860522D01*
X35412854Y-65865348D01*
X35385277Y-65871352D01*
X35358191Y-65878604D01*
X35331552Y-65887174D01*
X35305319Y-65897132D01*
X35279451Y-65908549D01*
X35253904Y-65921494D01*
X35228637Y-65936038D01*
X35203609Y-65952251D01*
X35177887Y-65968810D01*
X35154548Y-65981730D01*
X35133564Y-65991198D01*
X35114908Y-65997394D01*
X35098553Y-66000504D01*
X35084471Y-66000711D01*
X35072636Y-65998199D01*
X35063020Y-65993151D01*
X35055596Y-65985750D01*
X35050337Y-65976180D01*
X35047216Y-65964625D01*
X35046205Y-65951269D01*
X35047278Y-65936295D01*
X35050408Y-65919886D01*
X35055566Y-65902226D01*
X35062727Y-65883499D01*
X35071862Y-65863888D01*
X35082945Y-65843576D01*
X35095949Y-65822749D01*
X35110846Y-65801588D01*
X35127609Y-65780278D01*
X35146211Y-65759002D01*
X35166626Y-65737944D01*
X35188825Y-65717286D01*
X35212781Y-65697214D01*
X35238468Y-65677911D01*
X35265859Y-65659559D01*
X35294925Y-65642343D01*
X35325641Y-65626446D01*
X35357979Y-65612052D01*
X35391911Y-65599344D01*
X35427410Y-65588506D01*
X35459802Y-65580182D01*
X35492198Y-65572771D01*
X35524588Y-65566210D01*
X35556959Y-65560436D01*
X35589301Y-65555389D01*
X35621601Y-65551005D01*
X35653849Y-65547223D01*
X35686032Y-65543982D01*
X35689463Y-65563166D01*
G37*
G36*
X37199131Y-63397369D02*
G01*
X37211245Y-63405581D01*
X37222918Y-63414403D01*
X37234155Y-63423796D01*
X37244960Y-63433718D01*
X37255339Y-63444130D01*
X37265297Y-63454993D01*
X37274840Y-63466265D01*
X37283973Y-63477907D01*
X37292700Y-63489879D01*
X37301028Y-63502140D01*
X37308962Y-63514650D01*
X37316507Y-63527371D01*
X37323668Y-63540260D01*
X37330450Y-63553279D01*
X37336859Y-63566387D01*
X37254486Y-63624682D01*
X37233455Y-63640302D01*
X37212780Y-63656505D01*
X37192729Y-63673372D01*
X37173568Y-63690986D01*
X37155562Y-63709428D01*
X37138978Y-63728781D01*
X37131303Y-63738824D01*
X37124082Y-63749126D01*
X37117350Y-63759696D01*
X37111140Y-63770545D01*
X37105485Y-63781683D01*
X37100419Y-63793121D01*
X37095974Y-63804868D01*
X37092184Y-63816934D01*
X37089082Y-63829331D01*
X37086702Y-63842068D01*
X37085076Y-63855156D01*
X37084239Y-63868605D01*
X37084284Y-63873356D01*
X37084480Y-63877995D01*
X37084825Y-63882521D01*
X37085317Y-63886935D01*
X37085956Y-63891239D01*
X37086739Y-63895433D01*
X37087666Y-63899518D01*
X37088736Y-63903496D01*
X37089946Y-63907366D01*
X37091296Y-63911130D01*
X37092784Y-63914789D01*
X37094409Y-63918343D01*
X37096170Y-63921793D01*
X37098065Y-63925141D01*
X37100094Y-63928387D01*
X37102254Y-63931532D01*
X37104544Y-63934577D01*
X37106964Y-63937522D01*
X37109511Y-63940369D01*
X37112185Y-63943119D01*
X37114985Y-63945772D01*
X37117908Y-63948329D01*
X37120953Y-63950792D01*
X37124120Y-63953160D01*
X37127407Y-63955436D01*
X37130812Y-63957619D01*
X37137974Y-63961712D01*
X37145594Y-63965446D01*
X37153662Y-63968829D01*
X37157162Y-63970321D01*
X37160316Y-63971951D01*
X37163133Y-63973707D01*
X37165623Y-63975574D01*
X37167797Y-63977539D01*
X37169663Y-63979590D01*
X37171231Y-63981712D01*
X37172512Y-63983893D01*
X37173515Y-63986120D01*
X37174250Y-63988378D01*
X37174727Y-63990655D01*
X37174956Y-63992938D01*
X37174946Y-63995212D01*
X37174707Y-63997466D01*
X37174249Y-63999685D01*
X37173581Y-64001857D01*
X37172715Y-64003967D01*
X37171658Y-64006004D01*
X37170422Y-64007953D01*
X37169016Y-64009801D01*
X37167449Y-64011534D01*
X37165733Y-64013141D01*
X37163875Y-64014607D01*
X37161887Y-64015919D01*
X37159777Y-64017064D01*
X37157557Y-64018028D01*
X37155235Y-64018799D01*
X37152821Y-64019362D01*
X37150326Y-64019705D01*
X37147758Y-64019815D01*
X37145129Y-64019677D01*
X37142447Y-64019279D01*
X37131291Y-64016807D01*
X37120525Y-64013898D01*
X37110144Y-64010566D01*
X37100147Y-64006823D01*
X37090531Y-64002684D01*
X37081292Y-63998161D01*
X37072428Y-63993268D01*
X37063937Y-63988018D01*
X37055816Y-63982425D01*
X37048061Y-63976502D01*
X37040670Y-63970262D01*
X37033640Y-63963720D01*
X37026969Y-63956887D01*
X37020653Y-63949778D01*
X37014691Y-63942405D01*
X37009078Y-63934783D01*
X36998893Y-63918842D01*
X36990074Y-63902062D01*
X36982601Y-63884551D01*
X36976451Y-63866414D01*
X36971602Y-63847758D01*
X36968031Y-63828692D01*
X36965716Y-63809321D01*
X36964636Y-63789752D01*
X36964381Y-63774625D01*
X36964897Y-63759751D01*
X36966154Y-63745123D01*
X36968121Y-63730731D01*
X36970767Y-63716567D01*
X36974062Y-63702623D01*
X36977974Y-63688890D01*
X36982473Y-63675361D01*
X36987528Y-63662026D01*
X36993109Y-63648877D01*
X36999184Y-63635907D01*
X37005723Y-63623105D01*
X37020070Y-63597979D01*
X37035904Y-63573430D01*
X37052979Y-63549392D01*
X37071047Y-63525798D01*
X37089865Y-63502581D01*
X37109185Y-63479674D01*
X37186568Y-63389808D01*
X37186569Y-63389808D01*
X37199131Y-63397369D01*
G37*
G36*
X36330354Y-64300703D02*
G01*
X36346090Y-64341286D01*
X36362652Y-64379810D01*
X36380313Y-64416274D01*
X36399343Y-64450672D01*
X36420010Y-64483003D01*
X36442586Y-64513262D01*
X36454674Y-64527614D01*
X36467340Y-64541447D01*
X36480618Y-64554760D01*
X36494543Y-64567554D01*
X36509147Y-64579827D01*
X36524465Y-64591579D01*
X36540530Y-64602810D01*
X36557375Y-64613520D01*
X36575036Y-64623708D01*
X36593545Y-64633374D01*
X36612937Y-64642516D01*
X36633244Y-64651136D01*
X36654502Y-64659232D01*
X36676743Y-64666804D01*
X36700001Y-64673852D01*
X36724311Y-64680374D01*
X36776219Y-64691844D01*
X36793248Y-64719641D01*
X36807952Y-64746773D01*
X36820449Y-64773225D01*
X36830856Y-64798984D01*
X36839289Y-64824035D01*
X36845866Y-64848364D01*
X36850703Y-64871957D01*
X36853918Y-64894799D01*
X36855627Y-64916876D01*
X36855947Y-64938174D01*
X36854996Y-64958678D01*
X36852891Y-64978375D01*
X36849748Y-64997250D01*
X36845684Y-65015289D01*
X36840816Y-65032477D01*
X36835262Y-65048801D01*
X36829139Y-65064245D01*
X36822562Y-65078797D01*
X36815650Y-65092441D01*
X36808519Y-65105164D01*
X36801286Y-65116951D01*
X36794068Y-65127787D01*
X36780147Y-65146553D01*
X36767690Y-65161347D01*
X36757633Y-65172055D01*
X36748465Y-65180758D01*
X36700411Y-65171100D01*
X36654140Y-65158899D01*
X36609615Y-65144313D01*
X36566800Y-65127500D01*
X36525656Y-65108617D01*
X36486147Y-65087822D01*
X36448235Y-65065273D01*
X36411883Y-65041128D01*
X36377054Y-65015545D01*
X36343711Y-64988681D01*
X36311816Y-64960694D01*
X36281333Y-64931742D01*
X36252223Y-64901982D01*
X36224450Y-64871573D01*
X36172766Y-64809438D01*
X36125981Y-64746597D01*
X36083800Y-64684314D01*
X36045922Y-64623850D01*
X36012052Y-64566468D01*
X35955140Y-64465998D01*
X35931503Y-64425435D01*
X35910682Y-64393002D01*
X35911881Y-64391547D01*
X35913081Y-64390081D01*
X35913074Y-64390072D01*
X35913068Y-64390061D01*
X35913061Y-64390049D01*
X35913053Y-64390034D01*
X35913038Y-64390002D01*
X35913019Y-64389967D01*
X35913009Y-64389949D01*
X35912997Y-64389931D01*
X35912985Y-64389913D01*
X35912972Y-64389895D01*
X35912957Y-64389878D01*
X35912949Y-64389870D01*
X35912941Y-64389863D01*
X35912932Y-64389855D01*
X35912923Y-64389848D01*
X35912914Y-64389841D01*
X35912904Y-64389834D01*
X35925620Y-64374006D01*
X35938166Y-64358012D01*
X35963131Y-64325880D01*
X35975739Y-64309920D01*
X35988559Y-64294150D01*
X36001684Y-64278659D01*
X36015210Y-64263536D01*
X36032665Y-64268975D01*
X36050440Y-64273627D01*
X36068504Y-64277494D01*
X36086825Y-64280581D01*
X36105371Y-64282891D01*
X36124111Y-64284428D01*
X36143013Y-64285195D01*
X36162045Y-64285196D01*
X36181175Y-64284435D01*
X36200372Y-64282915D01*
X36219604Y-64280640D01*
X36238839Y-64277614D01*
X36258046Y-64273839D01*
X36277192Y-64269321D01*
X36296246Y-64264061D01*
X36315177Y-64258065D01*
X36330354Y-64300703D01*
G37*
G36*
X37025674Y-61898890D02*
G01*
X37090063Y-61911150D01*
X37153392Y-61929371D01*
X37215308Y-61953333D01*
X37275460Y-61982817D01*
X37333495Y-62017604D01*
X37389061Y-62057474D01*
X37441806Y-62102208D01*
X37491379Y-62151586D01*
X37537426Y-62205389D01*
X37579598Y-62263397D01*
X37617540Y-62325392D01*
X37650902Y-62391153D01*
X37679331Y-62460462D01*
X37702476Y-62533098D01*
X37719984Y-62608843D01*
X37731503Y-62687476D01*
X37736681Y-62768780D01*
X37735167Y-62852533D01*
X37726608Y-62938517D01*
X37710652Y-63026512D01*
X37686948Y-63116299D01*
X37672982Y-63097125D01*
X37658475Y-63078057D01*
X37643397Y-63059168D01*
X37627721Y-63040533D01*
X37611417Y-63022225D01*
X37594458Y-63004320D01*
X37576813Y-62986890D01*
X37558455Y-62970011D01*
X37539356Y-62953756D01*
X37519485Y-62938200D01*
X37498815Y-62923415D01*
X37477317Y-62909478D01*
X37454963Y-62896461D01*
X37431723Y-62884439D01*
X37407569Y-62873485D01*
X37382473Y-62863675D01*
X37382349Y-62819270D01*
X37380340Y-62776624D01*
X37376509Y-62735747D01*
X37370919Y-62696651D01*
X37363634Y-62659346D01*
X37354716Y-62623845D01*
X37344230Y-62590158D01*
X37332237Y-62558296D01*
X37318802Y-62528271D01*
X37303988Y-62500093D01*
X37287857Y-62473775D01*
X37270474Y-62449327D01*
X37251901Y-62426761D01*
X37232201Y-62406087D01*
X37211438Y-62387316D01*
X37189674Y-62370461D01*
X37166974Y-62355532D01*
X37143401Y-62342540D01*
X37119016Y-62331497D01*
X37093885Y-62322414D01*
X37068070Y-62315302D01*
X37041633Y-62310171D01*
X37014640Y-62307035D01*
X36987152Y-62305902D01*
X36959232Y-62306786D01*
X36930945Y-62309696D01*
X36902353Y-62314645D01*
X36873520Y-62321642D01*
X36844509Y-62330701D01*
X36815382Y-62341831D01*
X36786204Y-62355044D01*
X36757037Y-62370351D01*
X36736047Y-62371492D01*
X36713500Y-62370957D01*
X36689599Y-62368807D01*
X36664547Y-62365098D01*
X36638548Y-62359888D01*
X36611804Y-62353237D01*
X36584518Y-62345201D01*
X36556893Y-62335840D01*
X36529132Y-62325212D01*
X36501438Y-62313374D01*
X36474015Y-62300385D01*
X36447064Y-62286303D01*
X36420790Y-62271186D01*
X36395395Y-62255092D01*
X36371082Y-62238081D01*
X36348054Y-62220209D01*
X36400880Y-62152416D01*
X36456516Y-62092999D01*
X36514612Y-62041736D01*
X36574815Y-61998409D01*
X36636774Y-61962799D01*
X36700136Y-61934685D01*
X36764549Y-61913849D01*
X36829661Y-61900071D01*
X36895121Y-61893131D01*
X36960576Y-61892811D01*
X37025674Y-61898890D01*
G37*
G36*
X36323117Y-63341693D02*
G01*
X36344825Y-63343410D01*
X36366203Y-63346757D01*
X36387160Y-63351805D01*
X36397452Y-63354990D01*
X36407603Y-63358627D01*
X36417604Y-63362724D01*
X36427442Y-63367292D01*
X36437105Y-63372339D01*
X36446582Y-63377874D01*
X36455863Y-63383906D01*
X36464934Y-63390443D01*
X36478743Y-63411681D01*
X36492019Y-63434359D01*
X36504623Y-63458402D01*
X36516417Y-63483733D01*
X36527262Y-63510276D01*
X36537020Y-63537955D01*
X36545553Y-63566695D01*
X36552723Y-63596418D01*
X36558391Y-63627049D01*
X36562419Y-63658511D01*
X36564669Y-63690729D01*
X36565002Y-63723627D01*
X36563281Y-63757127D01*
X36559366Y-63791155D01*
X36553120Y-63825634D01*
X36544404Y-63860487D01*
X36535742Y-63887264D01*
X36525383Y-63913052D01*
X36513426Y-63937818D01*
X36499970Y-63961530D01*
X36485114Y-63984155D01*
X36468956Y-64005658D01*
X36451596Y-64026007D01*
X36433133Y-64045169D01*
X36413664Y-64063110D01*
X36393290Y-64079798D01*
X36372108Y-64095198D01*
X36350218Y-64109279D01*
X36327718Y-64122006D01*
X36304708Y-64133347D01*
X36281286Y-64143268D01*
X36257551Y-64151736D01*
X36233601Y-64158719D01*
X36209537Y-64164182D01*
X36185455Y-64168092D01*
X36161457Y-64170417D01*
X36137639Y-64171124D01*
X36114101Y-64170178D01*
X36090942Y-64167547D01*
X36068261Y-64163198D01*
X36046156Y-64157097D01*
X36024727Y-64149212D01*
X36004072Y-64139509D01*
X35984289Y-64127954D01*
X35965479Y-64114516D01*
X35947739Y-64099159D01*
X35931169Y-64081853D01*
X35915867Y-64062562D01*
X35914297Y-64060228D01*
X35912938Y-64057888D01*
X35911784Y-64055548D01*
X35910830Y-64053218D01*
X35910072Y-64050904D01*
X35909505Y-64048615D01*
X35909124Y-64046359D01*
X35908923Y-64044143D01*
X35908898Y-64041976D01*
X35909044Y-64039864D01*
X35909356Y-64037817D01*
X35909829Y-64035841D01*
X35910457Y-64033946D01*
X35911237Y-64032137D01*
X35912163Y-64030424D01*
X35913230Y-64028815D01*
X35914434Y-64027316D01*
X35915768Y-64025936D01*
X35917229Y-64024684D01*
X35918811Y-64023566D01*
X35920510Y-64022590D01*
X35922320Y-64021765D01*
X35924237Y-64021098D01*
X35926255Y-64020597D01*
X35928370Y-64020270D01*
X35930577Y-64020124D01*
X35932870Y-64020169D01*
X35935246Y-64020410D01*
X35937698Y-64020858D01*
X35940222Y-64021518D01*
X35942812Y-64022399D01*
X35945465Y-64023510D01*
X35953562Y-64027130D01*
X35961697Y-64030588D01*
X35969848Y-64033876D01*
X35977991Y-64036983D01*
X35986104Y-64039902D01*
X35994165Y-64042621D01*
X36002150Y-64045133D01*
X36010037Y-64047427D01*
X36017803Y-64049495D01*
X36025424Y-64051327D01*
X36032879Y-64052914D01*
X36040145Y-64054246D01*
X36047198Y-64055314D01*
X36054016Y-64056110D01*
X36060577Y-64056623D01*
X36066856Y-64056844D01*
X36066843Y-64056857D01*
X36066830Y-64056872D01*
X36066803Y-64056902D01*
X36066750Y-64056965D01*
X36066737Y-64056981D01*
X36066724Y-64056995D01*
X36066711Y-64057010D01*
X36066697Y-64057023D01*
X36066684Y-64057036D01*
X36066671Y-64057047D01*
X36066658Y-64057057D01*
X36066651Y-64057062D01*
X36066644Y-64057066D01*
X36092947Y-64055313D01*
X36117881Y-64051309D01*
X36141433Y-64045162D01*
X36163594Y-64036983D01*
X36184353Y-64026883D01*
X36203698Y-64014971D01*
X36221620Y-64001359D01*
X36238106Y-63986156D01*
X36253146Y-63969474D01*
X36266730Y-63951421D01*
X36278846Y-63932109D01*
X36289484Y-63911648D01*
X36298632Y-63890148D01*
X36306280Y-63867719D01*
X36312418Y-63844473D01*
X36317033Y-63820518D01*
X36320115Y-63795966D01*
X36321653Y-63770927D01*
X36321638Y-63745511D01*
X36320056Y-63719829D01*
X36316898Y-63693990D01*
X36312153Y-63668105D01*
X36305811Y-63642285D01*
X36297859Y-63616640D01*
X36288287Y-63591280D01*
X36277085Y-63566316D01*
X36264241Y-63541857D01*
X36249744Y-63518014D01*
X36233585Y-63494898D01*
X36215751Y-63472619D01*
X36196232Y-63451287D01*
X36175018Y-63431012D01*
X36169364Y-63425324D01*
X36163649Y-63419716D01*
X36157872Y-63414189D01*
X36152034Y-63408743D01*
X36146138Y-63403381D01*
X36140182Y-63398101D01*
X36134169Y-63392906D01*
X36128098Y-63387797D01*
X36148632Y-63378060D01*
X36169664Y-63369310D01*
X36191103Y-63361618D01*
X36212856Y-63355056D01*
X36234831Y-63349695D01*
X36256937Y-63345607D01*
X36279081Y-63342863D01*
X36301172Y-63341534D01*
X36323117Y-63341693D01*
G37*
G36*
X37254438Y-62950577D02*
G01*
X37285710Y-62958067D01*
X37315842Y-62967236D01*
X37344875Y-62978071D01*
X37372853Y-62990560D01*
X37399818Y-63004688D01*
X37425813Y-63020445D01*
X37450879Y-63037815D01*
X37475060Y-63056787D01*
X37498399Y-63077348D01*
X37520937Y-63099485D01*
X37542716Y-63123184D01*
X37563781Y-63148433D01*
X37584172Y-63175219D01*
X37603933Y-63203530D01*
X37623106Y-63233351D01*
X37650542Y-63281139D01*
X37675884Y-63330675D01*
X37699129Y-63381827D01*
X37720275Y-63434464D01*
X37756256Y-63543670D01*
X37783804Y-63657245D01*
X37802894Y-63774142D01*
X37813505Y-63893311D01*
X37815611Y-64013704D01*
X37809190Y-64134275D01*
X37794218Y-64253974D01*
X37770671Y-64371754D01*
X37738527Y-64486566D01*
X37697761Y-64597362D01*
X37674138Y-64650927D01*
X37648350Y-64703094D01*
X37620395Y-64753734D01*
X37590271Y-64802715D01*
X37557973Y-64849906D01*
X37523499Y-64895175D01*
X37486847Y-64938393D01*
X37448012Y-64979428D01*
X37448010Y-64979438D01*
X37448007Y-64979447D01*
X37448004Y-64979456D01*
X37448001Y-64979464D01*
X37447998Y-64979471D01*
X37447995Y-64979478D01*
X37447992Y-64979485D01*
X37447989Y-64979491D01*
X37447986Y-64979497D01*
X37447983Y-64979502D01*
X37447979Y-64979506D01*
X37447976Y-64979510D01*
X37447973Y-64979514D01*
X37447969Y-64979518D01*
X37447966Y-64979521D01*
X37447963Y-64979523D01*
X37447959Y-64979526D01*
X37447956Y-64979528D01*
X37447953Y-64979530D01*
X37447950Y-64979531D01*
X37447946Y-64979533D01*
X37447943Y-64979534D01*
X37447940Y-64979535D01*
X37447937Y-64979535D01*
X37447930Y-64979536D01*
X37447924Y-64979537D01*
X37447919Y-64979537D01*
X37447913Y-64979537D01*
X37449381Y-64943909D01*
X37449842Y-64908175D01*
X37449304Y-64872377D01*
X37447769Y-64836554D01*
X37445245Y-64800749D01*
X37441734Y-64765001D01*
X37437244Y-64729353D01*
X37431778Y-64693845D01*
X37425342Y-64658518D01*
X37417941Y-64623414D01*
X37409579Y-64588572D01*
X37400263Y-64554035D01*
X37389996Y-64519843D01*
X37378784Y-64486038D01*
X37366632Y-64452659D01*
X37353545Y-64419749D01*
X37382213Y-64365458D01*
X37408226Y-64309156D01*
X37431470Y-64251166D01*
X37451830Y-64191807D01*
X37469191Y-64131399D01*
X37483438Y-64070265D01*
X37494457Y-64008723D01*
X37502133Y-63947095D01*
X37506351Y-63885702D01*
X37506997Y-63824863D01*
X37503955Y-63764899D01*
X37497111Y-63706132D01*
X37486351Y-63648881D01*
X37471559Y-63593467D01*
X37452620Y-63540210D01*
X37429421Y-63489432D01*
X37413886Y-63459707D01*
X37395872Y-63430544D01*
X37375586Y-63402352D01*
X37353235Y-63375539D01*
X37329026Y-63350511D01*
X37303166Y-63327678D01*
X37289681Y-63317211D01*
X37275862Y-63307446D01*
X37261733Y-63298433D01*
X37247320Y-63290223D01*
X37232650Y-63282868D01*
X37217749Y-63276417D01*
X37202641Y-63270923D01*
X37187354Y-63266436D01*
X37171912Y-63263007D01*
X37156342Y-63260686D01*
X37140670Y-63259526D01*
X37124921Y-63259577D01*
X37109122Y-63260890D01*
X37093298Y-63263515D01*
X37077475Y-63267505D01*
X37061679Y-63272909D01*
X37045936Y-63279778D01*
X37030272Y-63288165D01*
X37014712Y-63298119D01*
X36999283Y-63309692D01*
X36970445Y-63293917D01*
X36942263Y-63277703D01*
X36914758Y-63261044D01*
X36887953Y-63243934D01*
X36861870Y-63226368D01*
X36836532Y-63208340D01*
X36811961Y-63189844D01*
X36788180Y-63170874D01*
X36814351Y-63129881D01*
X36828295Y-63108150D01*
X36859948Y-63107848D01*
X36890006Y-63106284D01*
X36918610Y-63103446D01*
X36945901Y-63099322D01*
X36972017Y-63093897D01*
X36997101Y-63087160D01*
X37021292Y-63079098D01*
X37044730Y-63069697D01*
X37067556Y-63058946D01*
X37089911Y-63046830D01*
X37111933Y-63033338D01*
X37133765Y-63018456D01*
X37155545Y-63002172D01*
X37177415Y-62984473D01*
X37199514Y-62965346D01*
X37221984Y-62944779D01*
X37254438Y-62950577D01*
G37*
G36*
X36710399Y-63527011D02*
G01*
X36727124Y-63533280D01*
X36744134Y-63539067D01*
X36761438Y-63544331D01*
X36779045Y-63549032D01*
X36796962Y-63553131D01*
X36815200Y-63556587D01*
X36833766Y-63559360D01*
X36823482Y-63588312D01*
X36813691Y-63617941D01*
X36804620Y-63648288D01*
X36796494Y-63679396D01*
X36792857Y-63695248D01*
X36789541Y-63711306D01*
X36786575Y-63727575D01*
X36783987Y-63744060D01*
X36781805Y-63760767D01*
X36780058Y-63777701D01*
X36778774Y-63794866D01*
X36777981Y-63812269D01*
X36777829Y-63814267D01*
X36777503Y-63816169D01*
X36777012Y-63817973D01*
X36776368Y-63819675D01*
X36775580Y-63821271D01*
X36774658Y-63822759D01*
X36773613Y-63824135D01*
X36772455Y-63825395D01*
X36771194Y-63826537D01*
X36769839Y-63827556D01*
X36768402Y-63828450D01*
X36766892Y-63829215D01*
X36765319Y-63829848D01*
X36763694Y-63830346D01*
X36762026Y-63830704D01*
X36760326Y-63830920D01*
X36758605Y-63830990D01*
X36756871Y-63830912D01*
X36755136Y-63830680D01*
X36753408Y-63830293D01*
X36751700Y-63829747D01*
X36750020Y-63829038D01*
X36748379Y-63828164D01*
X36746787Y-63827120D01*
X36745254Y-63825903D01*
X36743790Y-63824510D01*
X36742405Y-63822938D01*
X36741110Y-63821184D01*
X36739915Y-63819243D01*
X36738829Y-63817112D01*
X36737864Y-63814789D01*
X36737028Y-63812269D01*
X36727115Y-63776560D01*
X36718392Y-63740769D01*
X36710911Y-63704824D01*
X36704724Y-63668654D01*
X36699883Y-63632188D01*
X36696439Y-63595355D01*
X36694444Y-63558083D01*
X36693950Y-63520300D01*
X36710399Y-63527011D01*
G37*
G36*
X35227314Y-63354366D02*
G01*
X35156141Y-63398670D01*
X35084715Y-63441470D01*
X35013717Y-63482018D01*
X34943827Y-63519566D01*
X34875725Y-63553367D01*
X34842557Y-63568628D01*
X34810092Y-63582672D01*
X34778414Y-63595405D01*
X34747608Y-63606734D01*
X34735165Y-63610993D01*
X34722940Y-63615017D01*
X34698642Y-63622927D01*
X34754373Y-63574765D01*
X34784886Y-63550047D01*
X34817042Y-63525230D01*
X34850748Y-63500562D01*
X34885912Y-63476288D01*
X34922443Y-63452654D01*
X34960249Y-63429906D01*
X34999238Y-63408289D01*
X35039317Y-63388050D01*
X35080395Y-63369433D01*
X35122381Y-63352686D01*
X35165181Y-63338054D01*
X35208705Y-63325782D01*
X35252859Y-63316117D01*
X35297553Y-63309304D01*
X35227314Y-63354366D01*
G37*
G36*
X35388742Y-60587935D02*
G01*
X35444622Y-60591484D01*
X35499783Y-60597796D01*
X35554098Y-60606873D01*
X35607438Y-60618717D01*
X35659674Y-60633333D01*
X35710678Y-60650722D01*
X35760322Y-60670887D01*
X35808477Y-60693833D01*
X35855016Y-60719560D01*
X35899810Y-60748074D01*
X35942730Y-60779375D01*
X35983648Y-60813468D01*
X36022435Y-60850354D01*
X36058965Y-60890038D01*
X36093107Y-60932522D01*
X36124734Y-60977808D01*
X36153717Y-61025900D01*
X36179929Y-61076801D01*
X36203240Y-61130514D01*
X36205321Y-61136229D01*
X36142153Y-61142598D01*
X36079149Y-61149846D01*
X35954108Y-61165523D01*
X35831157Y-61180347D01*
X35770765Y-61186528D01*
X35711255Y-61191403D01*
X35709911Y-61189519D01*
X35708593Y-61187625D01*
X35705986Y-61183828D01*
X35704672Y-61181931D01*
X35703333Y-61180043D01*
X35701957Y-61178166D01*
X35700531Y-61176305D01*
X35682938Y-61155455D01*
X35664131Y-61136067D01*
X35644168Y-61118125D01*
X35623106Y-61101612D01*
X35601004Y-61086511D01*
X35577920Y-61072807D01*
X35553912Y-61060482D01*
X35529037Y-61049520D01*
X35503354Y-61039904D01*
X35476921Y-61031618D01*
X35449796Y-61024646D01*
X35422036Y-61018970D01*
X35364847Y-61011442D01*
X35305817Y-61008903D01*
X35245410Y-61011219D01*
X35184090Y-61018259D01*
X35122323Y-61029891D01*
X35060570Y-61045981D01*
X34999297Y-61066397D01*
X34938968Y-61091007D01*
X34880047Y-61119679D01*
X34822997Y-61152280D01*
X34768148Y-61187306D01*
X34715393Y-61223310D01*
X34664520Y-61260251D01*
X34615315Y-61298083D01*
X34567567Y-61336764D01*
X34521063Y-61376249D01*
X34475590Y-61416495D01*
X34430937Y-61457459D01*
X34343239Y-61541365D01*
X34256269Y-61627617D01*
X34077718Y-61805766D01*
X34018104Y-61859744D01*
X33958238Y-61905507D01*
X33898361Y-61943361D01*
X33838712Y-61973612D01*
X33779531Y-61996565D01*
X33721059Y-62012528D01*
X33663536Y-62021807D01*
X33607201Y-62024708D01*
X33552294Y-62021537D01*
X33499055Y-62012600D01*
X33447724Y-61998204D01*
X33398542Y-61978655D01*
X33351748Y-61954259D01*
X33307581Y-61925323D01*
X33266283Y-61892152D01*
X33228093Y-61855053D01*
X33193251Y-61814333D01*
X33161996Y-61770296D01*
X33134569Y-61723251D01*
X33111210Y-61673503D01*
X33092159Y-61621357D01*
X33077656Y-61567122D01*
X33067940Y-61511102D01*
X33063251Y-61453604D01*
X33063831Y-61394934D01*
X33069917Y-61335398D01*
X33081751Y-61275304D01*
X33099573Y-61214956D01*
X33123622Y-61154662D01*
X33154138Y-61094727D01*
X33191361Y-61035458D01*
X33235532Y-60977161D01*
X33265758Y-60941059D01*
X33299149Y-60906936D01*
X33335379Y-60874863D01*
X33374121Y-60844910D01*
X33415050Y-60817149D01*
X33457838Y-60791651D01*
X33502161Y-60768485D01*
X33547692Y-60747723D01*
X33594104Y-60729436D01*
X33641072Y-60713695D01*
X33688270Y-60700570D01*
X33735371Y-60690131D01*
X33782049Y-60682451D01*
X33827979Y-60677599D01*
X33872833Y-60675647D01*
X33916287Y-60676665D01*
X33916288Y-60676665D01*
X33937216Y-60679072D01*
X33958969Y-60682434D01*
X33981237Y-60686698D01*
X34003708Y-60691811D01*
X34026073Y-60697718D01*
X34048020Y-60704366D01*
X34069240Y-60711702D01*
X34089422Y-60719673D01*
X34108255Y-60728224D01*
X34117069Y-60732701D01*
X34125429Y-60737303D01*
X34133297Y-60742024D01*
X34140634Y-60746856D01*
X34147401Y-60751793D01*
X34153559Y-60756829D01*
X34159069Y-60761956D01*
X34163893Y-60767169D01*
X34167992Y-60772460D01*
X34171327Y-60777822D01*
X34173859Y-60783250D01*
X34175549Y-60788736D01*
X34176359Y-60794273D01*
X34176249Y-60799855D01*
X34174556Y-60809998D01*
X34171696Y-60818164D01*
X34169784Y-60821581D01*
X34167527Y-60824594D01*
X34164907Y-60827233D01*
X34161907Y-60829529D01*
X34154693Y-60833211D01*
X34145744Y-60835881D01*
X34134918Y-60837781D01*
X34122071Y-60839150D01*
X34047642Y-60844162D01*
X34022563Y-60846503D01*
X33994610Y-60849764D01*
X33963642Y-60854183D01*
X33929517Y-60860004D01*
X33893840Y-60867468D01*
X33858394Y-60876636D01*
X33823299Y-60887478D01*
X33788676Y-60899964D01*
X33754646Y-60914063D01*
X33721329Y-60929746D01*
X33688846Y-60946982D01*
X33657318Y-60965740D01*
X33626865Y-60985991D01*
X33597607Y-61007704D01*
X33569667Y-61030849D01*
X33543164Y-61055396D01*
X33518218Y-61081313D01*
X33494952Y-61108572D01*
X33473484Y-61137141D01*
X33463463Y-61151908D01*
X33453937Y-61166991D01*
X33444420Y-61181686D01*
X33435579Y-61197074D01*
X33427423Y-61213093D01*
X33419958Y-61229681D01*
X33413194Y-61246775D01*
X33407136Y-61264313D01*
X33401795Y-61282233D01*
X33397176Y-61300473D01*
X33393289Y-61318970D01*
X33390141Y-61337661D01*
X33387739Y-61356485D01*
X33386092Y-61375378D01*
X33385207Y-61394280D01*
X33385092Y-61413127D01*
X33385755Y-61431857D01*
X33387204Y-61450408D01*
X33389447Y-61468718D01*
X33392491Y-61486724D01*
X33396345Y-61504363D01*
X33401016Y-61521574D01*
X33406511Y-61538294D01*
X33412840Y-61554461D01*
X33420009Y-61570012D01*
X33428026Y-61584886D01*
X33436899Y-61599019D01*
X33446637Y-61612350D01*
X33457247Y-61624816D01*
X33468736Y-61636355D01*
X33481112Y-61646904D01*
X33494384Y-61656402D01*
X33508560Y-61664786D01*
X33523646Y-61671993D01*
X33536834Y-61677124D01*
X33549886Y-61681290D01*
X33562798Y-61684530D01*
X33575568Y-61686882D01*
X33588192Y-61688384D01*
X33600668Y-61689073D01*
X33612993Y-61688987D01*
X33625163Y-61688165D01*
X33637176Y-61686645D01*
X33649028Y-61684464D01*
X33660717Y-61681661D01*
X33672239Y-61678273D01*
X33683593Y-61674339D01*
X33694773Y-61669896D01*
X33705779Y-61664983D01*
X33716606Y-61659637D01*
X33727252Y-61653896D01*
X33737714Y-61647799D01*
X33758073Y-61634686D01*
X33777658Y-61620603D01*
X33796448Y-61605853D01*
X33814416Y-61590740D01*
X33831540Y-61575568D01*
X33863159Y-61546263D01*
X33911795Y-61498349D01*
X33958731Y-61449990D01*
X34049060Y-61352403D01*
X34137260Y-61254440D01*
X34226445Y-61157038D01*
X34272380Y-61108842D01*
X34319729Y-61061137D01*
X34368882Y-61014042D01*
X34420228Y-60967674D01*
X34474155Y-60922149D01*
X34531053Y-60877586D01*
X34591313Y-60834101D01*
X34655322Y-60791812D01*
X34708862Y-60759720D01*
X34763352Y-60730352D01*
X34818664Y-60703711D01*
X34874670Y-60679800D01*
X34931240Y-60658623D01*
X34988247Y-60640181D01*
X35045563Y-60624477D01*
X35103058Y-60611516D01*
X35160605Y-60601299D01*
X35218075Y-60593829D01*
X35275340Y-60589110D01*
X35332272Y-60587144D01*
X35388742Y-60587935D01*
G37*
G36*
X36665423Y-63982602D02*
G01*
X36709088Y-63986219D01*
X36751612Y-63993291D01*
X36792960Y-64003682D01*
X36833099Y-64017253D01*
X36871996Y-64033865D01*
X36909617Y-64053381D01*
X36945929Y-64075662D01*
X36980897Y-64100571D01*
X37014489Y-64127968D01*
X37046671Y-64157717D01*
X37077409Y-64189678D01*
X37106669Y-64223713D01*
X37134420Y-64259685D01*
X37185254Y-64336884D01*
X37229642Y-64420171D01*
X37267317Y-64508439D01*
X37298011Y-64600583D01*
X37321453Y-64695497D01*
X37337378Y-64792077D01*
X37345515Y-64889216D01*
X37345598Y-64985810D01*
X37337356Y-65080753D01*
X37329272Y-65128462D01*
X37318638Y-65174709D01*
X37305566Y-65219491D01*
X37290167Y-65262801D01*
X37272549Y-65304634D01*
X37252825Y-65344985D01*
X37231103Y-65383848D01*
X37207495Y-65421219D01*
X37182111Y-65457092D01*
X37155061Y-65491461D01*
X37126455Y-65524322D01*
X37096404Y-65555669D01*
X37065019Y-65585497D01*
X37032410Y-65613800D01*
X36998686Y-65640574D01*
X36963959Y-65665812D01*
X36891935Y-65711663D01*
X36817220Y-65751310D01*
X36740699Y-65784712D01*
X36663253Y-65811825D01*
X36585766Y-65832607D01*
X36509120Y-65847017D01*
X36434198Y-65855012D01*
X36361884Y-65856550D01*
X36367290Y-65831161D01*
X36372020Y-65805773D01*
X36376087Y-65780389D01*
X36379503Y-65755010D01*
X36382283Y-65729638D01*
X36384438Y-65704275D01*
X36385982Y-65678922D01*
X36386927Y-65653583D01*
X36387286Y-65628258D01*
X36387072Y-65602950D01*
X36386298Y-65577660D01*
X36384977Y-65552391D01*
X36380744Y-65501922D01*
X36374478Y-65451557D01*
X36405274Y-65446867D01*
X36440604Y-65440495D01*
X36479670Y-65432225D01*
X36521676Y-65421838D01*
X36565825Y-65409118D01*
X36611321Y-65393847D01*
X36657368Y-65375807D01*
X36703168Y-65354782D01*
X36725727Y-65343081D01*
X36747926Y-65330552D01*
X36769665Y-65317169D01*
X36790845Y-65302902D01*
X36811366Y-65287727D01*
X36831128Y-65271614D01*
X36850032Y-65254538D01*
X36867979Y-65236470D01*
X36884869Y-65217384D01*
X36900602Y-65197252D01*
X36915079Y-65176048D01*
X36928199Y-65153744D01*
X36939865Y-65130313D01*
X36949975Y-65105728D01*
X36958432Y-65079961D01*
X36965133Y-65052985D01*
X36968309Y-65036849D01*
X36970995Y-65021096D01*
X36973206Y-65005720D01*
X36974959Y-64990714D01*
X36976269Y-64976070D01*
X36977152Y-64961782D01*
X36977624Y-64947843D01*
X36977700Y-64934245D01*
X36977397Y-64920981D01*
X36976729Y-64908044D01*
X36974364Y-64883124D01*
X36970731Y-64859427D01*
X36965956Y-64836897D01*
X36960166Y-64815477D01*
X36953486Y-64795110D01*
X36946043Y-64775739D01*
X36937961Y-64757308D01*
X36929367Y-64739759D01*
X36920387Y-64723037D01*
X36911146Y-64707084D01*
X36901771Y-64691843D01*
X36894205Y-64680300D01*
X36886389Y-64669256D01*
X36878331Y-64658703D01*
X36870043Y-64648634D01*
X36852815Y-64629913D01*
X36834782Y-64613027D01*
X36816025Y-64597910D01*
X36796623Y-64584495D01*
X36776654Y-64572718D01*
X36756199Y-64562513D01*
X36735337Y-64553812D01*
X36714147Y-64546552D01*
X36692708Y-64540665D01*
X36671100Y-64536087D01*
X36649401Y-64532751D01*
X36627693Y-64530591D01*
X36606053Y-64529542D01*
X36584561Y-64529538D01*
X36574091Y-64519565D01*
X36564028Y-64509396D01*
X36545091Y-64488557D01*
X36527681Y-64467185D01*
X36511728Y-64445444D01*
X36497165Y-64423500D01*
X36483922Y-64401517D01*
X36471932Y-64379660D01*
X36461125Y-64358094D01*
X36451433Y-64336984D01*
X36442788Y-64316494D01*
X36435120Y-64296790D01*
X36428362Y-64278035D01*
X36417299Y-64244036D01*
X36409050Y-64215816D01*
X36426157Y-64205669D01*
X36442855Y-64194824D01*
X36459120Y-64183305D01*
X36474930Y-64171133D01*
X36490260Y-64158333D01*
X36505088Y-64144927D01*
X36519390Y-64130939D01*
X36533144Y-64116391D01*
X36546327Y-64101306D01*
X36558914Y-64085708D01*
X36570884Y-64069619D01*
X36582212Y-64053062D01*
X36592876Y-64036062D01*
X36602852Y-64018639D01*
X36612118Y-64000819D01*
X36620650Y-63982623D01*
X36620650Y-63982580D01*
X36665423Y-63982602D01*
G37*
G36*
X35098552Y-61136588D02*
G01*
X35114907Y-61139698D01*
X35133563Y-61145895D01*
X35154547Y-61155362D01*
X35177887Y-61168283D01*
X35203608Y-61184841D01*
X35257092Y-61216773D01*
X35313472Y-61241803D01*
X35372543Y-61260558D01*
X35434101Y-61273668D01*
X35497939Y-61281761D01*
X35563853Y-61285467D01*
X35701087Y-61282229D01*
X36292027Y-61219506D01*
X36442057Y-61216532D01*
X36516288Y-61220409D01*
X36589723Y-61228701D01*
X36662156Y-61242035D01*
X36733383Y-61261041D01*
X36803199Y-61286348D01*
X36871397Y-61318583D01*
X36937774Y-61358377D01*
X37002124Y-61406357D01*
X37064242Y-61463153D01*
X37123923Y-61529393D01*
X37180961Y-61605706D01*
X37235152Y-61692720D01*
X37286290Y-61791065D01*
X37334170Y-61901368D01*
X37305766Y-61884456D01*
X37276575Y-61868495D01*
X37246550Y-61853600D01*
X37215644Y-61839886D01*
X37183811Y-61827468D01*
X37151002Y-61816461D01*
X37117172Y-61806979D01*
X37082272Y-61799138D01*
X37046256Y-61793051D01*
X37009077Y-61788834D01*
X36970688Y-61786601D01*
X36931041Y-61786468D01*
X36890090Y-61788549D01*
X36847787Y-61792958D01*
X36804085Y-61799811D01*
X36758938Y-61809223D01*
X36731344Y-61779602D01*
X36702391Y-61753013D01*
X36672124Y-61729290D01*
X36640588Y-61708270D01*
X36607830Y-61689787D01*
X36573894Y-61673677D01*
X36538827Y-61659776D01*
X36502673Y-61647918D01*
X36427288Y-61629676D01*
X36348104Y-61617635D01*
X36265485Y-61610477D01*
X36179795Y-61606887D01*
X35813607Y-61601865D01*
X35718023Y-61596362D01*
X35621553Y-61586526D01*
X35524560Y-61571041D01*
X35427410Y-61548591D01*
X35391910Y-61537752D01*
X35357978Y-61525044D01*
X35325640Y-61510649D01*
X35294925Y-61494751D01*
X35265858Y-61477535D01*
X35238468Y-61459183D01*
X35212781Y-61439879D01*
X35188824Y-61419806D01*
X35166625Y-61399149D01*
X35146211Y-61378090D01*
X35127608Y-61356814D01*
X35110845Y-61335504D01*
X35095948Y-61314343D01*
X35082944Y-61293515D01*
X35071861Y-61273204D01*
X35062726Y-61253593D01*
X35055565Y-61234866D01*
X35050407Y-61217206D01*
X35047277Y-61200797D01*
X35046204Y-61185823D01*
X35047215Y-61172467D01*
X35050336Y-61160912D01*
X35055595Y-61151342D01*
X35063019Y-61143942D01*
X35072635Y-61138893D01*
X35084470Y-61136381D01*
X35098552Y-61136588D01*
G37*
G36*
X36140667Y-65022169D02*
G01*
X36165815Y-65086239D01*
X36189014Y-65150724D01*
X36210022Y-65215587D01*
X36228597Y-65280792D01*
X36244497Y-65346302D01*
X36257482Y-65412081D01*
X36267309Y-65478092D01*
X36273736Y-65544300D01*
X36276522Y-65610666D01*
X36275425Y-65677156D01*
X36270204Y-65743732D01*
X36260617Y-65810358D01*
X36246421Y-65876997D01*
X36227376Y-65943614D01*
X36203240Y-66010170D01*
X36179929Y-66063883D01*
X36153717Y-66114784D01*
X36124734Y-66162877D01*
X36093107Y-66208164D01*
X36058965Y-66250648D01*
X36022435Y-66290332D01*
X35983648Y-66327219D01*
X35942730Y-66361311D01*
X35899810Y-66392613D01*
X35855016Y-66421126D01*
X35808477Y-66446854D01*
X35760322Y-66469800D01*
X35710678Y-66489966D01*
X35659674Y-66507355D01*
X35607438Y-66521970D01*
X35554098Y-66533815D01*
X35499783Y-66542892D01*
X35444622Y-66549204D01*
X35388742Y-66552754D01*
X35332272Y-66553544D01*
X35275340Y-66551579D01*
X35218075Y-66546860D01*
X35160605Y-66539390D01*
X35103058Y-66529174D01*
X35045563Y-66516212D01*
X34988247Y-66500509D01*
X34931240Y-66482067D01*
X34874670Y-66460890D01*
X34818664Y-66436979D01*
X34763352Y-66410339D01*
X34708862Y-66380971D01*
X34655322Y-66348879D01*
X34591313Y-66306591D01*
X34531053Y-66263107D01*
X34474155Y-66218544D01*
X34420228Y-66173020D01*
X34368882Y-66126651D01*
X34319729Y-66079556D01*
X34272380Y-66031852D01*
X34226445Y-65983655D01*
X34137260Y-65886253D01*
X34049060Y-65788290D01*
X33958731Y-65690704D01*
X33911795Y-65642345D01*
X33863159Y-65594432D01*
X33831540Y-65565123D01*
X33814416Y-65549948D01*
X33796448Y-65534833D01*
X33777658Y-65520080D01*
X33758073Y-65505994D01*
X33737714Y-65492878D01*
X33716606Y-65481037D01*
X33694773Y-65470774D01*
X33683593Y-65466329D01*
X33672239Y-65462393D01*
X33660717Y-65459004D01*
X33649028Y-65456199D01*
X33637176Y-65454016D01*
X33625163Y-65452494D01*
X33612993Y-65451671D01*
X33600668Y-65451584D01*
X33588192Y-65452272D01*
X33575568Y-65453772D01*
X33562798Y-65456122D01*
X33549886Y-65459361D01*
X33536834Y-65463527D01*
X33523646Y-65468657D01*
X33508560Y-65475865D01*
X33494384Y-65484250D01*
X33481112Y-65493749D01*
X33468736Y-65504300D01*
X33457247Y-65515840D01*
X33446637Y-65528308D01*
X33436899Y-65541640D01*
X33428026Y-65555775D01*
X33420009Y-65570650D01*
X33412840Y-65586203D01*
X33406511Y-65602371D01*
X33401016Y-65619093D01*
X33396345Y-65636305D01*
X33392491Y-65653946D01*
X33387204Y-65690264D01*
X33385092Y-65727548D01*
X33386092Y-65765299D01*
X33390141Y-65803019D01*
X33397176Y-65840209D01*
X33407136Y-65876371D01*
X33419958Y-65911005D01*
X33427423Y-65927593D01*
X33435579Y-65943613D01*
X33444420Y-65959002D01*
X33453937Y-65973697D01*
X33473484Y-66003547D01*
X33494952Y-66032117D01*
X33518218Y-66059375D01*
X33543164Y-66085291D01*
X33569667Y-66109835D01*
X33597607Y-66132978D01*
X33626865Y-66154689D01*
X33657318Y-66174938D01*
X33688846Y-66193694D01*
X33721329Y-66210929D01*
X33754646Y-66226611D01*
X33788676Y-66240710D01*
X33823299Y-66253197D01*
X33858394Y-66264041D01*
X33893840Y-66273212D01*
X33929517Y-66280680D01*
X33946983Y-66283781D01*
X33963642Y-66286502D01*
X33979512Y-66288872D01*
X33994610Y-66290922D01*
X34008954Y-66292682D01*
X34022563Y-66294183D01*
X34035453Y-66295454D01*
X34047642Y-66296525D01*
X34122071Y-66301538D01*
X34128756Y-66302172D01*
X34134918Y-66302909D01*
X34140575Y-66303777D01*
X34145744Y-66304808D01*
X34150445Y-66306032D01*
X34154693Y-66307478D01*
X34158508Y-66309178D01*
X34161906Y-66311160D01*
X34163455Y-66312267D01*
X34164907Y-66313456D01*
X34166263Y-66314731D01*
X34167527Y-66316096D01*
X34168699Y-66317553D01*
X34169784Y-66319108D01*
X34170782Y-66320764D01*
X34171696Y-66322525D01*
X34173280Y-66326376D01*
X34174556Y-66330690D01*
X34175539Y-66335499D01*
X34176249Y-66340832D01*
X34176359Y-66346415D01*
X34175549Y-66351953D01*
X34173859Y-66357439D01*
X34171327Y-66362867D01*
X34167992Y-66368229D01*
X34163893Y-66373520D01*
X34159069Y-66378733D01*
X34153559Y-66383861D01*
X34140634Y-66393834D01*
X34125429Y-66403387D01*
X34108255Y-66412466D01*
X34089421Y-66421018D01*
X34069240Y-66428989D01*
X34048020Y-66436325D01*
X34026072Y-66442974D01*
X34003707Y-66448882D01*
X33981236Y-66453994D01*
X33958969Y-66458259D01*
X33937215Y-66461622D01*
X33916287Y-66464029D01*
X33872833Y-66465048D01*
X33827979Y-66463095D01*
X33782049Y-66458243D01*
X33735371Y-66450563D01*
X33688270Y-66440124D01*
X33641072Y-66426999D01*
X33594104Y-66411257D01*
X33547692Y-66392970D01*
X33502161Y-66372208D01*
X33457838Y-66349042D01*
X33415050Y-66323544D01*
X33374121Y-66295783D01*
X33335379Y-66265831D01*
X33299149Y-66233758D01*
X33265758Y-66199635D01*
X33250229Y-66181827D01*
X33235532Y-66163533D01*
X33191362Y-66105236D01*
X33154138Y-66045966D01*
X33123622Y-65986030D01*
X33099573Y-65925734D01*
X33081752Y-65865386D01*
X33069918Y-65805290D01*
X33063831Y-65745753D01*
X33063252Y-65687082D01*
X33067940Y-65629582D01*
X33077656Y-65573560D01*
X33092160Y-65519323D01*
X33111211Y-65467176D01*
X33134570Y-65417426D01*
X33161996Y-65370379D01*
X33193251Y-65326341D01*
X33228093Y-65285618D01*
X33266284Y-65248518D01*
X33307582Y-65215345D01*
X33351748Y-65186407D01*
X33398542Y-65162010D01*
X33447725Y-65142459D01*
X33499055Y-65128062D01*
X33552294Y-65119124D01*
X33607201Y-65115952D01*
X33663536Y-65118851D01*
X33721060Y-65128129D01*
X33779532Y-65144092D01*
X33838712Y-65167045D01*
X33898361Y-65197295D01*
X33958238Y-65235148D01*
X34018104Y-65280911D01*
X34077719Y-65334890D01*
X34256270Y-65513042D01*
X34343239Y-65599300D01*
X34430937Y-65683212D01*
X34475591Y-65724179D01*
X34521063Y-65764429D01*
X34567567Y-65803917D01*
X34615316Y-65842601D01*
X34664520Y-65880436D01*
X34715394Y-65917378D01*
X34768149Y-65953385D01*
X34822997Y-65988411D01*
X34880047Y-66021013D01*
X34938968Y-66049686D01*
X34999298Y-66074297D01*
X35060571Y-66094714D01*
X35122323Y-66110805D01*
X35184091Y-66122436D01*
X35245410Y-66129477D01*
X35275757Y-66131234D01*
X35305817Y-66131794D01*
X35335533Y-66131139D01*
X35364847Y-66129254D01*
X35393701Y-66126122D01*
X35422037Y-66121727D01*
X35449796Y-66116051D01*
X35476922Y-66109079D01*
X35503355Y-66100793D01*
X35529037Y-66091177D01*
X35553912Y-66080215D01*
X35577920Y-66067891D01*
X35601005Y-66054186D01*
X35623106Y-66039086D01*
X35644168Y-66022573D01*
X35664132Y-66004631D01*
X35682939Y-65985244D01*
X35700532Y-65964394D01*
X35715569Y-65944271D01*
X35729394Y-65923753D01*
X35742036Y-65902869D01*
X35753523Y-65881644D01*
X35763884Y-65860107D01*
X35773148Y-65838282D01*
X35781344Y-65816198D01*
X35788501Y-65793882D01*
X35794647Y-65771359D01*
X35799811Y-65748657D01*
X35807311Y-65702824D01*
X35811231Y-65656597D01*
X35811802Y-65610191D01*
X35809254Y-65563821D01*
X35803819Y-65517701D01*
X35795727Y-65472046D01*
X35785210Y-65427072D01*
X35772497Y-65382993D01*
X35757820Y-65340023D01*
X35741410Y-65298379D01*
X35723497Y-65258274D01*
X35772622Y-65227564D01*
X35822108Y-65194862D01*
X35871725Y-65160198D01*
X35921247Y-65123605D01*
X35970445Y-65085112D01*
X36019090Y-65044751D01*
X36066955Y-65002554D01*
X36113811Y-64958550D01*
X36140667Y-65022169D01*
G37*
G36*
X32610500Y-61508478D02*
G01*
X32612704Y-61508633D01*
X32614951Y-61508897D01*
X32617240Y-61509276D01*
X32619570Y-61509776D01*
X32621941Y-61510403D01*
X32624350Y-61511163D01*
X32626798Y-61512060D01*
X32629284Y-61513101D01*
X32851582Y-61612946D01*
X33017868Y-61688290D01*
X33019794Y-61689247D01*
X33021600Y-61690226D01*
X33023288Y-61691228D01*
X33024860Y-61692253D01*
X33026319Y-61693303D01*
X33027669Y-61694377D01*
X33028911Y-61695478D01*
X33030049Y-61696604D01*
X33031084Y-61697758D01*
X33032020Y-61698939D01*
X33032860Y-61700149D01*
X33033605Y-61701388D01*
X33034259Y-61702656D01*
X33034825Y-61703955D01*
X33035305Y-61705286D01*
X33035701Y-61706648D01*
X33036016Y-61708043D01*
X33036254Y-61709470D01*
X33036417Y-61710932D01*
X33036507Y-61712429D01*
X33036479Y-61715529D01*
X33036194Y-61718775D01*
X33035671Y-61722174D01*
X33034933Y-61725731D01*
X33034001Y-61729451D01*
X33032896Y-61733340D01*
X33019029Y-61786759D01*
X33011896Y-61821161D01*
X33005423Y-61859725D01*
X33000207Y-61901727D01*
X32996843Y-61946441D01*
X32995927Y-61993143D01*
X32998055Y-62041108D01*
X33003822Y-62089610D01*
X33008256Y-62113836D01*
X33013824Y-62137925D01*
X33020599Y-62161786D01*
X33028656Y-62185329D01*
X33038070Y-62208462D01*
X33048915Y-62231095D01*
X33061266Y-62253138D01*
X33075196Y-62274500D01*
X33090781Y-62295091D01*
X33108094Y-62314819D01*
X33127211Y-62333594D01*
X33148206Y-62351326D01*
X33171153Y-62367924D01*
X33196127Y-62383297D01*
X33264070Y-62415111D01*
X33329143Y-62436522D01*
X33391678Y-62448259D01*
X33452011Y-62451055D01*
X33510472Y-62445641D01*
X33567397Y-62432748D01*
X33623119Y-62413107D01*
X33677970Y-62387450D01*
X33732285Y-62356508D01*
X33786396Y-62321012D01*
X33895341Y-62239283D01*
X34125458Y-62053353D01*
X34251963Y-61960853D01*
X34319245Y-61917279D01*
X34389656Y-61876463D01*
X34463531Y-61839137D01*
X34541203Y-61806032D01*
X34623006Y-61777880D01*
X34709272Y-61755412D01*
X34800335Y-61739358D01*
X34896528Y-61730451D01*
X34998185Y-61729421D01*
X35105640Y-61737001D01*
X35219224Y-61753920D01*
X35339273Y-61780910D01*
X35466119Y-61818703D01*
X35600095Y-61868030D01*
X35583839Y-61910649D01*
X35566221Y-61952499D01*
X35547453Y-61993454D01*
X35527750Y-62033390D01*
X35507322Y-62072181D01*
X35486382Y-62109702D01*
X35465144Y-62145827D01*
X35443819Y-62180433D01*
X35422620Y-62213393D01*
X35401760Y-62244583D01*
X35361905Y-62301150D01*
X35325956Y-62349133D01*
X35295612Y-62387531D01*
X35229472Y-62378595D01*
X35162732Y-62372168D01*
X35095505Y-62368383D01*
X35027905Y-62367375D01*
X34960047Y-62369275D01*
X34892044Y-62374218D01*
X34824011Y-62382336D01*
X34756061Y-62393762D01*
X34688307Y-62408630D01*
X34620866Y-62427073D01*
X34553849Y-62449223D01*
X34487371Y-62475215D01*
X34421546Y-62505182D01*
X34356489Y-62539256D01*
X34292312Y-62577570D01*
X34229129Y-62620259D01*
X34222961Y-62624766D01*
X34217039Y-62629271D01*
X34205918Y-62638252D01*
X34195734Y-62647162D01*
X34186453Y-62655964D01*
X34178040Y-62664620D01*
X34170461Y-62673089D01*
X34163682Y-62681335D01*
X34157670Y-62689319D01*
X34152390Y-62697002D01*
X34147808Y-62704346D01*
X34143890Y-62711313D01*
X34140602Y-62717865D01*
X34137910Y-62723962D01*
X34135779Y-62729566D01*
X34134177Y-62734640D01*
X34133068Y-62739144D01*
X34199723Y-62702514D01*
X34266210Y-62668753D01*
X34332506Y-62637842D01*
X34398591Y-62609764D01*
X34464441Y-62584500D01*
X34530034Y-62562033D01*
X34595348Y-62542344D01*
X34660362Y-62525415D01*
X34725052Y-62511229D01*
X34789397Y-62499767D01*
X34853375Y-62491011D01*
X34916962Y-62484944D01*
X34980138Y-62481547D01*
X35042880Y-62480801D01*
X35105165Y-62482690D01*
X35166972Y-62487195D01*
X35228278Y-62494298D01*
X35289062Y-62503980D01*
X35349300Y-62516225D01*
X35408971Y-62531013D01*
X35468053Y-62548328D01*
X35526524Y-62568150D01*
X35584360Y-62590462D01*
X35641541Y-62615245D01*
X35698043Y-62642482D01*
X35753846Y-62672155D01*
X35863261Y-62738735D01*
X35969608Y-62814841D01*
X36072711Y-62900329D01*
X36039199Y-62907306D01*
X36001146Y-62915749D01*
X35981751Y-62920395D01*
X35962822Y-62925257D01*
X35944892Y-62930285D01*
X35928496Y-62935430D01*
X35861520Y-62907110D01*
X35796051Y-62883366D01*
X35732010Y-62863977D01*
X35669323Y-62848720D01*
X35607914Y-62837375D01*
X35547706Y-62829719D01*
X35488624Y-62825531D01*
X35430592Y-62824590D01*
X35373534Y-62826673D01*
X35317374Y-62831560D01*
X35262035Y-62839028D01*
X35207443Y-62848856D01*
X35100192Y-62874705D01*
X34995015Y-62907335D01*
X34891303Y-62944973D01*
X34788449Y-62985846D01*
X34582886Y-63070203D01*
X34478962Y-63110143D01*
X34373466Y-63146226D01*
X34265791Y-63176679D01*
X34210946Y-63189241D01*
X34155329Y-63199731D01*
X34123688Y-63204639D01*
X34092705Y-63208703D01*
X34062392Y-63211965D01*
X34032762Y-63214467D01*
X34003827Y-63216250D01*
X33975602Y-63217358D01*
X33948097Y-63217831D01*
X33921327Y-63217713D01*
X33870041Y-63215869D01*
X33821845Y-63212162D01*
X33776842Y-63206929D01*
X33735135Y-63200507D01*
X33696827Y-63193230D01*
X33662019Y-63185437D01*
X33630814Y-63177464D01*
X33603316Y-63169647D01*
X33532430Y-63146673D01*
X33524035Y-63144118D01*
X33515986Y-63141766D01*
X33508278Y-63139609D01*
X33500905Y-63137638D01*
X33493863Y-63135847D01*
X33487145Y-63134226D01*
X33480747Y-63132769D01*
X33474664Y-63131466D01*
X33468890Y-63130310D01*
X33463420Y-63129293D01*
X33458250Y-63128408D01*
X33453373Y-63127645D01*
X33448784Y-63126997D01*
X33444479Y-63126457D01*
X33436699Y-63125665D01*
X33429990Y-63125205D01*
X33424310Y-63125014D01*
X33419618Y-63125028D01*
X33415872Y-63125182D01*
X33413032Y-63125413D01*
X33411054Y-63125657D01*
X33409522Y-63125929D01*
X33464282Y-63151717D01*
X33511856Y-63173465D01*
X33534603Y-63183493D01*
X33554337Y-63191793D01*
X33648876Y-63226863D01*
X33739936Y-63254460D01*
X33827708Y-63275065D01*
X33912381Y-63289160D01*
X33994148Y-63297226D01*
X34073198Y-63299745D01*
X34149721Y-63297197D01*
X34223908Y-63290066D01*
X34295949Y-63278831D01*
X34366034Y-63263975D01*
X34434355Y-63245978D01*
X34501101Y-63225323D01*
X34630632Y-63177961D01*
X34756149Y-63125741D01*
X35001237Y-63022133D01*
X35123854Y-62978448D01*
X35185848Y-62960320D01*
X35248552Y-62945310D01*
X35312156Y-62933900D01*
X35376852Y-62926571D01*
X35442829Y-62923804D01*
X35510278Y-62926082D01*
X35579390Y-62933885D01*
X35650354Y-62947695D01*
X35723362Y-62967993D01*
X35798603Y-62995261D01*
X35777466Y-63005401D01*
X35756093Y-63016206D01*
X35712776Y-63039599D01*
X35668922Y-63065014D01*
X35624803Y-63092024D01*
X35580688Y-63120203D01*
X35536849Y-63149125D01*
X35451082Y-63207492D01*
X35420708Y-63203148D01*
X35389742Y-63200758D01*
X35358246Y-63200250D01*
X35326281Y-63201554D01*
X35293910Y-63204597D01*
X35261195Y-63209307D01*
X35228197Y-63215615D01*
X35194979Y-63223447D01*
X35161603Y-63232733D01*
X35128131Y-63243401D01*
X35061146Y-63268598D01*
X34994520Y-63298466D01*
X34928750Y-63332434D01*
X34864332Y-63369929D01*
X34801762Y-63410380D01*
X34741536Y-63453215D01*
X34684151Y-63497864D01*
X34630102Y-63543753D01*
X34579886Y-63590311D01*
X34533999Y-63636967D01*
X34492937Y-63683149D01*
X34456368Y-63692108D01*
X34420808Y-63700310D01*
X34386271Y-63707785D01*
X34352771Y-63714568D01*
X34288947Y-63726185D01*
X34229455Y-63735424D01*
X34174413Y-63742547D01*
X34123942Y-63747815D01*
X34078161Y-63751490D01*
X34037188Y-63753834D01*
X34001144Y-63755109D01*
X33970147Y-63755577D01*
X33923774Y-63755139D01*
X33899023Y-63754615D01*
X33895054Y-63754975D01*
X33895224Y-63755426D01*
X33896849Y-63756100D01*
X33937003Y-63768718D01*
X33977309Y-63779586D01*
X34017751Y-63788750D01*
X34058310Y-63796254D01*
X34098967Y-63802144D01*
X34139705Y-63806466D01*
X34180506Y-63809264D01*
X34221351Y-63810585D01*
X34262223Y-63810473D01*
X34303103Y-63808975D01*
X34343974Y-63806134D01*
X34384816Y-63801998D01*
X34425613Y-63796610D01*
X34466346Y-63790018D01*
X34506997Y-63782265D01*
X34547547Y-63773397D01*
X34549029Y-63774593D01*
X34549090Y-63774523D01*
X34549193Y-63774397D01*
X34549518Y-63773992D01*
X34549996Y-63773409D01*
X34550289Y-63773060D01*
X34550617Y-63772677D01*
X34623626Y-63753810D01*
X34696136Y-63731712D01*
X34768037Y-63706649D01*
X34839223Y-63678887D01*
X34909585Y-63648689D01*
X34979014Y-63616322D01*
X35047404Y-63582050D01*
X35114646Y-63546138D01*
X35180632Y-63508851D01*
X35245255Y-63470455D01*
X35308405Y-63431215D01*
X35369975Y-63391395D01*
X35487943Y-63311077D01*
X35598296Y-63231622D01*
X35637034Y-63203962D01*
X35675578Y-63178219D01*
X35713906Y-63154368D01*
X35751996Y-63132380D01*
X35789824Y-63112231D01*
X35827369Y-63093893D01*
X35864608Y-63077339D01*
X35901519Y-63062543D01*
X35938078Y-63049479D01*
X35974265Y-63038119D01*
X36010055Y-63028437D01*
X36045428Y-63020407D01*
X36080360Y-63014001D01*
X36114829Y-63009193D01*
X36148812Y-63005957D01*
X36182288Y-63004266D01*
X36215233Y-63004093D01*
X36247625Y-63005411D01*
X36279442Y-63008195D01*
X36310662Y-63012417D01*
X36341262Y-63018051D01*
X36371219Y-63025070D01*
X36400511Y-63033447D01*
X36429116Y-63043156D01*
X36457011Y-63054171D01*
X36484173Y-63066464D01*
X36510581Y-63080009D01*
X36536212Y-63094779D01*
X36561044Y-63110748D01*
X36585053Y-63127890D01*
X36608218Y-63146176D01*
X36630516Y-63165582D01*
X36664494Y-63195601D01*
X36701912Y-63226387D01*
X36742048Y-63257457D01*
X36784184Y-63288326D01*
X36827599Y-63318513D01*
X36871574Y-63347534D01*
X36915389Y-63374905D01*
X36958325Y-63400144D01*
X36960512Y-63401516D01*
X36962494Y-63403025D01*
X36964273Y-63404659D01*
X36965852Y-63406408D01*
X36967236Y-63408259D01*
X36968428Y-63410202D01*
X36969430Y-63412224D01*
X36970247Y-63414316D01*
X36970882Y-63416465D01*
X36971339Y-63418660D01*
X36971621Y-63420890D01*
X36971731Y-63423143D01*
X36971673Y-63425409D01*
X36971450Y-63427674D01*
X36971066Y-63429930D01*
X36970524Y-63432163D01*
X36969828Y-63434363D01*
X36968981Y-63436518D01*
X36967987Y-63438617D01*
X36966849Y-63440648D01*
X36965570Y-63442601D01*
X36964154Y-63444463D01*
X36962605Y-63446225D01*
X36960926Y-63447873D01*
X36959120Y-63449397D01*
X36957191Y-63450786D01*
X36955142Y-63452027D01*
X36952976Y-63453111D01*
X36950698Y-63454025D01*
X36948311Y-63454758D01*
X36945818Y-63455298D01*
X36943222Y-63455635D01*
X36903919Y-63457572D01*
X36866977Y-63456488D01*
X36832194Y-63452665D01*
X36799369Y-63446387D01*
X36768301Y-63437937D01*
X36738788Y-63427598D01*
X36710628Y-63415655D01*
X36683622Y-63402389D01*
X36484891Y-63282656D01*
X36459194Y-63270237D01*
X36432636Y-63259328D01*
X36405016Y-63250214D01*
X36376131Y-63243176D01*
X36345781Y-63238498D01*
X36313765Y-63236463D01*
X36279880Y-63237355D01*
X36243925Y-63241457D01*
X36205700Y-63249052D01*
X36165003Y-63260423D01*
X36121631Y-63275854D01*
X36075385Y-63295628D01*
X36026063Y-63320027D01*
X35973462Y-63349336D01*
X35917383Y-63383838D01*
X35857623Y-63423815D01*
X35857611Y-63423815D01*
X35857606Y-63423815D01*
X35857602Y-63423816D01*
X35857600Y-63423816D01*
X35857599Y-63423816D01*
X35857597Y-63423816D01*
X35857596Y-63423817D01*
X35857595Y-63423817D01*
X35857594Y-63423818D01*
X35857593Y-63423819D01*
X35857592Y-63423819D01*
X35857591Y-63423820D01*
X35857590Y-63423821D01*
X35857590Y-63423822D01*
X35857589Y-63423824D01*
X35857589Y-63423825D01*
X35857588Y-63423827D01*
X35857588Y-63423828D01*
X35857588Y-63423830D01*
X35857587Y-63423834D01*
X35857587Y-63423839D01*
X35857587Y-63423850D01*
X35782056Y-63477876D01*
X35707593Y-63532967D01*
X35633952Y-63588874D01*
X35560888Y-63645347D01*
X35415514Y-63758998D01*
X35269507Y-63871924D01*
X35174434Y-63935551D01*
X35076289Y-63991077D01*
X34975369Y-64038906D01*
X34871973Y-64079441D01*
X34766398Y-64113087D01*
X34658942Y-64140249D01*
X34549904Y-64161330D01*
X34439580Y-64176735D01*
X34328269Y-64186867D01*
X34216268Y-64192132D01*
X34103877Y-64192933D01*
X33991391Y-64189674D01*
X33879110Y-64182760D01*
X33767330Y-64172595D01*
X33656351Y-64159583D01*
X33546470Y-64144128D01*
X33539543Y-64143121D01*
X33532851Y-64142235D01*
X33526394Y-64141464D01*
X33520169Y-64140801D01*
X33514177Y-64140241D01*
X33508416Y-64139778D01*
X33502885Y-64139407D01*
X33497582Y-64139120D01*
X33487662Y-64138781D01*
X33478645Y-64138715D01*
X33470525Y-64138875D01*
X33463294Y-64139214D01*
X33456943Y-64139687D01*
X33451464Y-64140248D01*
X33446851Y-64140849D01*
X33443094Y-64141445D01*
X33438118Y-64142435D01*
X33436474Y-64142847D01*
X33520063Y-64175172D01*
X33619914Y-64206246D01*
X33683001Y-64222790D01*
X33754349Y-64238967D01*
X33833569Y-64254000D01*
X33920277Y-64267112D01*
X34014086Y-64277524D01*
X34114609Y-64284460D01*
X34221461Y-64287141D01*
X34334254Y-64284790D01*
X34452604Y-64276630D01*
X34576122Y-64261881D01*
X34626651Y-64276236D01*
X34675788Y-64292291D01*
X34723550Y-64309975D01*
X34769953Y-64329215D01*
X34815014Y-64349941D01*
X34858750Y-64372078D01*
X34901176Y-64395557D01*
X34942310Y-64420304D01*
X34982167Y-64446247D01*
X35020765Y-64473315D01*
X35058120Y-64501435D01*
X35094247Y-64530536D01*
X35129165Y-64560544D01*
X35162889Y-64591389D01*
X35195435Y-64622998D01*
X35226821Y-64655299D01*
X35127836Y-64691718D01*
X35080748Y-64707335D01*
X35034528Y-64721017D01*
X34988626Y-64732611D01*
X34942489Y-64741963D01*
X34895566Y-64748918D01*
X34847306Y-64753322D01*
X34797159Y-64755021D01*
X34744572Y-64753861D01*
X34688995Y-64749688D01*
X34629876Y-64742347D01*
X34566664Y-64731685D01*
X34498807Y-64717548D01*
X34425756Y-64699781D01*
X34346957Y-64678230D01*
X34327587Y-64671971D01*
X34311398Y-64666919D01*
X34297497Y-64662903D01*
X34291126Y-64661228D01*
X34284992Y-64659748D01*
X34278984Y-64658439D01*
X34272990Y-64657282D01*
X34266899Y-64656254D01*
X34260598Y-64655333D01*
X34246922Y-64653728D01*
X34231070Y-64652293D01*
X34277335Y-64684738D01*
X34324637Y-64713946D01*
X34372899Y-64739995D01*
X34422042Y-64762962D01*
X34471990Y-64782927D01*
X34522663Y-64799966D01*
X34573984Y-64814157D01*
X34625876Y-64825578D01*
X34678260Y-64834307D01*
X34731058Y-64840422D01*
X34784192Y-64843999D01*
X34837586Y-64845118D01*
X34891160Y-64843855D01*
X34944836Y-64840288D01*
X35052187Y-64826556D01*
X35159014Y-64804543D01*
X35264694Y-64774871D01*
X35368605Y-64738162D01*
X35470124Y-64695038D01*
X35568626Y-64646122D01*
X35663489Y-64592034D01*
X35754091Y-64533398D01*
X35839807Y-64470835D01*
X35869797Y-64515251D01*
X35899944Y-64561619D01*
X35930008Y-64609441D01*
X35959747Y-64658221D01*
X35988923Y-64707460D01*
X36017295Y-64756662D01*
X36044622Y-64805329D01*
X36070665Y-64852964D01*
X35972923Y-64941146D01*
X35871535Y-65025726D01*
X35766761Y-65105517D01*
X35658862Y-65179331D01*
X35548098Y-65245981D01*
X35434730Y-65304279D01*
X35319018Y-65353038D01*
X35260364Y-65373469D01*
X35201222Y-65391070D01*
X35141625Y-65405692D01*
X35081604Y-65417187D01*
X35021193Y-65425407D01*
X34960424Y-65430203D01*
X34899330Y-65431426D01*
X34837942Y-65428928D01*
X34776295Y-65422561D01*
X34714419Y-65412177D01*
X34652349Y-65397626D01*
X34590116Y-65378760D01*
X34527752Y-65355432D01*
X34465291Y-65327492D01*
X34402766Y-65294792D01*
X34340208Y-65257183D01*
X34277650Y-65214518D01*
X34215125Y-65166647D01*
X33927357Y-64928546D01*
X33864659Y-64878729D01*
X33804436Y-64833706D01*
X33746078Y-64793934D01*
X33688974Y-64759867D01*
X33660702Y-64745116D01*
X33632514Y-64731961D01*
X33604334Y-64720462D01*
X33576086Y-64710673D01*
X33547693Y-64702652D01*
X33519079Y-64696456D01*
X33490168Y-64692143D01*
X33460884Y-64689768D01*
X33431149Y-64689389D01*
X33400888Y-64691063D01*
X33370025Y-64694847D01*
X33338482Y-64700798D01*
X33306184Y-64708972D01*
X33273054Y-64719427D01*
X33239016Y-64732219D01*
X33203994Y-64747406D01*
X33177999Y-64760729D01*
X33154129Y-64775622D01*
X33132304Y-64791975D01*
X33112447Y-64809679D01*
X33094476Y-64828625D01*
X33078315Y-64848704D01*
X33063882Y-64869806D01*
X33051101Y-64891823D01*
X33039890Y-64914645D01*
X33030172Y-64938164D01*
X33021868Y-64962269D01*
X33014897Y-64986853D01*
X33009182Y-65011805D01*
X33004644Y-65037016D01*
X32998779Y-65087781D01*
X32996671Y-65138273D01*
X32997687Y-65187620D01*
X33001195Y-65234948D01*
X33006563Y-65279384D01*
X33013159Y-65320054D01*
X33020351Y-65356085D01*
X33033990Y-65410738D01*
X33034512Y-65412643D01*
X33034967Y-65414522D01*
X33035354Y-65416374D01*
X33035674Y-65418198D01*
X33035928Y-65419993D01*
X33036114Y-65421758D01*
X33036233Y-65423493D01*
X33036285Y-65425196D01*
X33036271Y-65426868D01*
X33036190Y-65428507D01*
X33036042Y-65430112D01*
X33035828Y-65431682D01*
X33035548Y-65433217D01*
X33035201Y-65434717D01*
X33034787Y-65436179D01*
X33034308Y-65437604D01*
X33033762Y-65438990D01*
X33033150Y-65440337D01*
X33032472Y-65441644D01*
X33031729Y-65442910D01*
X33030919Y-65444135D01*
X33030044Y-65445317D01*
X33029103Y-65446456D01*
X33028097Y-65447551D01*
X33027025Y-65448601D01*
X33025887Y-65449606D01*
X33024684Y-65450564D01*
X33023416Y-65451475D01*
X33022083Y-65452337D01*
X33020684Y-65453152D01*
X33019220Y-65453916D01*
X33017692Y-65454630D01*
X32622052Y-65628013D01*
X32620268Y-65628691D01*
X32618493Y-65629275D01*
X32616726Y-65629769D01*
X32614970Y-65630178D01*
X32613226Y-65630504D01*
X32611498Y-65630750D01*
X32609786Y-65630921D01*
X32608093Y-65631020D01*
X32606420Y-65631051D01*
X32604770Y-65631016D01*
X32603144Y-65630919D01*
X32601545Y-65630765D01*
X32599973Y-65630556D01*
X32598432Y-65630295D01*
X32596923Y-65629987D01*
X32595448Y-65629635D01*
X32592606Y-65628812D01*
X32589924Y-65627855D01*
X32587416Y-65626791D01*
X32585097Y-65625648D01*
X32582984Y-65624454D01*
X32581090Y-65623238D01*
X32579432Y-65622027D01*
X32578025Y-65620848D01*
X32533985Y-65578790D01*
X32493099Y-65535622D01*
X32487588Y-65529804D01*
X32439443Y-65474707D01*
X32390159Y-65414315D01*
X32340346Y-65349444D01*
X32290614Y-65280910D01*
X32241573Y-65209529D01*
X32193833Y-65136118D01*
X32148002Y-65061492D01*
X32104690Y-64986468D01*
X32099452Y-64976742D01*
X32475993Y-64976742D01*
X32476847Y-65020879D01*
X32477026Y-65023036D01*
X32477291Y-65025109D01*
X32477651Y-65027088D01*
X32478118Y-65028963D01*
X32478394Y-65029859D01*
X32478701Y-65030725D01*
X32479039Y-65031560D01*
X32479409Y-65032362D01*
X32479814Y-65033132D01*
X32480254Y-65033866D01*
X32480730Y-65034565D01*
X32481244Y-65035227D01*
X32481797Y-65035850D01*
X32482390Y-65036434D01*
X32483025Y-65036977D01*
X32483702Y-65037477D01*
X32484424Y-65037935D01*
X32485190Y-65038348D01*
X32486003Y-65038715D01*
X32486864Y-65039035D01*
X32487773Y-65039307D01*
X32488733Y-65039530D01*
X32489744Y-65039701D01*
X32490808Y-65039821D01*
X32491926Y-65039888D01*
X32493099Y-65039900D01*
X32494328Y-65039856D01*
X32495615Y-65039756D01*
X32521114Y-65036826D01*
X32545584Y-65033129D01*
X32569020Y-65028669D01*
X32591420Y-65023447D01*
X32612778Y-65017465D01*
X32633090Y-65010727D01*
X32652353Y-65003234D01*
X32670562Y-64994989D01*
X32687713Y-64985994D01*
X32703803Y-64976251D01*
X32718825Y-64965763D01*
X32732778Y-64954532D01*
X32745656Y-64942560D01*
X32757456Y-64929850D01*
X32768172Y-64916404D01*
X32777802Y-64902225D01*
X32786341Y-64887314D01*
X32793785Y-64871674D01*
X32800130Y-64855307D01*
X32805371Y-64838217D01*
X32809505Y-64820404D01*
X32812527Y-64801871D01*
X32814433Y-64782622D01*
X32815219Y-64762657D01*
X32814881Y-64741979D01*
X32813415Y-64720592D01*
X32810817Y-64698496D01*
X32807082Y-64675695D01*
X32802207Y-64652190D01*
X32796187Y-64627984D01*
X32789018Y-64603080D01*
X32780696Y-64577480D01*
X32779997Y-64575410D01*
X32779412Y-64573237D01*
X32778945Y-64570981D01*
X32778598Y-64568660D01*
X32778376Y-64566291D01*
X32778283Y-64563893D01*
X32778321Y-64561484D01*
X32778495Y-64559083D01*
X32778808Y-64556707D01*
X32779265Y-64554376D01*
X32779868Y-64552107D01*
X32780621Y-64549919D01*
X32781528Y-64547830D01*
X32782041Y-64546828D01*
X32782593Y-64545858D01*
X32783186Y-64544922D01*
X32783820Y-64544022D01*
X32784494Y-64543160D01*
X32785211Y-64542339D01*
X32805852Y-64520086D01*
X32824789Y-64500036D01*
X32833289Y-64491206D01*
X32840968Y-64483369D01*
X32847693Y-64476672D01*
X32853333Y-64471262D01*
X32853332Y-64471262D01*
X32854178Y-64470426D01*
X32854981Y-64469544D01*
X32855737Y-64468624D01*
X32856443Y-64467671D01*
X32857094Y-64466692D01*
X32857686Y-64465693D01*
X32858217Y-64464681D01*
X32858681Y-64463662D01*
X32859076Y-64462643D01*
X32859397Y-64461630D01*
X32859640Y-64460629D01*
X32859803Y-64459647D01*
X32859880Y-64458690D01*
X32859868Y-64457764D01*
X32859764Y-64456877D01*
X32859563Y-64456034D01*
X32859261Y-64455242D01*
X32858856Y-64454508D01*
X32858342Y-64453837D01*
X32857717Y-64453236D01*
X32856976Y-64452711D01*
X32856116Y-64452270D01*
X32855132Y-64451918D01*
X32854021Y-64451661D01*
X32852780Y-64451507D01*
X32851404Y-64451462D01*
X32851403Y-64451462D01*
X32849889Y-64451531D01*
X32848231Y-64451722D01*
X32846428Y-64452040D01*
X32844475Y-64452493D01*
X32842367Y-64453087D01*
X32840103Y-64453827D01*
X32819061Y-64461732D01*
X32798479Y-64470626D01*
X32778373Y-64480473D01*
X32758759Y-64491237D01*
X32739655Y-64502882D01*
X32721077Y-64515375D01*
X32685564Y-64542756D01*
X32652353Y-64573097D01*
X32621576Y-64606112D01*
X32593366Y-64641519D01*
X32567855Y-64679032D01*
X32545177Y-64718368D01*
X32525462Y-64759242D01*
X32508845Y-64801371D01*
X32495457Y-64844469D01*
X32485430Y-64888253D01*
X32478898Y-64932439D01*
X32475993Y-64976742D01*
X32099452Y-64976742D01*
X32064509Y-64911862D01*
X32028066Y-64838490D01*
X31995971Y-64767168D01*
X31968835Y-64698712D01*
X31947267Y-64633938D01*
X31931877Y-64573663D01*
X31931234Y-64570468D01*
X31930597Y-64566684D01*
X31930330Y-64564577D01*
X31930123Y-64562330D01*
X31929996Y-64559947D01*
X31929968Y-64557428D01*
X31930059Y-64554778D01*
X31930288Y-64551999D01*
X31930674Y-64549093D01*
X31931238Y-64546063D01*
X31931998Y-64542911D01*
X31932974Y-64539640D01*
X31934185Y-64536253D01*
X31935652Y-64532751D01*
X31962052Y-64473690D01*
X31990240Y-64409751D01*
X32013395Y-64356642D01*
X32024694Y-64330067D01*
X32025149Y-64328827D01*
X32025555Y-64327589D01*
X32025915Y-64326355D01*
X32026230Y-64325127D01*
X32026502Y-64323904D01*
X32026732Y-64322690D01*
X32027075Y-64320291D01*
X32027272Y-64317942D01*
X32027338Y-64315655D01*
X32027285Y-64313440D01*
X32027128Y-64311311D01*
X32026880Y-64309278D01*
X32026554Y-64307354D01*
X32026165Y-64305551D01*
X32025725Y-64303879D01*
X32025250Y-64302351D01*
X32024751Y-64300978D01*
X32024244Y-64299773D01*
X32023741Y-64298747D01*
X31975100Y-64203253D01*
X31932852Y-64109524D01*
X31897009Y-64017308D01*
X31867587Y-63926352D01*
X31844598Y-63836405D01*
X31828056Y-63747215D01*
X31817976Y-63658531D01*
X31814372Y-63570100D01*
X31817256Y-63481671D01*
X31826644Y-63392991D01*
X31842550Y-63303810D01*
X31864986Y-63213874D01*
X31893967Y-63122933D01*
X31929507Y-63030734D01*
X31971620Y-62937026D01*
X32020319Y-62841556D01*
X32022926Y-62836731D01*
X32025785Y-62830965D01*
X32027190Y-62827732D01*
X32028515Y-62824267D01*
X32029712Y-62820571D01*
X32030735Y-62816646D01*
X32031536Y-62812492D01*
X32032066Y-62808110D01*
X32032279Y-62803502D01*
X32032127Y-62798669D01*
X32031562Y-62793611D01*
X32031110Y-62790999D01*
X32030537Y-62788330D01*
X32029837Y-62785607D01*
X32029004Y-62782828D01*
X32028033Y-62779993D01*
X32026917Y-62777104D01*
X31986898Y-62682864D01*
X31947329Y-62590661D01*
X31946495Y-62588652D01*
X31945728Y-62586669D01*
X31944392Y-62582782D01*
X31943301Y-62579006D01*
X31942436Y-62575347D01*
X31941779Y-62571814D01*
X31941310Y-62568412D01*
X31941010Y-62565148D01*
X31940860Y-62562028D01*
X31940842Y-62559061D01*
X31940935Y-62556252D01*
X31941121Y-62553609D01*
X31941381Y-62551137D01*
X31941696Y-62548844D01*
X31942047Y-62546737D01*
X31942779Y-62543106D01*
X31958247Y-62484853D01*
X31979354Y-62422343D01*
X32005573Y-62356332D01*
X32036381Y-62287574D01*
X32071253Y-62216824D01*
X32109664Y-62144837D01*
X32113250Y-62138564D01*
X32475943Y-62138564D01*
X32475994Y-62160677D01*
X32476985Y-62182832D01*
X32478899Y-62204992D01*
X32481720Y-62227122D01*
X32485431Y-62249187D01*
X32490016Y-62271151D01*
X32495457Y-62292978D01*
X32501740Y-62314633D01*
X32508846Y-62336081D01*
X32516759Y-62357286D01*
X32525463Y-62378213D01*
X32534941Y-62398826D01*
X32545177Y-62419089D01*
X32556155Y-62438968D01*
X32567856Y-62458426D01*
X32580266Y-62477428D01*
X32593367Y-62495939D01*
X32607143Y-62513923D01*
X32621577Y-62531344D01*
X32636653Y-62548168D01*
X32652354Y-62564358D01*
X32668663Y-62579880D01*
X32685565Y-62594697D01*
X32703042Y-62608774D01*
X32721078Y-62622076D01*
X32739656Y-62634567D01*
X32758760Y-62646211D01*
X32778374Y-62656974D01*
X32798480Y-62666820D01*
X32819062Y-62675712D01*
X32840103Y-62683617D01*
X32842368Y-62684358D01*
X32844475Y-62684952D01*
X32846429Y-62685405D01*
X32848232Y-62685724D01*
X32849889Y-62685915D01*
X32851404Y-62685985D01*
X32852781Y-62685939D01*
X32854022Y-62685785D01*
X32855133Y-62685528D01*
X32856117Y-62685176D01*
X32856977Y-62684734D01*
X32857718Y-62684209D01*
X32858343Y-62683608D01*
X32858857Y-62682936D01*
X32859262Y-62682201D01*
X32859564Y-62681408D01*
X32859765Y-62680564D01*
X32859869Y-62679676D01*
X32859881Y-62678749D01*
X32859804Y-62677791D01*
X32859641Y-62676807D01*
X32859398Y-62675805D01*
X32859077Y-62674790D01*
X32858682Y-62673769D01*
X32858218Y-62672749D01*
X32857687Y-62671735D01*
X32857095Y-62670735D01*
X32856444Y-62669754D01*
X32855738Y-62668799D01*
X32854982Y-62667876D01*
X32854179Y-62666993D01*
X32853333Y-62666154D01*
X32847692Y-62660740D01*
X32840967Y-62654041D01*
X32824788Y-62637377D01*
X32805851Y-62617339D01*
X32785211Y-62595105D01*
X32784494Y-62594280D01*
X32783820Y-62593416D01*
X32783186Y-62592513D01*
X32782593Y-62591575D01*
X32781528Y-62589601D01*
X32780621Y-62587511D01*
X32779868Y-62585323D01*
X32779265Y-62583056D01*
X32778808Y-62580726D01*
X32778495Y-62578353D01*
X32778321Y-62575953D01*
X32778283Y-62573545D01*
X32778376Y-62571147D01*
X32778598Y-62568777D01*
X32778945Y-62566453D01*
X32779412Y-62564192D01*
X32779997Y-62562013D01*
X32780696Y-62559933D01*
X32789018Y-62534331D01*
X32796187Y-62509427D01*
X32802207Y-62485221D01*
X32807082Y-62461716D01*
X32810817Y-62438915D01*
X32813415Y-62416820D01*
X32814881Y-62395434D01*
X32815219Y-62374757D01*
X32814433Y-62354794D01*
X32812527Y-62335546D01*
X32809505Y-62317015D01*
X32805371Y-62299204D01*
X32800130Y-62282116D01*
X32793785Y-62265751D01*
X32786341Y-62250114D01*
X32777802Y-62235206D01*
X32768172Y-62221029D01*
X32757456Y-62207586D01*
X32745656Y-62194878D01*
X32732778Y-62182910D01*
X32718825Y-62171682D01*
X32703803Y-62161197D01*
X32687713Y-62151457D01*
X32670562Y-62142465D01*
X32652353Y-62134223D01*
X32633090Y-62126734D01*
X32612778Y-62119998D01*
X32591420Y-62114020D01*
X32569020Y-62108801D01*
X32545584Y-62104344D01*
X32521114Y-62100651D01*
X32495615Y-62097724D01*
X32495616Y-62097724D01*
X32494329Y-62097623D01*
X32493100Y-62097579D01*
X32491927Y-62097591D01*
X32490809Y-62097656D01*
X32489745Y-62097774D01*
X32488734Y-62097944D01*
X32487774Y-62098165D01*
X32486865Y-62098434D01*
X32486004Y-62098752D01*
X32485191Y-62099116D01*
X32484424Y-62099526D01*
X32483703Y-62099980D01*
X32483026Y-62100478D01*
X32482391Y-62101017D01*
X32481798Y-62101597D01*
X32481245Y-62102217D01*
X32480731Y-62102875D01*
X32480254Y-62103571D01*
X32479815Y-62104302D01*
X32479410Y-62105068D01*
X32479039Y-62105867D01*
X32478701Y-62106699D01*
X32478119Y-62108454D01*
X32477652Y-62110324D01*
X32477291Y-62112300D01*
X32477027Y-62114370D01*
X32476848Y-62116527D01*
X32475943Y-62138564D01*
X32113250Y-62138564D01*
X32151090Y-62072368D01*
X32195006Y-62000173D01*
X32240887Y-61929004D01*
X32288208Y-61859619D01*
X32336446Y-61792771D01*
X32385076Y-61729215D01*
X32433572Y-61669707D01*
X32481410Y-61615001D01*
X32528066Y-61565851D01*
X32573015Y-61523014D01*
X32574848Y-61521418D01*
X32576941Y-61519741D01*
X32579286Y-61518028D01*
X32581877Y-61516326D01*
X32584705Y-61514678D01*
X32587762Y-61513131D01*
X32591041Y-61511728D01*
X32594535Y-61510517D01*
X32598235Y-61509541D01*
X32602135Y-61508846D01*
X32606226Y-61508476D01*
X32608341Y-61508428D01*
X32610500Y-61508478D01*
G37*
G36*
X36055152Y-63453403D02*
G01*
X36077012Y-63471749D01*
X36098030Y-63491215D01*
X36118017Y-63511745D01*
X36136788Y-63533282D01*
X36154153Y-63555772D01*
X36169927Y-63579157D01*
X36183921Y-63603381D01*
X36195949Y-63628389D01*
X36205823Y-63654124D01*
X36209894Y-63667247D01*
X36213355Y-63680530D01*
X36216185Y-63693967D01*
X36218359Y-63707551D01*
X36219855Y-63721275D01*
X36220648Y-63735131D01*
X36220715Y-63749113D01*
X36220032Y-63763213D01*
X36218578Y-63777426D01*
X36216327Y-63791743D01*
X36213256Y-63806157D01*
X36209343Y-63820662D01*
X36202817Y-63840790D01*
X36198833Y-63850365D01*
X36194374Y-63859590D01*
X36189444Y-63868447D01*
X36184047Y-63876917D01*
X36178188Y-63884983D01*
X36171870Y-63892625D01*
X36165098Y-63899826D01*
X36157875Y-63906567D01*
X36150207Y-63912830D01*
X36142097Y-63918598D01*
X36133549Y-63923851D01*
X36124568Y-63928571D01*
X36115158Y-63932741D01*
X36105322Y-63936342D01*
X36095066Y-63939355D01*
X36084392Y-63941762D01*
X36073306Y-63943546D01*
X36061812Y-63944688D01*
X36049913Y-63945169D01*
X36037615Y-63944972D01*
X36024920Y-63944078D01*
X36011833Y-63942469D01*
X35998359Y-63940127D01*
X35984502Y-63937033D01*
X35970265Y-63933169D01*
X35955653Y-63928517D01*
X35940670Y-63923059D01*
X35925320Y-63916776D01*
X35909607Y-63909650D01*
X35893537Y-63901663D01*
X35886582Y-63898326D01*
X35879802Y-63895589D01*
X35873204Y-63893434D01*
X35866790Y-63891841D01*
X35860567Y-63890792D01*
X35854539Y-63890267D01*
X35848710Y-63890247D01*
X35843085Y-63890713D01*
X35837670Y-63891645D01*
X35832469Y-63893025D01*
X35827487Y-63894834D01*
X35822728Y-63897052D01*
X35818198Y-63899659D01*
X35813901Y-63902638D01*
X35809842Y-63905968D01*
X35806025Y-63909631D01*
X35802457Y-63913608D01*
X35799140Y-63917878D01*
X35796081Y-63922424D01*
X35793283Y-63927225D01*
X35790752Y-63932263D01*
X35788493Y-63937519D01*
X35786510Y-63942973D01*
X35784807Y-63948606D01*
X35783391Y-63954400D01*
X35782266Y-63960334D01*
X35781435Y-63966390D01*
X35780905Y-63972548D01*
X35780680Y-63978790D01*
X35780765Y-63985096D01*
X35781164Y-63991447D01*
X35781882Y-63997824D01*
X35783740Y-64009677D01*
X35786037Y-64021395D01*
X35788859Y-64033034D01*
X35792291Y-64044649D01*
X35796421Y-64056298D01*
X35801334Y-64068037D01*
X35807116Y-64079922D01*
X35813853Y-64092009D01*
X35821631Y-64104355D01*
X35830535Y-64117016D01*
X35840653Y-64130048D01*
X35852070Y-64143509D01*
X35864871Y-64157453D01*
X35879144Y-64171937D01*
X35894973Y-64187018D01*
X35912445Y-64202752D01*
X35902793Y-64213680D01*
X35893291Y-64224852D01*
X35883911Y-64236210D01*
X35874623Y-64247690D01*
X35856213Y-64270779D01*
X35837833Y-64293631D01*
X35790741Y-64236319D01*
X35742477Y-64180210D01*
X35693133Y-64125371D01*
X35642804Y-64071867D01*
X35591584Y-64019763D01*
X35539567Y-63969127D01*
X35486845Y-63920023D01*
X35433514Y-63872517D01*
X35433515Y-63872517D01*
X35507739Y-63817887D01*
X35581112Y-63761344D01*
X35727387Y-63646401D01*
X35801331Y-63589939D01*
X35876506Y-63535444D01*
X35914719Y-63509238D01*
X35953435Y-63483886D01*
X35992719Y-63459511D01*
X36032637Y-63436234D01*
X36055152Y-63453403D01*
G37*
G36*
X35404591Y-63989376D02*
G01*
X35459348Y-64039709D01*
X35513352Y-64091714D01*
X35566485Y-64145316D01*
X35618630Y-64200444D01*
X35669667Y-64257024D01*
X35719479Y-64314983D01*
X35767948Y-64374248D01*
X35733159Y-64396756D01*
X35698455Y-64418477D01*
X35664034Y-64439363D01*
X35630094Y-64459363D01*
X35564442Y-64496516D01*
X35503078Y-64529544D01*
X35447579Y-64558058D01*
X35399524Y-64581667D01*
X35360490Y-64599979D01*
X35332056Y-64612606D01*
X35331872Y-64612676D01*
X35331691Y-64612748D01*
X35331511Y-64612823D01*
X35331332Y-64612900D01*
X35330974Y-64613057D01*
X35330609Y-64613213D01*
X35302282Y-64582667D01*
X35272894Y-64552575D01*
X35242491Y-64523005D01*
X35211119Y-64494026D01*
X35178824Y-64465707D01*
X35145653Y-64438117D01*
X35111651Y-64411324D01*
X35076865Y-64385397D01*
X35041340Y-64360404D01*
X35005124Y-64336415D01*
X34968260Y-64313498D01*
X34930797Y-64291722D01*
X34892780Y-64271155D01*
X34854255Y-64251867D01*
X34815269Y-64233926D01*
X34775866Y-64217400D01*
X34816048Y-64205950D01*
X34855646Y-64193731D01*
X34894660Y-64180741D01*
X34933092Y-64166979D01*
X34970943Y-64152442D01*
X35008212Y-64137128D01*
X35044903Y-64121035D01*
X35081015Y-64104160D01*
X35116549Y-64086502D01*
X35151507Y-64068059D01*
X35185889Y-64048828D01*
X35219697Y-64028808D01*
X35252931Y-64007996D01*
X35285592Y-63986390D01*
X35317682Y-63963987D01*
X35349201Y-63940787D01*
X35404591Y-63989376D01*
G37*
G36*
X34438603Y-57499915D02*
G01*
X34477088Y-57502935D01*
X34514463Y-57507867D01*
X34550762Y-57514629D01*
X34586015Y-57523139D01*
X34620256Y-57533315D01*
X34653518Y-57545074D01*
X34685831Y-57558334D01*
X34717229Y-57573012D01*
X34747743Y-57589027D01*
X34777407Y-57606296D01*
X34806252Y-57624737D01*
X34834311Y-57644267D01*
X34861616Y-57664805D01*
X34914092Y-57708572D01*
X34963940Y-57755379D01*
X35011418Y-57804570D01*
X35056783Y-57855484D01*
X35100295Y-57907464D01*
X35260972Y-58112874D01*
X35287720Y-58147061D01*
X35313325Y-58180972D01*
X35325465Y-58197836D01*
X35337039Y-58214645D01*
X35347955Y-58231405D01*
X35358117Y-58248121D01*
X35367434Y-58264797D01*
X35375811Y-58281438D01*
X35383156Y-58298049D01*
X35389375Y-58314636D01*
X35394374Y-58331203D01*
X35398061Y-58347755D01*
X35399383Y-58356027D01*
X35400341Y-58364297D01*
X35400925Y-58372566D01*
X35401122Y-58380835D01*
X35400925Y-58389103D01*
X35400341Y-58397372D01*
X35399383Y-58405642D01*
X35398061Y-58413914D01*
X35394374Y-58430466D01*
X35389375Y-58447033D01*
X35383156Y-58463620D01*
X35375811Y-58480231D01*
X35367434Y-58496873D01*
X35358117Y-58513548D01*
X35347955Y-58530264D01*
X35337039Y-58547023D01*
X35325465Y-58563833D01*
X35313325Y-58580696D01*
X35287720Y-58614606D01*
X35260972Y-58648793D01*
X35100295Y-58854203D01*
X35056783Y-58906183D01*
X35011418Y-58957098D01*
X34963940Y-59006289D01*
X34914092Y-59053097D01*
X34861616Y-59096864D01*
X34806252Y-59136932D01*
X34777407Y-59155372D01*
X34747743Y-59172642D01*
X34717229Y-59188657D01*
X34685831Y-59203335D01*
X34653518Y-59216595D01*
X34620256Y-59228354D01*
X34586015Y-59238530D01*
X34550762Y-59247040D01*
X34514463Y-59253803D01*
X34477088Y-59258735D01*
X34438603Y-59261754D01*
X34398977Y-59262779D01*
X34359153Y-59261375D01*
X34320168Y-59257235D01*
X34282130Y-59250461D01*
X34245148Y-59241161D01*
X34209331Y-59229438D01*
X34174786Y-59215397D01*
X34141622Y-59199144D01*
X34109947Y-59180784D01*
X34079870Y-59160421D01*
X34051499Y-59138161D01*
X34024942Y-59114108D01*
X34000308Y-59088367D01*
X33977705Y-59061044D01*
X33957242Y-59032244D01*
X33939026Y-59002071D01*
X33923166Y-58970630D01*
X33909771Y-58938026D01*
X33898949Y-58904365D01*
X33890808Y-58869751D01*
X33885456Y-58834289D01*
X33883002Y-58798085D01*
X33883555Y-58761242D01*
X33887222Y-58723867D01*
X33894112Y-58686064D01*
X33904333Y-58647938D01*
X33917994Y-58609595D01*
X33935203Y-58571138D01*
X33956069Y-58532673D01*
X33980699Y-58494306D01*
X34009202Y-58456140D01*
X34041687Y-58418281D01*
X34078261Y-58380835D01*
X34041687Y-58343388D01*
X34009202Y-58305530D01*
X33980699Y-58267365D01*
X33956069Y-58228997D01*
X33935203Y-58190533D01*
X33917994Y-58152076D01*
X33904333Y-58113733D01*
X33894112Y-58075607D01*
X33887222Y-58037804D01*
X33883555Y-58000429D01*
X33883002Y-57963586D01*
X33885456Y-57927382D01*
X33890808Y-57891920D01*
X33898949Y-57857306D01*
X33909771Y-57823645D01*
X33923166Y-57791041D01*
X33939026Y-57759600D01*
X33957242Y-57729427D01*
X33977705Y-57700626D01*
X34000308Y-57673303D01*
X34024942Y-57647562D01*
X34051499Y-57623510D01*
X34079870Y-57601249D01*
X34109947Y-57580886D01*
X34141622Y-57562526D01*
X34174786Y-57546273D01*
X34209331Y-57532232D01*
X34245148Y-57520509D01*
X34282130Y-57511208D01*
X34320168Y-57504435D01*
X34359153Y-57500294D01*
X34398977Y-57498890D01*
X34438603Y-57499915D01*
G37*
D11*
X64435695Y-51866685D02*
X63635695Y-51866685D01*
X63635695Y-51866685D02*
X63635695Y-51676209D01*
X63635695Y-51676209D02*
X63673790Y-51561923D01*
X63673790Y-51561923D02*
X63749980Y-51485733D01*
X63749980Y-51485733D02*
X63826171Y-51447638D01*
X63826171Y-51447638D02*
X63978552Y-51409542D01*
X63978552Y-51409542D02*
X64092838Y-51409542D01*
X64092838Y-51409542D02*
X64245219Y-51447638D01*
X64245219Y-51447638D02*
X64321409Y-51485733D01*
X64321409Y-51485733D02*
X64397600Y-51561923D01*
X64397600Y-51561923D02*
X64435695Y-51676209D01*
X64435695Y-51676209D02*
X64435695Y-51866685D01*
X63635695Y-51180971D02*
X63635695Y-50723828D01*
X64435695Y-50952400D02*
X63635695Y-50952400D01*
X64435695Y-50000018D02*
X64054742Y-50266685D01*
X64435695Y-50457161D02*
X63635695Y-50457161D01*
X63635695Y-50457161D02*
X63635695Y-50152399D01*
X63635695Y-50152399D02*
X63673790Y-50076209D01*
X63673790Y-50076209D02*
X63711885Y-50038114D01*
X63711885Y-50038114D02*
X63788076Y-50000018D01*
X63788076Y-50000018D02*
X63902361Y-50000018D01*
X63902361Y-50000018D02*
X63978552Y-50038114D01*
X63978552Y-50038114D02*
X64016647Y-50076209D01*
X64016647Y-50076209D02*
X64054742Y-50152399D01*
X64054742Y-50152399D02*
X64054742Y-50457161D01*
X49065372Y-30597552D02*
X48303467Y-30883266D01*
X48303467Y-30883266D02*
X49065372Y-31168980D01*
X50017752Y-31264219D02*
X49541562Y-31264219D01*
X49541562Y-31264219D02*
X49541562Y-30264219D01*
X50541562Y-30264219D02*
X50732038Y-30264219D01*
X50732038Y-30264219D02*
X50827276Y-30311838D01*
X50827276Y-30311838D02*
X50922514Y-30407076D01*
X50922514Y-30407076D02*
X50970133Y-30597552D01*
X50970133Y-30597552D02*
X50970133Y-30930885D01*
X50970133Y-30930885D02*
X50922514Y-31121361D01*
X50922514Y-31121361D02*
X50827276Y-31216600D01*
X50827276Y-31216600D02*
X50732038Y-31264219D01*
X50732038Y-31264219D02*
X50541562Y-31264219D01*
X50541562Y-31264219D02*
X50446324Y-31216600D01*
X50446324Y-31216600D02*
X50351086Y-31121361D01*
X50351086Y-31121361D02*
X50303467Y-30930885D01*
X50303467Y-30930885D02*
X50303467Y-30597552D01*
X50303467Y-30597552D02*
X50351086Y-30407076D01*
X50351086Y-30407076D02*
X50446324Y-30311838D01*
X50446324Y-30311838D02*
X50541562Y-30264219D01*
X51922514Y-30311838D02*
X51827276Y-30264219D01*
X51827276Y-30264219D02*
X51684419Y-30264219D01*
X51684419Y-30264219D02*
X51541562Y-30311838D01*
X51541562Y-30311838D02*
X51446324Y-30407076D01*
X51446324Y-30407076D02*
X51398705Y-30502314D01*
X51398705Y-30502314D02*
X51351086Y-30692790D01*
X51351086Y-30692790D02*
X51351086Y-30835647D01*
X51351086Y-30835647D02*
X51398705Y-31026123D01*
X51398705Y-31026123D02*
X51446324Y-31121361D01*
X51446324Y-31121361D02*
X51541562Y-31216600D01*
X51541562Y-31216600D02*
X51684419Y-31264219D01*
X51684419Y-31264219D02*
X51779657Y-31264219D01*
X51779657Y-31264219D02*
X51922514Y-31216600D01*
X51922514Y-31216600D02*
X51970133Y-31168980D01*
X51970133Y-31168980D02*
X51970133Y-30835647D01*
X51970133Y-30835647D02*
X51779657Y-30835647D01*
X53160610Y-31264219D02*
X53160610Y-30264219D01*
X53160610Y-30264219D02*
X53541562Y-30264219D01*
X53541562Y-30264219D02*
X53636800Y-30311838D01*
X53636800Y-30311838D02*
X53684419Y-30359457D01*
X53684419Y-30359457D02*
X53732038Y-30454695D01*
X53732038Y-30454695D02*
X53732038Y-30597552D01*
X53732038Y-30597552D02*
X53684419Y-30692790D01*
X53684419Y-30692790D02*
X53636800Y-30740409D01*
X53636800Y-30740409D02*
X53541562Y-30788028D01*
X53541562Y-30788028D02*
X53160610Y-30788028D01*
X54732038Y-31264219D02*
X54398705Y-30788028D01*
X54160610Y-31264219D02*
X54160610Y-30264219D01*
X54160610Y-30264219D02*
X54541562Y-30264219D01*
X54541562Y-30264219D02*
X54636800Y-30311838D01*
X54636800Y-30311838D02*
X54684419Y-30359457D01*
X54684419Y-30359457D02*
X54732038Y-30454695D01*
X54732038Y-30454695D02*
X54732038Y-30597552D01*
X54732038Y-30597552D02*
X54684419Y-30692790D01*
X54684419Y-30692790D02*
X54636800Y-30740409D01*
X54636800Y-30740409D02*
X54541562Y-30788028D01*
X54541562Y-30788028D02*
X54160610Y-30788028D01*
X55351086Y-30264219D02*
X55541562Y-30264219D01*
X55541562Y-30264219D02*
X55636800Y-30311838D01*
X55636800Y-30311838D02*
X55732038Y-30407076D01*
X55732038Y-30407076D02*
X55779657Y-30597552D01*
X55779657Y-30597552D02*
X55779657Y-30930885D01*
X55779657Y-30930885D02*
X55732038Y-31121361D01*
X55732038Y-31121361D02*
X55636800Y-31216600D01*
X55636800Y-31216600D02*
X55541562Y-31264219D01*
X55541562Y-31264219D02*
X55351086Y-31264219D01*
X55351086Y-31264219D02*
X55255848Y-31216600D01*
X55255848Y-31216600D02*
X55160610Y-31121361D01*
X55160610Y-31121361D02*
X55112991Y-30930885D01*
X55112991Y-30930885D02*
X55112991Y-30597552D01*
X55112991Y-30597552D02*
X55160610Y-30407076D01*
X55160610Y-30407076D02*
X55255848Y-30311838D01*
X55255848Y-30311838D02*
X55351086Y-30264219D01*
X56732038Y-30311838D02*
X56636800Y-30264219D01*
X56636800Y-30264219D02*
X56493943Y-30264219D01*
X56493943Y-30264219D02*
X56351086Y-30311838D01*
X56351086Y-30311838D02*
X56255848Y-30407076D01*
X56255848Y-30407076D02*
X56208229Y-30502314D01*
X56208229Y-30502314D02*
X56160610Y-30692790D01*
X56160610Y-30692790D02*
X56160610Y-30835647D01*
X56160610Y-30835647D02*
X56208229Y-31026123D01*
X56208229Y-31026123D02*
X56255848Y-31121361D01*
X56255848Y-31121361D02*
X56351086Y-31216600D01*
X56351086Y-31216600D02*
X56493943Y-31264219D01*
X56493943Y-31264219D02*
X56589181Y-31264219D01*
X56589181Y-31264219D02*
X56732038Y-31216600D01*
X56732038Y-31216600D02*
X56779657Y-31168980D01*
X56779657Y-31168980D02*
X56779657Y-30835647D01*
X56779657Y-30835647D02*
X56589181Y-30835647D01*
X57208229Y-30597552D02*
X57970134Y-30883266D01*
X57970134Y-30883266D02*
X57208229Y-31168980D01*
X58305819Y-63348104D02*
X58305819Y-62776676D01*
X59305819Y-63062390D02*
X58305819Y-63062390D01*
X58305819Y-62538580D02*
X59305819Y-61871914D01*
X58305819Y-61871914D02*
X59305819Y-62538580D01*
X58353438Y-73863104D02*
X58305819Y-73958342D01*
X58305819Y-73958342D02*
X58305819Y-74101199D01*
X58305819Y-74101199D02*
X58353438Y-74244056D01*
X58353438Y-74244056D02*
X58448676Y-74339294D01*
X58448676Y-74339294D02*
X58543914Y-74386913D01*
X58543914Y-74386913D02*
X58734390Y-74434532D01*
X58734390Y-74434532D02*
X58877247Y-74434532D01*
X58877247Y-74434532D02*
X59067723Y-74386913D01*
X59067723Y-74386913D02*
X59162961Y-74339294D01*
X59162961Y-74339294D02*
X59258200Y-74244056D01*
X59258200Y-74244056D02*
X59305819Y-74101199D01*
X59305819Y-74101199D02*
X59305819Y-74005961D01*
X59305819Y-74005961D02*
X59258200Y-73863104D01*
X59258200Y-73863104D02*
X59210580Y-73815485D01*
X59210580Y-73815485D02*
X58877247Y-73815485D01*
X58877247Y-73815485D02*
X58877247Y-74005961D01*
X59305819Y-73386913D02*
X58305819Y-73386913D01*
X58305819Y-73386913D02*
X59305819Y-72815485D01*
X59305819Y-72815485D02*
X58305819Y-72815485D01*
X59305819Y-72339294D02*
X58305819Y-72339294D01*
X58305819Y-72339294D02*
X58305819Y-72101199D01*
X58305819Y-72101199D02*
X58353438Y-71958342D01*
X58353438Y-71958342D02*
X58448676Y-71863104D01*
X58448676Y-71863104D02*
X58543914Y-71815485D01*
X58543914Y-71815485D02*
X58734390Y-71767866D01*
X58734390Y-71767866D02*
X58877247Y-71767866D01*
X58877247Y-71767866D02*
X59067723Y-71815485D01*
X59067723Y-71815485D02*
X59162961Y-71863104D01*
X59162961Y-71863104D02*
X59258200Y-71958342D01*
X59258200Y-71958342D02*
X59305819Y-72101199D01*
X59305819Y-72101199D02*
X59305819Y-72339294D01*
X59305819Y-60229056D02*
X58305819Y-60229056D01*
X58305819Y-60229056D02*
X58305819Y-59990961D01*
X58305819Y-59990961D02*
X58353438Y-59848104D01*
X58353438Y-59848104D02*
X58448676Y-59752866D01*
X58448676Y-59752866D02*
X58543914Y-59705247D01*
X58543914Y-59705247D02*
X58734390Y-59657628D01*
X58734390Y-59657628D02*
X58877247Y-59657628D01*
X58877247Y-59657628D02*
X59067723Y-59705247D01*
X59067723Y-59705247D02*
X59162961Y-59752866D01*
X59162961Y-59752866D02*
X59258200Y-59848104D01*
X59258200Y-59848104D02*
X59305819Y-59990961D01*
X59305819Y-59990961D02*
X59305819Y-60229056D01*
X58305819Y-59371913D02*
X58305819Y-58800485D01*
X59305819Y-59086199D02*
X58305819Y-59086199D01*
X59305819Y-57895723D02*
X58829628Y-58229056D01*
X59305819Y-58467151D02*
X58305819Y-58467151D01*
X58305819Y-58467151D02*
X58305819Y-58086199D01*
X58305819Y-58086199D02*
X58353438Y-57990961D01*
X58353438Y-57990961D02*
X58401057Y-57943342D01*
X58401057Y-57943342D02*
X58496295Y-57895723D01*
X58496295Y-57895723D02*
X58639152Y-57895723D01*
X58639152Y-57895723D02*
X58734390Y-57943342D01*
X58734390Y-57943342D02*
X58782009Y-57990961D01*
X58782009Y-57990961D02*
X58829628Y-58086199D01*
X58829628Y-58086199D02*
X58829628Y-58467151D01*
X63673790Y-38861923D02*
X63635695Y-38938113D01*
X63635695Y-38938113D02*
X63635695Y-39052399D01*
X63635695Y-39052399D02*
X63673790Y-39166685D01*
X63673790Y-39166685D02*
X63749980Y-39242875D01*
X63749980Y-39242875D02*
X63826171Y-39280970D01*
X63826171Y-39280970D02*
X63978552Y-39319066D01*
X63978552Y-39319066D02*
X64092838Y-39319066D01*
X64092838Y-39319066D02*
X64245219Y-39280970D01*
X64245219Y-39280970D02*
X64321409Y-39242875D01*
X64321409Y-39242875D02*
X64397600Y-39166685D01*
X64397600Y-39166685D02*
X64435695Y-39052399D01*
X64435695Y-39052399D02*
X64435695Y-38976208D01*
X64435695Y-38976208D02*
X64397600Y-38861923D01*
X64397600Y-38861923D02*
X64359504Y-38823827D01*
X64359504Y-38823827D02*
X64092838Y-38823827D01*
X64092838Y-38823827D02*
X64092838Y-38976208D01*
X64435695Y-38480970D02*
X63635695Y-38480970D01*
X63635695Y-38480970D02*
X64435695Y-38023827D01*
X64435695Y-38023827D02*
X63635695Y-38023827D01*
X64435695Y-37642875D02*
X63635695Y-37642875D01*
X63635695Y-37642875D02*
X63635695Y-37452399D01*
X63635695Y-37452399D02*
X63673790Y-37338113D01*
X63673790Y-37338113D02*
X63749980Y-37261923D01*
X63749980Y-37261923D02*
X63826171Y-37223828D01*
X63826171Y-37223828D02*
X63978552Y-37185732D01*
X63978552Y-37185732D02*
X64092838Y-37185732D01*
X64092838Y-37185732D02*
X64245219Y-37223828D01*
X64245219Y-37223828D02*
X64321409Y-37261923D01*
X64321409Y-37261923D02*
X64397600Y-37338113D01*
X64397600Y-37338113D02*
X64435695Y-37452399D01*
X64435695Y-37452399D02*
X64435695Y-37642875D01*
X64359504Y-41230494D02*
X64397600Y-41268590D01*
X64397600Y-41268590D02*
X64435695Y-41382875D01*
X64435695Y-41382875D02*
X64435695Y-41459066D01*
X64435695Y-41459066D02*
X64397600Y-41573352D01*
X64397600Y-41573352D02*
X64321409Y-41649542D01*
X64321409Y-41649542D02*
X64245219Y-41687637D01*
X64245219Y-41687637D02*
X64092838Y-41725733D01*
X64092838Y-41725733D02*
X63978552Y-41725733D01*
X63978552Y-41725733D02*
X63826171Y-41687637D01*
X63826171Y-41687637D02*
X63749980Y-41649542D01*
X63749980Y-41649542D02*
X63673790Y-41573352D01*
X63673790Y-41573352D02*
X63635695Y-41459066D01*
X63635695Y-41459066D02*
X63635695Y-41382875D01*
X63635695Y-41382875D02*
X63673790Y-41268590D01*
X63673790Y-41268590D02*
X63711885Y-41230494D01*
X63635695Y-41001923D02*
X63635695Y-40544780D01*
X64435695Y-40773352D02*
X63635695Y-40773352D01*
X64397600Y-40316209D02*
X64435695Y-40201923D01*
X64435695Y-40201923D02*
X64435695Y-40011447D01*
X64435695Y-40011447D02*
X64397600Y-39935256D01*
X64397600Y-39935256D02*
X64359504Y-39897161D01*
X64359504Y-39897161D02*
X64283314Y-39859066D01*
X64283314Y-39859066D02*
X64207123Y-39859066D01*
X64207123Y-39859066D02*
X64130933Y-39897161D01*
X64130933Y-39897161D02*
X64092838Y-39935256D01*
X64092838Y-39935256D02*
X64054742Y-40011447D01*
X64054742Y-40011447D02*
X64016647Y-40163828D01*
X64016647Y-40163828D02*
X63978552Y-40240018D01*
X63978552Y-40240018D02*
X63940457Y-40278113D01*
X63940457Y-40278113D02*
X63864266Y-40316209D01*
X63864266Y-40316209D02*
X63788076Y-40316209D01*
X63788076Y-40316209D02*
X63711885Y-40278113D01*
X63711885Y-40278113D02*
X63673790Y-40240018D01*
X63673790Y-40240018D02*
X63635695Y-40163828D01*
X63635695Y-40163828D02*
X63635695Y-39973351D01*
X63635695Y-39973351D02*
X63673790Y-39859066D01*
X62530790Y-51561923D02*
X62492695Y-51638113D01*
X62492695Y-51638113D02*
X62492695Y-51752399D01*
X62492695Y-51752399D02*
X62530790Y-51866685D01*
X62530790Y-51866685D02*
X62606980Y-51942875D01*
X62606980Y-51942875D02*
X62683171Y-51980970D01*
X62683171Y-51980970D02*
X62835552Y-52019066D01*
X62835552Y-52019066D02*
X62949838Y-52019066D01*
X62949838Y-52019066D02*
X63102219Y-51980970D01*
X63102219Y-51980970D02*
X63178409Y-51942875D01*
X63178409Y-51942875D02*
X63254600Y-51866685D01*
X63254600Y-51866685D02*
X63292695Y-51752399D01*
X63292695Y-51752399D02*
X63292695Y-51676208D01*
X63292695Y-51676208D02*
X63254600Y-51561923D01*
X63254600Y-51561923D02*
X63216504Y-51523827D01*
X63216504Y-51523827D02*
X62949838Y-51523827D01*
X62949838Y-51523827D02*
X62949838Y-51676208D01*
X63292695Y-50723827D02*
X62911742Y-50990494D01*
X63292695Y-51180970D02*
X62492695Y-51180970D01*
X62492695Y-51180970D02*
X62492695Y-50876208D01*
X62492695Y-50876208D02*
X62530790Y-50800018D01*
X62530790Y-50800018D02*
X62568885Y-50761923D01*
X62568885Y-50761923D02*
X62645076Y-50723827D01*
X62645076Y-50723827D02*
X62759361Y-50723827D01*
X62759361Y-50723827D02*
X62835552Y-50761923D01*
X62835552Y-50761923D02*
X62873647Y-50800018D01*
X62873647Y-50800018D02*
X62911742Y-50876208D01*
X62911742Y-50876208D02*
X62911742Y-51180970D01*
X63292695Y-50380970D02*
X62492695Y-50380970D01*
X62492695Y-50380970D02*
X63292695Y-49923827D01*
X63292695Y-49923827D02*
X62492695Y-49923827D01*
D12*
X30200964Y-68303118D02*
X29486678Y-68803118D01*
X30200964Y-69160261D02*
X28700964Y-69160261D01*
X28700964Y-69160261D02*
X28700964Y-68588832D01*
X28700964Y-68588832D02*
X28772393Y-68445975D01*
X28772393Y-68445975D02*
X28843821Y-68374546D01*
X28843821Y-68374546D02*
X28986678Y-68303118D01*
X28986678Y-68303118D02*
X29200964Y-68303118D01*
X29200964Y-68303118D02*
X29343821Y-68374546D01*
X29343821Y-68374546D02*
X29415250Y-68445975D01*
X29415250Y-68445975D02*
X29486678Y-68588832D01*
X29486678Y-68588832D02*
X29486678Y-69160261D01*
X30129536Y-67731689D02*
X30200964Y-67517404D01*
X30200964Y-67517404D02*
X30200964Y-67160261D01*
X30200964Y-67160261D02*
X30129536Y-67017404D01*
X30129536Y-67017404D02*
X30058107Y-66945975D01*
X30058107Y-66945975D02*
X29915250Y-66874546D01*
X29915250Y-66874546D02*
X29772393Y-66874546D01*
X29772393Y-66874546D02*
X29629536Y-66945975D01*
X29629536Y-66945975D02*
X29558107Y-67017404D01*
X29558107Y-67017404D02*
X29486678Y-67160261D01*
X29486678Y-67160261D02*
X29415250Y-67445975D01*
X29415250Y-67445975D02*
X29343821Y-67588832D01*
X29343821Y-67588832D02*
X29272393Y-67660261D01*
X29272393Y-67660261D02*
X29129536Y-67731689D01*
X29129536Y-67731689D02*
X28986678Y-67731689D01*
X28986678Y-67731689D02*
X28843821Y-67660261D01*
X28843821Y-67660261D02*
X28772393Y-67588832D01*
X28772393Y-67588832D02*
X28700964Y-67445975D01*
X28700964Y-67445975D02*
X28700964Y-67088832D01*
X28700964Y-67088832D02*
X28772393Y-66874546D01*
X29629536Y-66231690D02*
X29629536Y-65088833D01*
X28843821Y-64445975D02*
X28772393Y-64374547D01*
X28772393Y-64374547D02*
X28700964Y-64231690D01*
X28700964Y-64231690D02*
X28700964Y-63874547D01*
X28700964Y-63874547D02*
X28772393Y-63731690D01*
X28772393Y-63731690D02*
X28843821Y-63660261D01*
X28843821Y-63660261D02*
X28986678Y-63588832D01*
X28986678Y-63588832D02*
X29129536Y-63588832D01*
X29129536Y-63588832D02*
X29343821Y-63660261D01*
X29343821Y-63660261D02*
X30200964Y-64517404D01*
X30200964Y-64517404D02*
X30200964Y-63588832D01*
X28700964Y-63088833D02*
X28700964Y-62160261D01*
X28700964Y-62160261D02*
X29272393Y-62660261D01*
X29272393Y-62660261D02*
X29272393Y-62445976D01*
X29272393Y-62445976D02*
X29343821Y-62303119D01*
X29343821Y-62303119D02*
X29415250Y-62231690D01*
X29415250Y-62231690D02*
X29558107Y-62160261D01*
X29558107Y-62160261D02*
X29915250Y-62160261D01*
X29915250Y-62160261D02*
X30058107Y-62231690D01*
X30058107Y-62231690D02*
X30129536Y-62303119D01*
X30129536Y-62303119D02*
X30200964Y-62445976D01*
X30200964Y-62445976D02*
X30200964Y-62874547D01*
X30200964Y-62874547D02*
X30129536Y-63017404D01*
X30129536Y-63017404D02*
X30058107Y-63088833D01*
X28843821Y-61588833D02*
X28772393Y-61517405D01*
X28772393Y-61517405D02*
X28700964Y-61374548D01*
X28700964Y-61374548D02*
X28700964Y-61017405D01*
X28700964Y-61017405D02*
X28772393Y-60874548D01*
X28772393Y-60874548D02*
X28843821Y-60803119D01*
X28843821Y-60803119D02*
X28986678Y-60731690D01*
X28986678Y-60731690D02*
X29129536Y-60731690D01*
X29129536Y-60731690D02*
X29343821Y-60803119D01*
X29343821Y-60803119D02*
X30200964Y-61660262D01*
X30200964Y-61660262D02*
X30200964Y-60731690D01*
X30200964Y-58231691D02*
X30200964Y-58945977D01*
X30200964Y-58945977D02*
X28700964Y-58945977D01*
X28700964Y-57445976D02*
X28700964Y-57160262D01*
X28700964Y-57160262D02*
X28772393Y-57017405D01*
X28772393Y-57017405D02*
X28915250Y-56874548D01*
X28915250Y-56874548D02*
X29200964Y-56803119D01*
X29200964Y-56803119D02*
X29700964Y-56803119D01*
X29700964Y-56803119D02*
X29986678Y-56874548D01*
X29986678Y-56874548D02*
X30129536Y-57017405D01*
X30129536Y-57017405D02*
X30200964Y-57160262D01*
X30200964Y-57160262D02*
X30200964Y-57445976D01*
X30200964Y-57445976D02*
X30129536Y-57588834D01*
X30129536Y-57588834D02*
X29986678Y-57731691D01*
X29986678Y-57731691D02*
X29700964Y-57803119D01*
X29700964Y-57803119D02*
X29200964Y-57803119D01*
X29200964Y-57803119D02*
X28915250Y-57731691D01*
X28915250Y-57731691D02*
X28772393Y-57588834D01*
X28772393Y-57588834D02*
X28700964Y-57445976D01*
X28772393Y-55374547D02*
X28700964Y-55517405D01*
X28700964Y-55517405D02*
X28700964Y-55731690D01*
X28700964Y-55731690D02*
X28772393Y-55945976D01*
X28772393Y-55945976D02*
X28915250Y-56088833D01*
X28915250Y-56088833D02*
X29058107Y-56160262D01*
X29058107Y-56160262D02*
X29343821Y-56231690D01*
X29343821Y-56231690D02*
X29558107Y-56231690D01*
X29558107Y-56231690D02*
X29843821Y-56160262D01*
X29843821Y-56160262D02*
X29986678Y-56088833D01*
X29986678Y-56088833D02*
X30129536Y-55945976D01*
X30129536Y-55945976D02*
X30200964Y-55731690D01*
X30200964Y-55731690D02*
X30200964Y-55588833D01*
X30200964Y-55588833D02*
X30129536Y-55374547D01*
X30129536Y-55374547D02*
X30058107Y-55303119D01*
X30058107Y-55303119D02*
X29558107Y-55303119D01*
X29558107Y-55303119D02*
X29558107Y-55588833D01*
X28772393Y-53874547D02*
X28700964Y-54017405D01*
X28700964Y-54017405D02*
X28700964Y-54231690D01*
X28700964Y-54231690D02*
X28772393Y-54445976D01*
X28772393Y-54445976D02*
X28915250Y-54588833D01*
X28915250Y-54588833D02*
X29058107Y-54660262D01*
X29058107Y-54660262D02*
X29343821Y-54731690D01*
X29343821Y-54731690D02*
X29558107Y-54731690D01*
X29558107Y-54731690D02*
X29843821Y-54660262D01*
X29843821Y-54660262D02*
X29986678Y-54588833D01*
X29986678Y-54588833D02*
X30129536Y-54445976D01*
X30129536Y-54445976D02*
X30200964Y-54231690D01*
X30200964Y-54231690D02*
X30200964Y-54088833D01*
X30200964Y-54088833D02*
X30129536Y-53874547D01*
X30129536Y-53874547D02*
X30058107Y-53803119D01*
X30058107Y-53803119D02*
X29558107Y-53803119D01*
X29558107Y-53803119D02*
X29558107Y-54088833D01*
X29415250Y-53160262D02*
X29415250Y-52660262D01*
X30200964Y-52445976D02*
X30200964Y-53160262D01*
X30200964Y-53160262D02*
X28700964Y-53160262D01*
X28700964Y-53160262D02*
X28700964Y-52445976D01*
X30200964Y-50945976D02*
X29486678Y-51445976D01*
X30200964Y-51803119D02*
X28700964Y-51803119D01*
X28700964Y-51803119D02*
X28700964Y-51231690D01*
X28700964Y-51231690D02*
X28772393Y-51088833D01*
X28772393Y-51088833D02*
X28843821Y-51017404D01*
X28843821Y-51017404D02*
X28986678Y-50945976D01*
X28986678Y-50945976D02*
X29200964Y-50945976D01*
X29200964Y-50945976D02*
X29343821Y-51017404D01*
X29343821Y-51017404D02*
X29415250Y-51088833D01*
X29415250Y-51088833D02*
X29486678Y-51231690D01*
X29486678Y-51231690D02*
X29486678Y-51803119D01*
X28700964Y-49374547D02*
X30200964Y-48874547D01*
X30200964Y-48874547D02*
X28700964Y-48374547D01*
X28843821Y-47945976D02*
X28772393Y-47874548D01*
X28772393Y-47874548D02*
X28700964Y-47731691D01*
X28700964Y-47731691D02*
X28700964Y-47374548D01*
X28700964Y-47374548D02*
X28772393Y-47231691D01*
X28772393Y-47231691D02*
X28843821Y-47160262D01*
X28843821Y-47160262D02*
X28986678Y-47088833D01*
X28986678Y-47088833D02*
X29129536Y-47088833D01*
X29129536Y-47088833D02*
X29343821Y-47160262D01*
X29343821Y-47160262D02*
X30200964Y-48017405D01*
X30200964Y-48017405D02*
X30200964Y-47088833D01*
D11*
X64435695Y-46196208D02*
X64054742Y-46462875D01*
X64435695Y-46653351D02*
X63635695Y-46653351D01*
X63635695Y-46653351D02*
X63635695Y-46348589D01*
X63635695Y-46348589D02*
X63673790Y-46272399D01*
X63673790Y-46272399D02*
X63711885Y-46234304D01*
X63711885Y-46234304D02*
X63788076Y-46196208D01*
X63788076Y-46196208D02*
X63902361Y-46196208D01*
X63902361Y-46196208D02*
X63978552Y-46234304D01*
X63978552Y-46234304D02*
X64016647Y-46272399D01*
X64016647Y-46272399D02*
X64054742Y-46348589D01*
X64054742Y-46348589D02*
X64054742Y-46653351D01*
X63635695Y-45929542D02*
X64435695Y-45396208D01*
X63635695Y-45396208D02*
X64435695Y-45929542D01*
X64435695Y-45091446D02*
X63635695Y-45091446D01*
X62873647Y-38919066D02*
X62911742Y-38804780D01*
X62911742Y-38804780D02*
X62949838Y-38766685D01*
X62949838Y-38766685D02*
X63026028Y-38728589D01*
X63026028Y-38728589D02*
X63140314Y-38728589D01*
X63140314Y-38728589D02*
X63216504Y-38766685D01*
X63216504Y-38766685D02*
X63254600Y-38804780D01*
X63254600Y-38804780D02*
X63292695Y-38880970D01*
X63292695Y-38880970D02*
X63292695Y-39185732D01*
X63292695Y-39185732D02*
X62492695Y-39185732D01*
X62492695Y-39185732D02*
X62492695Y-38919066D01*
X62492695Y-38919066D02*
X62530790Y-38842875D01*
X62530790Y-38842875D02*
X62568885Y-38804780D01*
X62568885Y-38804780D02*
X62645076Y-38766685D01*
X62645076Y-38766685D02*
X62721266Y-38766685D01*
X62721266Y-38766685D02*
X62797457Y-38804780D01*
X62797457Y-38804780D02*
X62835552Y-38842875D01*
X62835552Y-38842875D02*
X62873647Y-38919066D01*
X62873647Y-38919066D02*
X62873647Y-39185732D01*
X63292695Y-38004780D02*
X63292695Y-38385732D01*
X63292695Y-38385732D02*
X62492695Y-38385732D01*
X63292695Y-37738113D02*
X62492695Y-37738113D01*
X63292695Y-37280970D02*
X62835552Y-37623828D01*
X62492695Y-37280970D02*
X62949838Y-37738113D01*
X63635695Y-49440971D02*
X63635695Y-48983828D01*
X64435695Y-49212400D02*
X63635695Y-49212400D01*
X63635695Y-48793352D02*
X64435695Y-48260018D01*
X63635695Y-48260018D02*
X64435695Y-48793352D01*
X63635695Y-47802875D02*
X63635695Y-47650494D01*
X63635695Y-47650494D02*
X63673790Y-47574304D01*
X63673790Y-47574304D02*
X63749980Y-47498113D01*
X63749980Y-47498113D02*
X63902361Y-47460018D01*
X63902361Y-47460018D02*
X64169028Y-47460018D01*
X64169028Y-47460018D02*
X64321409Y-47498113D01*
X64321409Y-47498113D02*
X64397600Y-47574304D01*
X64397600Y-47574304D02*
X64435695Y-47650494D01*
X64435695Y-47650494D02*
X64435695Y-47802875D01*
X64435695Y-47802875D02*
X64397600Y-47879066D01*
X64397600Y-47879066D02*
X64321409Y-47955256D01*
X64321409Y-47955256D02*
X64169028Y-47993352D01*
X64169028Y-47993352D02*
X63902361Y-47993352D01*
X63902361Y-47993352D02*
X63749980Y-47955256D01*
X63749980Y-47955256D02*
X63673790Y-47879066D01*
X63673790Y-47879066D02*
X63635695Y-47802875D01*
X58305819Y-70681437D02*
X59305819Y-70348104D01*
X59305819Y-70348104D02*
X58305819Y-70014771D01*
X59305819Y-69681437D02*
X58305819Y-69681437D01*
X59305819Y-69205247D02*
X58305819Y-69205247D01*
X58305819Y-69205247D02*
X59305819Y-68633819D01*
X59305819Y-68633819D02*
X58305819Y-68633819D01*
X59305819Y-66252866D02*
X58829628Y-66586199D01*
X59305819Y-66824294D02*
X58305819Y-66824294D01*
X58305819Y-66824294D02*
X58305819Y-66443342D01*
X58305819Y-66443342D02*
X58353438Y-66348104D01*
X58353438Y-66348104D02*
X58401057Y-66300485D01*
X58401057Y-66300485D02*
X58496295Y-66252866D01*
X58496295Y-66252866D02*
X58639152Y-66252866D01*
X58639152Y-66252866D02*
X58734390Y-66300485D01*
X58734390Y-66300485D02*
X58782009Y-66348104D01*
X58782009Y-66348104D02*
X58829628Y-66443342D01*
X58829628Y-66443342D02*
X58829628Y-66824294D01*
X58305819Y-65919532D02*
X59305819Y-65252866D01*
X58305819Y-65252866D02*
X59305819Y-65919532D01*
X63635695Y-44399066D02*
X64435695Y-44132399D01*
X64435695Y-44132399D02*
X63635695Y-43865733D01*
X64359504Y-43141923D02*
X64397600Y-43180019D01*
X64397600Y-43180019D02*
X64435695Y-43294304D01*
X64435695Y-43294304D02*
X64435695Y-43370495D01*
X64435695Y-43370495D02*
X64397600Y-43484781D01*
X64397600Y-43484781D02*
X64321409Y-43560971D01*
X64321409Y-43560971D02*
X64245219Y-43599066D01*
X64245219Y-43599066D02*
X64092838Y-43637162D01*
X64092838Y-43637162D02*
X63978552Y-43637162D01*
X63978552Y-43637162D02*
X63826171Y-43599066D01*
X63826171Y-43599066D02*
X63749980Y-43560971D01*
X63749980Y-43560971D02*
X63673790Y-43484781D01*
X63673790Y-43484781D02*
X63635695Y-43370495D01*
X63635695Y-43370495D02*
X63635695Y-43294304D01*
X63635695Y-43294304D02*
X63673790Y-43180019D01*
X63673790Y-43180019D02*
X63711885Y-43141923D01*
X64359504Y-42341923D02*
X64397600Y-42380019D01*
X64397600Y-42380019D02*
X64435695Y-42494304D01*
X64435695Y-42494304D02*
X64435695Y-42570495D01*
X64435695Y-42570495D02*
X64397600Y-42684781D01*
X64397600Y-42684781D02*
X64321409Y-42760971D01*
X64321409Y-42760971D02*
X64245219Y-42799066D01*
X64245219Y-42799066D02*
X64092838Y-42837162D01*
X64092838Y-42837162D02*
X63978552Y-42837162D01*
X63978552Y-42837162D02*
X63826171Y-42799066D01*
X63826171Y-42799066D02*
X63749980Y-42760971D01*
X63749980Y-42760971D02*
X63673790Y-42684781D01*
X63673790Y-42684781D02*
X63635695Y-42570495D01*
X63635695Y-42570495D02*
X63635695Y-42494304D01*
X63635695Y-42494304D02*
X63673790Y-42380019D01*
X63673790Y-42380019D02*
X63711885Y-42341923D01*
X39526380Y-55437066D02*
X39574000Y-55484685D01*
X39574000Y-55484685D02*
X39621619Y-55627542D01*
X39621619Y-55627542D02*
X39621619Y-55722780D01*
X39621619Y-55722780D02*
X39574000Y-55865637D01*
X39574000Y-55865637D02*
X39478761Y-55960875D01*
X39478761Y-55960875D02*
X39383523Y-56008494D01*
X39383523Y-56008494D02*
X39193047Y-56056113D01*
X39193047Y-56056113D02*
X39050190Y-56056113D01*
X39050190Y-56056113D02*
X38859714Y-56008494D01*
X38859714Y-56008494D02*
X38764476Y-55960875D01*
X38764476Y-55960875D02*
X38669238Y-55865637D01*
X38669238Y-55865637D02*
X38621619Y-55722780D01*
X38621619Y-55722780D02*
X38621619Y-55627542D01*
X38621619Y-55627542D02*
X38669238Y-55484685D01*
X38669238Y-55484685D02*
X38716857Y-55437066D01*
X38716857Y-55056113D02*
X38669238Y-55008494D01*
X38669238Y-55008494D02*
X38621619Y-54913256D01*
X38621619Y-54913256D02*
X38621619Y-54675161D01*
X38621619Y-54675161D02*
X38669238Y-54579923D01*
X38669238Y-54579923D02*
X38716857Y-54532304D01*
X38716857Y-54532304D02*
X38812095Y-54484685D01*
X38812095Y-54484685D02*
X38907333Y-54484685D01*
X38907333Y-54484685D02*
X39050190Y-54532304D01*
X39050190Y-54532304D02*
X39621619Y-55103732D01*
X39621619Y-55103732D02*
X39621619Y-54484685D01*
X41960895Y-72454419D02*
X41960895Y-73263942D01*
X41960895Y-73263942D02*
X42008514Y-73359180D01*
X42008514Y-73359180D02*
X42056133Y-73406800D01*
X42056133Y-73406800D02*
X42151371Y-73454419D01*
X42151371Y-73454419D02*
X42341847Y-73454419D01*
X42341847Y-73454419D02*
X42437085Y-73406800D01*
X42437085Y-73406800D02*
X42484704Y-73359180D01*
X42484704Y-73359180D02*
X42532323Y-73263942D01*
X42532323Y-73263942D02*
X42532323Y-72454419D01*
X42960895Y-72549657D02*
X43008514Y-72502038D01*
X43008514Y-72502038D02*
X43103752Y-72454419D01*
X43103752Y-72454419D02*
X43341847Y-72454419D01*
X43341847Y-72454419D02*
X43437085Y-72502038D01*
X43437085Y-72502038D02*
X43484704Y-72549657D01*
X43484704Y-72549657D02*
X43532323Y-72644895D01*
X43532323Y-72644895D02*
X43532323Y-72740133D01*
X43532323Y-72740133D02*
X43484704Y-72882990D01*
X43484704Y-72882990D02*
X42913276Y-73454419D01*
X42913276Y-73454419D02*
X43532323Y-73454419D01*
X44080133Y-48467180D02*
X44032514Y-48514800D01*
X44032514Y-48514800D02*
X43889657Y-48562419D01*
X43889657Y-48562419D02*
X43794419Y-48562419D01*
X43794419Y-48562419D02*
X43651562Y-48514800D01*
X43651562Y-48514800D02*
X43556324Y-48419561D01*
X43556324Y-48419561D02*
X43508705Y-48324323D01*
X43508705Y-48324323D02*
X43461086Y-48133847D01*
X43461086Y-48133847D02*
X43461086Y-47990990D01*
X43461086Y-47990990D02*
X43508705Y-47800514D01*
X43508705Y-47800514D02*
X43556324Y-47705276D01*
X43556324Y-47705276D02*
X43651562Y-47610038D01*
X43651562Y-47610038D02*
X43794419Y-47562419D01*
X43794419Y-47562419D02*
X43889657Y-47562419D01*
X43889657Y-47562419D02*
X44032514Y-47610038D01*
X44032514Y-47610038D02*
X44080133Y-47657657D01*
X44413467Y-47562419D02*
X45032514Y-47562419D01*
X45032514Y-47562419D02*
X44699181Y-47943371D01*
X44699181Y-47943371D02*
X44842038Y-47943371D01*
X44842038Y-47943371D02*
X44937276Y-47990990D01*
X44937276Y-47990990D02*
X44984895Y-48038609D01*
X44984895Y-48038609D02*
X45032514Y-48133847D01*
X45032514Y-48133847D02*
X45032514Y-48371942D01*
X45032514Y-48371942D02*
X44984895Y-48467180D01*
X44984895Y-48467180D02*
X44937276Y-48514800D01*
X44937276Y-48514800D02*
X44842038Y-48562419D01*
X44842038Y-48562419D02*
X44556324Y-48562419D01*
X44556324Y-48562419D02*
X44461086Y-48514800D01*
X44461086Y-48514800D02*
X44413467Y-48467180D01*
X50836533Y-42929980D02*
X50788914Y-42977600D01*
X50788914Y-42977600D02*
X50646057Y-43025219D01*
X50646057Y-43025219D02*
X50550819Y-43025219D01*
X50550819Y-43025219D02*
X50407962Y-42977600D01*
X50407962Y-42977600D02*
X50312724Y-42882361D01*
X50312724Y-42882361D02*
X50265105Y-42787123D01*
X50265105Y-42787123D02*
X50217486Y-42596647D01*
X50217486Y-42596647D02*
X50217486Y-42453790D01*
X50217486Y-42453790D02*
X50265105Y-42263314D01*
X50265105Y-42263314D02*
X50312724Y-42168076D01*
X50312724Y-42168076D02*
X50407962Y-42072838D01*
X50407962Y-42072838D02*
X50550819Y-42025219D01*
X50550819Y-42025219D02*
X50646057Y-42025219D01*
X50646057Y-42025219D02*
X50788914Y-42072838D01*
X50788914Y-42072838D02*
X50836533Y-42120457D01*
X51693676Y-42025219D02*
X51503200Y-42025219D01*
X51503200Y-42025219D02*
X51407962Y-42072838D01*
X51407962Y-42072838D02*
X51360343Y-42120457D01*
X51360343Y-42120457D02*
X51265105Y-42263314D01*
X51265105Y-42263314D02*
X51217486Y-42453790D01*
X51217486Y-42453790D02*
X51217486Y-42834742D01*
X51217486Y-42834742D02*
X51265105Y-42929980D01*
X51265105Y-42929980D02*
X51312724Y-42977600D01*
X51312724Y-42977600D02*
X51407962Y-43025219D01*
X51407962Y-43025219D02*
X51598438Y-43025219D01*
X51598438Y-43025219D02*
X51693676Y-42977600D01*
X51693676Y-42977600D02*
X51741295Y-42929980D01*
X51741295Y-42929980D02*
X51788914Y-42834742D01*
X51788914Y-42834742D02*
X51788914Y-42596647D01*
X51788914Y-42596647D02*
X51741295Y-42501409D01*
X51741295Y-42501409D02*
X51693676Y-42453790D01*
X51693676Y-42453790D02*
X51598438Y-42406171D01*
X51598438Y-42406171D02*
X51407962Y-42406171D01*
X51407962Y-42406171D02*
X51312724Y-42453790D01*
X51312724Y-42453790D02*
X51265105Y-42501409D01*
X51265105Y-42501409D02*
X51217486Y-42596647D01*
X39526380Y-51931866D02*
X39574000Y-51979485D01*
X39574000Y-51979485D02*
X39621619Y-52122342D01*
X39621619Y-52122342D02*
X39621619Y-52217580D01*
X39621619Y-52217580D02*
X39574000Y-52360437D01*
X39574000Y-52360437D02*
X39478761Y-52455675D01*
X39478761Y-52455675D02*
X39383523Y-52503294D01*
X39383523Y-52503294D02*
X39193047Y-52550913D01*
X39193047Y-52550913D02*
X39050190Y-52550913D01*
X39050190Y-52550913D02*
X38859714Y-52503294D01*
X38859714Y-52503294D02*
X38764476Y-52455675D01*
X38764476Y-52455675D02*
X38669238Y-52360437D01*
X38669238Y-52360437D02*
X38621619Y-52217580D01*
X38621619Y-52217580D02*
X38621619Y-52122342D01*
X38621619Y-52122342D02*
X38669238Y-51979485D01*
X38669238Y-51979485D02*
X38716857Y-51931866D01*
X39621619Y-50979485D02*
X39621619Y-51550913D01*
X39621619Y-51265199D02*
X38621619Y-51265199D01*
X38621619Y-51265199D02*
X38764476Y-51360437D01*
X38764476Y-51360437D02*
X38859714Y-51455675D01*
X38859714Y-51455675D02*
X38907333Y-51550913D01*
X37933333Y-68685580D02*
X37885714Y-68733200D01*
X37885714Y-68733200D02*
X37742857Y-68780819D01*
X37742857Y-68780819D02*
X37647619Y-68780819D01*
X37647619Y-68780819D02*
X37504762Y-68733200D01*
X37504762Y-68733200D02*
X37409524Y-68637961D01*
X37409524Y-68637961D02*
X37361905Y-68542723D01*
X37361905Y-68542723D02*
X37314286Y-68352247D01*
X37314286Y-68352247D02*
X37314286Y-68209390D01*
X37314286Y-68209390D02*
X37361905Y-68018914D01*
X37361905Y-68018914D02*
X37409524Y-67923676D01*
X37409524Y-67923676D02*
X37504762Y-67828438D01*
X37504762Y-67828438D02*
X37647619Y-67780819D01*
X37647619Y-67780819D02*
X37742857Y-67780819D01*
X37742857Y-67780819D02*
X37885714Y-67828438D01*
X37885714Y-67828438D02*
X37933333Y-67876057D01*
X38504762Y-68209390D02*
X38409524Y-68161771D01*
X38409524Y-68161771D02*
X38361905Y-68114152D01*
X38361905Y-68114152D02*
X38314286Y-68018914D01*
X38314286Y-68018914D02*
X38314286Y-67971295D01*
X38314286Y-67971295D02*
X38361905Y-67876057D01*
X38361905Y-67876057D02*
X38409524Y-67828438D01*
X38409524Y-67828438D02*
X38504762Y-67780819D01*
X38504762Y-67780819D02*
X38695238Y-67780819D01*
X38695238Y-67780819D02*
X38790476Y-67828438D01*
X38790476Y-67828438D02*
X38838095Y-67876057D01*
X38838095Y-67876057D02*
X38885714Y-67971295D01*
X38885714Y-67971295D02*
X38885714Y-68018914D01*
X38885714Y-68018914D02*
X38838095Y-68114152D01*
X38838095Y-68114152D02*
X38790476Y-68161771D01*
X38790476Y-68161771D02*
X38695238Y-68209390D01*
X38695238Y-68209390D02*
X38504762Y-68209390D01*
X38504762Y-68209390D02*
X38409524Y-68257009D01*
X38409524Y-68257009D02*
X38361905Y-68304628D01*
X38361905Y-68304628D02*
X38314286Y-68399866D01*
X38314286Y-68399866D02*
X38314286Y-68590342D01*
X38314286Y-68590342D02*
X38361905Y-68685580D01*
X38361905Y-68685580D02*
X38409524Y-68733200D01*
X38409524Y-68733200D02*
X38504762Y-68780819D01*
X38504762Y-68780819D02*
X38695238Y-68780819D01*
X38695238Y-68780819D02*
X38790476Y-68733200D01*
X38790476Y-68733200D02*
X38838095Y-68685580D01*
X38838095Y-68685580D02*
X38885714Y-68590342D01*
X38885714Y-68590342D02*
X38885714Y-68399866D01*
X38885714Y-68399866D02*
X38838095Y-68304628D01*
X38838095Y-68304628D02*
X38790476Y-68257009D01*
X38790476Y-68257009D02*
X38695238Y-68209390D01*
X56180019Y-63780894D02*
X55180019Y-63780894D01*
X55180019Y-63780894D02*
X55180019Y-63542799D01*
X55180019Y-63542799D02*
X55227638Y-63399942D01*
X55227638Y-63399942D02*
X55322876Y-63304704D01*
X55322876Y-63304704D02*
X55418114Y-63257085D01*
X55418114Y-63257085D02*
X55608590Y-63209466D01*
X55608590Y-63209466D02*
X55751447Y-63209466D01*
X55751447Y-63209466D02*
X55941923Y-63257085D01*
X55941923Y-63257085D02*
X56037161Y-63304704D01*
X56037161Y-63304704D02*
X56132400Y-63399942D01*
X56132400Y-63399942D02*
X56180019Y-63542799D01*
X56180019Y-63542799D02*
X56180019Y-63780894D01*
X55275257Y-62828513D02*
X55227638Y-62780894D01*
X55227638Y-62780894D02*
X55180019Y-62685656D01*
X55180019Y-62685656D02*
X55180019Y-62447561D01*
X55180019Y-62447561D02*
X55227638Y-62352323D01*
X55227638Y-62352323D02*
X55275257Y-62304704D01*
X55275257Y-62304704D02*
X55370495Y-62257085D01*
X55370495Y-62257085D02*
X55465733Y-62257085D01*
X55465733Y-62257085D02*
X55608590Y-62304704D01*
X55608590Y-62304704D02*
X56180019Y-62876132D01*
X56180019Y-62876132D02*
X56180019Y-62257085D01*
X65901219Y-35791733D02*
X66615504Y-35791733D01*
X66615504Y-35791733D02*
X66758361Y-35839352D01*
X66758361Y-35839352D02*
X66853600Y-35934590D01*
X66853600Y-35934590D02*
X66901219Y-36077447D01*
X66901219Y-36077447D02*
X66901219Y-36172685D01*
X65901219Y-35410780D02*
X65901219Y-34791733D01*
X65901219Y-34791733D02*
X66282171Y-35125066D01*
X66282171Y-35125066D02*
X66282171Y-34982209D01*
X66282171Y-34982209D02*
X66329790Y-34886971D01*
X66329790Y-34886971D02*
X66377409Y-34839352D01*
X66377409Y-34839352D02*
X66472647Y-34791733D01*
X66472647Y-34791733D02*
X66710742Y-34791733D01*
X66710742Y-34791733D02*
X66805980Y-34839352D01*
X66805980Y-34839352D02*
X66853600Y-34886971D01*
X66853600Y-34886971D02*
X66901219Y-34982209D01*
X66901219Y-34982209D02*
X66901219Y-35267923D01*
X66901219Y-35267923D02*
X66853600Y-35363161D01*
X66853600Y-35363161D02*
X66805980Y-35410780D01*
X53083933Y-69855219D02*
X52750600Y-69379028D01*
X52512505Y-69855219D02*
X52512505Y-68855219D01*
X52512505Y-68855219D02*
X52893457Y-68855219D01*
X52893457Y-68855219D02*
X52988695Y-68902838D01*
X52988695Y-68902838D02*
X53036314Y-68950457D01*
X53036314Y-68950457D02*
X53083933Y-69045695D01*
X53083933Y-69045695D02*
X53083933Y-69188552D01*
X53083933Y-69188552D02*
X53036314Y-69283790D01*
X53036314Y-69283790D02*
X52988695Y-69331409D01*
X52988695Y-69331409D02*
X52893457Y-69379028D01*
X52893457Y-69379028D02*
X52512505Y-69379028D01*
X54036314Y-69855219D02*
X53464886Y-69855219D01*
X53750600Y-69855219D02*
X53750600Y-68855219D01*
X53750600Y-68855219D02*
X53655362Y-68998076D01*
X53655362Y-68998076D02*
X53560124Y-69093314D01*
X53560124Y-69093314D02*
X53464886Y-69140933D01*
X45557297Y-53404419D02*
X45557297Y-54213942D01*
X45557297Y-54213942D02*
X45604916Y-54309180D01*
X45604916Y-54309180D02*
X45652535Y-54356800D01*
X45652535Y-54356800D02*
X45747773Y-54404419D01*
X45747773Y-54404419D02*
X45938249Y-54404419D01*
X45938249Y-54404419D02*
X46033487Y-54356800D01*
X46033487Y-54356800D02*
X46081106Y-54309180D01*
X46081106Y-54309180D02*
X46128725Y-54213942D01*
X46128725Y-54213942D02*
X46128725Y-53404419D01*
X47128725Y-54404419D02*
X46557297Y-54404419D01*
X46843011Y-54404419D02*
X46843011Y-53404419D01*
X46843011Y-53404419D02*
X46747773Y-53547276D01*
X46747773Y-53547276D02*
X46652535Y-53642514D01*
X46652535Y-53642514D02*
X46557297Y-53690133D01*
X42570203Y-49556419D02*
X42570203Y-49794514D01*
X42332108Y-49699276D02*
X42570203Y-49794514D01*
X42570203Y-49794514D02*
X42808298Y-49699276D01*
X42427346Y-49984990D02*
X42570203Y-49794514D01*
X42570203Y-49794514D02*
X42713060Y-49984990D01*
X42570203Y-49556419D02*
X42570203Y-49794514D01*
X42332108Y-49699276D02*
X42570203Y-49794514D01*
X42570203Y-49794514D02*
X42808298Y-49699276D01*
X42427346Y-49984990D02*
X42570203Y-49794514D01*
X42570203Y-49794514D02*
X42713060Y-49984990D01*
X47705180Y-74588666D02*
X47752800Y-74636285D01*
X47752800Y-74636285D02*
X47800419Y-74779142D01*
X47800419Y-74779142D02*
X47800419Y-74874380D01*
X47800419Y-74874380D02*
X47752800Y-75017237D01*
X47752800Y-75017237D02*
X47657561Y-75112475D01*
X47657561Y-75112475D02*
X47562323Y-75160094D01*
X47562323Y-75160094D02*
X47371847Y-75207713D01*
X47371847Y-75207713D02*
X47228990Y-75207713D01*
X47228990Y-75207713D02*
X47038514Y-75160094D01*
X47038514Y-75160094D02*
X46943276Y-75112475D01*
X46943276Y-75112475D02*
X46848038Y-75017237D01*
X46848038Y-75017237D02*
X46800419Y-74874380D01*
X46800419Y-74874380D02*
X46800419Y-74779142D01*
X46800419Y-74779142D02*
X46848038Y-74636285D01*
X46848038Y-74636285D02*
X46895657Y-74588666D01*
X46800419Y-74255332D02*
X46800419Y-73588666D01*
X46800419Y-73588666D02*
X47800419Y-74017237D01*
X47521333Y-69855219D02*
X47188000Y-69379028D01*
X46949905Y-69855219D02*
X46949905Y-68855219D01*
X46949905Y-68855219D02*
X47330857Y-68855219D01*
X47330857Y-68855219D02*
X47426095Y-68902838D01*
X47426095Y-68902838D02*
X47473714Y-68950457D01*
X47473714Y-68950457D02*
X47521333Y-69045695D01*
X47521333Y-69045695D02*
X47521333Y-69188552D01*
X47521333Y-69188552D02*
X47473714Y-69283790D01*
X47473714Y-69283790D02*
X47426095Y-69331409D01*
X47426095Y-69331409D02*
X47330857Y-69379028D01*
X47330857Y-69379028D02*
X46949905Y-69379028D01*
X47902286Y-68950457D02*
X47949905Y-68902838D01*
X47949905Y-68902838D02*
X48045143Y-68855219D01*
X48045143Y-68855219D02*
X48283238Y-68855219D01*
X48283238Y-68855219D02*
X48378476Y-68902838D01*
X48378476Y-68902838D02*
X48426095Y-68950457D01*
X48426095Y-68950457D02*
X48473714Y-69045695D01*
X48473714Y-69045695D02*
X48473714Y-69140933D01*
X48473714Y-69140933D02*
X48426095Y-69283790D01*
X48426095Y-69283790D02*
X47854667Y-69855219D01*
X47854667Y-69855219D02*
X48473714Y-69855219D01*
X38459580Y-74588666D02*
X38507200Y-74636285D01*
X38507200Y-74636285D02*
X38554819Y-74779142D01*
X38554819Y-74779142D02*
X38554819Y-74874380D01*
X38554819Y-74874380D02*
X38507200Y-75017237D01*
X38507200Y-75017237D02*
X38411961Y-75112475D01*
X38411961Y-75112475D02*
X38316723Y-75160094D01*
X38316723Y-75160094D02*
X38126247Y-75207713D01*
X38126247Y-75207713D02*
X37983390Y-75207713D01*
X37983390Y-75207713D02*
X37792914Y-75160094D01*
X37792914Y-75160094D02*
X37697676Y-75112475D01*
X37697676Y-75112475D02*
X37602438Y-75017237D01*
X37602438Y-75017237D02*
X37554819Y-74874380D01*
X37554819Y-74874380D02*
X37554819Y-74779142D01*
X37554819Y-74779142D02*
X37602438Y-74636285D01*
X37602438Y-74636285D02*
X37650057Y-74588666D01*
X38554819Y-74112475D02*
X38554819Y-73921999D01*
X38554819Y-73921999D02*
X38507200Y-73826761D01*
X38507200Y-73826761D02*
X38459580Y-73779142D01*
X38459580Y-73779142D02*
X38316723Y-73683904D01*
X38316723Y-73683904D02*
X38126247Y-73636285D01*
X38126247Y-73636285D02*
X37745295Y-73636285D01*
X37745295Y-73636285D02*
X37650057Y-73683904D01*
X37650057Y-73683904D02*
X37602438Y-73731523D01*
X37602438Y-73731523D02*
X37554819Y-73826761D01*
X37554819Y-73826761D02*
X37554819Y-74017237D01*
X37554819Y-74017237D02*
X37602438Y-74112475D01*
X37602438Y-74112475D02*
X37650057Y-74160094D01*
X37650057Y-74160094D02*
X37745295Y-74207713D01*
X37745295Y-74207713D02*
X37983390Y-74207713D01*
X37983390Y-74207713D02*
X38078628Y-74160094D01*
X38078628Y-74160094D02*
X38126247Y-74112475D01*
X38126247Y-74112475D02*
X38173866Y-74017237D01*
X38173866Y-74017237D02*
X38173866Y-73826761D01*
X38173866Y-73826761D02*
X38126247Y-73731523D01*
X38126247Y-73731523D02*
X38078628Y-73683904D01*
X38078628Y-73683904D02*
X37983390Y-73636285D01*
X52187534Y-47959180D02*
X52139915Y-48006800D01*
X52139915Y-48006800D02*
X51997058Y-48054419D01*
X51997058Y-48054419D02*
X51901820Y-48054419D01*
X51901820Y-48054419D02*
X51758963Y-48006800D01*
X51758963Y-48006800D02*
X51663725Y-47911561D01*
X51663725Y-47911561D02*
X51616106Y-47816323D01*
X51616106Y-47816323D02*
X51568487Y-47625847D01*
X51568487Y-47625847D02*
X51568487Y-47482990D01*
X51568487Y-47482990D02*
X51616106Y-47292514D01*
X51616106Y-47292514D02*
X51663725Y-47197276D01*
X51663725Y-47197276D02*
X51758963Y-47102038D01*
X51758963Y-47102038D02*
X51901820Y-47054419D01*
X51901820Y-47054419D02*
X51997058Y-47054419D01*
X51997058Y-47054419D02*
X52139915Y-47102038D01*
X52139915Y-47102038D02*
X52187534Y-47149657D01*
X53092296Y-47054419D02*
X52616106Y-47054419D01*
X52616106Y-47054419D02*
X52568487Y-47530609D01*
X52568487Y-47530609D02*
X52616106Y-47482990D01*
X52616106Y-47482990D02*
X52711344Y-47435371D01*
X52711344Y-47435371D02*
X52949439Y-47435371D01*
X52949439Y-47435371D02*
X53044677Y-47482990D01*
X53044677Y-47482990D02*
X53092296Y-47530609D01*
X53092296Y-47530609D02*
X53139915Y-47625847D01*
X53139915Y-47625847D02*
X53139915Y-47863942D01*
X53139915Y-47863942D02*
X53092296Y-47959180D01*
X53092296Y-47959180D02*
X53044677Y-48006800D01*
X53044677Y-48006800D02*
X52949439Y-48054419D01*
X52949439Y-48054419D02*
X52711344Y-48054419D01*
X52711344Y-48054419D02*
X52616106Y-48006800D01*
X52616106Y-48006800D02*
X52568487Y-47959180D01*
X44134819Y-44148333D02*
X44849104Y-44148333D01*
X44849104Y-44148333D02*
X44991961Y-44195952D01*
X44991961Y-44195952D02*
X45087200Y-44291190D01*
X45087200Y-44291190D02*
X45134819Y-44434047D01*
X45134819Y-44434047D02*
X45134819Y-44529285D01*
X45134819Y-43148333D02*
X45134819Y-43719761D01*
X45134819Y-43434047D02*
X44134819Y-43434047D01*
X44134819Y-43434047D02*
X44277676Y-43529285D01*
X44277676Y-43529285D02*
X44372914Y-43624523D01*
X44372914Y-43624523D02*
X44420533Y-43719761D01*
X51778067Y-32806400D02*
X51920924Y-32854019D01*
X51920924Y-32854019D02*
X52159019Y-32854019D01*
X52159019Y-32854019D02*
X52254257Y-32806400D01*
X52254257Y-32806400D02*
X52301876Y-32758780D01*
X52301876Y-32758780D02*
X52349495Y-32663542D01*
X52349495Y-32663542D02*
X52349495Y-32568304D01*
X52349495Y-32568304D02*
X52301876Y-32473066D01*
X52301876Y-32473066D02*
X52254257Y-32425447D01*
X52254257Y-32425447D02*
X52159019Y-32377828D01*
X52159019Y-32377828D02*
X51968543Y-32330209D01*
X51968543Y-32330209D02*
X51873305Y-32282590D01*
X51873305Y-32282590D02*
X51825686Y-32234971D01*
X51825686Y-32234971D02*
X51778067Y-32139733D01*
X51778067Y-32139733D02*
X51778067Y-32044495D01*
X51778067Y-32044495D02*
X51825686Y-31949257D01*
X51825686Y-31949257D02*
X51873305Y-31901638D01*
X51873305Y-31901638D02*
X51968543Y-31854019D01*
X51968543Y-31854019D02*
X52206638Y-31854019D01*
X52206638Y-31854019D02*
X52349495Y-31901638D01*
X52682829Y-31854019D02*
X52920924Y-32854019D01*
X52920924Y-32854019D02*
X53111400Y-32139733D01*
X53111400Y-32139733D02*
X53301876Y-32854019D01*
X53301876Y-32854019D02*
X53539972Y-31854019D01*
X54444733Y-32854019D02*
X53873305Y-32854019D01*
X54159019Y-32854019D02*
X54159019Y-31854019D01*
X54159019Y-31854019D02*
X54063781Y-31996876D01*
X54063781Y-31996876D02*
X53968543Y-32092114D01*
X53968543Y-32092114D02*
X53873305Y-32139733D01*
X52957505Y-73556019D02*
X52957505Y-72556019D01*
X52957505Y-72556019D02*
X53195600Y-72556019D01*
X53195600Y-72556019D02*
X53338457Y-72603638D01*
X53338457Y-72603638D02*
X53433695Y-72698876D01*
X53433695Y-72698876D02*
X53481314Y-72794114D01*
X53481314Y-72794114D02*
X53528933Y-72984590D01*
X53528933Y-72984590D02*
X53528933Y-73127447D01*
X53528933Y-73127447D02*
X53481314Y-73317923D01*
X53481314Y-73317923D02*
X53433695Y-73413161D01*
X53433695Y-73413161D02*
X53338457Y-73508400D01*
X53338457Y-73508400D02*
X53195600Y-73556019D01*
X53195600Y-73556019D02*
X52957505Y-73556019D01*
X54481314Y-73556019D02*
X53909886Y-73556019D01*
X54195600Y-73556019D02*
X54195600Y-72556019D01*
X54195600Y-72556019D02*
X54100362Y-72698876D01*
X54100362Y-72698876D02*
X54005124Y-72794114D01*
X54005124Y-72794114D02*
X53909886Y-72841733D01*
X50642819Y-63780894D02*
X49642819Y-63780894D01*
X49642819Y-63780894D02*
X49642819Y-63542799D01*
X49642819Y-63542799D02*
X49690438Y-63399942D01*
X49690438Y-63399942D02*
X49785676Y-63304704D01*
X49785676Y-63304704D02*
X49880914Y-63257085D01*
X49880914Y-63257085D02*
X50071390Y-63209466D01*
X50071390Y-63209466D02*
X50214247Y-63209466D01*
X50214247Y-63209466D02*
X50404723Y-63257085D01*
X50404723Y-63257085D02*
X50499961Y-63304704D01*
X50499961Y-63304704D02*
X50595200Y-63399942D01*
X50595200Y-63399942D02*
X50642819Y-63542799D01*
X50642819Y-63542799D02*
X50642819Y-63780894D01*
X49642819Y-62876132D02*
X49642819Y-62257085D01*
X49642819Y-62257085D02*
X50023771Y-62590418D01*
X50023771Y-62590418D02*
X50023771Y-62447561D01*
X50023771Y-62447561D02*
X50071390Y-62352323D01*
X50071390Y-62352323D02*
X50119009Y-62304704D01*
X50119009Y-62304704D02*
X50214247Y-62257085D01*
X50214247Y-62257085D02*
X50452342Y-62257085D01*
X50452342Y-62257085D02*
X50547580Y-62304704D01*
X50547580Y-62304704D02*
X50595200Y-62352323D01*
X50595200Y-62352323D02*
X50642819Y-62447561D01*
X50642819Y-62447561D02*
X50642819Y-62733275D01*
X50642819Y-62733275D02*
X50595200Y-62828513D01*
X50595200Y-62828513D02*
X50547580Y-62876132D01*
X44954219Y-63780894D02*
X43954219Y-63780894D01*
X43954219Y-63780894D02*
X43954219Y-63542799D01*
X43954219Y-63542799D02*
X44001838Y-63399942D01*
X44001838Y-63399942D02*
X44097076Y-63304704D01*
X44097076Y-63304704D02*
X44192314Y-63257085D01*
X44192314Y-63257085D02*
X44382790Y-63209466D01*
X44382790Y-63209466D02*
X44525647Y-63209466D01*
X44525647Y-63209466D02*
X44716123Y-63257085D01*
X44716123Y-63257085D02*
X44811361Y-63304704D01*
X44811361Y-63304704D02*
X44906600Y-63399942D01*
X44906600Y-63399942D02*
X44954219Y-63542799D01*
X44954219Y-63542799D02*
X44954219Y-63780894D01*
X44287552Y-62352323D02*
X44954219Y-62352323D01*
X43906600Y-62590418D02*
X44620885Y-62828513D01*
X44620885Y-62828513D02*
X44620885Y-62209466D01*
X47585333Y-48416380D02*
X47537714Y-48464000D01*
X47537714Y-48464000D02*
X47394857Y-48511619D01*
X47394857Y-48511619D02*
X47299619Y-48511619D01*
X47299619Y-48511619D02*
X47156762Y-48464000D01*
X47156762Y-48464000D02*
X47061524Y-48368761D01*
X47061524Y-48368761D02*
X47013905Y-48273523D01*
X47013905Y-48273523D02*
X46966286Y-48083047D01*
X46966286Y-48083047D02*
X46966286Y-47940190D01*
X46966286Y-47940190D02*
X47013905Y-47749714D01*
X47013905Y-47749714D02*
X47061524Y-47654476D01*
X47061524Y-47654476D02*
X47156762Y-47559238D01*
X47156762Y-47559238D02*
X47299619Y-47511619D01*
X47299619Y-47511619D02*
X47394857Y-47511619D01*
X47394857Y-47511619D02*
X47537714Y-47559238D01*
X47537714Y-47559238D02*
X47585333Y-47606857D01*
X48442476Y-47844952D02*
X48442476Y-48511619D01*
X48204381Y-47464000D02*
X47966286Y-48178285D01*
X47966286Y-48178285D02*
X48585333Y-48178285D01*
X41832733Y-69855219D02*
X41499400Y-69379028D01*
X41261305Y-69855219D02*
X41261305Y-68855219D01*
X41261305Y-68855219D02*
X41642257Y-68855219D01*
X41642257Y-68855219D02*
X41737495Y-68902838D01*
X41737495Y-68902838D02*
X41785114Y-68950457D01*
X41785114Y-68950457D02*
X41832733Y-69045695D01*
X41832733Y-69045695D02*
X41832733Y-69188552D01*
X41832733Y-69188552D02*
X41785114Y-69283790D01*
X41785114Y-69283790D02*
X41737495Y-69331409D01*
X41737495Y-69331409D02*
X41642257Y-69379028D01*
X41642257Y-69379028D02*
X41261305Y-69379028D01*
X42166067Y-68855219D02*
X42785114Y-68855219D01*
X42785114Y-68855219D02*
X42451781Y-69236171D01*
X42451781Y-69236171D02*
X42594638Y-69236171D01*
X42594638Y-69236171D02*
X42689876Y-69283790D01*
X42689876Y-69283790D02*
X42737495Y-69331409D01*
X42737495Y-69331409D02*
X42785114Y-69426647D01*
X42785114Y-69426647D02*
X42785114Y-69664742D01*
X42785114Y-69664742D02*
X42737495Y-69759980D01*
X42737495Y-69759980D02*
X42689876Y-69807600D01*
X42689876Y-69807600D02*
X42594638Y-69855219D01*
X42594638Y-69855219D02*
X42308924Y-69855219D01*
X42308924Y-69855219D02*
X42213686Y-69807600D01*
X42213686Y-69807600D02*
X42166067Y-69759980D01*
D13*
%TO.C,C2*%
X41273400Y-55009148D02*
X41273400Y-55531652D01*
X39803400Y-55009148D02*
X39803400Y-55531652D01*
D14*
%TO.C,U2*%
X44272799Y-71374599D02*
X44272799Y-73349599D01*
X41172801Y-72599601D02*
X41172801Y-73374603D01*
D13*
%TO.C,C3*%
X43985548Y-48795000D02*
X44508052Y-48795000D01*
X43985548Y-50265000D02*
X44508052Y-50265000D01*
%TO.C,J2*%
X67406000Y-75136200D02*
X68046000Y-75136200D01*
X68046000Y-75136200D02*
X68046000Y-74736200D01*
X60086000Y-74896200D02*
X67806000Y-74896200D01*
X60086000Y-74896200D02*
X60086000Y-57276200D01*
X66246000Y-74896200D02*
X66246000Y-57276200D01*
X67346000Y-74896200D02*
X67346000Y-57276200D01*
X67806000Y-74896200D02*
X67806000Y-57276200D01*
X64187000Y-70731200D02*
X64315000Y-70860200D01*
X64427000Y-70561200D02*
X64520000Y-70655200D01*
X61971000Y-68516200D02*
X62065000Y-68610200D01*
X62177000Y-68311200D02*
X62305000Y-68440200D01*
X64187000Y-67231200D02*
X64315000Y-67360200D01*
X64427000Y-67061200D02*
X64520000Y-67155200D01*
X61971000Y-65016200D02*
X62065000Y-65110200D01*
X62177000Y-64811200D02*
X62305000Y-64940200D01*
X64187000Y-63731200D02*
X64315000Y-63860200D01*
X64427000Y-63561200D02*
X64520000Y-63655200D01*
X61971000Y-61516200D02*
X62065000Y-61610200D01*
X62177000Y-61311200D02*
X62305000Y-61440200D01*
X64187000Y-60231200D02*
X64315000Y-60360200D01*
X64427000Y-60061200D02*
X64520000Y-60155200D01*
X61971000Y-58016200D02*
X62065000Y-58110200D01*
X62177000Y-57811200D02*
X62305000Y-57940200D01*
X60086000Y-57276200D02*
X67806000Y-57276200D01*
X62380000Y-74526200D02*
G75*
G03*
X64135894Y-74511558I866000J1439998D01*
G01*
X61806000Y-72220200D02*
G75*
G03*
X61820642Y-73976094I1439998J-866000D01*
G01*
X64686000Y-73952200D02*
G75*
G03*
X64926098Y-73057526I-1440014J866003D01*
G01*
X64925999Y-73086200D02*
G75*
G03*
X64670720Y-72195936I-1679989J3D01*
G01*
X64136999Y-71661201D02*
G75*
G03*
X62355808Y-71660697I-890999J-1425002D01*
G01*
X64926000Y-69586200D02*
G75*
G03*
X64926000Y-69586200I-1680000J0D01*
G01*
X64926000Y-66086200D02*
G75*
G03*
X64926000Y-66086200I-1680000J0D01*
G01*
X64926000Y-62586200D02*
G75*
G03*
X64926000Y-62586200I-1680000J0D01*
G01*
X64926000Y-59086200D02*
G75*
G03*
X64926000Y-59086200I-1680000J0D01*
G01*
%TO.C,C6*%
X50741948Y-43359400D02*
X51264452Y-43359400D01*
X50741948Y-44829400D02*
X51264452Y-44829400D01*
%TO.C,C1*%
X41273400Y-51605548D02*
X41273400Y-52128052D01*
X39803400Y-51605548D02*
X39803400Y-52128052D01*
%TO.C,C8*%
X38361252Y-70585000D02*
X37838748Y-70585000D01*
X38361252Y-69115000D02*
X37838748Y-69115000D01*
%TO.C,D2*%
X54875200Y-59532800D02*
X51575200Y-59532800D01*
X54875200Y-59532800D02*
X54875200Y-65042800D01*
X51575200Y-59532800D02*
X51575200Y-65042800D01*
%TO.C,J3*%
X65116400Y-36820800D02*
X66446400Y-36820800D01*
X65116400Y-38150800D02*
X65116400Y-36820800D01*
X65116400Y-39420800D02*
X65116400Y-52180800D01*
X65116400Y-39420800D02*
X67776400Y-39420800D01*
X65116400Y-52180800D02*
X67776400Y-52180800D01*
X67776400Y-39420800D02*
X67776400Y-52180800D01*
%TO.C,R1*%
X53462458Y-68492900D02*
X52987942Y-68492900D01*
X53462458Y-67447900D02*
X52987942Y-67447900D01*
D15*
%TO.C,U1*%
X43502202Y-50657600D02*
X43502202Y-51126861D01*
X43502202Y-56772339D02*
X43502202Y-57241600D01*
X43502202Y-57241600D02*
X49136202Y-57241600D01*
X49136202Y-50657600D02*
X43502202Y-50657600D01*
X49136202Y-51126861D02*
X49136202Y-50657600D01*
X49136202Y-57241600D02*
X49136202Y-56772339D01*
G36*
X51127201Y-55765101D02*
G01*
X50873201Y-55765101D01*
X50873201Y-55384101D01*
X51127201Y-55384101D01*
X51127201Y-55765101D01*
G37*
%TO.C,C7*%
X49720500Y-72047100D02*
X48246640Y-72047100D01*
X46444560Y-72047100D02*
X44970700Y-72047100D01*
X44970700Y-72047100D02*
X44970700Y-76796900D01*
X49720500Y-76796900D02*
X49720500Y-72047100D01*
X48246640Y-76796900D02*
X49720500Y-76796900D01*
X44970700Y-76796900D02*
X46444560Y-76796900D01*
X47421800Y-70416801D02*
G75*
G03*
X47421800Y-70416801I-76200J0D01*
G01*
D13*
%TO.C,R2*%
X47925258Y-68492900D02*
X47450742Y-68492900D01*
X47925258Y-67447900D02*
X47450742Y-67447900D01*
D15*
%TO.C,C9*%
X40474900Y-72047100D02*
X39001040Y-72047100D01*
X37198960Y-72047100D02*
X35725100Y-72047100D01*
X35725100Y-72047100D02*
X35725100Y-76796900D01*
X40474900Y-76796900D02*
X40474900Y-72047100D01*
X39001040Y-76796900D02*
X40474900Y-76796900D01*
X35725100Y-76796900D02*
X37198960Y-76796900D01*
X38176200Y-70416801D02*
G75*
G03*
X38176200Y-70416801I-76200J0D01*
G01*
%TO.C,C5*%
X49979301Y-45224700D02*
X49979301Y-46698560D01*
X49979301Y-48500640D02*
X49979301Y-49974500D01*
X49979301Y-49974500D02*
X54729101Y-49974500D01*
X54729101Y-45224700D02*
X49979301Y-45224700D01*
X54729101Y-46698560D02*
X54729101Y-45224700D01*
X54729101Y-49974500D02*
X54729101Y-48500640D01*
X48425202Y-47599600D02*
G75*
G03*
X48425202Y-47599600I-76200J0D01*
G01*
D13*
%TO.C,J1*%
X40640000Y-42485000D02*
X27880000Y-42485000D01*
X40640000Y-42485000D02*
X40640000Y-45145000D01*
X27880000Y-42485000D02*
X27880000Y-45145000D01*
X43240000Y-43815000D02*
X43240000Y-45145000D01*
X43240000Y-45145000D02*
X41910000Y-45145000D01*
X40640000Y-45145000D02*
X27880000Y-45145000D01*
%TO.C,SW1*%
X49461400Y-33159200D02*
X49461400Y-34542200D01*
X49461400Y-33159200D02*
X50844400Y-33159200D01*
X49701400Y-33399200D02*
X49701400Y-34709200D01*
X49701400Y-33399200D02*
X56521400Y-33399200D01*
X49701400Y-36309200D02*
X49701400Y-37249200D01*
X49701400Y-38849200D02*
X49701400Y-40159200D01*
X49701400Y-40159200D02*
X56521400Y-40159200D01*
X51301400Y-34874200D02*
X51301400Y-36144200D01*
X51301400Y-34994200D02*
X52508067Y-34994200D01*
X51301400Y-35114200D02*
X52508067Y-35114200D01*
X51301400Y-35234200D02*
X52508067Y-35234200D01*
X51301400Y-35354200D02*
X52508067Y-35354200D01*
X51301400Y-35474200D02*
X52508067Y-35474200D01*
X51301400Y-35594200D02*
X52508067Y-35594200D01*
X51301400Y-35714200D02*
X52508067Y-35714200D01*
X51301400Y-35834200D02*
X52508067Y-35834200D01*
X51301400Y-35954200D02*
X52508067Y-35954200D01*
X51301400Y-36074200D02*
X52508067Y-36074200D01*
X51301400Y-36144200D02*
X54921400Y-36144200D01*
X51301400Y-37414200D02*
X51301400Y-38684200D01*
X51301400Y-37534200D02*
X52508067Y-37534200D01*
X51301400Y-37654200D02*
X52508067Y-37654200D01*
X51301400Y-37774200D02*
X52508067Y-37774200D01*
X51301400Y-37894200D02*
X52508067Y-37894200D01*
X51301400Y-38014200D02*
X52508067Y-38014200D01*
X51301400Y-38134200D02*
X52508067Y-38134200D01*
X51301400Y-38254200D02*
X52508067Y-38254200D01*
X51301400Y-38374200D02*
X52508067Y-38374200D01*
X51301400Y-38494200D02*
X52508067Y-38494200D01*
X51301400Y-38614200D02*
X52508067Y-38614200D01*
X51301400Y-38684200D02*
X54921400Y-38684200D01*
X52508067Y-34874200D02*
X52508067Y-36144200D01*
X52508067Y-37414200D02*
X52508067Y-38684200D01*
X54921400Y-34874200D02*
X51301400Y-34874200D01*
X54921400Y-36144200D02*
X54921400Y-34874200D01*
X54921400Y-37414200D02*
X51301400Y-37414200D01*
X54921400Y-38684200D02*
X54921400Y-37414200D01*
X56521400Y-33399200D02*
X56521400Y-34709200D01*
X56521400Y-36309200D02*
X56521400Y-37249200D01*
X56521400Y-38849200D02*
X56521400Y-40159200D01*
D15*
%TO.C,D1*%
X51231800Y-71005700D02*
X51231800Y-71638160D01*
X51231800Y-74564240D02*
X51231800Y-75196700D01*
X51231800Y-75196700D02*
X56057800Y-75196700D01*
X56057800Y-71005700D02*
X51231800Y-71005700D01*
X56057800Y-71638160D02*
X56057800Y-71005700D01*
X56057800Y-75196700D02*
X56057800Y-74564240D01*
%TO.C,REF\u002A\u002A*%
D16*
X34960071Y-49428245D02*
X35063804Y-49430982D01*
X35153177Y-49435241D01*
X35221762Y-49441017D01*
X35263133Y-49448305D01*
X35271746Y-49452677D01*
X35282069Y-49478808D01*
X35296828Y-49534179D01*
X35314288Y-49611465D01*
X35332716Y-49703342D01*
X35338677Y-49735414D01*
X35367002Y-49890048D01*
X35389812Y-50012197D01*
X35408016Y-50105899D01*
X35422519Y-50175188D01*
X35434228Y-50224101D01*
X35444051Y-50256675D01*
X35452892Y-50276944D01*
X35461660Y-50288946D01*
X35463393Y-50290625D01*
X35491307Y-50307388D01*
X35545631Y-50332958D01*
X35619713Y-50364784D01*
X35706901Y-50400312D01*
X35800544Y-50436989D01*
X35893988Y-50472261D01*
X35980583Y-50503576D01*
X36053676Y-50528379D01*
X36106614Y-50544118D01*
X36132747Y-50548240D01*
X36133662Y-50547896D01*
X36155022Y-50533931D01*
X36202020Y-50502250D01*
X36269763Y-50456181D01*
X36353359Y-50399054D01*
X36447918Y-50334199D01*
X36474790Y-50315729D01*
X36572211Y-50249873D01*
X36661099Y-50191922D01*
X36736348Y-50145034D01*
X36792856Y-50112365D01*
X36825517Y-50097072D01*
X36829529Y-50096331D01*
X36850620Y-50109180D01*
X36892400Y-50144684D01*
X36950381Y-50198279D01*
X37020071Y-50265401D01*
X37096981Y-50341485D01*
X37176619Y-50421968D01*
X37254497Y-50502285D01*
X37326122Y-50577873D01*
X37387006Y-50644167D01*
X37432657Y-50696603D01*
X37458586Y-50730617D01*
X37462819Y-50740027D01*
X37452848Y-50761929D01*
X37425956Y-50806772D01*
X37386672Y-50867251D01*
X37355053Y-50913783D01*
X37297034Y-50998097D01*
X37228720Y-51097946D01*
X37160515Y-51198099D01*
X37124011Y-51251945D01*
X37000736Y-51434201D01*
X37083456Y-51587191D01*
X37119695Y-51656890D01*
X37147862Y-51716158D01*
X37163927Y-51756261D01*
X37166162Y-51766469D01*
X37149658Y-51778743D01*
X37103018Y-51802959D01*
X37030545Y-51837309D01*
X36936542Y-51879984D01*
X36825310Y-51929178D01*
X36701151Y-51983082D01*
X36568368Y-52039888D01*
X36431263Y-52097790D01*
X36294138Y-52154979D01*
X36161294Y-52209648D01*
X36037034Y-52259988D01*
X35925661Y-52304192D01*
X35831475Y-52340453D01*
X35758780Y-52366963D01*
X35711877Y-52381914D01*
X35695769Y-52384318D01*
X35675222Y-52365261D01*
X35641869Y-52323536D01*
X35602638Y-52267866D01*
X35599535Y-52263194D01*
X35484359Y-52119308D01*
X35349989Y-52003289D01*
X35200720Y-51916142D01*
X35040849Y-51858873D01*
X34874673Y-51832486D01*
X34706488Y-51837987D01*
X34540591Y-51876382D01*
X34381278Y-51948677D01*
X34346423Y-51969946D01*
X34205673Y-52080576D01*
X34092650Y-52211270D01*
X34007939Y-52357508D01*
X33952130Y-52514764D01*
X33925810Y-52678515D01*
X33929566Y-52844239D01*
X33963986Y-53007410D01*
X34029659Y-53163507D01*
X34127171Y-53308005D01*
X34166749Y-53352703D01*
X34290639Y-53466460D01*
X34421060Y-53549354D01*
X34567251Y-53606216D01*
X34712024Y-53637885D01*
X34874796Y-53645703D01*
X35038376Y-53619634D01*
X35197234Y-53562327D01*
X35345842Y-53476428D01*
X35478671Y-53364586D01*
X35590192Y-53229449D01*
X35601947Y-53211689D01*
X35640444Y-53155422D01*
X35673799Y-53112649D01*
X35695096Y-53092200D01*
X35695769Y-53091903D01*
X35718807Y-53096293D01*
X35771093Y-53113696D01*
X35848326Y-53142304D01*
X35946204Y-53180307D01*
X36060427Y-53225898D01*
X36186694Y-53277269D01*
X36320703Y-53332610D01*
X36458154Y-53390114D01*
X36594744Y-53447971D01*
X36726173Y-53504374D01*
X36848141Y-53557514D01*
X36956345Y-53605582D01*
X37046485Y-53646771D01*
X37114259Y-53679271D01*
X37155366Y-53701275D01*
X37166162Y-53710136D01*
X37157755Y-53737212D01*
X37135208Y-53787875D01*
X37102549Y-53853389D01*
X37083456Y-53889413D01*
X37000736Y-54042404D01*
X37124011Y-54224660D01*
X37187164Y-54317697D01*
X37256663Y-54419557D01*
X37322101Y-54515010D01*
X37355053Y-54562822D01*
X37400209Y-54630067D01*
X37435993Y-54687008D01*
X37457874Y-54726218D01*
X37462499Y-54738953D01*
X37450021Y-54757489D01*
X37415188Y-54798513D01*
X37361614Y-54858047D01*
X37292919Y-54932114D01*
X37212717Y-55016737D01*
X37161222Y-55070257D01*
X37069222Y-55163891D01*
X36986935Y-55244813D01*
X36917881Y-55309749D01*
X36865580Y-55355430D01*
X36833552Y-55378583D01*
X36827052Y-55380804D01*
X36802330Y-55370496D01*
X36752341Y-55342011D01*
X36682148Y-55298509D01*
X36596811Y-55243149D01*
X36501392Y-55179092D01*
X36474790Y-55160875D01*
X36378103Y-55094499D01*
X36291053Y-55034950D01*
X36218531Y-54985556D01*
X36165429Y-54949647D01*
X36136639Y-54930553D01*
X36133662Y-54928708D01*
X36110718Y-54931467D01*
X36060272Y-54946110D01*
X35988977Y-54970085D01*
X35903483Y-55000838D01*
X35810443Y-55035816D01*
X35716510Y-55072465D01*
X35628335Y-55108233D01*
X35552570Y-55140566D01*
X35495867Y-55166910D01*
X35464879Y-55184714D01*
X35463393Y-55185979D01*
X35454537Y-55196866D01*
X35445779Y-55215254D01*
X35436213Y-55245178D01*
X35424932Y-55290675D01*
X35411029Y-55355781D01*
X35393599Y-55444533D01*
X35371734Y-55560965D01*
X35344527Y-55709114D01*
X35338677Y-55741190D01*
X35320310Y-55836258D01*
X35302341Y-55919137D01*
X35286505Y-55982502D01*
X35274536Y-56019030D01*
X35271746Y-56023928D01*
X35247008Y-56031999D01*
X35191726Y-56038559D01*
X35112325Y-56043605D01*
X35015232Y-56047131D01*
X34906874Y-56049133D01*
X34793676Y-56049608D01*
X34682064Y-56048549D01*
X34578465Y-56045954D01*
X34489304Y-56041818D01*
X34421008Y-56036135D01*
X34380002Y-56028903D01*
X34371610Y-56024543D01*
X34363144Y-56000270D01*
X34349371Y-55944998D01*
X34331486Y-55864234D01*
X34310684Y-55763484D01*
X34288159Y-55648255D01*
X34276354Y-55585474D01*
X34254087Y-55466359D01*
X34233915Y-55360137D01*
X34216851Y-55271999D01*
X34203905Y-55207138D01*
X34196091Y-55170746D01*
X34194358Y-55164756D01*
X34174826Y-55154633D01*
X34127779Y-55133234D01*
X34059939Y-55103411D01*
X33978027Y-55068017D01*
X33888764Y-55029904D01*
X33798871Y-54991925D01*
X33715071Y-54956932D01*
X33644083Y-54927778D01*
X33592630Y-54907315D01*
X33567433Y-54898395D01*
X33566332Y-54898229D01*
X33546455Y-54908341D01*
X33500713Y-54936689D01*
X33433653Y-54980295D01*
X33349820Y-55036178D01*
X33253762Y-55101359D01*
X33198586Y-55139251D01*
X33097417Y-55208297D01*
X33005566Y-55269622D01*
X32927680Y-55320235D01*
X32868405Y-55357143D01*
X32832387Y-55377354D01*
X32824313Y-55380273D01*
X32805520Y-55367725D01*
X32765393Y-55333035D01*
X32708429Y-55280635D01*
X32639121Y-55214956D01*
X32561967Y-55140428D01*
X32481461Y-55061485D01*
X32402099Y-54982555D01*
X32328376Y-54908072D01*
X32264788Y-54842466D01*
X32215830Y-54790168D01*
X32185997Y-54755611D01*
X32178878Y-54744050D01*
X32188889Y-54725226D01*
X32217014Y-54680203D01*
X32260390Y-54613359D01*
X32316154Y-54529071D01*
X32381442Y-54431716D01*
X32431182Y-54358279D01*
X32683487Y-53987239D01*
X32428491Y-53368667D01*
X31983867Y-53284847D01*
X31539243Y-53201026D01*
X31539243Y-52275578D01*
X31983867Y-52191758D01*
X32428491Y-52107937D01*
X32555989Y-51798652D01*
X32683487Y-51489366D01*
X32431182Y-51118326D01*
X32360932Y-51014415D01*
X32298208Y-50920485D01*
X32245874Y-50840920D01*
X32206793Y-50780102D01*
X32183829Y-50742415D01*
X32178878Y-50732151D01*
X32191612Y-50713662D01*
X32226818Y-50674152D01*
X32279998Y-50618050D01*
X32346654Y-50549785D01*
X32422290Y-50473786D01*
X32502408Y-50394480D01*
X32582510Y-50316297D01*
X32658100Y-50243665D01*
X32724681Y-50181013D01*
X32777754Y-50132769D01*
X32812823Y-50103362D01*
X32824559Y-50096331D01*
X32846196Y-50106449D01*
X32893598Y-50134813D01*
X32962129Y-50178443D01*
X33047151Y-50234354D01*
X33144029Y-50299566D01*
X33199286Y-50337353D01*
X33300184Y-50406229D01*
X33391235Y-50467432D01*
X33467906Y-50517994D01*
X33525664Y-50554944D01*
X33559979Y-50575314D01*
X33567190Y-50578375D01*
X33587684Y-50571436D01*
X33635449Y-50552521D01*
X33703768Y-50524485D01*
X33785925Y-50490181D01*
X33875206Y-50452463D01*
X33964894Y-50414185D01*
X34048274Y-50378202D01*
X34118630Y-50347366D01*
X34169246Y-50324533D01*
X34193407Y-50312555D01*
X34194358Y-50311848D01*
X34198972Y-50293041D01*
X34209264Y-50242954D01*
X34224223Y-50166779D01*
X34242837Y-50069707D01*
X34264095Y-49956929D01*
X34276354Y-49891130D01*
X34299298Y-49770622D01*
X34321131Y-49661775D01*
X34340658Y-49570096D01*
X34356684Y-49501091D01*
X34368015Y-49460268D01*
X34371610Y-49452061D01*
X34395942Y-49444024D01*
X34450895Y-49437539D01*
X34530044Y-49432602D01*
X34626962Y-49429208D01*
X34735223Y-49427354D01*
X34848401Y-49427034D01*
X34960071Y-49428245D01*
G36*
X34960071Y-49428245D02*
G01*
X35063804Y-49430982D01*
X35153177Y-49435241D01*
X35221762Y-49441017D01*
X35263133Y-49448305D01*
X35271746Y-49452677D01*
X35282069Y-49478808D01*
X35296828Y-49534179D01*
X35314288Y-49611465D01*
X35332716Y-49703342D01*
X35338677Y-49735414D01*
X35367002Y-49890048D01*
X35389812Y-50012197D01*
X35408016Y-50105899D01*
X35422519Y-50175188D01*
X35434228Y-50224101D01*
X35444051Y-50256675D01*
X35452892Y-50276944D01*
X35461660Y-50288946D01*
X35463393Y-50290625D01*
X35491307Y-50307388D01*
X35545631Y-50332958D01*
X35619713Y-50364784D01*
X35706901Y-50400312D01*
X35800544Y-50436989D01*
X35893988Y-50472261D01*
X35980583Y-50503576D01*
X36053676Y-50528379D01*
X36106614Y-50544118D01*
X36132747Y-50548240D01*
X36133662Y-50547896D01*
X36155022Y-50533931D01*
X36202020Y-50502250D01*
X36269763Y-50456181D01*
X36353359Y-50399054D01*
X36447918Y-50334199D01*
X36474790Y-50315729D01*
X36572211Y-50249873D01*
X36661099Y-50191922D01*
X36736348Y-50145034D01*
X36792856Y-50112365D01*
X36825517Y-50097072D01*
X36829529Y-50096331D01*
X36850620Y-50109180D01*
X36892400Y-50144684D01*
X36950381Y-50198279D01*
X37020071Y-50265401D01*
X37096981Y-50341485D01*
X37176619Y-50421968D01*
X37254497Y-50502285D01*
X37326122Y-50577873D01*
X37387006Y-50644167D01*
X37432657Y-50696603D01*
X37458586Y-50730617D01*
X37462819Y-50740027D01*
X37452848Y-50761929D01*
X37425956Y-50806772D01*
X37386672Y-50867251D01*
X37355053Y-50913783D01*
X37297034Y-50998097D01*
X37228720Y-51097946D01*
X37160515Y-51198099D01*
X37124011Y-51251945D01*
X37000736Y-51434201D01*
X37083456Y-51587191D01*
X37119695Y-51656890D01*
X37147862Y-51716158D01*
X37163927Y-51756261D01*
X37166162Y-51766469D01*
X37149658Y-51778743D01*
X37103018Y-51802959D01*
X37030545Y-51837309D01*
X36936542Y-51879984D01*
X36825310Y-51929178D01*
X36701151Y-51983082D01*
X36568368Y-52039888D01*
X36431263Y-52097790D01*
X36294138Y-52154979D01*
X36161294Y-52209648D01*
X36037034Y-52259988D01*
X35925661Y-52304192D01*
X35831475Y-52340453D01*
X35758780Y-52366963D01*
X35711877Y-52381914D01*
X35695769Y-52384318D01*
X35675222Y-52365261D01*
X35641869Y-52323536D01*
X35602638Y-52267866D01*
X35599535Y-52263194D01*
X35484359Y-52119308D01*
X35349989Y-52003289D01*
X35200720Y-51916142D01*
X35040849Y-51858873D01*
X34874673Y-51832486D01*
X34706488Y-51837987D01*
X34540591Y-51876382D01*
X34381278Y-51948677D01*
X34346423Y-51969946D01*
X34205673Y-52080576D01*
X34092650Y-52211270D01*
X34007939Y-52357508D01*
X33952130Y-52514764D01*
X33925810Y-52678515D01*
X33929566Y-52844239D01*
X33963986Y-53007410D01*
X34029659Y-53163507D01*
X34127171Y-53308005D01*
X34166749Y-53352703D01*
X34290639Y-53466460D01*
X34421060Y-53549354D01*
X34567251Y-53606216D01*
X34712024Y-53637885D01*
X34874796Y-53645703D01*
X35038376Y-53619634D01*
X35197234Y-53562327D01*
X35345842Y-53476428D01*
X35478671Y-53364586D01*
X35590192Y-53229449D01*
X35601947Y-53211689D01*
X35640444Y-53155422D01*
X35673799Y-53112649D01*
X35695096Y-53092200D01*
X35695769Y-53091903D01*
X35718807Y-53096293D01*
X35771093Y-53113696D01*
X35848326Y-53142304D01*
X35946204Y-53180307D01*
X36060427Y-53225898D01*
X36186694Y-53277269D01*
X36320703Y-53332610D01*
X36458154Y-53390114D01*
X36594744Y-53447971D01*
X36726173Y-53504374D01*
X36848141Y-53557514D01*
X36956345Y-53605582D01*
X37046485Y-53646771D01*
X37114259Y-53679271D01*
X37155366Y-53701275D01*
X37166162Y-53710136D01*
X37157755Y-53737212D01*
X37135208Y-53787875D01*
X37102549Y-53853389D01*
X37083456Y-53889413D01*
X37000736Y-54042404D01*
X37124011Y-54224660D01*
X37187164Y-54317697D01*
X37256663Y-54419557D01*
X37322101Y-54515010D01*
X37355053Y-54562822D01*
X37400209Y-54630067D01*
X37435993Y-54687008D01*
X37457874Y-54726218D01*
X37462499Y-54738953D01*
X37450021Y-54757489D01*
X37415188Y-54798513D01*
X37361614Y-54858047D01*
X37292919Y-54932114D01*
X37212717Y-55016737D01*
X37161222Y-55070257D01*
X37069222Y-55163891D01*
X36986935Y-55244813D01*
X36917881Y-55309749D01*
X36865580Y-55355430D01*
X36833552Y-55378583D01*
X36827052Y-55380804D01*
X36802330Y-55370496D01*
X36752341Y-55342011D01*
X36682148Y-55298509D01*
X36596811Y-55243149D01*
X36501392Y-55179092D01*
X36474790Y-55160875D01*
X36378103Y-55094499D01*
X36291053Y-55034950D01*
X36218531Y-54985556D01*
X36165429Y-54949647D01*
X36136639Y-54930553D01*
X36133662Y-54928708D01*
X36110718Y-54931467D01*
X36060272Y-54946110D01*
X35988977Y-54970085D01*
X35903483Y-55000838D01*
X35810443Y-55035816D01*
X35716510Y-55072465D01*
X35628335Y-55108233D01*
X35552570Y-55140566D01*
X35495867Y-55166910D01*
X35464879Y-55184714D01*
X35463393Y-55185979D01*
X35454537Y-55196866D01*
X35445779Y-55215254D01*
X35436213Y-55245178D01*
X35424932Y-55290675D01*
X35411029Y-55355781D01*
X35393599Y-55444533D01*
X35371734Y-55560965D01*
X35344527Y-55709114D01*
X35338677Y-55741190D01*
X35320310Y-55836258D01*
X35302341Y-55919137D01*
X35286505Y-55982502D01*
X35274536Y-56019030D01*
X35271746Y-56023928D01*
X35247008Y-56031999D01*
X35191726Y-56038559D01*
X35112325Y-56043605D01*
X35015232Y-56047131D01*
X34906874Y-56049133D01*
X34793676Y-56049608D01*
X34682064Y-56048549D01*
X34578465Y-56045954D01*
X34489304Y-56041818D01*
X34421008Y-56036135D01*
X34380002Y-56028903D01*
X34371610Y-56024543D01*
X34363144Y-56000270D01*
X34349371Y-55944998D01*
X34331486Y-55864234D01*
X34310684Y-55763484D01*
X34288159Y-55648255D01*
X34276354Y-55585474D01*
X34254087Y-55466359D01*
X34233915Y-55360137D01*
X34216851Y-55271999D01*
X34203905Y-55207138D01*
X34196091Y-55170746D01*
X34194358Y-55164756D01*
X34174826Y-55154633D01*
X34127779Y-55133234D01*
X34059939Y-55103411D01*
X33978027Y-55068017D01*
X33888764Y-55029904D01*
X33798871Y-54991925D01*
X33715071Y-54956932D01*
X33644083Y-54927778D01*
X33592630Y-54907315D01*
X33567433Y-54898395D01*
X33566332Y-54898229D01*
X33546455Y-54908341D01*
X33500713Y-54936689D01*
X33433653Y-54980295D01*
X33349820Y-55036178D01*
X33253762Y-55101359D01*
X33198586Y-55139251D01*
X33097417Y-55208297D01*
X33005566Y-55269622D01*
X32927680Y-55320235D01*
X32868405Y-55357143D01*
X32832387Y-55377354D01*
X32824313Y-55380273D01*
X32805520Y-55367725D01*
X32765393Y-55333035D01*
X32708429Y-55280635D01*
X32639121Y-55214956D01*
X32561967Y-55140428D01*
X32481461Y-55061485D01*
X32402099Y-54982555D01*
X32328376Y-54908072D01*
X32264788Y-54842466D01*
X32215830Y-54790168D01*
X32185997Y-54755611D01*
X32178878Y-54744050D01*
X32188889Y-54725226D01*
X32217014Y-54680203D01*
X32260390Y-54613359D01*
X32316154Y-54529071D01*
X32381442Y-54431716D01*
X32431182Y-54358279D01*
X32683487Y-53987239D01*
X32428491Y-53368667D01*
X31983867Y-53284847D01*
X31539243Y-53201026D01*
X31539243Y-52275578D01*
X31983867Y-52191758D01*
X32428491Y-52107937D01*
X32555989Y-51798652D01*
X32683487Y-51489366D01*
X32431182Y-51118326D01*
X32360932Y-51014415D01*
X32298208Y-50920485D01*
X32245874Y-50840920D01*
X32206793Y-50780102D01*
X32183829Y-50742415D01*
X32178878Y-50732151D01*
X32191612Y-50713662D01*
X32226818Y-50674152D01*
X32279998Y-50618050D01*
X32346654Y-50549785D01*
X32422290Y-50473786D01*
X32502408Y-50394480D01*
X32582510Y-50316297D01*
X32658100Y-50243665D01*
X32724681Y-50181013D01*
X32777754Y-50132769D01*
X32812823Y-50103362D01*
X32824559Y-50096331D01*
X32846196Y-50106449D01*
X32893598Y-50134813D01*
X32962129Y-50178443D01*
X33047151Y-50234354D01*
X33144029Y-50299566D01*
X33199286Y-50337353D01*
X33300184Y-50406229D01*
X33391235Y-50467432D01*
X33467906Y-50517994D01*
X33525664Y-50554944D01*
X33559979Y-50575314D01*
X33567190Y-50578375D01*
X33587684Y-50571436D01*
X33635449Y-50552521D01*
X33703768Y-50524485D01*
X33785925Y-50490181D01*
X33875206Y-50452463D01*
X33964894Y-50414185D01*
X34048274Y-50378202D01*
X34118630Y-50347366D01*
X34169246Y-50324533D01*
X34193407Y-50312555D01*
X34194358Y-50311848D01*
X34198972Y-50293041D01*
X34209264Y-50242954D01*
X34224223Y-50166779D01*
X34242837Y-50069707D01*
X34264095Y-49956929D01*
X34276354Y-49891130D01*
X34299298Y-49770622D01*
X34321131Y-49661775D01*
X34340658Y-49570096D01*
X34356684Y-49501091D01*
X34368015Y-49460268D01*
X34371610Y-49452061D01*
X34395942Y-49444024D01*
X34450895Y-49437539D01*
X34530044Y-49432602D01*
X34626962Y-49429208D01*
X34735223Y-49427354D01*
X34848401Y-49427034D01*
X34960071Y-49428245D01*
G37*
D13*
%TO.C,D3*%
X49338000Y-59532800D02*
X46038000Y-59532800D01*
X49338000Y-59532800D02*
X49338000Y-65042800D01*
X46038000Y-59532800D02*
X46038000Y-65042800D01*
%TO.C,D4*%
X43649400Y-59532800D02*
X40349400Y-59532800D01*
X43649400Y-59532800D02*
X43649400Y-65042800D01*
X40349400Y-59532800D02*
X40349400Y-65042800D01*
%TO.C,C4*%
X47977652Y-50265000D02*
X47455148Y-50265000D01*
X47977652Y-48795000D02*
X47455148Y-48795000D01*
%TO.C,R3*%
X42236658Y-68492900D02*
X41762142Y-68492900D01*
X42236658Y-67447900D02*
X41762142Y-67447900D01*
%TD*%
%LPC*%
D17*
%TO.C,C2*%
X40538400Y-54320400D03*
X40538400Y-56220400D03*
%TD*%
D18*
%TO.C,U2*%
X43672801Y-71624599D03*
X42722800Y-71624599D03*
X41772802Y-71624599D03*
X41772802Y-74374599D03*
X43672801Y-74374599D03*
%TD*%
D19*
%TO.C,C3*%
X43296800Y-49530000D03*
X45196800Y-49530000D03*
%TD*%
D20*
%TO.C,J2*%
X63246000Y-73086200D03*
D21*
X63246000Y-69586200D03*
X63246000Y-66086200D03*
X63246000Y-62586200D03*
X63246000Y-59086200D03*
%TD*%
D19*
%TO.C,C6*%
X50053200Y-44094400D03*
X51953200Y-44094400D03*
%TD*%
D17*
%TO.C,C1*%
X40538400Y-50916800D03*
X40538400Y-52816800D03*
%TD*%
D22*
%TO.C,C8*%
X39050000Y-69850000D03*
X37150000Y-69850000D03*
%TD*%
D23*
%TO.C,D2*%
X53225200Y-61042800D03*
X53225200Y-65042800D03*
%TD*%
D24*
%TO.C,J3*%
X66446400Y-38150800D03*
D25*
X66446400Y-40690800D03*
X66446400Y-43230800D03*
X66446400Y-45770800D03*
X66446400Y-48310800D03*
X66446400Y-50850800D03*
%TD*%
D26*
%TO.C,REF\u002A\u002A*%
X65302800Y-78475200D03*
%TD*%
D27*
%TO.C,R1*%
X54050200Y-67970400D03*
X52400200Y-67970400D03*
%TD*%
D28*
%TO.C,U1*%
X42824203Y-51674601D03*
X42824203Y-52324599D03*
X42824203Y-52974601D03*
X42824203Y-53624599D03*
X42824203Y-54274598D03*
X42824203Y-54924599D03*
X42824203Y-55574598D03*
X42824203Y-56224599D03*
X49814201Y-56224599D03*
X49814201Y-55574601D03*
X49814201Y-54924599D03*
X49814201Y-54274601D03*
X49814201Y-53624602D03*
X49814201Y-52974601D03*
X49814201Y-52324602D03*
X49814201Y-51674601D03*
%TD*%
D29*
%TO.C,C7*%
X47345600Y-72267801D03*
X47345600Y-76576199D03*
%TD*%
D27*
%TO.C,R2*%
X48513000Y-67970400D03*
X46863000Y-67970400D03*
%TD*%
D29*
%TO.C,C9*%
X38100000Y-72267801D03*
X38100000Y-76576199D03*
%TD*%
D30*
%TO.C,C5*%
X50200002Y-47599600D03*
X54508400Y-47599600D03*
%TD*%
D24*
%TO.C,J1*%
X41910000Y-43815000D03*
D25*
X39370000Y-43815000D03*
X36830000Y-43815000D03*
X34290000Y-43815000D03*
X31750000Y-43815000D03*
X29210000Y-43815000D03*
%TD*%
D31*
%TO.C,SW1*%
X48806400Y-35509200D03*
X48806400Y-38049200D03*
X57416400Y-38049200D03*
X57416400Y-35509200D03*
%TD*%
D32*
%TO.C,D1*%
X51435000Y-73101200D03*
X55854600Y-73101200D03*
%TD*%
D26*
%TO.C,REF\u002A\u002A*%
X65302800Y-30312800D03*
%TD*%
D23*
%TO.C,D3*%
X47688000Y-61042800D03*
X47688000Y-65042800D03*
%TD*%
%TO.C,D4*%
X41999400Y-61042800D03*
X41999400Y-65042800D03*
%TD*%
D22*
%TO.C,C4*%
X48666400Y-49530000D03*
X46766400Y-49530000D03*
%TD*%
D26*
%TO.C,REF\u002A\u002A*%
X30302800Y-78475200D03*
%TD*%
D27*
%TO.C,R3*%
X42824400Y-67970400D03*
X41174400Y-67970400D03*
%TD*%
D26*
%TO.C,REF\u002A\u002A*%
X30302800Y-30312800D03*
%TD*%
%LPD*%
M02*
