%TF.GenerationSoftware,KiCad,Pcbnew,7.0.9*%
%TF.CreationDate,2024-01-09T17:40:00-08:00*%
%TF.ProjectId,RS-232 Logger,52532d32-3332-4204-9c6f-676765722e6b,rev?*%
%TF.SameCoordinates,Original*%
%TF.FileFunction,Copper,L2,Bot*%
%TF.FilePolarity,Positive*%
%FSLAX46Y46*%
G04 Gerber Fmt 4.6, Leading zero omitted, Abs format (unit mm)*
G04 Created by KiCad (PCBNEW 7.0.9) date 2024-01-09 17:40:00*
%MOMM*%
%LPD*%
G01*
G04 APERTURE LIST*
%TA.AperFunction,ComponentPad*%
%ADD10R,2.400000X2.400000*%
%TD*%
%TA.AperFunction,ComponentPad*%
%ADD11C,2.400000*%
%TD*%
%TA.AperFunction,ComponentPad*%
%ADD12R,1.700000X1.700000*%
%TD*%
%TA.AperFunction,ComponentPad*%
%ADD13O,1.700000X1.700000*%
%TD*%
%TA.AperFunction,ViaPad*%
%ADD14C,0.800000*%
%TD*%
%TA.AperFunction,Conductor*%
%ADD15C,0.250000*%
%TD*%
G04 APERTURE END LIST*
D10*
%TO.P,J2,1,Pin_1*%
%TO.N,GND*%
X63246000Y-73086200D03*
D11*
%TO.P,J2,2,Pin_2*%
%TO.N,/VIN*%
X63246000Y-69586200D03*
%TO.P,J2,3,Pin_3*%
%TO.N,Net-(J2-Pin_3)*%
X63246000Y-66086200D03*
%TO.P,J2,4,Pin_4*%
%TO.N,Net-(J2-Pin_4)*%
X63246000Y-62586200D03*
%TO.P,J2,5,Pin_5*%
%TO.N,Net-(J2-Pin_5)*%
X63246000Y-59086200D03*
%TD*%
D12*
%TO.P,J3,1,Pin_1*%
%TO.N,GND*%
X66446400Y-38150800D03*
D13*
%TO.P,J3,2,Pin_2*%
X66446400Y-40690800D03*
%TO.P,J3,3,Pin_3*%
%TO.N,+3.3V*%
X66446400Y-43230800D03*
%TO.P,J3,4,Pin_4*%
%TO.N,/LOG_RX*%
X66446400Y-45770800D03*
%TO.P,J3,5,Pin_5*%
%TO.N,/LOG_TX*%
X66446400Y-48310800D03*
%TO.P,J3,6,Pin_6*%
%TO.N,/LOG_DTR*%
X66446400Y-50850800D03*
%TD*%
D12*
%TO.P,J1,1,Pin_1*%
%TO.N,GND*%
X41910000Y-43815000D03*
D13*
%TO.P,J1,2,Pin_2*%
X39370000Y-43815000D03*
%TO.P,J1,3,Pin_3*%
%TO.N,+3.3V*%
X36830000Y-43815000D03*
%TO.P,J1,4,Pin_4*%
%TO.N,/LOG_TX*%
X34290000Y-43815000D03*
%TO.P,J1,5,Pin_5*%
%TO.N,/LOG_RX*%
X31750000Y-43815000D03*
%TO.P,J1,6,Pin_6*%
%TO.N,/LOG_DTR*%
X29210000Y-43815000D03*
%TD*%
D14*
%TO.N,GND*%
X47447200Y-44500800D03*
X46075600Y-58420000D03*
X43637200Y-58420000D03*
%TO.N,/LOG_DTR*%
X49834800Y-57150000D03*
%TO.N,Net-(J2-Pin_5)*%
X43891200Y-67970400D03*
%TO.N,+3.3V*%
X50038000Y-41198800D03*
%TD*%
D15*
%TO.N,/LOG_TX*%
X66446400Y-48310800D02*
X64370800Y-46235200D01*
X36710200Y-46235200D02*
X34290000Y-43815000D01*
X64370800Y-46235200D02*
X36710200Y-46235200D01*
%TO.N,/LOG_RX*%
X63315600Y-42640000D02*
X32925000Y-42640000D01*
X66446400Y-45770800D02*
X63315600Y-42640000D01*
X32925000Y-42640000D02*
X31750000Y-43815000D01*
%TO.N,/LOG_DTR*%
X66446400Y-50850800D02*
X56134000Y-50850800D01*
X56134000Y-50850800D02*
X49834800Y-57150000D01*
X32080200Y-46685200D02*
X29210000Y-43815000D01*
X49834800Y-57150000D02*
X49022000Y-57150000D01*
X49022000Y-57150000D02*
X38557200Y-46685200D01*
X38557200Y-46685200D02*
X32080200Y-46685200D01*
%TO.N,Net-(J2-Pin_5)*%
X43891200Y-67970400D02*
X46668800Y-65192800D01*
X57139400Y-65192800D02*
X63246000Y-59086200D01*
X46668800Y-65192800D02*
X57139400Y-65192800D01*
%TO.N,+3.3V*%
X50038000Y-41198800D02*
X64414400Y-41198800D01*
X64414400Y-41198800D02*
X66446400Y-43230800D01*
%TD*%
%TA.AperFunction,Conductor*%
%TO.N,GND*%
G36*
X63072187Y-43285185D02*
G01*
X63092829Y-43301819D01*
X65106161Y-45315152D01*
X65139646Y-45376475D01*
X65138255Y-45434924D01*
X65111337Y-45535389D01*
X65111337Y-45535390D01*
X65090741Y-45770799D01*
X65090741Y-45771188D01*
X65090692Y-45771353D01*
X65090269Y-45776194D01*
X65089296Y-45776108D01*
X65071056Y-45838227D01*
X65018252Y-45883982D01*
X64949094Y-45893926D01*
X64885538Y-45864901D01*
X64879060Y-45858869D01*
X64871603Y-45851412D01*
X64861780Y-45839150D01*
X64861559Y-45839334D01*
X64856586Y-45833323D01*
X64806164Y-45785973D01*
X64790990Y-45770799D01*
X64785275Y-45765083D01*
X64779786Y-45760825D01*
X64775361Y-45757047D01*
X64741382Y-45725138D01*
X64741380Y-45725136D01*
X64741377Y-45725135D01*
X64723829Y-45715488D01*
X64707563Y-45704804D01*
X64691733Y-45692525D01*
X64648968Y-45674018D01*
X64643722Y-45671448D01*
X64602893Y-45649003D01*
X64602892Y-45649002D01*
X64583493Y-45644022D01*
X64565081Y-45637718D01*
X64546698Y-45629762D01*
X64546692Y-45629760D01*
X64500674Y-45622472D01*
X64494952Y-45621287D01*
X64449821Y-45609700D01*
X64449819Y-45609700D01*
X64429784Y-45609700D01*
X64410386Y-45608173D01*
X64402962Y-45606997D01*
X64390605Y-45605040D01*
X64390604Y-45605040D01*
X64344216Y-45609425D01*
X64338378Y-45609700D01*
X37020652Y-45609700D01*
X36953613Y-45590015D01*
X36932971Y-45573381D01*
X36741930Y-45382340D01*
X36708445Y-45321017D01*
X36713429Y-45251325D01*
X36755301Y-45195392D01*
X36820765Y-45170975D01*
X36829611Y-45170659D01*
X36830001Y-45170659D01*
X36894681Y-45165000D01*
X37065408Y-45150063D01*
X37293663Y-45088903D01*
X37507830Y-44989035D01*
X37701401Y-44853495D01*
X37868495Y-44686401D01*
X37998730Y-44500405D01*
X38053307Y-44456781D01*
X38122805Y-44449587D01*
X38185160Y-44481110D01*
X38201879Y-44500405D01*
X38331890Y-44686078D01*
X38498917Y-44853105D01*
X38692421Y-44988600D01*
X38906507Y-45088429D01*
X38906516Y-45088433D01*
X39120000Y-45145634D01*
X39120000Y-44250501D01*
X39227685Y-44299680D01*
X39334237Y-44315000D01*
X39405763Y-44315000D01*
X39512315Y-44299680D01*
X39620000Y-44250501D01*
X39620000Y-45145633D01*
X39833483Y-45088433D01*
X39833492Y-45088429D01*
X40047578Y-44988600D01*
X40241078Y-44853108D01*
X40363521Y-44730665D01*
X40424844Y-44697180D01*
X40494536Y-44702164D01*
X40550470Y-44744035D01*
X40567385Y-44775013D01*
X40616645Y-44907086D01*
X40616649Y-44907093D01*
X40702809Y-45022187D01*
X40702812Y-45022190D01*
X40817906Y-45108350D01*
X40817913Y-45108354D01*
X40952620Y-45158596D01*
X40952627Y-45158598D01*
X41012155Y-45164999D01*
X41012172Y-45165000D01*
X41660000Y-45165000D01*
X41660000Y-44250501D01*
X41767685Y-44299680D01*
X41874237Y-44315000D01*
X41945763Y-44315000D01*
X42052315Y-44299680D01*
X42160000Y-44250501D01*
X42160000Y-45165000D01*
X42807828Y-45165000D01*
X42807844Y-45164999D01*
X42867372Y-45158598D01*
X42867379Y-45158596D01*
X43002086Y-45108354D01*
X43002093Y-45108350D01*
X43117187Y-45022190D01*
X43117190Y-45022187D01*
X43203350Y-44907093D01*
X43203354Y-44907086D01*
X43253596Y-44772379D01*
X43253598Y-44772372D01*
X43259999Y-44712844D01*
X43260000Y-44712827D01*
X43260000Y-44065000D01*
X42343686Y-44065000D01*
X42369493Y-44024844D01*
X42410000Y-43886889D01*
X42410000Y-43743111D01*
X42369493Y-43605156D01*
X42343686Y-43565000D01*
X43260000Y-43565000D01*
X43260000Y-43389500D01*
X43279685Y-43322461D01*
X43332489Y-43276706D01*
X43384000Y-43265500D01*
X63005148Y-43265500D01*
X63072187Y-43285185D01*
G37*
%TD.AperFunction*%
%TA.AperFunction,Conductor*%
G36*
X41450507Y-43605156D02*
G01*
X41410000Y-43743111D01*
X41410000Y-43886889D01*
X41450507Y-44024844D01*
X41476314Y-44065000D01*
X39803686Y-44065000D01*
X39829493Y-44024844D01*
X39870000Y-43886889D01*
X39870000Y-43743111D01*
X39829493Y-43605156D01*
X39803686Y-43565000D01*
X41476314Y-43565000D01*
X41450507Y-43605156D01*
G37*
%TD.AperFunction*%
%TA.AperFunction,Conductor*%
G36*
X66696400Y-40255298D02*
G01*
X66588715Y-40206120D01*
X66482163Y-40190800D01*
X66410637Y-40190800D01*
X66304085Y-40206120D01*
X66196400Y-40255298D01*
X66196400Y-38586301D01*
X66304085Y-38635480D01*
X66410637Y-38650800D01*
X66482163Y-38650800D01*
X66588715Y-38635480D01*
X66696400Y-38586301D01*
X66696400Y-40255298D01*
G37*
%TD.AperFunction*%
%TA.AperFunction,Conductor*%
G36*
X68015039Y-27451685D02*
G01*
X68060794Y-27504489D01*
X68072000Y-27556000D01*
X68072000Y-81025438D01*
X68052315Y-81092477D01*
X68035681Y-81113119D01*
X68006719Y-81142081D01*
X67945396Y-81175566D01*
X67919038Y-81178400D01*
X27556000Y-81178400D01*
X27488961Y-81158715D01*
X27443206Y-81105911D01*
X27432000Y-81054400D01*
X27432000Y-78475200D01*
X28947141Y-78475200D01*
X28967736Y-78710603D01*
X28967738Y-78710613D01*
X29028894Y-78938855D01*
X29028896Y-78938859D01*
X29028897Y-78938863D01*
X29078831Y-79045946D01*
X29128764Y-79153028D01*
X29128765Y-79153030D01*
X29264305Y-79346602D01*
X29431397Y-79513694D01*
X29624969Y-79649234D01*
X29624971Y-79649235D01*
X29839137Y-79749103D01*
X30067392Y-79810263D01*
X30243834Y-79825700D01*
X30361766Y-79825700D01*
X30538208Y-79810263D01*
X30766463Y-79749103D01*
X30980629Y-79649235D01*
X31174201Y-79513695D01*
X31341295Y-79346601D01*
X31476835Y-79153030D01*
X31576703Y-78938863D01*
X31637863Y-78710608D01*
X31658459Y-78475200D01*
X63947141Y-78475200D01*
X63967736Y-78710603D01*
X63967738Y-78710613D01*
X64028894Y-78938855D01*
X64028896Y-78938859D01*
X64028897Y-78938863D01*
X64078831Y-79045946D01*
X64128764Y-79153028D01*
X64128765Y-79153030D01*
X64264305Y-79346602D01*
X64431397Y-79513694D01*
X64624969Y-79649234D01*
X64624971Y-79649235D01*
X64839137Y-79749103D01*
X65067392Y-79810263D01*
X65243834Y-79825700D01*
X65361766Y-79825700D01*
X65538208Y-79810263D01*
X65766463Y-79749103D01*
X65980629Y-79649235D01*
X66174201Y-79513695D01*
X66341295Y-79346601D01*
X66476835Y-79153030D01*
X66576703Y-78938863D01*
X66637863Y-78710608D01*
X66658459Y-78475200D01*
X66637863Y-78239792D01*
X66576703Y-78011537D01*
X66476835Y-77797371D01*
X66476834Y-77797369D01*
X66341294Y-77603797D01*
X66174202Y-77436705D01*
X65980630Y-77301165D01*
X65980628Y-77301164D01*
X65873546Y-77251231D01*
X65766463Y-77201297D01*
X65766459Y-77201296D01*
X65766455Y-77201294D01*
X65538213Y-77140138D01*
X65538203Y-77140136D01*
X65361766Y-77124700D01*
X65243834Y-77124700D01*
X65067396Y-77140136D01*
X65067386Y-77140138D01*
X64839144Y-77201294D01*
X64839135Y-77201298D01*
X64624971Y-77301164D01*
X64624969Y-77301165D01*
X64431397Y-77436705D01*
X64264306Y-77603797D01*
X64264301Y-77603804D01*
X64128767Y-77797365D01*
X64128765Y-77797369D01*
X64028898Y-78011535D01*
X64028894Y-78011544D01*
X63967738Y-78239786D01*
X63967736Y-78239796D01*
X63947141Y-78475199D01*
X63947141Y-78475200D01*
X31658459Y-78475200D01*
X31637863Y-78239792D01*
X31576703Y-78011537D01*
X31476835Y-77797371D01*
X31476834Y-77797369D01*
X31341294Y-77603797D01*
X31174202Y-77436705D01*
X30980630Y-77301165D01*
X30980628Y-77301164D01*
X30873546Y-77251231D01*
X30766463Y-77201297D01*
X30766459Y-77201296D01*
X30766455Y-77201294D01*
X30538213Y-77140138D01*
X30538203Y-77140136D01*
X30361766Y-77124700D01*
X30243834Y-77124700D01*
X30067396Y-77140136D01*
X30067386Y-77140138D01*
X29839144Y-77201294D01*
X29839135Y-77201298D01*
X29624971Y-77301164D01*
X29624969Y-77301165D01*
X29431397Y-77436705D01*
X29264306Y-77603797D01*
X29264301Y-77603804D01*
X29128767Y-77797365D01*
X29128765Y-77797369D01*
X29028898Y-78011535D01*
X29028894Y-78011544D01*
X28967738Y-78239786D01*
X28967736Y-78239796D01*
X28947141Y-78475199D01*
X28947141Y-78475200D01*
X27432000Y-78475200D01*
X27432000Y-67970400D01*
X42985740Y-67970400D01*
X43005526Y-68158656D01*
X43005527Y-68158659D01*
X43064018Y-68338677D01*
X43064021Y-68338684D01*
X43158667Y-68502616D01*
X43269392Y-68625588D01*
X43285329Y-68643288D01*
X43438465Y-68754548D01*
X43438470Y-68754551D01*
X43611392Y-68831542D01*
X43611397Y-68831544D01*
X43796554Y-68870900D01*
X43796555Y-68870900D01*
X43985844Y-68870900D01*
X43985846Y-68870900D01*
X44171003Y-68831544D01*
X44343930Y-68754551D01*
X44497071Y-68643288D01*
X44623733Y-68502616D01*
X44718379Y-68338684D01*
X44776874Y-68158656D01*
X44794521Y-67990745D01*
X44821105Y-67926132D01*
X44830152Y-67916036D01*
X46891571Y-65854619D01*
X46952894Y-65821134D01*
X46979252Y-65818300D01*
X57056657Y-65818300D01*
X57072277Y-65820024D01*
X57072304Y-65819739D01*
X57080060Y-65820471D01*
X57080067Y-65820473D01*
X57149214Y-65818300D01*
X57178750Y-65818300D01*
X57185628Y-65817430D01*
X57191441Y-65816972D01*
X57238027Y-65815509D01*
X57257269Y-65809917D01*
X57276312Y-65805974D01*
X57296192Y-65803464D01*
X57339522Y-65786307D01*
X57345046Y-65784417D01*
X57348796Y-65783327D01*
X57389790Y-65771418D01*
X57407029Y-65761222D01*
X57424503Y-65752662D01*
X57443127Y-65745288D01*
X57443127Y-65745287D01*
X57443132Y-65745286D01*
X57480849Y-65717882D01*
X57485705Y-65714692D01*
X57525820Y-65690970D01*
X57539989Y-65676799D01*
X57554779Y-65664168D01*
X57570987Y-65652394D01*
X57600699Y-65616476D01*
X57604612Y-65612176D01*
X61508579Y-61708209D01*
X61569900Y-61674726D01*
X61639592Y-61679710D01*
X61695525Y-61721582D01*
X61719942Y-61787046D01*
X61709598Y-61841325D01*
X61711302Y-61841994D01*
X61616492Y-62083562D01*
X61616490Y-62083569D01*
X61559777Y-62332045D01*
X61540732Y-62586195D01*
X61540732Y-62586204D01*
X61559777Y-62840354D01*
X61559778Y-62840357D01*
X61616492Y-63088837D01*
X61709607Y-63326088D01*
X61837041Y-63546812D01*
X61995950Y-63746077D01*
X62182783Y-63919432D01*
X62393366Y-64063005D01*
X62393371Y-64063007D01*
X62393372Y-64063008D01*
X62393373Y-64063009D01*
X62515328Y-64121738D01*
X62622992Y-64173587D01*
X62622993Y-64173587D01*
X62622996Y-64173589D01*
X62729360Y-64206397D01*
X62766029Y-64217709D01*
X62824288Y-64256280D01*
X62852446Y-64320224D01*
X62841562Y-64389241D01*
X62795093Y-64441418D01*
X62766029Y-64454691D01*
X62622992Y-64498812D01*
X62393373Y-64609390D01*
X62393372Y-64609391D01*
X62393366Y-64609394D01*
X62393366Y-64609395D01*
X62368639Y-64626253D01*
X62182782Y-64752968D01*
X61995952Y-64926321D01*
X61995950Y-64926323D01*
X61837041Y-65125588D01*
X61709608Y-65346309D01*
X61616492Y-65583562D01*
X61616490Y-65583569D01*
X61559777Y-65832045D01*
X61540732Y-66086195D01*
X61540732Y-66086204D01*
X61559777Y-66340354D01*
X61559778Y-66340357D01*
X61616492Y-66588837D01*
X61709607Y-66826088D01*
X61837041Y-67046812D01*
X61995950Y-67246077D01*
X62182783Y-67419432D01*
X62393366Y-67563005D01*
X62393371Y-67563007D01*
X62393372Y-67563008D01*
X62393373Y-67563009D01*
X62474593Y-67602122D01*
X62622992Y-67673587D01*
X62622993Y-67673587D01*
X62622996Y-67673589D01*
X62729360Y-67706397D01*
X62766029Y-67717709D01*
X62824288Y-67756280D01*
X62852446Y-67820224D01*
X62841562Y-67889241D01*
X62795093Y-67941418D01*
X62766029Y-67954691D01*
X62622992Y-67998812D01*
X62393373Y-68109390D01*
X62393372Y-68109391D01*
X62182782Y-68252968D01*
X61995952Y-68426321D01*
X61995950Y-68426323D01*
X61837041Y-68625588D01*
X61709608Y-68846309D01*
X61616492Y-69083562D01*
X61616490Y-69083569D01*
X61559777Y-69332045D01*
X61540732Y-69586195D01*
X61540732Y-69586204D01*
X61559777Y-69840354D01*
X61559778Y-69840357D01*
X61616492Y-70088837D01*
X61709607Y-70326088D01*
X61837041Y-70546812D01*
X61995950Y-70746077D01*
X62182783Y-70919432D01*
X62393366Y-71063005D01*
X62393369Y-71063006D01*
X62393370Y-71063007D01*
X62575010Y-71150480D01*
X62626869Y-71197302D01*
X62645182Y-71264729D01*
X62624134Y-71331353D01*
X62570408Y-71376022D01*
X62521208Y-71386200D01*
X61998155Y-71386200D01*
X61938627Y-71392601D01*
X61938620Y-71392603D01*
X61803913Y-71442845D01*
X61803906Y-71442849D01*
X61688812Y-71529009D01*
X61688809Y-71529012D01*
X61602649Y-71644106D01*
X61602645Y-71644113D01*
X61552403Y-71778820D01*
X61552401Y-71778827D01*
X61546000Y-71838355D01*
X61546000Y-72836200D01*
X62700118Y-72836200D01*
X62661444Y-72929569D01*
X62640823Y-73086200D01*
X62661444Y-73242831D01*
X62700118Y-73336200D01*
X61546000Y-73336200D01*
X61546000Y-74334044D01*
X61552401Y-74393572D01*
X61552403Y-74393579D01*
X61602645Y-74528286D01*
X61602649Y-74528293D01*
X61688809Y-74643387D01*
X61688812Y-74643390D01*
X61803906Y-74729550D01*
X61803913Y-74729554D01*
X61938620Y-74779796D01*
X61938627Y-74779798D01*
X61998155Y-74786199D01*
X61998172Y-74786200D01*
X62996000Y-74786200D01*
X62996000Y-73632081D01*
X63089369Y-73670756D01*
X63206677Y-73686200D01*
X63285323Y-73686200D01*
X63402631Y-73670756D01*
X63496000Y-73632081D01*
X63496000Y-74786200D01*
X64493828Y-74786200D01*
X64493844Y-74786199D01*
X64553372Y-74779798D01*
X64553379Y-74779796D01*
X64688086Y-74729554D01*
X64688093Y-74729550D01*
X64803187Y-74643390D01*
X64803190Y-74643387D01*
X64889350Y-74528293D01*
X64889354Y-74528286D01*
X64939596Y-74393579D01*
X64939598Y-74393572D01*
X64945999Y-74334044D01*
X64946000Y-74334027D01*
X64946000Y-73336200D01*
X63791882Y-73336200D01*
X63830556Y-73242831D01*
X63851177Y-73086200D01*
X63830556Y-72929569D01*
X63791882Y-72836200D01*
X64946000Y-72836200D01*
X64946000Y-71838372D01*
X64945999Y-71838355D01*
X64939598Y-71778827D01*
X64939596Y-71778820D01*
X64889354Y-71644113D01*
X64889350Y-71644106D01*
X64803190Y-71529012D01*
X64803187Y-71529009D01*
X64688093Y-71442849D01*
X64688086Y-71442845D01*
X64553379Y-71392603D01*
X64553372Y-71392601D01*
X64493844Y-71386200D01*
X63970792Y-71386200D01*
X63903753Y-71366515D01*
X63857998Y-71313711D01*
X63848054Y-71244553D01*
X63877079Y-71180997D01*
X63916990Y-71150480D01*
X64098634Y-71063005D01*
X64309217Y-70919432D01*
X64496050Y-70746077D01*
X64654959Y-70546812D01*
X64782393Y-70326088D01*
X64875508Y-70088837D01*
X64932222Y-69840357D01*
X64951268Y-69586200D01*
X64932222Y-69332043D01*
X64875508Y-69083563D01*
X64782393Y-68846312D01*
X64654959Y-68625588D01*
X64496050Y-68426323D01*
X64309217Y-68252968D01*
X64098634Y-68109395D01*
X64098630Y-68109393D01*
X64098627Y-68109391D01*
X64098626Y-68109390D01*
X63869006Y-67998812D01*
X63869008Y-67998812D01*
X63725970Y-67954691D01*
X63667711Y-67916121D01*
X63639553Y-67852176D01*
X63650437Y-67783159D01*
X63696906Y-67730982D01*
X63725970Y-67717709D01*
X63869004Y-67673589D01*
X64098634Y-67563005D01*
X64309217Y-67419432D01*
X64496050Y-67246077D01*
X64654959Y-67046812D01*
X64782393Y-66826088D01*
X64875508Y-66588837D01*
X64932222Y-66340357D01*
X64951268Y-66086200D01*
X64932222Y-65832043D01*
X64875508Y-65583563D01*
X64782393Y-65346312D01*
X64654959Y-65125588D01*
X64496050Y-64926323D01*
X64309217Y-64752968D01*
X64098634Y-64609395D01*
X64098630Y-64609393D01*
X64098627Y-64609391D01*
X64098626Y-64609390D01*
X63869006Y-64498812D01*
X63869008Y-64498812D01*
X63725970Y-64454691D01*
X63667711Y-64416121D01*
X63639553Y-64352176D01*
X63650437Y-64283159D01*
X63696906Y-64230982D01*
X63725970Y-64217709D01*
X63869004Y-64173589D01*
X64098634Y-64063005D01*
X64309217Y-63919432D01*
X64496050Y-63746077D01*
X64654959Y-63546812D01*
X64782393Y-63326088D01*
X64875508Y-63088837D01*
X64932222Y-62840357D01*
X64951268Y-62586200D01*
X64932222Y-62332043D01*
X64875508Y-62083563D01*
X64782393Y-61846312D01*
X64654959Y-61625588D01*
X64496050Y-61426323D01*
X64309217Y-61252968D01*
X64098634Y-61109395D01*
X64098630Y-61109393D01*
X64098627Y-61109391D01*
X64098626Y-61109390D01*
X63869006Y-60998812D01*
X63869008Y-60998812D01*
X63725970Y-60954691D01*
X63667711Y-60916121D01*
X63639553Y-60852176D01*
X63650437Y-60783159D01*
X63696906Y-60730982D01*
X63725970Y-60717709D01*
X63869004Y-60673589D01*
X64098634Y-60563005D01*
X64309217Y-60419432D01*
X64496050Y-60246077D01*
X64654959Y-60046812D01*
X64782393Y-59826088D01*
X64875508Y-59588837D01*
X64932222Y-59340357D01*
X64951268Y-59086200D01*
X64932222Y-58832043D01*
X64875508Y-58583563D01*
X64782393Y-58346312D01*
X64654959Y-58125588D01*
X64496050Y-57926323D01*
X64309217Y-57752968D01*
X64098634Y-57609395D01*
X64098630Y-57609393D01*
X64098627Y-57609391D01*
X64098626Y-57609390D01*
X63869006Y-57498812D01*
X63869008Y-57498812D01*
X63625466Y-57423689D01*
X63625462Y-57423688D01*
X63625458Y-57423687D01*
X63504231Y-57405414D01*
X63373440Y-57385700D01*
X63373435Y-57385700D01*
X63118565Y-57385700D01*
X63118559Y-57385700D01*
X62961609Y-57409357D01*
X62866542Y-57423687D01*
X62866539Y-57423688D01*
X62866533Y-57423689D01*
X62622992Y-57498812D01*
X62393373Y-57609390D01*
X62393372Y-57609391D01*
X62182782Y-57752968D01*
X61995952Y-57926321D01*
X61995950Y-57926323D01*
X61837041Y-58125588D01*
X61709608Y-58346309D01*
X61616492Y-58583562D01*
X61616490Y-58583569D01*
X61559777Y-58832045D01*
X61540732Y-59086195D01*
X61540732Y-59086204D01*
X61559777Y-59340354D01*
X61559778Y-59340357D01*
X61616492Y-59588837D01*
X61644032Y-59659008D01*
X61655118Y-59687255D01*
X61661286Y-59756851D01*
X61628847Y-59818735D01*
X61627370Y-59820237D01*
X56916628Y-64530981D01*
X56855305Y-64564466D01*
X56828947Y-64567300D01*
X46751543Y-64567300D01*
X46735922Y-64565575D01*
X46735895Y-64565861D01*
X46728133Y-64565126D01*
X46658972Y-64567300D01*
X46629449Y-64567300D01*
X46622578Y-64568167D01*
X46616759Y-64568625D01*
X46570174Y-64570089D01*
X46570168Y-64570090D01*
X46550926Y-64575680D01*
X46531887Y-64579623D01*
X46512017Y-64582134D01*
X46512003Y-64582137D01*
X46468683Y-64599288D01*
X46463158Y-64601180D01*
X46418413Y-64614180D01*
X46418410Y-64614181D01*
X46401166Y-64624379D01*
X46383705Y-64632933D01*
X46365074Y-64640310D01*
X46365062Y-64640317D01*
X46327370Y-64667702D01*
X46322487Y-64670909D01*
X46282380Y-64694629D01*
X46268214Y-64708795D01*
X46253424Y-64721427D01*
X46237214Y-64733204D01*
X46237211Y-64733207D01*
X46207510Y-64769109D01*
X46203577Y-64773431D01*
X43943428Y-67033581D01*
X43882105Y-67067066D01*
X43855747Y-67069900D01*
X43796554Y-67069900D01*
X43764097Y-67076798D01*
X43611397Y-67109255D01*
X43611392Y-67109257D01*
X43438470Y-67186248D01*
X43438465Y-67186251D01*
X43285329Y-67297511D01*
X43158666Y-67438185D01*
X43064021Y-67602115D01*
X43064018Y-67602122D01*
X43005527Y-67782140D01*
X43005526Y-67782144D01*
X42985740Y-67970400D01*
X27432000Y-67970400D01*
X27432000Y-43815000D01*
X27854341Y-43815000D01*
X27874936Y-44050403D01*
X27874938Y-44050413D01*
X27936094Y-44278655D01*
X27936096Y-44278659D01*
X27936097Y-44278663D01*
X28016004Y-44450023D01*
X28035965Y-44492830D01*
X28035967Y-44492834D01*
X28074454Y-44547798D01*
X28171505Y-44686401D01*
X28338599Y-44853495D01*
X28404154Y-44899397D01*
X28532165Y-44989032D01*
X28532167Y-44989033D01*
X28532170Y-44989035D01*
X28746337Y-45088903D01*
X28746343Y-45088904D01*
X28746344Y-45088905D01*
X28761519Y-45092971D01*
X28974592Y-45150063D01*
X29145319Y-45165000D01*
X29209999Y-45170659D01*
X29210000Y-45170659D01*
X29210001Y-45170659D01*
X29274681Y-45165000D01*
X29445408Y-45150063D01*
X29545873Y-45123143D01*
X29615722Y-45124806D01*
X29665647Y-45155237D01*
X31579394Y-47068984D01*
X31589219Y-47081248D01*
X31589440Y-47081066D01*
X31594410Y-47087073D01*
X31594413Y-47087076D01*
X31594414Y-47087077D01*
X31644851Y-47134441D01*
X31665730Y-47155320D01*
X31671204Y-47159566D01*
X31675642Y-47163356D01*
X31709618Y-47195262D01*
X31709622Y-47195264D01*
X31727173Y-47204913D01*
X31743431Y-47215592D01*
X31759264Y-47227874D01*
X31781215Y-47237372D01*
X31802037Y-47246383D01*
X31807281Y-47248952D01*
X31848108Y-47271397D01*
X31867512Y-47276379D01*
X31885910Y-47282678D01*
X31904305Y-47290638D01*
X31950329Y-47297926D01*
X31956032Y-47299107D01*
X32001181Y-47310700D01*
X32021216Y-47310700D01*
X32040613Y-47312226D01*
X32060396Y-47315360D01*
X32106784Y-47310975D01*
X32112622Y-47310700D01*
X38246748Y-47310700D01*
X38313787Y-47330385D01*
X38334429Y-47347019D01*
X48521197Y-57533788D01*
X48531022Y-57546051D01*
X48531243Y-57545869D01*
X48536214Y-57551878D01*
X48562217Y-57576295D01*
X48586635Y-57599226D01*
X48607529Y-57620120D01*
X48613011Y-57624373D01*
X48617443Y-57628157D01*
X48651418Y-57660062D01*
X48668976Y-57669714D01*
X48685235Y-57680395D01*
X48701064Y-57692673D01*
X48743838Y-57711182D01*
X48749056Y-57713738D01*
X48789908Y-57736197D01*
X48809316Y-57741180D01*
X48827717Y-57747480D01*
X48846104Y-57755437D01*
X48889488Y-57762308D01*
X48892119Y-57762725D01*
X48897839Y-57763909D01*
X48942981Y-57775500D01*
X48963016Y-57775500D01*
X48982414Y-57777026D01*
X49002194Y-57780159D01*
X49002195Y-57780160D01*
X49002195Y-57780159D01*
X49002196Y-57780160D01*
X49048584Y-57775775D01*
X49054422Y-57775500D01*
X49131052Y-57775500D01*
X49198091Y-57795185D01*
X49223200Y-57816526D01*
X49228926Y-57822885D01*
X49228930Y-57822889D01*
X49382065Y-57934148D01*
X49382070Y-57934151D01*
X49554992Y-58011142D01*
X49554997Y-58011144D01*
X49740154Y-58050500D01*
X49740155Y-58050500D01*
X49929444Y-58050500D01*
X49929446Y-58050500D01*
X50114603Y-58011144D01*
X50287530Y-57934151D01*
X50440671Y-57822888D01*
X50567333Y-57682216D01*
X50661979Y-57518284D01*
X50720474Y-57338256D01*
X50738121Y-57170345D01*
X50764705Y-57105732D01*
X50773752Y-57095636D01*
X56356772Y-51512619D01*
X56418095Y-51479134D01*
X56444453Y-51476300D01*
X65171173Y-51476300D01*
X65238212Y-51495985D01*
X65272748Y-51529177D01*
X65407900Y-51722195D01*
X65407905Y-51722201D01*
X65574999Y-51889295D01*
X65671784Y-51957065D01*
X65768565Y-52024832D01*
X65768567Y-52024833D01*
X65768570Y-52024835D01*
X65982737Y-52124703D01*
X66210992Y-52185863D01*
X66399318Y-52202339D01*
X66446399Y-52206459D01*
X66446400Y-52206459D01*
X66446401Y-52206459D01*
X66485634Y-52203026D01*
X66681808Y-52185863D01*
X66910063Y-52124703D01*
X67124230Y-52024835D01*
X67317801Y-51889295D01*
X67484895Y-51722201D01*
X67620435Y-51528630D01*
X67720303Y-51314463D01*
X67781463Y-51086208D01*
X67802059Y-50850800D01*
X67781463Y-50615392D01*
X67720303Y-50387137D01*
X67620435Y-50172971D01*
X67620052Y-50172423D01*
X67484894Y-49979397D01*
X67317802Y-49812306D01*
X67317796Y-49812301D01*
X67132242Y-49682375D01*
X67088617Y-49627798D01*
X67081423Y-49558300D01*
X67112946Y-49495945D01*
X67132242Y-49479225D01*
X67154426Y-49463691D01*
X67317801Y-49349295D01*
X67484895Y-49182201D01*
X67620435Y-48988630D01*
X67720303Y-48774463D01*
X67781463Y-48546208D01*
X67802059Y-48310800D01*
X67781463Y-48075392D01*
X67720303Y-47847137D01*
X67620435Y-47632971D01*
X67484895Y-47439399D01*
X67484894Y-47439397D01*
X67317802Y-47272306D01*
X67317796Y-47272301D01*
X67132242Y-47142375D01*
X67088617Y-47087798D01*
X67081423Y-47018300D01*
X67112946Y-46955945D01*
X67132242Y-46939225D01*
X67216274Y-46880385D01*
X67317801Y-46809295D01*
X67484895Y-46642201D01*
X67620435Y-46448630D01*
X67720303Y-46234463D01*
X67781463Y-46006208D01*
X67802059Y-45770800D01*
X67781463Y-45535392D01*
X67720303Y-45307137D01*
X67620435Y-45092971D01*
X67617586Y-45088901D01*
X67484894Y-44899397D01*
X67317802Y-44732306D01*
X67317796Y-44732301D01*
X67132242Y-44602375D01*
X67088617Y-44547798D01*
X67081423Y-44478300D01*
X67112946Y-44415945D01*
X67132242Y-44399225D01*
X67154426Y-44383691D01*
X67317801Y-44269295D01*
X67484895Y-44102201D01*
X67620435Y-43908630D01*
X67720303Y-43694463D01*
X67781463Y-43466208D01*
X67802059Y-43230800D01*
X67781463Y-42995392D01*
X67720303Y-42767137D01*
X67620435Y-42552971D01*
X67612122Y-42541098D01*
X67484894Y-42359397D01*
X67317802Y-42192306D01*
X67317801Y-42192305D01*
X67131805Y-42062069D01*
X67088181Y-42007492D01*
X67080988Y-41937993D01*
X67112510Y-41875639D01*
X67131805Y-41858919D01*
X67317482Y-41728905D01*
X67484505Y-41561882D01*
X67620000Y-41368378D01*
X67719829Y-41154292D01*
X67719832Y-41154286D01*
X67777036Y-40940800D01*
X66880086Y-40940800D01*
X66905893Y-40900644D01*
X66946400Y-40762689D01*
X66946400Y-40618911D01*
X66905893Y-40480956D01*
X66880086Y-40440800D01*
X67777036Y-40440800D01*
X67777035Y-40440799D01*
X67719832Y-40227313D01*
X67719829Y-40227307D01*
X67620000Y-40013222D01*
X67619999Y-40013220D01*
X67484513Y-39819726D01*
X67484508Y-39819720D01*
X67362065Y-39697277D01*
X67328580Y-39635954D01*
X67333564Y-39566262D01*
X67375436Y-39510329D01*
X67406413Y-39493414D01*
X67538486Y-39444154D01*
X67538493Y-39444150D01*
X67653587Y-39357990D01*
X67653590Y-39357987D01*
X67739750Y-39242893D01*
X67739754Y-39242886D01*
X67789996Y-39108179D01*
X67789998Y-39108172D01*
X67796399Y-39048644D01*
X67796400Y-39048627D01*
X67796400Y-38400800D01*
X66880086Y-38400800D01*
X66905893Y-38360644D01*
X66946400Y-38222689D01*
X66946400Y-38078911D01*
X66905893Y-37940956D01*
X66880086Y-37900800D01*
X67796400Y-37900800D01*
X67796400Y-37252972D01*
X67796399Y-37252955D01*
X67789998Y-37193427D01*
X67789996Y-37193420D01*
X67739754Y-37058713D01*
X67739750Y-37058706D01*
X67653590Y-36943612D01*
X67653587Y-36943609D01*
X67538493Y-36857449D01*
X67538486Y-36857445D01*
X67403779Y-36807203D01*
X67403772Y-36807201D01*
X67344244Y-36800800D01*
X66696400Y-36800800D01*
X66696400Y-37715298D01*
X66588715Y-37666120D01*
X66482163Y-37650800D01*
X66410637Y-37650800D01*
X66304085Y-37666120D01*
X66196400Y-37715298D01*
X66196400Y-36800800D01*
X65548555Y-36800800D01*
X65489027Y-36807201D01*
X65489020Y-36807203D01*
X65354313Y-36857445D01*
X65354306Y-36857449D01*
X65239212Y-36943609D01*
X65239209Y-36943612D01*
X65153049Y-37058706D01*
X65153045Y-37058713D01*
X65102803Y-37193420D01*
X65102801Y-37193427D01*
X65096400Y-37252955D01*
X65096400Y-37900800D01*
X66012714Y-37900800D01*
X65986907Y-37940956D01*
X65946400Y-38078911D01*
X65946400Y-38222689D01*
X65986907Y-38360644D01*
X66012714Y-38400800D01*
X65096400Y-38400800D01*
X65096400Y-39048644D01*
X65102801Y-39108172D01*
X65102803Y-39108179D01*
X65153045Y-39242886D01*
X65153049Y-39242893D01*
X65239209Y-39357987D01*
X65239212Y-39357990D01*
X65354306Y-39444150D01*
X65354313Y-39444154D01*
X65486386Y-39493414D01*
X65542320Y-39535285D01*
X65566737Y-39600749D01*
X65551886Y-39669022D01*
X65530735Y-39697277D01*
X65408286Y-39819726D01*
X65272800Y-40013220D01*
X65272799Y-40013222D01*
X65172970Y-40227307D01*
X65172967Y-40227313D01*
X65115764Y-40440799D01*
X65115764Y-40440800D01*
X66012714Y-40440800D01*
X65986907Y-40480956D01*
X65946400Y-40618911D01*
X65946400Y-40762689D01*
X65986907Y-40900644D01*
X66012714Y-40940800D01*
X65092353Y-40940800D01*
X65025314Y-40921115D01*
X65004672Y-40904481D01*
X64915203Y-40815012D01*
X64905380Y-40802750D01*
X64905159Y-40802934D01*
X64900186Y-40796923D01*
X64849764Y-40749573D01*
X64839319Y-40739128D01*
X64828875Y-40728683D01*
X64823386Y-40724425D01*
X64818961Y-40720647D01*
X64784982Y-40688738D01*
X64784980Y-40688736D01*
X64784977Y-40688735D01*
X64767429Y-40679088D01*
X64751163Y-40668404D01*
X64735333Y-40656125D01*
X64692568Y-40637618D01*
X64687322Y-40635048D01*
X64646493Y-40612603D01*
X64646492Y-40612602D01*
X64627093Y-40607622D01*
X64608681Y-40601318D01*
X64590298Y-40593362D01*
X64590292Y-40593360D01*
X64544274Y-40586072D01*
X64538552Y-40584887D01*
X64493421Y-40573300D01*
X64493419Y-40573300D01*
X64473384Y-40573300D01*
X64453986Y-40571773D01*
X64446562Y-40570597D01*
X64434205Y-40568640D01*
X64434204Y-40568640D01*
X64387816Y-40573025D01*
X64381978Y-40573300D01*
X50741748Y-40573300D01*
X50674709Y-40553615D01*
X50649600Y-40532274D01*
X50643873Y-40525914D01*
X50643869Y-40525910D01*
X50490734Y-40414651D01*
X50490729Y-40414648D01*
X50317807Y-40337657D01*
X50317802Y-40337655D01*
X50172001Y-40306665D01*
X50132646Y-40298300D01*
X49943354Y-40298300D01*
X49910897Y-40305198D01*
X49758197Y-40337655D01*
X49758192Y-40337657D01*
X49585270Y-40414648D01*
X49585265Y-40414651D01*
X49432129Y-40525911D01*
X49305466Y-40666585D01*
X49210821Y-40830515D01*
X49210818Y-40830522D01*
X49181383Y-40921115D01*
X49152326Y-41010544D01*
X49132540Y-41198800D01*
X49152326Y-41387056D01*
X49152327Y-41387059D01*
X49210818Y-41567077D01*
X49210821Y-41567084D01*
X49305467Y-41731016D01*
X49374359Y-41807528D01*
X49404589Y-41870519D01*
X49395964Y-41939854D01*
X49351223Y-41993520D01*
X49284570Y-42014478D01*
X49282209Y-42014500D01*
X33007743Y-42014500D01*
X32992122Y-42012775D01*
X32992096Y-42013061D01*
X32984334Y-42012327D01*
X32984333Y-42012327D01*
X32915186Y-42014500D01*
X32885649Y-42014500D01*
X32878766Y-42015369D01*
X32872949Y-42015826D01*
X32826373Y-42017290D01*
X32807129Y-42022881D01*
X32788079Y-42026825D01*
X32768211Y-42029334D01*
X32724884Y-42046488D01*
X32719358Y-42048379D01*
X32674614Y-42061379D01*
X32674610Y-42061381D01*
X32657366Y-42071579D01*
X32639905Y-42080133D01*
X32621274Y-42087510D01*
X32621262Y-42087517D01*
X32583570Y-42114902D01*
X32578687Y-42118109D01*
X32538580Y-42141829D01*
X32524414Y-42155995D01*
X32509624Y-42168627D01*
X32493414Y-42180404D01*
X32493411Y-42180407D01*
X32463710Y-42216309D01*
X32459777Y-42220631D01*
X32205646Y-42474762D01*
X32144323Y-42508247D01*
X32085872Y-42506856D01*
X31985413Y-42479938D01*
X31985403Y-42479936D01*
X31750001Y-42459341D01*
X31749999Y-42459341D01*
X31514596Y-42479936D01*
X31514586Y-42479938D01*
X31286344Y-42541094D01*
X31286335Y-42541098D01*
X31072171Y-42640964D01*
X31072169Y-42640965D01*
X30878597Y-42776505D01*
X30711505Y-42943597D01*
X30581575Y-43129158D01*
X30526998Y-43172783D01*
X30457500Y-43179977D01*
X30395145Y-43148454D01*
X30378425Y-43129158D01*
X30248494Y-42943597D01*
X30081402Y-42776506D01*
X30081395Y-42776501D01*
X30079468Y-42775152D01*
X30042521Y-42749281D01*
X29887834Y-42640967D01*
X29887830Y-42640965D01*
X29887828Y-42640964D01*
X29673663Y-42541097D01*
X29673659Y-42541096D01*
X29673655Y-42541094D01*
X29445413Y-42479938D01*
X29445403Y-42479936D01*
X29210001Y-42459341D01*
X29209999Y-42459341D01*
X28974596Y-42479936D01*
X28974586Y-42479938D01*
X28746344Y-42541094D01*
X28746335Y-42541098D01*
X28532171Y-42640964D01*
X28532169Y-42640965D01*
X28338597Y-42776505D01*
X28171505Y-42943597D01*
X28035965Y-43137169D01*
X28035964Y-43137171D01*
X27936098Y-43351335D01*
X27936094Y-43351344D01*
X27874938Y-43579586D01*
X27874936Y-43579596D01*
X27854341Y-43814999D01*
X27854341Y-43815000D01*
X27432000Y-43815000D01*
X27432000Y-30312800D01*
X28947141Y-30312800D01*
X28967736Y-30548203D01*
X28967738Y-30548213D01*
X29028894Y-30776455D01*
X29028896Y-30776459D01*
X29028897Y-30776463D01*
X29078831Y-30883546D01*
X29128764Y-30990628D01*
X29128765Y-30990630D01*
X29264305Y-31184202D01*
X29431397Y-31351294D01*
X29624969Y-31486834D01*
X29624971Y-31486835D01*
X29839137Y-31586703D01*
X30067392Y-31647863D01*
X30243834Y-31663300D01*
X30361766Y-31663300D01*
X30538208Y-31647863D01*
X30766463Y-31586703D01*
X30980629Y-31486835D01*
X31174201Y-31351295D01*
X31341295Y-31184201D01*
X31476835Y-30990630D01*
X31576703Y-30776463D01*
X31637863Y-30548208D01*
X31658459Y-30312800D01*
X63947141Y-30312800D01*
X63967736Y-30548203D01*
X63967738Y-30548213D01*
X64028894Y-30776455D01*
X64028896Y-30776459D01*
X64028897Y-30776463D01*
X64078831Y-30883546D01*
X64128764Y-30990628D01*
X64128765Y-30990630D01*
X64264305Y-31184202D01*
X64431397Y-31351294D01*
X64624969Y-31486834D01*
X64624971Y-31486835D01*
X64839137Y-31586703D01*
X65067392Y-31647863D01*
X65243834Y-31663300D01*
X65361766Y-31663300D01*
X65538208Y-31647863D01*
X65766463Y-31586703D01*
X65980629Y-31486835D01*
X66174201Y-31351295D01*
X66341295Y-31184201D01*
X66476835Y-30990630D01*
X66576703Y-30776463D01*
X66637863Y-30548208D01*
X66658459Y-30312800D01*
X66637863Y-30077392D01*
X66576703Y-29849137D01*
X66476835Y-29634971D01*
X66476834Y-29634969D01*
X66341294Y-29441397D01*
X66174202Y-29274305D01*
X65980630Y-29138765D01*
X65980628Y-29138764D01*
X65873546Y-29088831D01*
X65766463Y-29038897D01*
X65766459Y-29038896D01*
X65766455Y-29038894D01*
X65538213Y-28977738D01*
X65538203Y-28977736D01*
X65361766Y-28962300D01*
X65243834Y-28962300D01*
X65067396Y-28977736D01*
X65067386Y-28977738D01*
X64839144Y-29038894D01*
X64839135Y-29038898D01*
X64624971Y-29138764D01*
X64624969Y-29138765D01*
X64431397Y-29274305D01*
X64264306Y-29441397D01*
X64264301Y-29441404D01*
X64128767Y-29634965D01*
X64128765Y-29634969D01*
X64028898Y-29849135D01*
X64028894Y-29849144D01*
X63967738Y-30077386D01*
X63967736Y-30077396D01*
X63947141Y-30312799D01*
X63947141Y-30312800D01*
X31658459Y-30312800D01*
X31637863Y-30077392D01*
X31576703Y-29849137D01*
X31476835Y-29634971D01*
X31476834Y-29634969D01*
X31341294Y-29441397D01*
X31174202Y-29274305D01*
X30980630Y-29138765D01*
X30980628Y-29138764D01*
X30873546Y-29088831D01*
X30766463Y-29038897D01*
X30766459Y-29038896D01*
X30766455Y-29038894D01*
X30538213Y-28977738D01*
X30538203Y-28977736D01*
X30361766Y-28962300D01*
X30243834Y-28962300D01*
X30067396Y-28977736D01*
X30067386Y-28977738D01*
X29839144Y-29038894D01*
X29839135Y-29038898D01*
X29624971Y-29138764D01*
X29624969Y-29138765D01*
X29431397Y-29274305D01*
X29264306Y-29441397D01*
X29264301Y-29441404D01*
X29128767Y-29634965D01*
X29128765Y-29634969D01*
X29028898Y-29849135D01*
X29028894Y-29849144D01*
X28967738Y-30077386D01*
X28967736Y-30077396D01*
X28947141Y-30312799D01*
X28947141Y-30312800D01*
X27432000Y-30312800D01*
X27432000Y-27556000D01*
X27451685Y-27488961D01*
X27504489Y-27443206D01*
X27556000Y-27432000D01*
X67948000Y-27432000D01*
X68015039Y-27451685D01*
G37*
%TD.AperFunction*%
%TD*%
M02*
